<svg width="1278" height="500" viewBox="0 0 1278 500" fill="none" xmlns="http://www.w3.org/2000/svg">
<g clip-path="url(#clip0)">
<path d="M172.823 368.296C172.823 360.554 172.823 351.844 172.823 344.102C172.823 340.231 171.856 339.263 167.985 337.328C132.178 324.747 109.919 299.585 104.113 261.843C95.403 206.681 134.113 160.229 185.404 153.454C236.695 147.648 280.244 178.616 290.89 228.94C300.567 274.424 274.438 319.908 227.986 337.328C224.115 338.296 223.147 340.231 223.147 343.135C223.147 359.587 223.147 376.038 223.147 391.522C223.147 395.393 224.115 397.329 227.986 394.426C264.76 375.07 301.535 356.683 338.31 338.296C343.148 335.393 345.084 331.521 345.084 326.683C345.084 317.973 345.084 310.231 345.084 301.521C345.084 298.618 346.052 296.683 349.923 296.683C363.471 296.683 377.988 296.683 391.536 296.683C394.439 296.683 396.375 296.682 396.375 300.553C395.407 313.134 397.343 326.683 395.407 339.263C392.504 358.619 381.859 373.135 364.439 381.845C317.987 406.039 271.534 429.265 225.082 453.458C207.662 462.168 189.275 463.136 170.888 454.427C127.339 432.168 83.7899 409.91 40.2409 387.651C28.6278 381.845 17.9826 375.071 10.2405 364.425C3.46623 354.748 -0.404847 344.102 -0.404847 333.457C-1.3726 322.812 -0.404847 312.166 -0.404847 300.553C-0.404847 297.65 0.562849 296.683 3.46612 296.683C17.9825 296.683 32.4988 296.683 47.0151 296.683C49.9184 296.683 50.8862 297.65 50.8862 300.553C50.8862 309.263 50.8862 317.973 50.8862 326.683C50.8862 331.521 52.8217 335.392 57.6605 337.328C94.4352 355.715 131.21 375.071 167.017 393.458C171.856 396.361 172.823 395.393 172.823 389.587C171.856 384.748 172.823 376.038 172.823 368.296ZM197.985 204.746C173.791 204.746 154.436 224.101 154.436 249.262C154.436 272.488 174.759 291.844 197.985 291.844C222.179 291.844 240.566 272.488 240.566 247.327C241.534 224.101 221.211 204.746 197.985 204.746Z" fill="white"/>
<path d="M484.44 381.846C492.182 360.556 498.957 339.265 505.731 318.942C526.054 260.877 545.409 201.844 565.732 143.778C570.571 129.262 581.216 120.552 596.7 118.617C610.249 116.681 622.829 121.52 631.539 132.166C637.346 138.94 639.281 147.649 641.217 155.391C666.378 228.941 691.54 302.49 715.734 376.04C717.669 382.814 717.669 382.814 710.895 382.814C697.347 382.814 683.798 382.814 670.249 382.814C664.443 382.814 661.54 380.879 660.572 375.072C656.701 359.588 651.862 344.104 647.023 328.62C646.055 324.749 645.088 323.781 641.217 324.749C615.087 332.491 588.958 332.491 562.829 324.749C557.99 322.813 556.054 324.749 555.086 329.587C550.248 345.071 545.409 361.524 540.57 377.008C539.602 378.943 539.602 381.846 535.731 381.846C519.28 381.846 501.86 381.846 484.44 381.846ZM601.539 287.007C610.249 287.007 619.926 286.039 628.636 283.135C631.539 282.168 633.475 281.2 632.507 277.329C623.797 247.329 614.12 217.328 605.41 187.327C605.41 185.392 604.442 183.457 602.506 183.457C600.571 183.457 599.603 185.392 599.603 187.327C597.668 193.134 595.732 199.908 593.797 206.682C587.022 229.908 579.281 253.135 572.506 276.361C571.538 280.232 572.506 282.168 576.377 283.135C584.119 285.071 592.829 286.039 601.539 287.007Z" fill="white"/>
<path d="M25.7244 202.813C18.9501 202.813 11.2081 202.813 4.43381 202.813C2.4983 202.813 0.562851 202.813 0.562851 199.91C1.53061 185.393 -1.37269 170.877 2.49833 156.361C6.36935 138.941 17.0146 125.392 33.4665 116.682C78.951 92.4884 125.403 69.2624 170.888 46.0362C188.307 37.3264 207.662 36.3589 225.082 45.0687C264.76 65.3916 304.438 85.7143 344.116 106.037C354.761 110.876 365.407 115.715 374.117 122.489C388.633 134.102 396.375 148.618 397.343 167.006C398.31 177.651 397.343 187.329 397.343 197.974C397.343 201.845 396.375 202.813 392.504 202.813C378.955 202.813 365.407 202.813 351.858 202.813C347.019 202.813 346.051 200.877 347.019 197.006C347.019 189.264 347.019 180.554 347.019 172.812C347.019 167.973 345.084 164.102 340.245 162.167C295.728 138.941 251.211 116.683 205.727 93.4565C200.888 90.5532 197.017 91.521 192.178 93.4565C147.662 116.683 103.145 138.941 58.6282 161.199C53.7894 164.103 50.886 167.005 51.8538 172.812C51.8538 181.522 51.8538 189.264 51.8538 197.974C51.8538 200.877 50.886 202.813 47.015 202.813C39.273 202.813 32.4987 202.813 25.7244 202.813Z" fill="white"/>
<path d="M1137.68 381.853C1119.29 381.853 1102.84 381.853 1085.42 381.853C1082.51 381.853 1081.55 379.917 1079.61 377.981C1059.29 348.949 1038.96 320.884 1019.61 291.852C1018.64 290.884 1017.67 289.916 1016.71 287.98C1014.77 289.916 1015.74 291.851 1015.74 292.819C1015.74 319.916 1015.74 347.013 1015.74 375.078C1015.74 379.917 1014.77 381.853 1009.93 381.853C997.351 381.853 985.738 381.853 973.157 381.853C968.318 381.853 966.383 380.885 966.383 375.078C966.383 313.142 966.383 250.238 966.383 188.302C966.383 166.043 966.383 144.753 966.383 122.494C966.383 117.656 967.351 116.688 972.189 116.688C984.77 116.688 997.351 116.688 1009.93 116.688C1014.77 116.688 1015.74 118.623 1015.74 122.494C1015.74 165.076 1015.74 207.656 1015.74 250.238C1015.74 252.173 1015.74 254.109 1015.74 257.012C1018.64 257.012 1018.64 254.109 1020.58 253.141C1037.03 230.883 1053.48 208.624 1069.93 186.366C1071.87 184.431 1072.84 182.495 1075.74 182.495C1094.13 182.495 1111.55 182.495 1130.9 182.495C1126.06 189.269 1121.22 195.076 1116.38 200.882C1099.93 221.205 1084.45 241.528 1068 261.851C1060.26 271.528 1060.26 272.496 1067.03 282.174C1088.32 313.142 1110.58 343.143 1131.87 374.111C1134.77 377.014 1135.74 378.949 1137.68 381.853Z" fill="white"/>
<path d="M873.478 379.911C873.478 356.685 873.478 333.459 873.478 310.233C873.478 287.007 873.478 263.78 873.478 240.554C874.446 240.554 874.446 239.587 873.478 239.587C870.575 229.909 867.672 228.942 857.994 228.942C842.51 228.942 827.994 228.942 812.51 228.942C802.832 228.942 798.961 232.812 798.961 242.49C798.961 287.007 798.961 331.524 798.961 377.008C798.961 382.815 797.026 383.782 792.187 383.782C779.606 383.782 767.025 383.782 754.445 383.782C750.574 383.782 748.638 382.815 748.638 378.944C748.638 328.62 748.638 278.297 748.638 227.006C748.638 205.715 767.993 185.393 790.252 185.393C820.252 185.393 850.252 185.393 880.253 185.393C902.511 185.393 921.866 204.748 921.866 227.006C921.866 277.329 921.866 328.62 921.866 378.944C921.866 381.847 921.866 383.782 917.995 383.782C903.479 383.782 889.93 383.782 875.414 383.782C874.446 383.782 873.479 383.782 872.511 382.814C874.446 379.911 874.446 379.911 873.478 379.911Z" fill="white"/>
<path d="M1166.71 300.557C1166.71 276.363 1166.71 252.169 1166.71 227.976C1166.71 202.814 1186.06 183.459 1210.26 183.459C1230.58 183.459 1251.87 183.459 1272.19 183.459C1276.06 183.459 1278 184.427 1277.03 189.265C1277.03 199.911 1277.03 211.524 1277.03 222.169C1277.03 227.008 1276.06 227.976 1271.23 227.976C1256.71 227.976 1243.16 227.976 1228.64 227.976C1219.93 227.976 1215.1 231.847 1215.1 241.524C1215.1 286.041 1215.1 330.557 1215.1 376.042C1215.1 381.849 1213.16 382.816 1208.32 382.816C1196.71 382.816 1185.1 381.849 1172.51 382.816C1166.71 382.816 1165.74 380.881 1165.74 375.074C1166.71 349.913 1166.71 324.751 1166.71 300.557Z" fill="white"/>
<path d="M1244.13 365.398C1244.13 355.72 1250.9 348.946 1260.58 347.979C1270.26 347.979 1277.03 355.721 1278 364.43C1278 374.108 1270.26 380.882 1261.55 381.85C1251.87 381.85 1244.13 375.076 1244.13 365.398ZM1260.58 377.979C1268.32 377.979 1274.13 372.172 1274.13 365.398C1274.13 358.624 1267.35 351.849 1260.58 351.849C1253.81 351.849 1248 357.656 1248 364.43C1248 372.173 1253.81 377.979 1260.58 377.979Z" fill="white"/>
<path d="M873.479 238.619C874.446 238.619 874.446 239.587 873.479 239.587C873.479 239.587 873.479 239.587 873.479 238.619Z" fill="white"/>
<path d="M873.479 379.906C874.446 379.906 874.446 380.874 873.479 380.874C873.479 379.906 873.479 379.906 873.479 379.906Z" fill="white"/>
<path d="M1260.58 377.975C1253.81 377.975 1248 372.169 1248 364.427C1248 357.653 1253.81 351.846 1260.58 351.846C1267.35 351.846 1274.13 358.62 1274.13 365.395C1274.13 372.169 1268.32 378.943 1260.58 377.975ZM1254.77 364.427C1254.77 366.363 1254.77 369.265 1254.77 371.201C1254.77 372.169 1255.74 373.136 1255.74 373.136C1256.71 373.136 1257.68 373.137 1257.68 372.169C1259.61 363.459 1261.55 369.266 1263.48 372.169C1264.45 373.137 1265.42 374.104 1266.39 373.136C1268.32 372.169 1266.39 371.201 1266.39 370.233C1264.45 368.298 1266.39 366.362 1267.35 365.395C1269.29 361.523 1267.35 357.653 1262.52 357.653C1254.77 355.717 1254.77 356.685 1254.77 364.427Z" fill="white"/>
<path d="M1260.58 360.561C1262.52 360.561 1263.48 360.561 1263.48 362.496C1263.48 364.432 1261.55 365.399 1260.58 365.399C1258.65 365.399 1257.68 364.432 1257.68 362.496C1257.68 360.561 1259.61 360.561 1260.58 360.561Z" fill="white"/>
</g>
<defs>
<clipPath id="clip0">
<rect width="1278" height="500" fill="white"/>
</clipPath>
</defs>
</svg>
