<svg width="1278" height="500" viewBox="0 0 1278 500" fill="none" xmlns="http://www.w3.org/2000/svg">
<g clip-path="url(#clip0)">
<path d="M116.596 342.606C116.596 360.949 116.596 379.292 116.596 397.469H115.429C111.76 391.465 105.59 387.964 101.588 382.294C96.0853 377.625 91.0826 372.622 86.5802 367.286C80.7437 362.283 75.4074 356.613 70.0712 351.11C61.3999 342.773 52.7286 334.435 44.7243 325.597C37.5538 318.926 30.3833 312.089 23.8798 304.752C18.8771 300.583 14.2077 296.081 10.3723 290.911C4.36911 285.241 2.53483 277.237 -0.633545 270.067V221.207C4.36915 224.876 8.03791 229.712 12.2068 234.214C17.8765 238.55 22.5457 243.886 27.3816 249.055C34.7189 255.559 41.5559 262.729 48.2262 269.9C57.231 278.071 65.5687 286.576 73.7398 295.414C79.5763 300.416 84.9126 305.919 90.082 311.756C95.4182 316.425 100.421 321.428 105.09 326.764C108.258 329.765 111.427 332.934 114.762 335.935C116.763 337.603 116.596 340.104 116.596 342.606Z" fill="white"/>
<path d="M83.7454 199.529C72.2392 188.023 61.567 177.184 50.561 166.511C48.7267 164.677 49.3937 163.843 50.8945 162.343C69.0709 144.333 86.9138 125.99 105.257 108.313C114.762 99.1418 128.603 100.142 138.608 110.148C163.122 134.661 187.635 159.174 212.148 183.687C220.152 191.692 228.157 200.029 236.494 207.867C239.329 210.535 238.996 212.036 236.328 214.537C198.807 251.891 161.454 289.244 124.267 326.598C121.766 329.099 120.432 329.266 117.93 326.598C80.577 289.077 43.0568 251.557 5.36987 214.037C2.70177 211.369 3.03544 210.035 5.53679 207.7C11.54 202.031 17.5432 196.027 23.2129 190.024C26.5481 186.522 29.8831 186.522 33.5518 189.024C35.7196 190.524 37.7208 192.359 39.7219 194.36C66.2361 220.874 92.7503 247.388 119.431 273.903C120.765 275.237 121.766 278.405 124.101 276.737C126.435 275.07 129.27 273.402 128.77 269.4C128.269 264.564 128.436 259.728 128.103 254.892C127.936 251.724 128.937 250.723 132.272 250.723C152.282 250.89 165.456 240.218 173.627 223.042C181.965 205.366 179.464 188.023 167.124 173.015C154.617 157.84 138.442 150.169 118.764 155.672C100.421 160.675 88.5814 173.015 85.2463 192.525C84.5792 194.693 84.2457 196.528 83.7454 199.529Z" fill="white"/>
<path d="M93.2507 202.364C93.084 196.695 94.418 191.192 97.2529 186.189C103.423 175.016 113.928 171.514 125.101 177.517C138.108 184.355 148.114 194.36 154.784 207.534C158.619 215.371 159.786 223.542 153.45 230.88C146.446 239.217 137.274 242.386 126.435 241.052C124.768 240.885 123.767 239.718 122.6 238.55C113.762 229.712 104.924 220.707 95.9188 212.036C93.0839 209.034 93.2507 205.866 93.2507 202.364Z" fill="white"/>
<path d="M241.497 270.733C240.33 277.903 236.995 284.574 232.159 290.077C227.823 294.913 222.987 299.248 218.318 303.751C212.648 310.087 206.979 316.591 199.975 321.76C194.472 328.764 187.969 334.767 181.465 340.604C176.963 345.44 172.794 350.442 167.457 354.278C161.621 361.615 154.617 367.952 147.78 374.289C140.443 381.292 133.106 388.296 125.435 395.467C125.435 381.626 126.269 367.785 125.101 353.944C124.268 341.938 127.269 332.6 137.108 325.596C140.109 323.428 142.444 320.593 145.112 318.092C151.616 311.588 158.119 305.085 164.623 298.414C169.292 293.745 173.961 289.076 178.63 284.574C184.967 277.57 191.637 270.9 198.641 264.563C203.977 259.227 209.313 253.89 214.649 248.554C223.988 239.883 233.16 231.212 242.498 222.707C242.164 238.049 244.165 254.391 241.497 270.733Z" fill="white"/>
<path d="M321.61 184.635C321.61 200.751 321.61 216.868 321.61 234.438C329.123 227.895 336.939 225.289 345.664 225.835C364.082 226.925 376.2 240.194 376.261 259.279C376.321 277.879 363.355 292.542 345.543 293.996C335.909 294.783 327.124 293.026 320.277 285.695C317.854 283.09 316.763 283.999 314.522 286.059C311.008 289.27 308.826 296.843 302.828 293.753C298.829 291.693 301.374 285.211 301.374 280.788C301.192 257.158 301.192 233.59 301.313 209.96C301.374 203.599 299.678 199.236 292.346 199.6C289.499 199.721 288.954 198.449 289.014 196.025C289.075 193.541 289.256 191.905 292.346 191.36C300.708 189.845 309.008 187.907 317.369 186.089C318.399 185.847 319.672 186.089 320.096 184.695C320.702 184.635 321.126 184.635 321.61 184.635ZM321.61 261.339C322.398 266.004 319.672 272.305 322.883 277.395C326.76 283.575 333.304 285.635 340.514 285.089C346.936 284.544 350.571 280.182 352.389 274.608C355.721 264.308 355.721 253.887 352.207 243.526C350.147 237.346 345.421 234.801 339.302 234.68C329.487 234.559 321.671 242.496 321.671 252.19C321.61 254.917 321.61 257.583 321.61 261.339Z" fill="white"/>
<path d="M1266.48 184.635C1266.48 214.323 1266.6 244.011 1266.42 273.638C1266.36 280.061 1267.81 284.362 1275.08 284.241C1278.29 284.181 1277.87 286.241 1277.99 288.301C1278.11 290.603 1277.2 291.512 1274.9 291.512C1262.06 291.451 1249.27 291.451 1236.43 291.512C1234.06 291.512 1233.22 290.542 1233.34 288.301C1233.46 286.241 1233.22 284.665 1236.24 284.181C1245.82 282.666 1246.12 282.121 1246.18 272.79C1246.24 251.645 1246.06 230.5 1246.24 209.355C1246.3 203.053 1244.24 199.297 1237.52 199.539C1234.85 199.6 1233.34 199.055 1233.28 195.904C1233.22 192.875 1234.25 191.845 1237.27 191.118C1246.54 188.876 1256.18 188.391 1265.08 184.695C1265.57 184.635 1266.05 184.635 1266.48 184.635Z" fill="white"/>
<path d="M701.496 234.378C717.673 220.503 738.091 225.593 747.058 235.045C758.933 247.586 759.357 268.731 747.845 282.545C736.697 295.935 718.703 297.753 701.253 286.847C701.253 296.481 700.89 305.751 701.375 315.02C701.678 320.11 706.161 321.079 710.463 320.897C713.553 320.776 714.886 321.443 714.765 324.896C714.643 328.107 713.189 328.532 710.584 328.471C698.224 328.41 685.864 328.41 673.504 328.471C671.141 328.471 669.566 328.168 669.808 325.199C669.99 323.018 669.324 320.716 672.898 320.716C678.957 320.776 680.896 317.262 680.835 311.567C680.714 290.664 680.775 269.761 680.835 248.919C680.835 243.284 678.957 239.71 672.717 240.013C670.232 240.134 669.505 239.104 669.808 236.862C670.111 234.923 668.718 232.439 672.353 231.712C680.29 230.197 688.106 228.198 695.982 226.502C703.253 225.108 699.678 231.349 701.496 234.378ZM700.89 261.461C700.89 263.278 700.89 266.368 700.89 269.519C700.89 277.517 705.858 282.969 714.643 284.727C722.944 286.362 728.76 283.515 731.85 275.638C735.425 266.368 735.728 256.796 733.304 247.223C730.336 235.287 719.248 231.591 708.645 237.65C699.072 243.163 701.072 251.827 700.89 261.461Z" fill="white"/>
<path d="M452.541 260.916C452.541 266.308 452.541 271.7 452.541 277.093C452.541 279.213 453.146 281.213 455.509 281.818C458.115 282.485 460.053 281.273 460.72 278.85C461.568 275.699 463.568 273.881 466.355 275.275C469.142 276.669 467.506 279.819 466.839 281.879C465.022 287.635 461.144 291.513 455.085 292.664C447.936 294.057 440.787 293.815 436.061 287.514C433.395 283.939 431.941 284.545 428.911 286.665C420.853 292.118 411.947 294.663 402.071 292.724C390.196 290.422 385.409 279.759 391.407 269.156C394.073 264.43 398.254 261.522 402.798 259.037C409.947 255.16 417.703 253.039 425.397 250.616C428.124 249.767 432.607 250.858 432.244 245.345C431.88 240.073 430.85 235.529 425.094 233.712C416.673 231.106 410.796 234.439 408.433 243.224C407.463 246.799 406.736 250.434 402.192 250.798C398.617 251.1 394.8 251.525 392.316 248.132C389.711 244.557 390.68 240.801 392.619 237.347C395.406 232.379 399.95 229.41 405.282 227.895C415.824 224.987 426.609 224.745 437.212 227.289C447.027 229.652 451.935 235.772 452.419 245.95C452.662 250.858 452.48 255.826 452.48 260.795C452.48 260.916 452.541 260.916 452.541 260.916ZM432.304 257.038C425.094 259.765 418.066 261.34 413.219 267.096C410.311 270.61 408.857 274.669 411.401 278.789C413.946 282.909 418.551 282.848 422.247 281.455C426.306 279.94 431.82 279.031 432.183 273.094C432.547 268.065 432.304 262.915 432.304 257.038Z" fill="white"/>
<path d="M875.687 294.238C849.391 294.238 833.275 275.516 838.486 251.039C839.637 245.646 842.121 240.981 846.059 237.043C859.813 223.35 886.774 221.835 901.861 234.074C912.463 242.678 916.462 258.188 911.555 272.002C906.708 285.574 892.772 294.238 875.687 294.238ZM891.924 260.491C891.864 254.735 891.803 249.585 890.288 244.617C887.865 236.498 883.502 233.226 875.141 233.287C867.204 233.408 862.176 237.285 860.54 245.344C858.54 255.098 858.359 264.913 860.721 274.668C862.721 283.09 866.962 286.483 875.263 286.846C882.654 287.149 888.047 283.09 890.409 275.153C891.803 270.185 891.742 265.035 891.924 260.491Z" fill="white"/>
<path d="M1020.98 294.177C993.045 293.814 976.444 271.275 985.774 246.495C991.045 232.438 1008.31 224.198 1028.13 226.319C1050.42 228.682 1063.63 247.161 1058.54 268.852C1055.03 284.12 1039.76 294.42 1020.98 294.177ZM1004.92 261.036C1005.34 264.307 1005.59 269.7 1006.8 274.85C1008.8 283.393 1013.28 286.786 1021.4 286.907C1028.61 287.028 1034.12 283.15 1036.12 275.516C1038.91 264.732 1039.15 253.765 1035.76 243.041C1033.52 235.892 1028.85 233.044 1020.85 233.226C1013.28 233.408 1009.46 236.437 1007.04 243.586C1005.4 248.615 1005.59 253.826 1004.92 261.036Z" fill="white"/>
<path d="M1187.05 294.179C1160.27 294.057 1143.79 273.821 1150.51 249.404C1155 233.227 1172.81 223.957 1194.8 226.32C1217.77 228.865 1231.46 251.525 1222.98 272.912C1217.77 286.06 1203.83 294.3 1187.05 294.179ZM1170.39 259.825C1170.93 264.43 1171.23 269.156 1172.14 273.76C1173.84 282.667 1178.26 286.484 1186.62 286.908C1194.38 287.272 1200.01 283.152 1202.01 274.79C1204.44 264.672 1204.56 254.372 1201.83 244.194C1199.65 236.196 1194.86 233.045 1186.38 233.288C1178.63 233.53 1173.9 237.226 1172.26 245.102C1171.29 249.828 1170.99 254.796 1170.39 259.825Z" fill="white"/>
<path d="M504.707 294.179C501.678 294.36 496.831 293.512 491.984 292.422C488.227 291.573 484.652 288.423 480.896 293.33C479.805 294.784 475.14 295.33 475.201 290.18C475.261 286.181 474.595 282.122 474.474 278.123C474.413 276.548 473.383 274.124 476.049 273.7C478.109 273.397 480.532 272.731 482.108 275.215C489.439 287.09 500.89 287.514 512.947 286.06C517.37 285.515 521.611 284.121 521.975 278.729C522.338 273.579 517.855 272.791 514.34 271.701C505.979 269.095 497.558 266.914 489.257 264.248C483.562 262.431 478.654 259.159 475.564 253.948C470.899 246.011 473.928 235.59 482.653 230.804C494.528 224.26 507.191 224.806 519.975 227.896C522.762 228.562 525.065 230.622 528.094 227.047C529.73 225.108 534.819 224.624 534.456 230.561C534.274 233.712 534.516 236.862 534.395 240.013C534.334 241.649 535.243 244.012 532.517 244.254C530.457 244.375 528.518 244.8 526.579 242.497C519.248 233.712 501.92 230.198 492.044 235.045C490.408 235.833 488.894 236.984 488.894 239.044C488.894 241.528 489.924 243.406 492.408 244.133C496.891 245.466 501.375 246.86 505.919 248.071C513.492 250.131 521.066 252.07 528.094 255.766C540.817 262.431 542.15 279.638 530.517 288.059C523.307 293.209 515.068 294.179 504.707 294.179Z" fill="white"/>
<path d="M594.135 257.765C588.076 257.765 581.957 258.068 575.958 257.644C571.414 257.341 570.687 259.158 571.111 263.036C572.02 271.942 574.02 280.364 583.35 283.757C592.499 287.089 601.466 285.211 608.131 278.122C611.584 274.366 613.523 276.426 615.643 278.304C618.733 281.031 615.038 282.606 613.765 283.999C603.647 295.572 581.593 297.692 565.658 288.786C551.844 281.091 545.846 265.46 550.754 250.01C555.783 234.136 570.99 224.32 588.44 225.835C604.919 227.229 615.583 237.104 617.582 252.373C618.128 256.493 617.582 258.068 613.038 257.826C606.737 257.523 600.436 257.765 594.135 257.765ZM585.107 250.555C586.44 250.555 587.834 250.737 589.106 250.494C592.135 249.949 596.861 252.373 598.012 248.919C599.466 244.436 597.346 239.589 593.65 236.256C587.41 230.561 577.231 232.863 573.232 240.619C569.173 248.495 570.324 250.555 579.048 250.555C581.048 250.555 583.108 250.555 585.107 250.555Z" fill="white"/>
<path d="M795.71 239.65C799.527 236.075 802.557 232.803 806.01 230.077C811.282 225.957 817.401 224.563 823.763 226.744C828.549 228.38 831.518 231.894 831.821 237.287C832.124 241.831 830.488 245.224 826.307 247.162C821.339 249.465 817.825 246.981 814.432 243.527C809.767 238.741 805.344 238.862 801.769 244.436C794.62 255.705 796.135 268.126 798.134 280.304C798.861 284.727 803.647 284.182 807.162 284.242C809.949 284.303 811.645 284.363 811.645 288.059C811.645 292.058 809.403 291.573 806.919 291.573C793.893 291.573 780.866 291.573 767.84 291.573C765.356 291.573 763.054 291.997 762.993 287.999C762.993 284.182 765.053 284.182 767.658 284.303C773.899 284.606 776.625 281.455 776.565 275.336C776.504 266.551 776.444 257.826 776.565 249.041C776.625 242.861 773.656 239.952 767.537 240.013C765.477 240.013 762.932 240.861 762.993 237.044C763.054 233.954 763.478 232.258 767.113 231.652C773.959 230.561 780.806 229.107 787.41 227.047C792.863 225.411 794.62 227.411 794.862 232.379C795.105 234.56 795.468 236.741 795.71 239.65Z" fill="white"/>
<path d="M1093.62 255.887C1093.5 263.218 1094.35 268.792 1096.71 273.942C1102.83 287.271 1119.49 289.331 1128.7 277.941C1129.43 277.092 1130.15 276.244 1130.7 275.214C1132.52 271.942 1134.64 273.518 1136.88 274.548C1140.58 276.305 1137.91 278.244 1136.94 279.879C1130.15 291.028 1116.46 296.299 1101.5 293.633C1086.35 290.967 1075.26 281.212 1072.41 268.125C1069.63 255.099 1075.44 240.679 1087.2 232.984C1100.16 224.502 1114.04 223.654 1128.34 229.349C1132.88 231.167 1136.64 234.136 1137.73 239.164C1138.76 243.89 1137.18 247.707 1132.46 249.464C1127.73 251.221 1123.55 249.828 1122.16 244.92C1120.16 237.832 1117.8 232.015 1108.77 233.348C1100.71 234.56 1095.2 240.679 1093.86 250.131C1093.62 252.615 1093.68 255.099 1093.62 255.887Z" fill="white"/>
<path d="M955.238 294.238C939.788 294.056 933.669 287.997 933.305 274.486C933.063 263.701 933.002 252.917 933.366 242.132C933.548 237.225 932.397 235.225 927.186 235.831C925.065 236.073 921.612 237.649 921.43 232.802C921.309 228.621 923.49 228.318 926.762 227.894C935.971 226.682 942.394 221.532 945.484 212.687C946.392 210.081 947.119 207.779 950.815 208.203C955.117 208.748 953.36 211.838 953.421 213.838C953.784 228.439 953.723 228.439 968.143 228.5C969.719 228.5 971.294 228.5 972.869 228.561C975.656 228.682 974.99 230.863 975.111 232.559C975.232 234.438 975.293 236.255 972.506 236.013C971.597 235.952 970.688 235.952 969.84 236.013C964.569 236.498 957.54 233.589 954.45 237.225C951.845 240.315 953.602 247.04 953.602 252.19C953.542 259.824 953.481 267.458 953.663 275.092C953.723 278.546 953.057 282.908 957.359 284.301C961.782 285.755 964.266 282.363 966.507 279.091C967.537 277.576 967.84 275.031 970.506 275.092C974.444 275.153 976.141 278.121 974.142 281.696C969.355 289.997 962.388 294.48 955.238 294.238Z" fill="white"/>
<path d="M641.514 243.043C647.634 241.589 652.723 242.922 655.934 248.678C658.479 253.222 658.297 257.887 655.026 261.946C651.511 266.309 647.028 268.369 641.393 265.824C641.393 258.19 641.454 250.616 641.514 243.043Z" fill="white"/>
<path d="M641.514 243.043C641.453 250.616 641.453 258.19 641.393 265.824C638.848 265.703 637.273 264.128 636 262.189C636.061 257.039 636.061 251.889 636.122 246.739C637.212 244.497 639.272 243.649 641.514 243.043Z" fill="white"/>
<path d="M636.061 246.676C636.001 251.826 636.001 256.976 635.94 262.126C631.82 256.976 632.123 251.826 636.061 246.676Z" fill="white"/>
</g>
<defs>
<clipPath id="clip0">
<rect width="1278" height="500" fill="white"/>
</clipPath>
</defs>
</svg>
