<svg width="306" height="62" viewBox="0 0 306 62" fill="none" xmlns="http://www.w3.org/2000/svg">
<path d="M18.6872 25.9289L30.5342 14.046L42.386 25.9386L49.2754 19.0206L30.5342 0.209961L11.793 19.0157L18.6872 25.9289Z" fill="white"/>
<path d="M0.0292969 30.8149L6.92105 23.8995L13.8128 30.8149L6.92104 37.7304L0.0292969 30.8149Z" fill="white"/>
<path d="M18.6852 35.6992L30.5321 47.5869L42.3839 35.6943L49.2782 42.6027L49.2733 42.6075L30.5321 61.4181L11.7909 42.6172L11.7812 42.6075L18.6852 35.6992Z" fill="white"/>
<path d="M47.2422 30.8169L54.1339 23.9014L61.0257 30.8169L54.1339 37.7324L47.2422 30.8169Z" fill="white"/>
<path d="M37.5241 30.8115L30.5335 23.792L25.364 28.9793L24.7666 29.5739L23.5428 30.8019L23.5332 30.8115L23.5428 30.826L30.5335 37.8359L37.5241 30.8164L37.5289 30.8115H37.5241Z" fill="white"/>
<path d="M71.7773 15.0415H86.7703C90.4897 15.0415 93.3033 16.0084 95.2111 17.9421C95.9299 18.6565 96.4966 19.5099 96.8767 20.4506C97.2568 21.3913 97.4425 22.3997 97.4225 23.4147V23.5065C97.4354 24.338 97.32 25.1664 97.0804 25.9624C96.867 26.6476 96.5571 27.2988 96.1602 27.8962C95.7902 28.4594 95.3425 28.9673 94.8305 29.4045C94.3302 29.8365 93.7823 30.2096 93.1973 30.5164C94.8842 31.106 96.4012 32.102 97.6152 33.417C98.688 34.6417 99.2243 36.3338 99.2243 38.4931V38.585C99.2548 39.9336 98.9624 41.2698 98.3716 42.4815C97.7991 43.5979 96.9599 44.5546 95.929 45.2661C94.7634 46.0502 93.4656 46.6153 92.0988 46.934C90.4749 47.3204 88.8102 47.5071 87.1413 47.4899H71.7773V15.0415ZM85.2672 28.162C86.5643 28.2249 87.8552 27.9449 89.0106 27.3499C89.4612 27.0858 89.8291 26.7004 90.0726 26.2373C90.3161 25.7742 90.4255 25.2519 90.3885 24.7296V24.6378C90.4123 24.1565 90.3149 23.677 90.1053 23.2436C89.8956 22.8101 89.5804 22.4366 89.1889 22.1577C88.3891 21.5873 87.2345 21.302 85.7249 21.302H78.7102V28.162H85.2672ZM87.1606 41.2391C88.4529 41.3117 89.7393 41.015 90.8703 40.3834C91.3109 40.0993 91.6675 39.7019 91.9031 39.2326C92.1386 38.7633 92.2445 38.2391 92.2096 37.7148V37.6229C92.227 37.1246 92.1223 36.6295 91.9048 36.1811C91.6872 35.7328 91.3635 35.3447 90.9618 35.051C90.1332 34.4065 88.7938 34.0842 86.9438 34.0842H78.7102V41.2391H87.1606Z" fill="white"/>
<path d="M108.156 15.0415H115.272V47.4996H108.156V15.0415Z" fill="white"/>
<path d="M126.039 15.0415H132.601L147.767 35.0172V15.0415H154.792V47.4996H148.736L133.073 26.8664V47.4996H126.039V15.0415Z" fill="white"/>
<path d="M176.338 14.8096H182.89L196.751 47.4997H189.322L186.364 40.2191H172.686L169.728 47.4997H162.473L176.338 14.8096ZM183.825 33.9151L179.518 23.3858L175.23 33.9151H183.825Z" fill="white"/>
<path d="M204.445 15.0415H211.007L226.164 35.0172V15.0415H233.188V47.4996H227.132L211.47 26.8664V47.4996H204.445V15.0415Z" fill="white"/>
<path d="M258.8 48.0704C256.532 48.0899 254.284 47.6492 252.19 46.7748C250.219 45.9581 248.431 44.7537 246.93 43.2326C245.43 41.7116 244.249 39.9046 243.455 37.9182C242.618 35.8404 242.194 33.6184 242.208 31.3773V31.2854C242.17 26.8679 243.864 22.6125 246.924 19.4363C248.43 17.8848 250.232 16.6548 252.224 15.8202C254.39 14.9198 256.716 14.4708 259.06 14.5004C260.447 14.49 261.831 14.6147 263.194 14.8726C264.36 15.0939 265.5 15.4357 266.595 15.8927C267.59 16.3126 268.535 16.8412 269.414 17.4687C270.272 18.0808 271.077 18.7631 271.823 19.5088L267.299 24.7493C266.143 23.6792 264.846 22.7731 263.444 22.0565C262.068 21.396 260.557 21.065 259.031 21.0897C257.762 21.0761 256.504 21.3337 255.341 21.8455C254.178 22.3573 253.137 23.1115 252.286 24.058C251.444 25.0021 250.783 26.0956 250.34 27.2825C249.876 28.5368 249.642 29.8653 249.651 31.2032V31.2951C249.647 32.6311 249.88 33.9572 250.34 35.2109C250.778 36.4021 251.431 37.5018 252.267 38.4548C253.111 39.4131 254.149 40.1783 255.313 40.6988C256.477 41.2193 257.738 41.4828 259.012 41.4715C260.634 41.5227 262.244 41.1724 263.7 40.4514C265.086 39.6936 266.367 38.7575 267.511 37.6668L272.039 42.2595C271.24 43.1304 270.375 43.9385 269.452 44.6767C268.546 45.3958 267.562 46.0104 266.518 46.5089C265.406 47.0341 264.235 47.422 263.03 47.6643C261.638 47.9444 260.22 48.0805 258.8 48.0704Z" fill="white"/>
<path d="M280.438 15.0415H304.782V21.3939H287.438V27.9783H302.71V34.3307H287.462V41.1472H305.023V47.4996H280.452L280.438 15.0415Z" fill="white"/>
</svg>
