<svg width="1278" height="500" viewBox="0 0 1278 500" fill="none" xmlns="http://www.w3.org/2000/svg">
<g clip-path="url(#clip0)">
<path d="M435.782 233.916C436.634 233.916 436.634 233.064 437.487 233.064C457.089 210.904 497.147 215.166 514.192 246.7C524.42 267.155 526.124 301.247 504.817 322.554C490.328 337.895 466.464 343.009 448.566 334.486C443.453 331.929 439.191 327.668 434.93 322.554C434.93 326.815 434.077 329.372 434.93 332.781C434.93 335.338 434.077 336.19 431.521 336.19C415.327 336.19 399.134 336.19 382.94 336.19C380.384 336.19 379.531 335.338 379.531 332.781C379.531 325.963 379.531 319.145 379.531 311.474C379.531 309.77 379.531 308.065 382.088 307.213C391.463 303.804 394.02 297.838 393.168 287.61C392.315 259.485 393.168 230.507 393.168 202.382C393.168 198.973 392.315 197.268 388.906 197.268C379.531 197.268 379.531 197.268 379.531 187.893C379.531 180.222 379.531 172.552 379.531 164.881C379.531 162.324 380.383 162.324 382.088 162.324C399.134 162.324 416.179 162.324 433.225 162.324C436.634 162.324 435.782 164.028 435.782 165.733C435.782 186.188 435.782 207.495 435.782 227.95C435.782 230.507 435.782 232.211 435.782 233.916ZM433.225 279.94C433.225 292.724 442.6 301.247 455.385 301.247C468.169 301.247 477.544 292.724 478.396 279.94C478.396 267.155 469.021 257.78 456.237 257.78C442.6 258.633 433.225 268.008 433.225 279.94Z" fill="white"/>
<path d="M681.241 322.554C676.127 325.963 672.718 330.225 668.456 332.782C655.672 340.452 642.035 342.157 628.399 335.338C619.876 331.077 614.762 324.259 613.91 314.031C613.057 296.133 613.058 279.087 613.058 261.189C613.058 257.78 612.205 256.928 608.796 256.928C599.421 256.928 599.421 256.928 599.421 247.553C599.421 240.735 599.421 233.064 599.421 226.246C599.421 222.837 600.273 221.984 603.682 221.984C619.876 221.984 636.069 221.984 651.411 221.984C655.672 221.984 655.672 223.689 655.672 227.098C655.672 246.7 655.672 267.155 655.672 286.758C655.672 289.315 655.672 291.872 656.524 294.429C658.229 300.395 660.786 302.952 665.9 302.952C671.866 303.804 676.127 300.395 678.684 296.133C680.388 291.872 680.388 287.611 680.388 283.349C680.388 275.679 680.388 267.155 680.388 259.485C680.388 256.928 679.536 256.076 676.979 256.076C668.456 256.076 668.456 256.076 668.456 246.7C668.456 239.03 668.456 232.211 668.456 225.393C668.456 222.836 669.308 221.984 671.865 221.984C688.059 221.984 704.252 221.984 719.593 221.984C723.003 221.984 723.002 222.837 723.002 226.246C723.002 250.11 723.002 273.974 723.002 296.985C723.002 300.395 723.855 302.099 727.264 302.952C735.787 304.656 738.344 309.77 736.639 318.293C735.787 323.406 736.639 327.668 736.639 332.782C736.639 335.338 735.787 335.338 734.082 335.338C717.037 335.338 699.991 335.338 682.945 335.338C680.388 335.338 679.536 334.486 680.388 332.782C681.24 330.225 681.241 326.815 681.241 322.554Z" fill="white"/>
<path d="M796.298 306.359C806.526 306.359 815.049 306.359 823.572 306.359C825.276 306.359 826.981 306.359 826.981 303.802C827.833 300.393 828.685 297.836 829.537 294.427C829.537 292.723 831.242 291.87 832.947 291.87C839.765 291.87 847.436 291.87 854.254 291.87C856.811 291.87 857.663 292.722 857.663 295.279C857.663 308.064 857.663 320.848 857.663 333.632C857.663 336.189 856.811 337.041 854.254 337.041C821.015 337.041 786.923 337.041 753.684 337.041C751.127 337.041 751.127 336.189 751.127 334.485C751.127 324.257 751.127 313.177 751.127 302.95C751.127 300.393 752.832 299.541 753.684 298.689C770.73 285.052 787.776 271.416 804.821 257.779C806.526 256.927 808.23 255.222 809.935 253.518C800.56 253.518 792.037 253.518 783.514 253.518C781.81 253.518 781.81 254.37 780.957 256.074C779.253 259.483 779.253 265.45 776.696 266.302C773.287 268.006 768.173 267.154 763.912 267.154C760.503 267.154 757.093 267.154 753.684 267.154C751.127 267.154 751.127 266.302 751.127 264.597C751.127 251.813 751.127 239.029 751.127 226.244C751.127 223.687 751.979 223.688 754.536 223.688C787.775 223.688 821.867 223.688 855.106 223.688C857.663 223.688 858.515 224.539 858.515 227.096C858.515 237.324 858.515 247.552 858.515 257.779C858.515 260.336 857.663 261.188 855.958 262.892C838.06 277.381 819.31 291.87 801.412 306.359C798.855 304.654 798.003 304.654 796.298 306.359Z" fill="white"/>
<path d="M987.211 308.061C980.392 319.141 971.018 327.663 959.938 333.629C939.483 343.005 919.028 342.152 900.278 332.777C876.414 320.845 867.891 297.833 870.448 272.265C873.857 242.435 898.573 221.98 927.551 221.128C948.858 220.275 967.608 226.241 980.393 244.139C989.768 256.924 992.325 271.413 992.325 286.754C992.325 290.163 990.62 289.31 988.915 289.31C965.904 289.31 942.04 289.31 919.028 289.31C914.766 289.31 914.767 291.015 915.619 293.572C917.324 300.39 920.732 305.504 927.551 307.209C935.221 308.913 942.04 307.209 947.154 301.243C949.711 298.686 951.415 297.833 954.824 299.538C965.051 301.243 976.131 304.652 987.211 308.061ZM931.812 268.856C936.926 268.856 942.04 268.856 946.301 268.856C949.71 268.856 950.563 267.151 949.71 264.594C948.006 256.072 941.187 250.958 931.812 251.81C921.585 251.81 915.619 256.924 913.914 266.299C913.914 268.856 913.914 268.856 916.471 268.856C921.585 268.004 926.698 268.856 931.812 268.856Z" fill="white"/>
<path d="M1274.43 308.064C1265.91 321.701 1254.83 331.076 1240.34 336.19C1223.29 342.156 1206.25 340.451 1189.2 333.633C1167.9 324.258 1155.96 303.803 1155.96 278.234C1155.96 244.143 1183.24 221.132 1213.92 219.427C1238.64 218.575 1257.39 227.097 1270.17 248.404C1276.14 259.484 1278.69 271.416 1277.84 284.2C1277.84 287.61 1276.14 286.757 1274.43 286.757C1251.42 286.757 1228.41 286.757 1205.4 286.757C1201.99 286.757 1200.28 287.61 1201.99 291.019C1203.69 297.837 1207.95 302.951 1213.92 304.656C1221.59 306.36 1228.41 304.655 1234.37 298.689C1236.93 296.133 1238.64 296.132 1241.19 296.985C1252.27 301.246 1263.35 304.655 1274.43 308.064ZM1219.03 268.859C1224.15 268.859 1229.26 268.859 1233.52 268.859C1236.93 268.859 1237.78 267.155 1236.93 264.598C1234.37 256.075 1228.41 250.961 1219.03 251.814C1208.8 251.814 1202.84 256.928 1201.13 266.303C1200.28 268.86 1201.99 268.859 1203.69 268.859C1208.8 268.859 1213.92 268.859 1219.03 268.859Z" fill="white"/>
<path d="M1057.1 233.058C1057.1 254.365 1057.1 276.524 1057.1 297.831C1057.1 301.241 1057.95 302.093 1061.36 302.093C1069.88 302.093 1069.88 302.093 1069.88 310.616C1069.88 318.286 1069.88 325.957 1069.88 334.48C1069.88 337.037 1069.03 337.889 1066.47 337.889C1045.17 337.889 1024.71 337.889 1003.41 337.889C1000.85 337.889 999.996 337.037 999.996 334.48C999.996 325.105 999.996 315.729 999.996 306.354C999.996 303.797 1000.85 302.093 1003.41 302.945C1004.26 302.945 1004.26 302.945 1005.11 302.945C1013.63 302.945 1013.63 302.945 1013.63 294.423C1013.63 264.593 1013.63 234.762 1013.63 204.08C1013.63 199.819 1012.78 198.966 1008.52 199.819C999.143 199.819 999.144 199.819 999.144 190.444C999.144 183.625 999.144 175.955 999.144 169.136C999.144 165.727 999.996 164.875 1003.41 164.875C1019.6 164.875 1035.79 164.875 1051.99 164.875C1056.25 164.875 1056.25 166.579 1056.25 169.989C1057.1 189.591 1057.1 210.898 1057.1 233.058Z" fill="white"/>
<path d="M584.932 233.062C584.932 254.369 584.932 276.529 584.932 297.836C584.932 301.245 585.784 302.097 589.193 302.097C597.716 302.097 597.716 302.097 597.716 310.62C597.716 318.291 597.716 325.961 597.716 333.632C597.716 336.189 596.864 337.041 594.307 337.041C573.852 337.041 552.545 337.041 532.09 337.041C529.533 337.041 528.681 336.189 528.681 333.632C528.681 324.257 528.681 314.882 528.681 305.507C528.681 302.95 529.533 302.097 532.09 302.097H532.942C542.317 302.097 542.317 302.098 542.317 292.722C542.317 262.892 542.317 233.062 542.317 204.084C542.317 200.675 541.465 198.971 538.056 198.971C528.681 198.971 528.681 198.971 528.681 189.596C528.681 182.778 528.681 175.959 528.681 169.141C528.681 165.732 529.533 164.027 532.942 164.027C549.136 164.027 564.477 164.027 580.67 164.027C584.08 164.027 584.932 164.88 584.932 168.289C584.08 189.596 584.932 210.903 584.932 233.062Z" fill="white"/>
<path d="M1134.66 233.059C1134.66 254.367 1134.66 275.674 1134.66 296.981C1134.66 300.39 1135.51 302.094 1138.92 302.094C1146.59 302.094 1146.59 302.095 1146.59 309.765C1146.59 317.436 1146.59 325.106 1146.59 333.629C1146.59 336.186 1145.74 337.038 1143.18 337.038C1122.72 337.038 1101.42 337.038 1080.96 337.038C1078.41 337.038 1077.55 337.038 1077.55 333.629C1077.55 324.254 1077.55 314.879 1077.55 304.652C1077.55 302.095 1078.41 301.242 1080.96 301.242C1084.37 301.242 1088.63 302.947 1091.19 300.39C1093.75 297.833 1092.04 293.572 1092.04 290.163C1092.04 261.185 1092.04 231.355 1092.04 202.377C1092.04 198.968 1091.19 198.116 1087.78 198.116C1078.41 198.116 1078.41 198.116 1078.41 188.74C1078.41 181.07 1078.41 174.252 1078.41 166.581C1078.41 164.024 1079.26 163.172 1081.81 163.172C1098.86 163.172 1115.05 163.172 1132.1 163.172C1135.51 163.172 1135.51 164.876 1135.51 167.433C1134.66 189.593 1134.66 210.9 1134.66 233.059Z" fill="white"/>
<path d="M189.471 250.103C189.471 271.41 172.425 288.456 151.118 288.456C129.811 288.456 112.765 271.41 112.765 250.103C112.765 228.796 129.811 211.75 151.118 211.75C172.425 211.75 189.471 228.796 189.471 250.103Z" fill="white"/>
<path d="M87.1967 159.766C87.1967 174.255 76.117 185.334 61.6282 185.334C47.9916 185.334 36.0596 173.402 36.0596 159.766C36.0596 146.129 47.9916 134.197 61.6282 134.197C76.117 135.05 87.1967 146.129 87.1967 159.766Z" fill="white"/>
<path d="M303.677 250.104C303.677 263.74 292.597 275.672 278.109 275.672C264.472 275.672 252.54 264.593 252.54 250.104C252.54 235.615 263.62 224.535 278.109 224.535C292.597 224.535 303.677 235.615 303.677 250.104Z" fill="white"/>
<path d="M176.687 123.115C176.687 137.604 165.607 148.684 151.118 148.684C136.63 148.684 125.55 137.604 125.55 123.115C125.55 108.627 137.482 97.5469 151.118 97.5469C165.607 97.5469 176.687 109.479 176.687 123.115Z" fill="white"/>
<path d="M61.6282 365.163C47.1393 365.163 36.0596 354.083 36.0596 339.594C36.0596 325.957 47.9916 314.025 61.6282 314.025C76.117 314.025 87.1967 325.957 87.1967 339.594C87.1967 354.083 76.117 365.163 61.6282 365.163Z" fill="white"/>
<path d="M151.971 351.531C166.46 351.531 177.539 362.611 177.539 377.1C177.539 391.589 165.607 402.668 151.971 402.668C138.334 402.668 126.402 390.736 126.402 377.1C126.402 362.611 137.482 351.531 151.971 351.531Z" fill="white"/>
<path d="M266.177 339.594C266.177 354.083 255.097 365.163 240.608 365.163C226.119 365.163 215.04 354.083 215.04 339.594C215.04 325.957 226.119 314.025 240.608 314.025C255.097 314.025 266.177 325.105 266.177 339.594Z" fill="white"/>
<path d="M-0.588623 250.104C-0.588623 235.615 10.4911 224.535 24.98 224.535C38.6165 224.535 50.5486 235.615 50.5486 250.104C50.5486 264.593 39.4688 275.672 24.98 275.672C10.4911 275.672 -0.588623 263.74 -0.588623 250.104Z" fill="white"/>
<path d="M266.177 160.614C266.177 175.102 255.097 186.182 240.608 186.182C226.119 186.182 215.04 174.25 215.04 160.614C215.04 146.125 226.972 135.045 240.608 135.045C255.097 135.045 266.177 146.125 266.177 160.614Z" fill="white"/>
<path d="M102.538 269.709C107.651 280.789 114.47 289.312 124.697 295.278C126.402 296.13 130.663 297.835 130.663 298.687C130.663 301.244 128.106 302.096 126.402 304.653C120.436 310.619 114.47 316.585 108.504 323.403C106.799 325.107 105.095 325.107 103.39 323.403C95.7194 314.88 87.1966 307.21 78.6737 298.687C77.8214 297.835 76.1168 296.982 77.8214 295.278C85.492 286.755 94.0148 278.232 102.538 269.709Z" fill="white"/>
<path d="M200.551 229.655C198.846 226.246 197.142 223.689 195.437 220.28C190.324 211.757 182.653 205.791 174.13 201.53C172.426 200.678 171.573 199.826 173.278 198.121C180.949 190.45 188.619 182.78 196.29 175.109C197.994 173.405 198.847 174.257 199.699 175.109C208.222 183.632 216.745 192.155 225.268 200.678C226.12 201.53 226.972 202.382 225.268 204.087C217.597 212.609 209.074 221.132 200.551 229.655Z" fill="white"/>
<path d="M201.403 270.564C202.255 270.564 202.255 271.416 203.108 272.269C210.778 279.939 218.449 287.61 226.119 294.428C227.824 296.133 227.824 296.985 226.119 297.837C217.596 306.36 209.074 314.883 200.551 323.406C199.698 324.258 198.846 325.11 197.142 323.406C189.471 315.735 181.801 308.065 174.13 300.394C173.278 299.542 172.425 298.689 174.13 297.837C186.062 292.723 194.585 283.348 199.699 272.269C199.699 271.416 199.698 271.417 201.403 270.564Z" fill="white"/>
<path d="M131.515 200.671C117.879 206.637 108.503 216.012 102.537 229.649C94.0146 221.126 85.4917 212.603 77.8212 204.933C76.1166 203.228 76.9689 203.228 77.8212 201.523C86.344 193.001 94.8669 184.478 103.39 175.955C104.242 175.103 105.094 174.25 106.799 175.955C114.469 183.625 122.992 192.148 131.515 200.671Z" fill="white"/>
<path d="M220.153 257.779C215.892 257.779 210.778 257.779 206.517 257.779C204.812 257.779 203.96 256.926 203.96 255.222C204.812 251.813 204.812 248.404 203.96 244.995C203.96 243.29 203.96 242.438 206.517 242.438C215.892 242.438 226.119 242.438 235.495 242.438C238.051 242.438 238.052 243.29 238.052 244.995C238.052 248.404 238.052 251.813 238.052 254.37C238.052 256.927 237.199 256.926 235.495 256.926C230.381 257.779 225.267 257.779 220.153 257.779Z" fill="white"/>
<path d="M99.1286 242.438C98.2764 247.551 98.2764 252.665 99.1286 257.779C88.0489 257.779 77.8216 257.779 67.5942 257.779C65.8896 257.779 65.8895 256.926 65.8895 255.222C65.8895 251.813 65.8895 248.404 65.8895 244.995C65.8895 243.29 66.7417 242.438 68.4463 242.438C77.8214 242.438 88.0489 242.438 99.1286 242.438Z" fill="white"/>
<path d="M158.789 181.07C158.789 185.331 158.789 190.445 158.789 194.706C158.789 196.411 158.789 198.115 156.232 197.263C152.823 197.263 149.414 197.263 146.005 197.263C144.3 197.263 143.448 196.411 143.448 194.706C143.448 185.331 143.448 175.103 143.448 165.728C143.448 164.023 144.3 163.171 146.005 163.171H146.857C159.642 162.319 159.642 162.319 159.642 175.104C158.789 176.808 158.789 178.513 158.789 181.07Z" fill="white"/>
<path d="M143.447 319.146C143.447 314.885 143.447 309.771 143.447 305.51C143.447 303.805 144.3 302.953 146.004 302.953C147.709 302.953 149.413 302.953 151.118 302.953C157.936 302.953 157.936 302.953 157.936 309.771C157.936 317.442 157.936 325.113 157.936 332.783C157.936 335.34 157.084 336.192 154.527 336.192C141.743 336.192 141.743 336.192 141.743 324.26C143.447 322.556 143.447 320.851 143.447 319.146Z" fill="white"/>
</g>
<defs>
<clipPath id="clip0">
<rect width="1278" height="500" fill="white"/>
</clipPath>
</defs>
</svg>
