<svg width="1278" height="500" viewBox="0 0 1278 500" fill="none" xmlns="http://www.w3.org/2000/svg">
<path d="M1063.45 404.457C1061.55 402.583 1060.8 400.709 1060.8 398.084C1060.8 395.462 1061.55 393.213 1063.45 390.966L1134.71 296.899L1068.75 208.457C1067.24 206.208 1066.1 203.959 1066.1 201.336C1066.1 198.713 1066.86 196.839 1068.75 194.965C1070.65 193.091 1072.54 192.342 1075.2 192.342H1111.97C1115 192.342 1117.27 193.091 1118.79 194.216C1120.31 195.34 1121.82 197.214 1123.72 199.462L1170.35 260.923L1216.59 199.462C1216.97 199.088 1217.73 197.963 1219.62 195.715C1221.52 193.466 1224.17 192.342 1228.34 192.342H1263.98C1266.63 192.342 1268.52 193.091 1270.42 194.965C1271.93 196.839 1273.07 198.713 1273.07 200.961C1273.07 203.585 1272.31 206.208 1270.42 208.457L1203.7 297.274L1275.35 390.966C1276.86 393.213 1278 395.462 1278 398.084C1278 400.709 1277.24 402.583 1275.35 404.457C1273.45 406.331 1271.55 407.079 1268.9 407.079H1230.62C1226.07 407.079 1222.28 404.832 1219.25 400.333L1169.21 335.124L1118.79 400.333C1115.76 404.832 1111.97 407.079 1107.42 407.079H1070.27C1067.24 407.079 1064.96 406.331 1063.45 404.457Z" fill="white"/>
<path d="M759.285 284.9C758.519 255.366 749.323 232.16 733.996 213.985C718.671 195.811 696.83 186.723 668.476 186.723C641.274 186.723 619.817 195.811 604.106 214.364V121.597C604.106 115.538 597.976 111.752 592.613 114.024L547.399 132.577V398.007C547.399 400.655 548.549 403.306 550.465 405.2C552.381 407.094 554.679 408.228 557.745 408.228H591.463C594.529 408.228 597.21 407.094 599.126 405.2C601.042 403.306 602.19 401.035 602.19 398.007V382.481C617.517 402.172 640.124 412.016 669.244 412.016C697.596 412.016 719.437 402.929 734.764 385.132C750.089 367.335 758.137 343.103 759.285 313.191C760.24 303.759 759.285 294.246 759.285 284.9ZM700.278 311.674C698.364 348.403 682.271 366.577 652.385 366.577C636.292 366.577 624.415 361.278 616.367 351.054C608.322 340.83 604.106 328.335 603.724 313.568C603.34 310.16 603.34 304.86 603.34 297.665C603.34 290.092 603.34 284.792 603.724 281.384C604.106 267.374 608.704 255.636 616.751 245.791C624.797 235.947 636.676 231.024 652.001 231.024C682.271 231.024 697.98 249.199 699.896 285.927C700.278 288.577 700.278 292.743 700.278 298.422C700.662 304.86 700.662 309.025 700.278 311.674Z" fill="white"/>
<path d="M1021.12 359.28H871.107L911.612 305.233C916.861 298.43 911.988 288.604 903.362 288.604H850.855L800.601 353.989C799.1 356.256 797.601 358.523 796.1 360.792C794.974 363.059 794.224 366.083 794.224 369.484V398.964C794.224 401.988 794.974 404.634 796.851 406.524C798.724 408.413 800.976 409.548 803.976 409.548H996.371C1001.62 409.548 1006.5 406.901 1009.5 402.743L1029 376.287C1034.25 368.729 1029.37 359.28 1021.12 359.28Z" fill="white"/>
<path d="M796.978 162.599H948.557L907.63 215.543C902.324 222.207 907.25 231.833 915.967 231.833H969.018L1019.8 167.782C1021.31 165.561 1022.83 163.339 1024.35 161.118C1025.48 158.897 1026.24 155.935 1026.24 152.603V123.724C1026.24 120.762 1025.48 118.171 1023.59 116.319C1021.69 114.468 1019.42 113.357 1016.39 113.357H821.989C816.682 113.357 811.758 115.949 808.725 120.022L789.021 145.938C783.715 152.973 788.641 162.599 796.978 162.599Z" fill="white"/>
<path d="M324.908 47.1416H162.454V140.553H121.84V47.1416H81.227C36.5521 47.1416 0 83.6937 0 128.369V170.505H230.989C261.449 170.505 286.325 195.381 286.325 225.841V279.654C286.325 310.114 261.449 334.99 230.989 334.99H177.176C146.716 334.99 121.84 310.114 121.84 279.654V240.056H162.454V279.146C162.454 287.269 169.054 293.869 177.176 293.869H230.989C239.112 293.869 245.712 287.269 245.712 279.146V225.841C245.712 217.718 239.112 211.119 230.989 211.119H0V372.049C0 416.724 36.5521 453.276 81.227 453.276H324.908C369.583 453.276 406.135 416.724 406.135 372.049V128.369C406.135 83.6937 369.583 47.1416 324.908 47.1416Z" fill="white"/>
</svg>
