<svg width="1278" height="500" viewBox="0 0 1278 500" fill="none" xmlns="http://www.w3.org/2000/svg">
<path d="M685.618 300.019C678.903 297.153 672.802 293.02 667.646 287.846C662.542 282.634 658.426 276.536 655.501 269.849C651.847 261.233 650.386 251.843 651.248 242.522C652.111 233.201 655.27 224.24 660.443 216.443C665.615 208.646 672.64 202.256 680.886 197.848C689.132 193.439 698.342 191.148 707.689 191.182C715.271 191.189 722.777 192.687 729.782 195.591C736.443 198.512 742.512 202.635 747.685 207.753C752.835 212.88 756.915 218.981 759.687 225.702C762.677 232.684 764.22 240.201 764.22 247.797C764.22 255.393 762.677 262.911 759.687 269.892C756.845 276.599 752.762 282.707 747.653 287.894C742.454 293.016 736.363 297.142 729.681 300.067C722.67 302.932 715.171 304.408 707.599 304.412C700.048 304.426 692.57 302.933 685.602 300.019H685.618ZM677.551 176.291C658.928 184.125 644.112 198.956 636.281 217.603C632.29 227.168 630.235 237.431 630.235 247.797C630.235 258.163 632.29 268.426 636.281 277.991C644.113 296.643 658.93 311.479 677.556 319.319C687.104 323.321 697.35 325.382 707.7 325.382C718.05 325.382 728.297 323.321 737.844 319.319C756.476 311.487 771.296 296.648 779.119 277.991C783.105 268.431 785.157 258.173 785.157 247.813C785.157 237.453 783.105 227.195 779.119 217.635C771.277 198.979 756.454 184.139 737.822 176.291C728.27 172.316 718.028 170.271 707.684 170.271C697.34 170.271 687.098 172.316 677.546 176.291H677.551ZM512.663 176.243C503.458 180.188 495.075 185.831 487.952 192.878C480.904 199.984 475.276 208.372 471.372 217.592C467.352 227.157 465.281 237.43 465.281 247.808C465.281 258.185 467.352 268.458 471.372 278.023C475.279 287.23 480.902 295.607 487.942 302.705C495.043 309.759 503.411 315.407 512.605 319.351C522.165 323.342 532.422 325.392 542.78 325.382C563.303 325.394 582.995 317.263 597.545 302.769C604.614 295.638 610.261 287.224 614.183 277.975C615.022 275.965 615.776 273.886 616.493 271.748H593.96C591.159 277.72 587.368 283.173 582.749 287.878C577.521 293.182 571.281 297.378 564.399 300.215C557.518 303.053 550.137 304.475 542.695 304.396C535.267 304.425 527.907 302.976 521.043 300.132C514.179 297.288 507.947 293.106 502.711 287.83C497.605 282.615 493.489 276.513 490.565 269.823C484.777 255.676 484.796 239.814 490.618 225.681C494.944 215.418 502.205 206.665 511.486 200.525C520.768 194.384 531.656 191.13 542.78 191.171C550.367 191.176 557.877 192.685 564.878 195.612C571.544 198.539 577.627 202.649 582.834 207.743C587.473 212.451 591.258 217.933 594.018 223.942H616.504C615.83 221.788 615.044 219.688 614.21 217.64C606.35 198.996 591.538 184.158 572.924 176.28C563.375 172.307 553.138 170.258 542.798 170.249C532.458 170.241 522.218 172.274 512.663 176.232V176.243ZM808.509 325.382H829.433V170.26H808.509V325.382ZM1066.93 224.931C1066.93 220.07 1067.89 215.257 1069.74 210.766C1071.6 206.276 1074.32 202.195 1077.76 198.758C1081.19 195.321 1085.26 192.594 1089.75 190.734C1094.23 188.874 1099.04 187.916 1103.89 187.916C1108.75 187.916 1113.55 188.874 1118.04 190.734C1122.52 192.594 1126.6 195.321 1130.03 198.758C1133.46 202.195 1136.18 206.276 1138.04 210.766C1139.9 215.257 1140.85 220.07 1140.85 224.931C1140.85 234.748 1136.96 244.163 1130.03 251.105C1123.1 258.046 1113.7 261.946 1103.89 261.946C1094.09 261.946 1084.69 258.046 1077.76 251.105C1070.82 244.163 1066.93 234.748 1066.93 224.931V224.931ZM1048.11 225.229C1048.11 255.506 1073.07 279.199 1104.87 279.199H1117.5L1092.82 326.073H1113.88L1152.26 252.384C1157.05 243.91 1159.68 234.391 1159.94 224.66C1159.56 210.017 1153.46 196.107 1142.96 185.913C1132.45 175.719 1118.38 170.051 1103.75 170.126C1089.12 170.2 1075.11 176.01 1064.71 186.311C1054.31 196.612 1048.35 210.583 1048.11 225.229V225.229ZM1196.04 279.475C1196.19 271.004 1199.66 262.931 1205.7 256.995C1211.73 251.058 1219.86 247.732 1228.32 247.732C1236.78 247.732 1244.9 251.058 1250.94 256.995C1256.97 262.931 1260.44 271.004 1260.6 279.475C1260.6 288.048 1257.2 296.27 1251.14 302.332C1245.09 308.394 1236.88 311.799 1228.32 311.799C1219.76 311.799 1211.55 308.394 1205.49 302.332C1199.44 296.27 1196.04 288.048 1196.04 279.475ZM1206.79 208.493C1206.79 202.803 1209.02 197.341 1212.99 193.268C1216.95 189.196 1222.35 186.835 1228.03 186.688C1233.81 186.688 1239.35 188.987 1243.44 193.079C1247.52 197.171 1249.82 202.721 1249.82 208.509C1249.82 214.296 1247.52 219.846 1243.44 223.938C1239.35 228.03 1233.81 230.329 1228.03 230.329C1222.35 230.181 1216.95 227.82 1212.99 223.748C1209.02 219.675 1206.8 214.214 1206.79 208.525V208.493ZM1189.41 208.525C1189.32 216.977 1191.98 225.23 1196.98 232.037L1201.29 237.796L1195.8 242.466C1190.4 246.998 1186.07 252.663 1183.11 259.06C1180.14 265.457 1178.62 272.428 1178.65 279.48C1178.65 292.674 1183.88 305.327 1193.2 314.657C1202.51 323.986 1215.15 329.227 1228.32 329.227C1241.5 329.227 1254.13 323.986 1263.45 314.657C1272.77 305.327 1278 292.674 1278 279.48C1278.04 272.351 1276.49 265.303 1273.48 258.845C1270.46 252.387 1266.05 246.681 1260.56 242.141L1254.95 237.424L1259.46 231.616C1264.57 225.005 1267.3 216.859 1267.21 208.498C1267.04 198.281 1262.87 188.539 1255.6 181.373C1248.32 174.207 1238.53 170.191 1228.32 170.191C1218.12 170.191 1208.32 174.207 1201.05 181.373C1193.77 188.539 1189.6 198.281 1189.43 208.498L1189.41 208.525ZM997.921 170.26V290.601C998.094 292.024 997.966 293.468 997.547 294.839C997.127 296.209 996.425 297.477 995.485 298.559C994.546 299.64 993.39 300.513 992.092 301.119C990.795 301.725 989.385 302.052 987.953 302.078C985.525 301.942 983.18 301.142 981.175 299.763C979.17 298.385 977.581 296.481 976.583 294.26L928.76 191.198C926.268 184.96 921.95 179.622 916.375 175.886C910.799 172.149 904.225 170.188 897.516 170.26C889.72 170.171 882.136 172.804 876.066 177.705C875.787 177.91 875.519 178.13 875.264 178.365C872.077 180.985 869.513 184.283 867.759 188.02C866.004 191.757 865.103 195.838 865.121 199.968V325.382H887.299V203.217C887.227 201.824 887.44 200.431 887.923 199.123C888.407 197.815 889.151 196.619 890.111 195.609C891.071 194.598 892.227 193.794 893.507 193.245C894.788 192.696 896.166 192.414 897.559 192.416C899.994 192.503 902.35 193.306 904.333 194.725C906.316 196.143 907.839 198.114 908.712 200.393L909.142 201.409C920.379 226.298 945.52 281.028 960.236 310.055C965.186 319.803 973.641 324.185 987.688 324.255C995.623 324.397 1003.36 321.789 1009.6 316.873C1013.04 314.675 1015.84 311.59 1017.68 307.941C1019.52 304.292 1020.35 300.213 1020.08 296.132V170.26H997.921Z" fill="white"/>
<path d="M304.343 63.625H67.7969C49.807 63.6433 32.5603 70.8138 19.8474 83.5606C7.13457 96.3073 -0.0042293 113.587 3.33912e-06 131.603V368.397C-0.00563628 386.413 7.13271 403.693 19.8459 416.44C32.5591 429.188 49.8065 436.358 67.7969 436.374H304.343C322.334 436.358 339.582 429.188 352.296 416.441C365.01 403.694 372.149 386.413 372.145 368.397V131.603C372.149 113.586 365.01 96.3056 352.296 83.5587C339.582 70.8118 322.334 63.6419 304.343 63.625V63.625ZM246.896 156.774C260.089 156.792 272.736 162.048 282.065 171.389C291.394 180.73 296.644 193.395 296.663 206.606C296.675 214.938 294.578 223.137 290.567 230.437C284.355 225.371 277.286 221.462 269.695 218.896C271.71 215.113 272.769 210.893 272.781 206.606C272.83 203.171 272.197 199.76 270.918 196.573C269.64 193.385 267.741 190.484 265.333 188.037C262.925 185.591 260.055 183.648 256.89 182.322C253.726 180.996 250.329 180.313 246.899 180.313C243.469 180.313 240.072 180.996 236.908 182.322C233.743 183.648 230.874 185.591 228.465 188.037C226.057 190.484 224.158 193.385 222.88 196.573C221.601 199.76 220.968 203.171 221.017 206.606C220.987 210.906 222.053 215.144 224.113 218.917C216.523 221.484 209.454 225.392 203.242 230.458C199.231 223.158 197.133 214.959 197.145 206.627C197.144 193.41 202.384 180.734 211.714 171.385C221.043 162.037 233.698 156.781 246.896 156.774V156.774ZM125.243 343.231C112.051 343.213 99.4048 337.957 90.0766 328.615C80.7484 319.274 75.4998 306.61 75.4816 293.399H99.3799C99.3799 296.803 100.049 300.174 101.35 303.319C102.651 306.464 104.558 309.321 106.961 311.728C109.365 314.135 112.218 316.044 115.359 317.347C118.499 318.65 121.865 319.32 125.264 319.32C128.664 319.32 132.03 318.65 135.17 317.347C138.311 316.044 141.164 314.135 143.568 311.728C145.971 309.321 147.878 306.464 149.179 303.319C150.48 300.174 151.149 296.803 151.149 293.399H175.047C175.045 299.946 173.754 306.428 171.25 312.475C168.745 318.523 165.076 324.017 160.451 328.644C155.827 333.272 150.337 336.941 144.296 339.444C138.255 341.947 131.781 343.234 125.243 343.231V343.231ZM125.243 273.243C113.742 273.234 102.502 269.809 92.944 263.403C83.3862 256.996 75.9401 247.895 71.5473 237.251C67.1544 226.607 66.0121 214.897 68.2648 203.602C70.5174 192.308 76.0639 181.936 84.2029 173.798C92.3418 165.661 102.708 160.122 113.99 157.884C125.272 155.646 136.963 156.808 147.586 161.223C158.208 165.639 167.284 173.11 173.667 182.691C180.05 192.272 183.452 203.533 183.444 215.051C183.438 222.699 181.928 230.271 179 237.334C176.072 244.398 171.784 250.815 166.379 256.218C160.975 261.622 154.56 265.907 147.502 268.828C140.444 271.749 132.88 273.249 125.243 273.243ZM246.896 343.231C235.39 343.239 224.14 339.83 214.57 333.434C204.999 327.037 197.538 317.942 193.131 307.298C188.724 296.654 187.569 284.941 189.811 273.639C192.054 262.338 197.594 251.957 205.73 243.809C213.866 235.662 224.233 230.114 235.518 227.868C246.804 225.622 258.501 226.779 269.13 231.192C279.758 235.606 288.841 243.077 295.228 252.661C301.615 262.245 305.02 273.511 305.012 285.034C304.982 300.459 298.85 315.245 287.958 326.153C277.065 337.06 262.301 343.201 246.896 343.231V343.231ZM281.214 285.034C281.214 291.831 279.202 298.475 275.431 304.127C271.66 309.778 266.3 314.183 260.029 316.784C253.759 319.385 246.858 320.066 240.201 318.74C233.544 317.414 227.429 314.141 222.63 309.334C217.83 304.528 214.562 298.405 213.238 291.738C211.914 285.072 212.593 278.162 215.191 271.882C217.788 265.602 222.187 260.235 227.83 256.459C233.474 252.683 240.109 250.667 246.896 250.667C251.404 250.664 255.868 251.551 260.033 253.277C264.198 255.004 267.982 257.535 271.169 260.727C274.356 263.918 276.884 267.708 278.608 271.879C280.331 276.05 281.217 280.52 281.214 285.034V285.034ZM159.561 215.051C159.561 221.848 157.549 228.492 153.778 234.144C150.007 239.795 144.647 244.2 138.376 246.801C132.105 249.403 125.205 250.083 118.548 248.757C111.891 247.431 105.776 244.158 100.977 239.352C96.1773 234.545 92.9088 228.422 91.5846 221.756C90.2605 215.089 90.9401 208.179 93.5375 201.9C96.135 195.62 100.534 190.253 106.177 186.476C111.821 182.7 118.456 180.685 125.243 180.685C134.341 180.699 143.061 184.324 149.494 190.766C155.927 197.208 159.547 205.941 159.561 215.051V215.051Z" fill="white"/>
</svg>
