<svg width="1278" height="500" viewBox="0 0 1278 500" fill="none" xmlns="http://www.w3.org/2000/svg">
<path d="M66.4586 305.847C71.7286 291.701 81.9912 280.329 95.3048 273.117L117.772 286.153C126.925 291.423 124.983 305.569 116.939 310.284L70.8965 336.912C68.1228 338.576 64.7944 337.744 63.4075 334.97C63.1302 334.415 62.8528 333.583 62.8528 333.029C62.0207 323.875 63.1302 314.445 66.4586 305.847Z" fill="white"/>
<path d="M138.574 244.828C138.574 237.062 134.691 229.573 128.034 225.135L0.999634 151.91C2.38647 193.793 25.1306 232.069 60.911 253.427L117.494 286.156C126.37 291.426 124.706 305.849 116.662 310.287L130.808 301.966C135.246 299.47 138.019 294.477 138.019 289.484V272.842C138.019 272.842 138.574 244.828 138.574 244.828Z" fill="white"/>
<path opacity="0.2" d="M117.771 286.153L95.3046 273.117C95.3046 273.117 109.728 285.321 115.275 291.701C120.545 297.803 116.939 310.562 116.939 310.562C124.706 306.124 126.647 291.423 117.771 286.153Z" fill="white"/>
<path d="M218.456 194.626C213.186 208.772 202.923 220.422 189.887 227.356L167.42 214.319C158.267 209.049 160.209 194.904 168.252 190.188L214.295 163.561C217.069 162.174 220.12 163.284 221.507 165.78C221.784 166.335 222.061 167.167 222.061 167.722C222.894 176.597 221.507 186.028 218.456 194.626Z" fill="white"/>
<path d="M146.34 255.648C146.34 263.692 150.223 270.903 156.88 275.341L283.915 348.566C282.528 306.684 260.061 268.407 224.003 246.772L167.143 214.32C158.267 209.05 159.931 194.627 167.975 190.189L153.829 198.51C149.391 201.007 146.618 205.999 146.618 210.992V227.634C146.618 227.911 146.34 255.648 146.34 255.648Z" fill="white"/>
<path opacity="0.2" d="M167.143 214.317L189.61 227.353C189.61 227.353 175.186 215.149 169.639 208.769C164.369 202.667 167.975 189.908 167.975 189.908C159.931 194.623 158.267 209.047 167.143 214.317Z" fill="white"/>
<path d="M292.79 248.544C292.79 236.617 295.009 224.967 299.17 213.873C307.768 190.574 324.965 171.713 347.432 161.45C359.913 155.626 373.504 152.852 387.373 153.129C403.46 152.574 419.27 156.735 433.138 164.779C445.342 171.99 455.328 182.53 461.984 195.012L433.416 214.705C431.197 209.712 428.146 204.997 424.262 201.114C420.934 197.508 417.051 194.734 412.613 192.238C408.453 190.019 404.292 188.632 399.577 187.523C395.139 186.691 390.701 186.136 386.263 186.136C377.665 185.859 369.344 187.8 361.855 191.683C355.198 195.289 349.096 200.282 344.658 206.384C339.943 212.486 336.337 219.42 334.118 226.909C331.899 234.398 330.512 241.887 330.512 249.653C330.512 257.974 331.899 266.295 334.395 274.061C336.892 281.55 340.775 288.485 345.767 294.864C350.76 300.689 356.585 305.681 363.519 309.287C370.453 312.893 378.497 314.834 386.263 314.834C390.701 314.834 395.416 314.28 399.854 313.17C404.569 312.061 409.007 310.397 413.168 307.9C417.328 305.404 421.211 302.353 424.54 299.025C428.146 295.141 431.197 290.704 433.138 285.711L463.649 303.185C460.598 310.397 456.16 316.776 450.612 322.323C445.065 327.871 438.686 332.586 431.474 336.192C424.262 340.075 416.496 342.849 408.73 344.79C400.964 346.732 392.92 347.841 384.876 347.841C371.84 347.841 359.081 345.068 347.432 339.243C336.337 333.695 326.352 325.929 318.031 316.776C309.987 307.623 303.33 296.806 298.892 285.434C295.009 273.229 292.513 260.748 292.79 248.544Z" fill="white"/>
<path d="M616.478 246.878C613.15 238.279 608.157 230.235 601.778 223.579C595.121 216.644 587.355 211.374 578.479 207.491C568.771 203.331 558.231 201.389 547.414 201.667C536.874 201.389 526.056 203.608 516.349 207.491C498.597 214.98 485.006 229.126 478.349 247.155C471.415 265.184 471.415 285.154 478.349 302.906C485.006 320.657 498.874 335.08 516.349 342.292C536.319 350.336 558.508 350.336 578.479 342.292C587.355 338.686 595.121 333.139 601.778 326.205C608.157 319.27 612.873 311.504 616.201 302.906C623.412 284.877 623.412 264.906 616.478 246.878ZM581.53 292.088C579.866 297.081 577.092 301.519 573.764 305.679C563.501 317.329 547.136 320.935 532.991 314.555C528.553 312.336 524.392 309.563 521.341 305.679C518.013 301.796 515.239 297.358 513.575 292.366C509.969 281.271 509.692 269.344 513.298 258.25C514.962 253.257 517.735 248.542 521.064 244.659C524.392 241.053 528.275 238.002 532.713 235.783C537.151 233.564 542.144 232.454 547.136 232.454C557.122 232.454 566.83 236.615 573.486 244.381C576.815 248.264 579.588 252.98 581.253 257.972C583.194 263.52 584.026 269.067 584.026 274.892C584.304 280.716 583.472 286.541 581.53 292.088Z" fill="white"/>
<path d="M665.295 204.166H629.237V345.623H665.295V204.166Z" fill="white"/>
<path d="M805.92 345.624H769.863V266.297C770.695 257.699 768.476 248.823 764.038 241.334C760.155 236.064 754.053 233.29 747.396 233.568C743.513 233.568 739.907 234.4 736.301 235.787C732.418 237.173 728.812 239.392 725.484 241.889C722.155 244.662 719.104 247.713 716.331 251.319C713.557 254.925 711.615 258.808 710.506 263.246V345.902H674.171V204.167H706.9V230.517C712.17 221.364 720.214 214.152 729.644 209.437C740.184 204.167 751.556 201.67 763.206 201.948C770.695 201.67 778.184 203.335 784.84 206.663C790.11 209.714 794.548 214.152 797.877 219.422C801.205 224.969 803.147 230.794 804.256 237.173C805.366 243.83 805.92 250.765 805.92 257.421V345.624Z" fill="white"/>
<path d="M1278 153.964H1221.14L1186.47 214.708L1151.52 153.964H1094.66L1105.2 170.052C1102.43 167.833 1099.38 166.168 1096.32 164.504C1081.62 156.461 1064.98 152.577 1048.06 153.132C1033.92 152.855 1019.77 155.628 1006.73 161.453C995.085 166.723 984.822 174.212 975.947 183.365C973.45 186.139 971.231 188.913 969.012 191.964C959.582 178.373 946.268 168.11 931.013 162.008C917.699 156.738 903.554 154.242 889.131 154.519H815.351V346.18H889.131C902.722 346.457 916.035 343.961 928.794 339.246C940.166 335.085 950.706 328.428 959.305 319.83C963.188 315.947 966.793 311.509 969.845 307.071C972.063 310.4 974.837 313.451 977.333 316.502C985.932 325.932 996.194 333.698 1007.84 338.968C1020.05 344.793 1033.36 347.567 1046.95 347.289C1055.27 347.289 1063.59 346.18 1071.92 344.238C1080.24 342.297 1088.28 339.523 1096.05 335.64C1100.48 333.421 1104.65 330.647 1108.53 327.874L1096.6 345.903H1153.46L1186.19 288.21L1218.92 345.903H1275.5L1213.65 251.32L1278 153.964ZM929.071 269.627C927.407 275.451 924.634 280.999 920.75 285.714C917.145 290.152 912.429 293.758 907.437 296.254C901.612 298.75 895.51 300.137 889.131 300.137H868.051V200.007H889.131C895.233 200.007 901.612 201.117 907.159 203.613C912.429 205.832 917.145 209.438 920.75 213.876C924.634 218.591 927.407 223.861 929.349 229.408C931.29 236.065 932.4 242.722 932.4 249.656C932.123 256.313 931.013 262.97 929.071 269.627ZM1126 300.692L1086.06 276.838C1084.67 280.999 1082.46 284.604 1079.4 287.933C1076.63 290.984 1073.58 293.203 1069.97 295.144C1066.65 297.086 1062.76 298.473 1058.88 299.028C1055.27 299.86 1051.67 300.137 1047.78 300.137C1041.41 300.137 1035.03 298.75 1029.2 295.976C1023.93 293.48 1018.94 289.597 1015.33 284.882C1011.45 280.167 1008.68 274.619 1006.73 268.794C1004.79 262.692 1003.68 256.036 1003.68 249.656C1003.68 243.554 1004.52 237.452 1006.18 231.627C1007.84 225.802 1010.34 220.255 1013.95 215.54C1017.55 210.825 1022.27 206.664 1027.54 203.89C1033.64 200.839 1040.3 199.175 1047.23 199.453C1050.84 199.453 1054.72 199.73 1058.32 200.562C1062.21 201.394 1065.81 202.504 1069.42 204.445C1073.03 206.387 1076.35 208.606 1079.13 211.657C1082.18 214.985 1084.67 218.868 1086.34 223.306L1122.95 197.234L1158.45 251.32L1126 300.692Z" fill="white"/>
<path d="M665.295 153.963H629.237V190.021H665.295V153.963Z" fill="white"/>
</svg>
