<svg width="1278" height="500" viewBox="0 0 1278 500" fill="none" xmlns="http://www.w3.org/2000/svg">
<g clip-path="url(#clip0)">
<path d="M715.957 173.807C697.022 181.171 681.242 183.275 663.359 179.067C631.799 170.651 609.708 142.247 609.708 109.636C609.708 94.9087 609.708 80.1814 609.708 61.2459C603.396 71.7656 594.981 72.8177 586.565 73.8697C567.629 75.9736 556.057 90.7012 556.057 110.689C556.057 126.468 556.057 143.3 556.057 159.079C556.057 173.807 548.694 182.223 537.122 182.223C525.55 182.223 519.238 173.807 519.238 159.079C519.238 143.3 519.238 126.468 519.238 110.689C519.238 72.8177 544.486 44.4142 582.357 38.1024C593.928 35.9984 603.396 38.1028 610.76 49.6745C617.072 40.2067 624.436 33.8949 636.008 39.1547C646.527 43.3626 648.631 52.8299 648.631 62.2976C648.631 78.0772 648.631 93.8568 648.631 109.636C648.631 129.624 664.411 145.403 683.346 146.455C703.334 146.455 719.113 130.676 719.113 109.636C719.113 91.7528 719.113 74.9213 719.113 57.0377C720.165 41.2582 733.841 32.8429 745.412 39.1547C751.724 42.3107 754.88 48.622 754.88 57.0377C754.88 94.9087 755.932 131.728 754.88 169.599C753.828 200.106 736.997 221.145 709.646 232.717C681.242 243.237 655.995 237.977 632.852 217.99C624.436 210.626 623.383 200.106 629.695 192.742C637.059 183.275 646.527 183.274 657.047 190.638C678.086 206.418 700.178 203.262 712.801 183.274C713.853 179.066 713.853 178.015 715.957 173.807Z" fill="white"/>
<path d="M1109.4 434.698C1074.68 448.374 1044.17 445.218 1018.93 418.919C1005.25 405.243 998.939 388.412 998.939 369.476C998.939 350.541 998.939 331.605 998.939 311.618C998.939 297.942 1006.3 290.578 1017.87 290.578C1028.39 290.578 1036.81 300.046 1036.81 312.67C1036.81 329.501 1036.81 346.333 1036.81 362.112C1036.81 387.359 1052.59 404.191 1074.68 404.191C1096.77 404.191 1111.5 387.36 1111.5 363.164C1111.5 346.333 1111.5 329.501 1111.5 311.618C1111.5 298.994 1118.86 291.63 1130.44 290.578C1140.95 290.578 1150.42 297.942 1150.42 310.566C1150.42 351.593 1152.53 392.62 1149.37 433.647C1146.21 463.102 1129.38 484.141 1100.98 494.661C1073.63 505.181 1047.33 499.921 1025.24 480.985C1018.93 475.726 1013.67 469.414 1015.77 459.946C1017.87 452.582 1022.08 447.322 1029.45 445.218C1037.86 443.114 1044.17 446.27 1049.43 451.53C1071.52 469.413 1096.77 463.102 1109.4 434.698Z" fill="white"/>
<path d="M806.43 173.807C806.43 187.483 806.43 200.106 806.43 212.73C806.43 227.458 799.066 235.873 787.494 235.873C775.922 235.873 769.611 227.458 769.611 212.73C769.611 178.015 769.611 143.299 769.611 109.636C769.611 78.0772 789.598 49.6742 819.053 40.2064C849.56 30.7387 883.224 41.2584 901.107 66.5057C918.991 91.7531 918.991 126.468 901.107 151.715C882.172 178.014 849.56 188.534 819.053 178.014C814.845 176.963 811.69 175.911 806.43 173.807ZM876.911 109.636C876.911 88.5969 861.132 72.8173 841.145 72.8173C822.209 72.8173 806.43 87.5454 806.43 107.533C806.43 128.572 821.157 144.352 841.145 144.352C861.132 145.404 876.911 129.624 876.911 109.636Z" fill="white"/>
<path d="M890.585 407.348C890.585 416.816 890.585 426.283 890.585 435.751C890.585 444.167 887.429 451.531 879.013 454.687C870.597 457.843 863.233 457.842 856.922 450.479C851.662 444.167 848.506 448.375 844.298 450.479C811.687 464.154 775.92 455.739 753.829 428.387C732.789 402.088 731.737 363.165 751.724 335.813C770.66 310.566 804.323 298.995 834.83 308.462C867.441 318.982 887.429 346.334 888.481 381.049C890.585 390.516 890.585 398.932 890.585 407.348ZM814.843 344.23C793.803 344.23 776.971 360.009 776.971 381.049C776.971 402.088 794.855 419.971 814.843 418.919C834.83 418.919 851.662 401.036 851.662 381.049C851.662 360.009 834.83 344.23 814.843 344.23Z" fill="white"/>
<path d="M350.927 102.276C350.927 141.198 350.927 180.121 351.979 220.096C351.979 226.408 348.823 228.512 344.615 231.668C334.095 239.032 321.472 241.135 314.108 251.655C308.848 251.655 305.692 253.759 301.485 255.863C280.445 266.383 261.509 281.111 239.418 289.526C239.418 275.851 239.418 263.227 239.418 249.552C240.47 248.5 241.522 247.447 241.522 247.447C246.782 247.447 250.99 246.395 254.146 240.084C247.834 242.188 243.626 243.24 241.522 247.447C240.47 247.447 239.418 247.447 239.418 247.447C239.418 219.044 239.418 190.641 239.418 162.237C252.042 158.03 263.613 152.77 272.029 142.25C286.756 135.938 301.485 130.678 312.004 117.003C320.42 118.055 326.732 112.795 334.095 109.639C339.355 106.483 344.615 101.224 350.927 102.276ZM312.004 207.473C314.108 207.473 317.264 208.525 318.316 205.369L317.264 203.265C314.108 202.213 313.056 204.317 312.004 207.473C310.952 207.473 312.004 207.473 312.004 207.473ZM294.121 216.94C298.329 216.94 302.536 215.888 304.64 211.68V210.628C304.64 210.628 304.64 211.68 303.588 211.68C300.432 211.68 296.225 212.732 294.121 216.94C294.121 217.992 294.121 216.94 294.121 216.94C294.121 216.94 294.121 217.992 294.121 216.94ZM277.289 227.46C281.497 227.46 285.704 226.408 287.808 222.2V221.148C287.808 221.148 287.809 222.2 286.757 222.2C282.549 222.2 278.341 222.2 277.289 227.46C276.237 227.46 276.237 227.46 277.289 227.46C276.237 227.46 276.237 227.46 277.289 227.46ZM270.977 230.616C266.769 229.564 263.613 230.616 262.561 234.824C266.769 236.928 269.925 234.823 270.977 230.616Z" fill="white"/>
<path d="M506.616 456.79C464.537 456.79 430.874 423.127 430.874 379.996C430.874 337.917 465.588 304.254 507.667 304.254C549.746 304.254 584.461 340.021 583.409 381.048C583.409 424.179 548.695 456.79 506.616 456.79ZM506.616 344.229C486.628 344.229 469.797 361.061 469.797 381.048C469.797 401.036 487.68 418.919 507.667 418.919C528.707 418.919 545.538 402.088 545.538 381.048C544.486 360.009 527.655 344.229 506.616 344.229Z" fill="white"/>
<path d="M239.416 249.55C239.416 263.225 239.416 275.849 239.416 289.524C237.312 288.472 234.156 287.421 232.052 286.369C209.961 274.797 189.973 260.069 166.83 250.601C157.362 242.186 145.79 236.925 135.271 230.614C131.063 227.458 126.855 225.354 126.855 219.042C126.855 180.119 126.855 141.196 126.855 103.325C126.855 102.273 127.907 100.169 128.959 99.1172C165.778 120.157 202.597 141.196 239.416 161.184C239.416 189.587 239.416 217.99 239.416 246.393C239.416 247.445 239.416 248.498 239.416 249.55ZM199.441 189.587C199.441 181.171 191.026 180.119 185.766 176.963C171.038 167.496 171.038 167.496 169.986 184.327C169.986 187.483 167.882 191.691 167.882 194.847C167.882 199.055 166.83 203.262 173.142 204.314C176.298 206.418 179.453 209.574 182.609 211.678C187.869 213.782 193.129 220.094 198.389 217.991C203.649 214.835 200.493 207.471 200.493 202.211C199.441 198.003 199.441 193.795 199.441 189.587Z" fill="white"/>
<path d="M1150.43 107.538C1151.48 147.513 1117.81 180.124 1077.84 181.176C1037.86 181.176 1005.25 149.617 1004.2 109.642C1003.15 70.7188 1036.81 36.0037 1076.79 36.0037C1116.76 33.8998 1150.43 67.5634 1150.43 107.538ZM1075.74 144.357C1094.67 145.409 1111.5 129.63 1113.61 110.694C1114.66 91.7586 1098.88 73.8747 1079.94 72.8228C1061.01 71.7708 1043.12 87.5509 1042.07 107.538C1041.02 125.422 1056.8 143.305 1075.74 144.357Z" fill="white"/>
<path d="M239.418 162.238C202.599 141.199 165.78 120.16 128.961 100.172C140.533 89.6527 155.26 83.341 168.936 75.9772C189.975 63.3535 211.015 51.7816 231.002 40.2099C235.21 38.106 239.418 34.9503 244.678 39.1582C278.341 59.1456 313.056 79.1329 346.719 98.0683C348.823 99.1203 350.927 101.224 349.875 103.328C342.511 102.276 338.303 108.588 331.991 110.692C324.628 113.848 318.316 119.108 309.9 118.056C296.225 109.64 282.549 102.276 269.925 93.8602C266.769 91.7563 263.613 90.7047 260.457 94.9126C250.99 104.38 239.418 111.744 223.638 113.848C233.106 119.108 240.47 124.368 247.834 128.576C255.197 132.784 263.613 138.043 270.977 142.251C263.613 152.771 250.99 156.979 239.418 162.238ZM258.353 85.4446C257.301 85.4446 257.301 85.4446 256.249 85.4446V86.4969C257.301 86.4969 257.301 86.4965 258.353 85.4446Z" fill="white"/>
<path d="M668.621 456.792C634.958 456.792 605.503 434.7 596.035 403.141C586.567 370.53 599.191 334.763 628.646 316.88C657.049 298.996 693.868 301.1 719.115 323.192C729.635 332.659 731.739 343.179 724.375 352.647C717.011 362.115 705.44 362.115 693.868 352.647C678.089 340.023 655.997 341.075 642.321 354.751C629.698 368.427 628.646 390.518 641.27 405.245C653.893 419.973 675.984 422.077 692.816 410.505C694.92 409.453 695.972 407.349 697.024 406.297C706.492 399.985 717.012 401.037 723.323 408.401C729.635 415.765 729.635 426.285 722.272 434.7C707.544 449.428 689.66 456.792 668.621 456.792Z" fill="white"/>
<path d="M454.017 181.174C422.458 181.174 394.054 160.134 384.586 129.627C375.118 99.1197 387.742 65.4568 414.041 47.5732C441.392 29.6897 476.108 31.7937 501.355 52.8331C511.875 61.2489 513.979 71.7687 507.667 81.2365C500.303 90.7042 489.784 90.7042 478.212 81.2365C465.588 70.7168 449.809 69.6645 436.133 77.0283C423.509 84.3921 416.145 99.12 418.249 112.796C420.353 127.523 431.925 140.147 447.704 143.302C459.276 145.406 468.744 141.199 478.212 134.887C488.732 126.471 500.303 126.471 506.615 134.887C513.979 143.303 511.875 153.822 501.355 163.29C488.732 174.862 472.952 180.122 454.017 181.174Z" fill="white"/>
<path d="M933.719 103.327C933.719 99.1192 933.719 93.8595 933.719 89.6516C934.771 78.0799 933.719 69.6643 917.94 70.7162C908.472 71.7682 902.16 62.3003 902.16 52.8326C902.16 42.3129 908.472 33.897 918.991 34.9489C932.667 34.9489 934.771 30.7411 933.719 19.1694C932.667 6.5457 941.083 -0.818359 952.655 -0.818359C963.174 -0.818359 971.59 6.54596 970.538 18.1176C969.486 32.8453 974.746 36.0012 987.37 33.8972C990.526 32.8453 994.734 33.8972 998.942 33.8972C1009.46 36.0012 1016.82 43.3646 1015.77 53.8843C1014.72 63.352 1007.36 70.7162 996.838 70.7162C970.538 71.7682 970.538 71.768 970.538 98.0672C970.538 106.483 970.538 114.899 970.538 123.315C970.538 136.99 976.85 143.302 990.526 143.302C996.838 143.302 1003.15 142.25 1008.41 147.51C1014.72 152.77 1016.83 159.082 1014.72 166.445C1012.62 174.861 1007.36 179.069 998.942 180.121C964.227 185.381 933.72 160.133 932.668 125.418C933.72 119.106 933.719 110.691 933.719 103.327Z" fill="white"/>
<path d="M949.499 352.645C949.499 325.294 949.499 298.995 949.499 271.644C949.499 257.968 956.862 248.5 968.434 248.5C980.006 248.5 988.422 256.916 988.422 270.592C988.422 325.294 988.422 379.996 988.422 435.751C988.422 450.478 980.006 457.843 968.434 457.843C956.862 457.843 949.499 449.427 949.499 434.699C949.499 407.348 949.499 379.997 949.499 352.645Z" fill="white"/>
<path d="M421.409 352.645C421.409 377.893 421.409 403.14 421.409 428.388C421.409 432.595 421.41 435.751 420.358 439.959C418.254 451.531 410.89 457.842 399.318 456.79C387.747 455.738 381.435 448.375 381.435 437.855C381.435 381.048 381.435 324.242 381.435 268.488C381.435 256.916 390.903 248.5 401.422 248.5C412.994 248.5 420.358 256.916 420.358 270.592C421.41 297.943 421.409 325.294 421.409 352.645Z" fill="white"/>
<path d="M901.108 352.645C901.108 325.294 901.108 297.943 901.108 270.592C901.108 256.916 907.419 248.5 918.991 248.5C930.562 248.5 938.978 256.916 938.978 270.592C938.978 325.294 938.978 379.997 938.978 434.699C938.978 449.427 931.614 456.79 918.991 456.79C907.419 456.79 901.108 449.427 901.108 434.699C901.108 407.348 901.108 379.997 901.108 352.645Z" fill="white"/>
<path d="M131.062 276.904C127.906 273.748 128.958 271.644 132.114 270.592C141.582 265.332 152.101 260.072 161.569 254.812C161.569 256.916 162.621 260.072 164.725 261.124C186.817 273.748 209.96 287.423 232.051 300.047C236.259 302.151 241.519 303.203 245.727 300.047C270.974 285.32 296.222 270.592 320.417 256.916C327.781 261.124 336.197 265.332 343.561 269.54C348.82 272.696 349.872 275.852 344.612 280.059C329.885 283.215 319.365 292.683 306.742 300.047C283.598 311.619 262.558 328.45 237.311 337.918C220.479 328.45 204.7 318.982 187.868 309.515C169.985 298.995 152.102 285.319 131.062 276.904Z" fill="white"/>
<path d="M239.416 336.864C264.664 327.397 285.703 310.565 308.846 298.993C321.47 292.681 333.042 283.214 346.718 279.006C321.47 321.085 296.223 363.164 270.976 405.242C260.456 422.074 250.988 438.906 240.468 454.685H239.416L238.365 453.633C239.417 415.762 239.416 375.787 239.416 336.864Z" fill="white"/>
<path d="M239.416 336.865C239.416 375.788 239.416 415.763 239.416 454.686C218.377 419.971 197.337 386.307 176.298 351.592C161.57 326.345 146.842 302.15 132.115 276.902C153.154 285.318 171.038 297.942 191.026 308.461C206.805 317.929 222.584 327.397 239.416 336.865Z" fill="white"/>
<path d="M322.522 256.915C297.275 271.643 272.027 286.371 247.832 300.046C242.572 303.202 238.364 302.15 234.156 300.046C212.065 287.423 188.921 273.747 166.83 261.123C164.726 260.071 163.674 256.916 163.674 254.812C165.778 253.76 166.83 252.707 168.934 250.604C192.077 260.071 212.065 274.799 234.156 286.371C236.26 287.423 239.416 288.475 241.52 289.527C263.612 281.111 282.547 266.383 303.586 255.863C307.794 253.759 312.002 251.655 316.21 251.655C316.21 252.707 319.366 254.811 322.522 256.915Z" fill="white"/>
<path d="M272.025 142.251C264.661 138.043 256.246 132.783 248.882 128.575C241.518 124.367 234.154 119.107 224.686 113.847C240.466 111.743 252.037 104.38 261.505 94.912C265.713 90.7041 267.817 92.8077 270.973 93.8597C284.649 101.223 298.324 109.64 310.948 118.056C301.48 130.679 286.752 135.939 272.025 142.251Z" fill="white"/>
<path d="M241.519 246.396C243.622 242.189 247.831 241.137 254.142 239.033C250.986 246.397 246.778 247.448 241.519 246.396C241.519 246.396 241.519 247.448 241.519 246.396Z" fill="white"/>
<path d="M270.974 230.618C268.87 234.826 266.766 235.878 262.558 234.826C264.662 230.618 266.766 229.566 270.974 230.618Z" fill="white"/>
<path d="M286.757 222.201C284.653 226.409 281.497 227.461 276.237 227.461C278.341 222.201 282.549 222.201 286.757 222.201Z" fill="white"/>
<path d="M304.637 211.682C302.533 215.89 299.378 216.941 294.118 216.941C296.222 212.734 300.43 211.682 304.637 211.682Z" fill="white"/>
<path d="M312.003 206.422C313.055 204.318 314.107 202.215 317.263 202.215C317.263 202.215 318.315 203.266 318.315 204.318C317.263 207.474 314.107 206.422 312.003 206.422Z" fill="white"/>
<path d="M286.757 222.199C286.757 221.147 286.757 221.147 286.757 222.199C287.809 221.147 286.757 221.147 286.757 222.199Z" fill="white"/>
<path d="M239.418 249.551C239.418 248.499 239.418 247.447 239.418 247.447C240.47 247.447 241.522 247.447 241.522 247.447C241.522 247.447 240.47 248.499 239.418 249.551Z" fill="white"/>
<path d="M277.288 227.458C276.236 227.458 276.236 227.458 277.288 227.458C276.236 227.458 276.236 227.458 277.288 227.458C277.288 227.458 277.288 226.406 277.288 227.458Z" fill="white"/>
<path d="M312.003 207.471C310.951 207.471 312.003 207.471 312.003 207.471C312.003 206.419 312.003 207.471 312.003 207.471Z" fill="white"/>
<path d="M172.092 204.314C165.78 203.262 166.832 199.055 166.832 194.847C166.832 191.691 168.936 187.483 168.936 184.327C171.04 168.548 171.04 167.496 184.716 176.963C189.976 180.119 198.392 180.119 198.392 189.587C187.872 190.639 179.456 196.951 172.092 204.314Z" fill="white"/>
<path d="M172.088 204.317C180.503 196.953 187.868 190.642 199.439 189.59C199.439 193.798 199.439 198.006 199.439 202.214C198.387 207.473 202.595 214.837 197.335 217.993C192.075 220.097 186.816 214.837 181.556 211.681C178.4 209.577 175.244 206.421 172.088 204.317Z" fill="white"/>
<path d="M258.35 85.4423C257.298 85.4423 257.298 85.4423 257.298 85.4423V84.3906C256.246 85.4426 257.298 85.4423 258.35 85.4423Z" fill="white"/>
</g>
<defs>
<clipPath id="clip0">
<rect width="1278" height="500" fill="white"/>
</clipPath>
</defs>
</svg>
