<svg width="1278" height="500" viewBox="0 0 1278 500" fill="none" xmlns="http://www.w3.org/2000/svg">
<path d="M102.549 55.7949H480.811L187.983 351.099L148.981 312.097L270.94 187.661L134.741 190.137L183.03 138.753L317.372 141.229L343.993 112.132H142.171L102.549 55.7949Z" fill="white"/>
<path d="M387.949 187.662H459.144L300.658 358.53H224.51L387.949 187.662Z" fill="white"/>
<path d="M195.412 216.76H107.502L0.399902 326.957L112.454 443.965H459.143L402.806 385.151H156.409L95.739 319.528L200.365 216.76H195.412Z" fill="white"/>
<path d="M648.639 305.65V280.869H681.598V301.685C681.598 323.492 671.355 334.396 650.869 334.396H619.645C599.159 334.396 588.917 323.492 588.917 301.685V201.818C588.917 180.01 599.159 169.107 619.645 169.107H650.869C671.355 169.107 681.598 180.01 681.598 201.818V216.934H648.639V197.605C648.639 196.283 648.143 195.127 647.152 194.135C646.326 193.144 645.252 192.649 643.931 192.649H628.318C626.997 192.649 625.84 193.144 624.849 194.135C624.023 195.127 623.61 196.283 623.61 197.605V305.65C623.61 306.972 624.023 308.128 624.849 309.119C625.84 310.111 626.997 310.606 628.318 310.606H643.931C645.252 310.606 646.326 310.111 647.152 309.119C648.143 308.128 648.639 306.972 648.639 305.65ZM795.345 171.585L760.899 273.435V331.918H726.206V273.435L691.76 171.585H724.471L743.552 238.493L762.634 171.585H795.345ZM888.415 244.193C899.153 247.993 904.523 256.749 904.523 270.461V299.207C904.523 321.014 894.28 331.918 873.794 331.918H810.107V171.585H871.812C892.297 171.585 902.54 182.488 902.54 204.296V218.916C902.54 232.133 897.832 240.559 888.415 244.193ZM863.138 195.127H844.8V237.998H863.138C864.46 237.998 865.534 237.502 866.36 236.511C867.351 235.52 867.847 234.363 867.847 233.042V200.083C867.847 198.761 867.351 197.605 866.36 196.614C865.534 195.622 864.46 195.127 863.138 195.127ZM869.829 303.172V267.239C869.829 265.918 869.333 264.761 868.342 263.77C867.516 262.779 866.442 262.283 865.121 262.283H844.8V308.128H865.121C866.442 308.128 867.516 307.633 868.342 306.641C869.333 305.65 869.829 304.494 869.829 303.172ZM962.897 303.172H1001.31V331.918H928.204V171.585H1001.31V199.835H962.897V237.502H998.83V264.761H962.897V303.172ZM1056.07 266.248V331.918H1021.37V171.585H1083.08C1103.57 171.585 1113.81 182.488 1113.81 204.296V222.881C1113.81 236.098 1109.1 244.524 1099.68 248.158C1107.94 251.132 1112.07 257.905 1112.07 268.479V331.918H1077.38V271.204C1077.38 267.9 1075.81 266.248 1072.67 266.248H1056.07ZM1056.07 195.127V241.963H1074.41C1075.73 241.963 1076.8 241.467 1077.63 240.476C1078.62 239.485 1079.11 238.328 1079.11 237.007V200.083C1079.11 198.761 1078.62 197.605 1077.63 196.614C1076.8 195.622 1075.73 195.127 1074.41 195.127H1056.07ZM1170.78 268.974V331.918H1136.08V171.585H1208.44V201.57H1170.78V239.98H1205.97V268.974H1170.78ZM1263.46 171.585V331.918H1228.77V171.585H1263.46Z" fill="white"/>
</svg>
