<svg width="1278" height="500" viewBox="0 0 1278 500" fill="none" xmlns="http://www.w3.org/2000/svg">
<g clip-path="url(#clip0)">
<path d="M476.52 361.96C457.012 361.96 437.919 361.96 418.411 361.96C411.354 361.96 405.128 363.62 408.864 351.583C431.693 268.984 453.692 186.385 475.69 103.786C476.936 98.3899 478.181 95.0693 484.407 95.0693C521.763 95.8994 559.12 91.3337 596.061 97.5597C689.037 112.917 706.469 193.856 680.735 260.682C655.001 327.509 600.626 355.318 532.555 361.129C513.877 362.79 495.199 361.545 476.52 361.545C476.52 361.545 476.52 361.545 476.52 361.96ZM480.256 305.925C504.745 310.076 537.121 308.415 557.044 302.189C577.798 295.548 596.061 284.756 609.343 266.908C637.153 230.797 641.719 165.631 583.609 150.689C565.761 146.123 547.913 148.613 530.065 147.783C521.763 147.368 521.763 153.594 520.518 158.575C506.821 207.968 493.538 256.947 480.256 305.925Z" fill="white"/>
<path d="M945.549 288.905C966.303 251.134 987.886 213.362 1007.81 175.176C1015.28 160.648 1024 155.252 1039.77 156.913C1052.22 158.158 1064.67 157.328 1077.54 157.328C1077.54 159.818 1078.79 162.309 1077.96 163.554C1033.13 237.021 989.547 311.319 943.474 383.541C915.664 427.539 874.987 431.689 835.141 418.407C824.349 414.671 820.613 409.276 829.745 399.314C834.311 394.333 838.876 388.937 842.197 382.711C847.593 372.749 853.404 368.599 866.271 373.164C887.44 380.636 898.231 371.919 895.741 350.336C889.515 294.716 882.874 239.512 875.818 183.892C872.497 156.913 871.667 156.913 899.062 156.913C931.437 156.913 931.852 156.913 934.758 189.703C937.663 222.494 939.738 255.284 941.814 288.075C943.059 288.075 944.304 288.49 945.549 288.905Z" fill="white"/>
<path d="M1182.97 359.88C1192.93 322.939 1202.48 285.998 1212.44 248.641C1216.59 233.284 1219.08 217.926 1201.65 208.795C1186.71 201.323 1164.71 208.38 1153.91 223.322C1140.63 241.585 1139.39 264.414 1132.75 285.168C1126.52 304.676 1120.29 324.599 1116.97 344.938C1114.48 359.88 1107.43 362.371 1094.56 361.541C1081.69 360.71 1068.41 361.541 1053.47 361.541C1070.9 295.959 1087.5 232.039 1104.52 168.118C1106.6 159.816 1110.75 154.835 1120.29 156.911C1136.07 160.231 1153.5 149.44 1168.03 163.552C1169.27 164.797 1175.08 160.646 1178.82 158.986C1196.67 151.1 1215.35 150.685 1234.02 154.42C1266.81 160.646 1284.25 192.192 1275.95 230.378C1269.72 257.773 1261.83 285.168 1254.78 312.147C1254.36 313.392 1253.53 314.638 1253.12 315.883C1239.42 367.767 1239.42 367.767 1182.97 359.88Z" fill="white"/>
<path d="M732.204 361.957C696.923 361.957 696.923 361.957 705.639 332.072C716.016 295.131 725.978 258.189 735.939 221.248C737.185 216.682 742.996 207.136 731.374 207.966C710.205 209.626 717.261 198.004 720.582 188.042C725.148 173.93 722.242 152.761 748.392 156.912C756.278 158.157 754.618 148.611 755.863 144.46C769.975 89.6707 818.124 70.9925 867.932 83.0296C879.139 85.52 879.969 89.2557 876.648 97.9721C874.573 102.953 872.913 108.349 872.498 113.745C870.837 129.933 865.026 137.819 847.178 129.933C840.537 127.027 832.236 129.517 825.595 134.083C818.539 139.064 811.482 145.705 813.558 154.007C815.633 162.308 825.595 157.327 831.821 157.742C860.876 158.572 860.045 157.742 854.234 185.967C850.499 203.815 842.613 212.532 823.934 208.381C804.426 204.23 796.54 212.947 792.389 232.04C784.503 266.906 773.711 300.942 765.41 335.392C760.014 354.486 754.203 369.843 732.204 361.957Z" fill="white"/>
<path d="M206.724 359.052C172.689 400.559 130.351 433.765 91.3348 471.121C95.4855 437.5 102.957 404.71 114.579 373.164C117.484 382.711 107.938 395.993 122.465 401.804C137.408 408.03 137.823 391.012 146.124 386.032C146.539 385.616 147.369 385.616 148.2 385.616C158.576 396.408 165.632 394.748 173.519 378.145C189.291 344.109 191.782 308.413 178.915 273.132C167.708 242.832 151.105 217.928 118.314 203.401C90.0896 190.948 60.6196 193.024 32.3948 186.383C36.1304 178.911 40.2811 171.025 44.8469 162.309C52.7332 169.78 61.0346 177.666 69.7511 176.421C99.6362 172.685 123.295 188.043 149.03 197.59C154.011 199.25 159.821 202.985 161.897 207.136C180.575 244.077 215.441 274.378 207.97 321.696C205.894 334.148 207.139 346.6 206.724 359.052Z" fill="white"/>
<path d="M206.724 359.053C206.724 346.6 205.479 334.148 207.554 322.111C215.026 274.378 180.16 244.078 161.482 207.552C159.406 203.401 153.595 199.666 148.614 198.005C122.88 188.459 98.8059 173.101 69.336 176.837C60.2044 178.082 51.903 170.196 44.4317 162.724C39.866 171.856 36.1303 179.327 31.9796 186.798C30.7344 186.798 29.4891 186.798 28.2439 186.798C27.4137 170.196 34.0551 155.253 39.8661 140.311C39.451 151.102 45.2618 154.008 55.2235 154.008C82.203 153.593 108.768 154.008 135.747 154.008C136.992 154.008 138.653 154.008 139.898 154.008C139.898 160.649 138.653 168.12 146.954 171.856C166.878 182.233 184.311 194.27 193.442 216.268C195.517 221.249 201.743 220.004 206.724 220.004C212.12 241.588 220.837 262.341 228.308 283.095C234.949 302.188 237.854 316.3 224.157 332.073C221.252 335.394 220.837 340.79 219.591 345.355C217.101 351.996 212.95 356.147 206.724 359.053Z" fill="white"/>
<path d="M28.2435 186.799C29.4887 186.799 30.734 186.799 31.9792 186.799C60.204 193.44 89.674 190.95 118.314 203.817C151.104 218.344 167.707 243.248 178.914 273.549C191.781 308.829 189.291 344.526 173.518 378.561C165.632 395.164 158.991 396.824 148.199 386.033C152.765 385.618 155.255 383.127 156.5 378.561C161.066 363.619 163.556 348.261 166.047 332.904C174.763 275.209 130.351 220.004 73.4863 220.004C64.3547 215.024 57.2985 229.966 47.7519 222.91C31.5641 211.288 24.508 217.099 23.6778 235.777C23.2627 243.248 20.3573 248.644 11.2257 244.494C14.5463 224.57 18.6969 205.062 28.2435 186.799Z" fill="white"/>
<path d="M256.534 77.6344C273.967 100.463 273.552 127.028 271.891 153.592C270.646 153.177 268.571 153.177 268.156 152.347C261.515 141.97 256.949 124.122 245.327 150.272C242.007 157.328 233.29 154.422 231.63 144.876C230.799 139.065 233.29 131.594 224.574 129.518C206.726 124.952 190.953 113.33 177.67 102.954C154.011 83.8605 128.692 78.4646 100.052 79.2947C68.092 80.1249 65.6016 77.2193 64.7715 45.674C66.0167 39.863 61.4508 30.3164 73.4879 30.3164C72.2427 41.5233 75.9783 46.9192 88.0153 46.5041C103.788 45.674 119.561 46.0891 135.333 46.5041C139.899 46.5041 145.71 44.4288 148.616 48.9946C152.766 55.6357 138.239 53.1453 141.974 60.2015C161.483 69.333 182.651 71.8234 205.48 72.6536C198.839 83.0303 186.802 75.144 183.067 85.1057C205.065 89.2564 226.649 99.2181 245.742 114.991C250.308 118.726 254.459 122.462 259.855 117.896C265.25 113.33 264.42 108.765 259.855 103.784C253.213 95.4824 256.949 86.3509 256.534 77.6344Z" fill="white"/>
<path d="M139.899 153.592C138.654 153.592 136.994 153.592 135.749 153.592C135.749 147.366 132.843 142.385 127.862 140.31C99.2222 127.858 70.1673 121.217 40.6973 136.989C39.4521 127.443 44.018 119.971 47.3386 111.67C72.2428 114.16 96.7318 113.745 121.636 118.726C154.012 125.367 171.86 151.932 200.915 161.063C202.575 161.478 204.235 163.554 205.065 165.629C213.367 182.232 231.215 188.458 244.082 199.665C245.327 205.476 246.987 210.872 248.233 216.683C251.138 218.343 253.628 219.588 256.534 221.249C255.289 235.361 256.534 248.643 264.835 260.68C272.307 271.472 274.382 283.094 272.722 295.961C266.911 303.848 260.685 311.319 251.968 316.3C249.478 285.999 240.761 257.775 224.574 231.625C219.178 222.909 215.027 220.003 206.31 220.418C206.31 186.798 173.105 153.592 139.899 153.592Z" fill="white"/>
<path d="M73.487 220.002C130.352 220.002 174.349 275.206 166.048 332.901C163.557 348.674 161.482 363.616 156.501 378.559C154.841 383.125 152.765 385.615 148.2 386.03C147.37 386.03 146.954 386.03 146.124 386.445C137.823 391.426 137.408 408.444 122.465 402.218C107.938 396.407 117.9 382.71 114.579 373.578C120.39 347.844 126.201 322.109 132.842 296.375C135.747 285.583 128.691 287.243 122.88 285.998C127.446 257.773 107.938 246.982 87.5995 237.02C80.1282 233.284 72.2418 230.794 73.487 220.002Z" fill="white"/>
<path d="M256.533 77.6345C256.948 86.351 252.798 95.8976 259.854 103.369C264.42 108.35 265.25 113.331 259.854 117.481C254.458 122.047 250.307 118.311 245.741 114.576C226.648 98.8032 205.065 88.8414 183.066 84.6907C186.801 74.729 198.838 82.6154 205.48 72.2386C182.651 71.4085 161.482 68.918 141.974 59.7865C138.238 52.7303 152.766 55.2207 148.615 48.5796C145.709 44.0138 139.899 46.0892 135.333 46.0892C119.56 45.6742 103.787 45.2591 88.0147 46.0892C75.5625 46.5043 71.8269 41.1083 73.4872 29.9014C104.202 29.4864 135.748 25.7507 165.633 29.9014C200.499 34.8823 237.855 40.2782 256.533 77.6345Z" fill="white"/>
<path d="M73.4871 220.006C72.2419 230.798 80.1282 233.289 88.0146 237.024C108.353 246.571 127.861 257.778 123.296 286.003C82.2036 286.003 40.6966 286.418 -0.395386 286.418C1.2649 278.116 2.51001 270.23 4.17029 261.928C9.5662 257.363 5.41555 248.646 11.2265 244.495C20.3581 248.646 23.2636 243.25 23.6786 235.779C24.5088 217.516 31.5649 211.29 47.7527 222.912C57.2993 229.968 64.3555 215.026 73.4871 220.006Z" fill="white"/>
<path d="M64.77 45.2617C65.6002 76.8071 68.0906 79.7126 100.051 78.8824C128.691 78.4674 153.595 83.4482 177.669 102.541C190.951 113.333 206.724 124.54 224.572 129.106C233.289 131.181 230.383 138.653 231.628 144.464C233.288 154.425 242.42 157.331 245.326 149.859C256.948 123.71 261.513 141.558 268.155 151.935C268.57 152.765 270.645 152.765 271.89 153.18C271.475 162.312 270.23 171.028 264.834 178.499C256.117 177.254 251.967 187.216 243.25 186.386C228.308 164.802 210.045 146.124 188.876 130.351C170.613 116.654 148.614 110.428 127.446 104.202C114.578 100.466 109.183 84.2783 93.8249 86.7688C80.1276 88.8441 66.8453 85.5236 54.8082 78.0523C58.1288 67.2605 58.544 55.2234 64.77 45.2617Z" fill="white"/>
<path d="M55.2236 78.4668C67.2607 85.9381 80.128 89.2587 94.2404 87.1833C109.598 84.6929 114.994 100.881 127.861 104.616C149.03 110.842 171.028 117.068 189.292 130.766C210.46 146.538 228.723 164.801 243.666 186.8C243.666 190.951 243.666 195.102 243.666 199.252C230.799 188.045 212.95 181.819 204.649 165.217C203.819 163.556 202.159 161.481 200.498 160.651C171.858 151.519 153.595 124.955 121.22 118.314C95.9006 113.333 71.4114 114.163 46.9222 111.257C49.8277 100.466 52.7332 89.6737 55.2236 78.4668Z" fill="white"/>
<path d="M206.309 220.003C215.025 219.588 219.176 222.494 224.572 231.21C240.76 257.359 249.891 285.584 251.967 315.884C242.005 327.091 233.703 339.959 219.176 345.354C220.836 340.789 220.836 335.393 223.742 332.072C237.439 316.3 234.534 302.187 227.893 283.094C220.421 262.34 211.705 241.587 206.309 220.003Z" fill="white"/>
<path d="M40.2819 136.989C70.167 121.216 98.8068 127.858 127.447 140.31C132.428 142.385 135.333 147.781 135.333 153.592C108.354 153.592 81.7889 153.177 54.8094 153.592C44.4326 153.592 39.0366 150.686 39.4517 139.895C39.4517 139.064 39.8668 137.819 40.2819 136.989Z" fill="white"/>
<path d="M272.722 295.547C273.967 282.679 272.307 271.058 264.836 260.266C256.534 248.229 255.289 234.946 256.534 220.834C267.741 220.834 278.533 220.834 289.74 220.834C284.759 230.796 301.362 237.437 293.061 248.229C286.419 256.945 289.325 266.077 294.306 274.793C288.08 282.679 281.023 289.736 272.722 295.547Z" fill="white"/>
<path d="M293.89 274.375C289.324 265.659 286.003 256.527 292.644 247.811C300.946 237.019 284.343 230.378 289.324 220.416C307.587 220.416 326.265 220.416 351.585 220.416C330.001 240.754 312.153 257.772 293.89 274.375Z" fill="white"/>
<path d="M243.665 199.253C243.665 195.102 243.665 190.952 243.665 186.801C251.967 187.631 256.532 177.254 265.249 178.915C264.004 193.442 257.362 205.479 248.231 216.686C246.571 210.875 244.91 205.064 243.665 199.253Z" fill="white"/>
<path d="M139.898 153.592C173.104 153.592 206.31 186.797 206.31 220.003C201.329 220.003 195.103 220.833 193.027 216.267C184.311 194.269 166.463 182.232 146.539 171.855C138.653 167.704 139.898 160.648 139.898 153.592Z" fill="white"/>
</g>
<defs>
<clipPath id="clip0">
<rect width="1278" height="500" fill="white"/>
</clipPath>
</defs>
</svg>
