<svg width="1278" height="500" viewBox="0 0 1278 500" fill="none" xmlns="http://www.w3.org/2000/svg">
<g clip-path="url(#clip0)">
<path d="M124.285 475.353C105.303 475.353 86.4601 475.353 67.4782 475.353C61.9361 475.353 62.2132 474.522 61.5204 470.504C60.412 464.962 60.1349 459.281 59.3035 453.6C58.3337 446.118 57.0867 438.636 55.9782 431.154C55.1469 425.474 54.5927 419.931 53.7614 414.251C52.6529 406.63 51.5445 399.01 50.4361 391.528C49.6047 385.847 49.0505 380.305 48.2192 374.624C47.1108 367.004 46.0023 359.383 44.8939 351.901C44.0626 346.221 43.5084 340.679 42.6771 334.998C41.5686 327.377 40.4602 319.757 39.3518 312.275C38.5204 306.733 37.9662 301.191 37.1349 295.649C36.0265 287.889 34.918 280.269 33.8096 272.51C32.9783 266.829 32.4241 261.01 31.5927 255.191C30.7614 249.51 29.7915 243.968 29.0988 238.426C28.2674 232.745 27.7132 226.926 26.8819 221.245C25.7735 213.763 24.5265 206.281 23.6952 198.799C23.1409 193.119 22.1711 187.576 21.4783 181.896C20.3699 174.275 19.1229 166.793 18.2915 159.034C17.7373 153.354 16.7675 147.811 16.0747 142.131C15.1048 134.51 13.7193 127.028 12.8879 119.269C12.3337 113.589 11.3638 108.046 10.6711 102.366C9.56264 94.7452 8.45422 87.1247 7.34579 79.6428C6.51446 73.9621 5.96024 68.4199 5.12891 62.7392C4.02048 55.1187 2.7735 47.4983 1.80362 40.0163C1.38796 36.4139 0.9723 32.673 0.418084 29.0706C0.140976 27.5465 0.83375 25.8838 2.91206 25.3296C4.2976 24.9139 5.68313 24.7754 7.20722 24.7754C44.2011 24.7754 81.0565 24.7754 118.05 24.7754C120.822 24.7754 123.177 25.6067 125.532 27.1308C134.954 32.673 144.514 37.938 153.936 43.4802C165.02 49.8537 175.966 56.3657 187.05 62.8777C196.472 68.2814 206.032 73.685 215.454 79.0886C225.984 85.185 236.514 91.5584 247.183 97.6548C256.743 103.197 266.303 108.601 275.863 114.143C291.243 123.01 306.484 132.016 321.863 141.022C332.948 147.396 344.171 153.631 355.255 160.143C361.628 163.884 368.002 167.625 374.375 171.504C377.424 173.305 378.116 176.631 376.315 179.54C367.448 193.257 358.442 206.974 349.574 220.691C334.749 243.552 319.785 266.414 304.96 289.275C295.4 303.962 286.116 318.648 276.556 333.335C261.87 356.058 247.044 378.642 232.496 401.504C223.074 416.329 213.514 431.016 203.954 445.703C197.996 454.709 192.177 463.853 186.496 473.136C185.249 475.214 183.725 475.907 181.231 475.907C162.388 475.353 143.267 475.353 124.285 475.353ZM114.448 386.124C115.002 385.293 115.695 384.6 116.111 383.769C128.303 365.064 140.635 346.359 152.55 327.654C155.044 323.775 159.201 320.034 157.261 314.353C156.846 313.106 156.568 311.582 156.43 310.058C155.876 304.377 155.183 298.697 154.352 293.155C153.243 285.534 152.135 277.914 151.026 270.432C150.195 264.751 149.641 259.209 148.809 253.528C147.701 246.046 146.593 238.564 145.484 231.082C144.653 225.402 144.099 219.582 143.267 213.763C142.159 206.281 141.05 198.799 140.081 191.317C139.249 185.637 138.695 179.817 137.864 174.137C137.032 168.456 135.924 162.914 135.37 157.372C134.538 149.751 133.291 142.269 132.46 134.787C131.49 127.028 130.382 119.131 129.135 111.372C128.858 109.432 129.55 106.799 127.472 105.414C124.562 103.474 121.376 101.811 118.328 100.01C107.659 93.7753 96.9902 87.5403 86.3216 81.3054C81.3336 78.3958 76.3457 75.6247 71.2192 72.7151C85.4902 177.323 99.8999 281.655 114.448 386.124ZM164.05 309.92C170.424 300.082 176.105 291.215 181.924 282.347C195.779 260.871 209.496 239.396 223.49 218.058C232.08 204.757 240.809 191.594 249.4 178.432C250.231 177.046 250.231 176.492 248.568 175.522C241.086 171.227 233.604 166.932 226.261 162.637C211.02 153.908 195.918 144.902 180.815 136.034C171.532 130.631 162.388 125.227 153.105 119.823C147.84 116.775 142.436 113.727 136.617 110.54C145.623 177.046 154.767 242.998 164.05 309.92ZM126.918 36.8296C126.225 37.5224 126.364 38.3537 126.502 38.9079C127.611 45.5585 128.303 52.3476 129.273 59.1368C130.936 70.4982 132.599 81.8596 133.984 93.2211C134.538 97.5162 135.231 101.396 140.081 102.92C140.358 103.058 140.635 103.197 140.912 103.336C159.201 113.866 177.49 124.257 195.779 134.787C215.315 146.149 234.852 157.649 254.388 168.872C256.466 170.119 258.406 171.781 261.315 171.781C292.906 171.643 324.496 171.643 356.086 171.643C356.779 171.643 357.61 172.197 358.165 171.088C280.99 126.336 203.954 81.5826 126.918 36.8296ZM173.611 379.335C173.888 379.335 174.165 379.335 174.442 379.335C181.37 368.528 188.159 357.721 195.086 346.913C208.111 326.685 221.273 306.456 234.436 286.227C244.412 270.847 254.249 255.329 264.225 239.95C276.279 221.384 288.61 202.817 300.665 184.113C301.496 182.866 303.02 181.757 302.743 179.679C288.61 179.679 274.478 179.679 260.345 179.679C259.098 179.679 258.406 180.094 257.713 181.203C251.478 191.04 245.243 200.878 238.87 210.438C226.677 229.004 214.623 247.709 202.707 266.414C191.346 284.287 179.568 302.022 167.93 319.757C166.683 321.697 165.713 323.914 166.129 326.408C167.237 333.751 168.484 341.094 169.454 348.438C170.84 358.829 172.225 369.082 173.611 379.335ZM159.617 333.474C159.478 334.582 158.37 335.136 157.815 335.968C144.514 356.474 131.213 376.841 117.912 397.347C116.942 398.733 116.111 400.257 116.665 402.474C117.635 406.215 117.635 410.233 118.189 414.112C118.882 419.516 119.575 424.919 120.267 430.323C121.376 438.082 122.484 445.703 123.593 453.462C123.731 454.154 123.038 455.263 124.147 455.54C124.978 455.817 125.255 454.847 125.671 454.154C130.936 445.98 136.34 437.943 141.605 429.769C149.918 416.883 158.231 403.998 166.683 391.112C167.376 390.142 167.514 389.172 167.376 388.203C166.129 381.691 165.574 375.04 164.605 368.389C163.08 356.612 161.279 345.112 159.617 333.474ZM126.364 94.7452C126.087 86.0163 124.285 78.2572 123.454 70.2211C122.623 62.4621 121.237 54.5645 120.267 46.8055C119.852 43.2031 119.02 39.7392 118.743 36.2754C118.605 35.0284 118.466 33.3658 115.972 33.3658C99.7613 33.5043 83.5505 33.5043 67.4782 33.3658C65.9541 33.3658 65.5385 33.2272 65.9541 35.3055C66.3698 37.5224 66.6469 39.8778 66.924 42.2332C67.4782 47.7754 68.171 53.3175 69.1409 58.7211C69.418 59.9681 69.0023 61.7693 70.9421 62.7392C75.93 65.2332 80.7794 68.1428 85.6288 70.9139C95.0505 76.456 104.472 81.9982 113.894 87.4018C117.912 90.0344 121.93 92.2512 126.364 94.7452Z" fill="white"/>
<path d="M1171.36 141.122C1171.36 142.785 1171.36 143.894 1171.36 144.863C1171.36 185.46 1171.36 225.917 1171.5 266.514C1171.5 269.423 1170.67 270.116 1167.9 269.978C1163.74 269.701 1163.74 269.978 1163.74 265.821C1163.74 220.514 1163.74 175.068 1163.74 129.761C1163.74 128.791 1162.91 126.99 1164.57 126.851C1166.65 126.713 1169.15 125.743 1170.67 127.544C1177.74 136.55 1184.67 145.833 1191.73 154.839C1199.49 164.954 1207.53 174.93 1215.29 184.906C1223.32 195.297 1231.36 205.689 1239.39 216.08C1246.74 225.502 1254.08 234.785 1261.42 244.068C1264.2 247.67 1266.97 251.273 1270.29 255.568C1270.29 253.767 1270.29 252.658 1270.29 251.689C1270.29 211.092 1270.29 170.357 1270.15 129.761C1270.15 126.99 1270.98 126.159 1273.48 126.574C1274.31 126.713 1275.28 126.713 1276.11 126.574C1277.36 126.436 1278.05 126.851 1277.77 128.098C1277.63 128.653 1277.77 129.207 1277.77 129.9C1277.77 175.345 1277.77 220.791 1277.77 266.237C1277.77 267.345 1278.6 269.423 1277.08 269.562C1274.86 269.701 1272.23 270.809 1270.57 268.592C1263.5 259.448 1256.44 250.165 1249.37 241.02C1242.03 231.598 1234.68 222.315 1227.34 213.032C1221.52 205.55 1215.84 197.93 1210.02 190.448C1203.51 182.134 1197 173.821 1190.48 165.508C1184.39 157.61 1178.15 149.574 1171.36 141.122Z" fill="white"/>
<path d="M455.178 198.207C455.178 175.207 455.178 152.345 455.178 129.345C455.178 127.267 455.594 126.574 457.811 126.574C475.684 126.713 493.558 126.436 511.431 126.713C525.148 126.99 538.449 129.622 550.503 136.273C565.744 144.586 576.275 157.056 581.955 173.406C585.142 182.55 586.389 192.11 585.973 201.809C585.281 216.911 580.708 230.767 571.287 242.821C562.558 254.044 550.919 261.249 537.479 265.544C531.244 267.622 524.732 268.731 518.082 269.146C497.853 270.393 477.486 269.285 457.257 269.7C454.763 269.7 455.178 268.315 455.178 266.929C455.178 244.207 455.178 221.207 455.178 198.207ZM462.937 198.068C462.937 218.436 463.076 238.942 462.799 259.309C462.799 262.496 463.769 262.911 466.54 262.911C480.534 262.773 494.389 262.773 508.383 262.911C515.726 263.05 523.07 262.219 530.136 260.556C548.841 255.984 563.25 245.592 571.841 227.996C577.799 215.942 579.461 203.195 577.799 189.893C576.69 180.887 574.058 172.574 569.485 164.677C563.528 154.424 555.214 146.803 544.823 141.677C533.6 136.134 521.407 133.779 508.66 133.918C494.389 134.056 480.257 134.056 465.986 133.918C463.492 133.918 462.799 134.333 462.799 136.966C462.937 157.195 462.937 177.562 462.937 198.068Z" fill="white"/>
<path d="M1126.75 199.039C1126.75 213.033 1123.15 226.75 1114.83 238.943C1107.07 250.166 1097.1 258.617 1084.35 264.159C1072.16 269.425 1059.27 271.226 1046.25 270.256C1031.15 269.147 1017.29 264.159 1005.38 254.461C997.617 248.087 991.382 240.744 986.948 231.876C983.207 224.117 980.713 216.081 979.743 207.352C978.358 195.575 979.466 184.075 983.484 172.991C987.779 161.075 994.707 150.961 1004.68 142.786C1014.38 134.75 1025.47 129.762 1037.66 127.545C1053.87 124.636 1069.8 126.021 1085.04 132.81C1100.29 139.599 1111.65 150.545 1119.13 165.232C1122.87 172.575 1125.09 180.334 1126.06 188.648C1126.47 191.834 1126.47 195.021 1126.75 199.039ZM1053.45 263.328C1060.24 263.744 1067.17 262.635 1074.1 260.419C1091.69 254.876 1104.86 243.792 1112.89 227.304C1119.41 213.864 1120.79 199.593 1118.02 184.907C1114.69 167.726 1105.83 154.286 1091.56 144.449C1076.45 134.057 1059.41 131.148 1041.54 133.919C1025.33 136.413 1011.75 144.033 1001.22 157.057C993.044 167.31 988.472 178.949 987.364 191.834C986.671 199.455 987.087 207.075 989.026 214.696C992.767 229.521 1000.66 241.852 1013 250.858C1024.5 259.449 1038.07 263.882 1053.45 263.328Z" fill="white"/>
<path d="M801.286 245.037C809.599 253.905 819.991 259.031 831.629 261.802C839.25 263.603 847.147 264.435 855.183 263.465C862.388 262.633 869.593 261.386 875.967 257.923C886.22 252.38 891.762 243.652 890.93 231.874C890.376 223.007 885.804 216.495 877.906 211.923C869.454 207.073 860.171 204.995 850.888 202.64C839.942 199.869 828.581 197.652 818.605 191.971C807.798 186.013 801.702 177.007 801.563 164.399C801.424 157.055 802.81 150.266 806.828 144.17C812.509 135.857 820.683 131.007 830.105 128.513C838.28 126.296 846.732 125.465 855.183 126.158C868.208 127.266 880.677 130.453 891.623 138.35C893.009 139.32 892.455 139.875 892.177 140.706C891.9 141.399 891.485 142.091 891.208 142.784C890.376 145.001 889.545 145.417 887.189 143.893C877.352 137.381 866.545 134.055 854.768 133.085C843.961 132.254 833.569 133.64 823.87 138.628C815.695 142.923 810.569 149.712 809.183 159.272C807.105 174.236 815.834 183.103 826.918 187.953C839.388 193.356 852.967 195.296 865.991 199.176C875.135 201.947 883.864 205.272 890.653 212.477C895.087 217.049 897.442 222.453 898.135 228.549C898.689 234.091 898.551 239.634 896.611 245.176C893.009 255.29 885.804 261.664 876.105 265.82C865.159 270.531 853.659 271.224 842.021 270.392C828.027 269.423 815.003 265.127 803.503 256.814C801.979 255.706 800.732 254.182 799.208 252.935C797.683 251.826 797.129 250.164 798.792 248.362C799.485 247.254 800.316 246.146 801.286 245.037Z" fill="white"/>
<path d="M594.564 126.713C596.781 126.713 599.275 126.713 601.63 126.713C602.323 126.713 602.738 126.713 603.016 127.683C609.943 143.339 616.871 158.857 623.799 174.375C628.51 184.906 633.497 195.297 638.208 205.827C644.443 219.821 650.54 233.815 656.775 247.948C657.883 250.58 659.13 253.074 660.377 255.707C660.793 256.538 660.931 257.785 662.178 257.785C663.564 257.785 663.702 256.4 664.118 255.568C667.028 249.056 669.799 242.544 672.57 236.032C678.805 221.899 685.04 207.767 691.413 193.773C695.015 185.598 698.895 177.562 702.497 169.526C708.178 156.779 713.859 143.894 719.678 131.147C720.232 129.761 720.371 127.544 721.618 127.267C723.558 126.713 725.913 126.99 727.991 126.99C729.515 126.99 728.961 127.96 728.684 128.791C726.606 133.641 724.527 138.49 722.311 143.339C715.66 158.165 709.009 173.129 702.359 187.954C698.479 196.544 694.461 205.273 690.582 213.863C684.208 227.996 677.973 242.128 671.738 256.261C669.937 260.418 667.859 264.574 666.058 268.731C665.781 269.285 665.503 269.839 665.088 269.978C662.317 271.225 658.022 269.701 656.913 267.068C649.708 250.857 642.503 234.646 635.299 218.436C631.419 209.845 627.401 201.116 623.522 192.526C617.148 178.394 611.052 164.261 604.678 150.129C601.491 142.924 598.028 135.857 594.841 128.653C594.564 127.96 594.01 127.544 594.564 126.713ZM662.455 258.201C662.455 258.062 662.317 258.062 662.317 257.924C662.317 258.062 662.178 258.062 662.178 258.201C662.317 258.339 662.317 258.339 662.455 258.478C662.317 258.339 662.455 258.339 662.455 258.201Z" fill="white"/>
<path d="M753.208 197.927C753.208 175.204 753.208 152.343 753.208 129.62C753.208 127.126 753.762 126.433 756.256 126.571C760.967 126.849 760.967 126.571 760.967 131.421C760.967 176.451 760.967 221.481 760.967 266.511C760.967 269.144 760.274 269.975 757.642 269.836C753.208 269.559 753.208 269.836 753.208 265.264C753.208 262.77 753.208 260.415 753.208 257.921C753.208 237.969 753.208 217.879 753.208 197.927Z" fill="white"/>
<path d="M942.335 198.481C942.335 221.343 942.335 244.204 942.335 267.066C942.335 269.282 941.781 269.837 939.564 269.837C934.576 269.698 934.576 269.837 934.576 264.71C934.576 219.819 934.576 175.066 934.437 130.174C934.437 127.265 935.13 126.018 938.04 126.572C938.732 126.71 939.564 126.71 940.395 126.572C941.781 126.433 942.196 126.987 942.196 128.373C942.058 131.283 942.196 134.192 942.196 137.24C942.335 157.746 942.335 178.114 942.335 198.481Z" fill="white"/>
<path d="M860.726 339.394C856.431 351.448 852.274 363.364 848.118 375.279C847.702 376.249 847.425 376.388 846.594 376.388C845.347 376.388 844.792 375.972 844.377 374.586C842.576 368.629 840.774 362.532 838.419 356.851C835.509 349.647 833.569 342.165 830.798 334.821C832.738 333.99 833.708 334.544 834.262 336.484C837.726 347.014 841.467 357.406 844.931 367.936C845.208 368.767 845.347 370.153 846.178 370.291C847.563 370.568 847.286 369.044 847.563 368.213C851.304 357.821 854.907 347.568 858.648 337.177C859.063 336.207 858.509 334.267 860.726 334.406C862.527 334.544 862.389 335.93 862.804 337.038C866.545 347.846 870.148 358.514 874.027 369.183C874.304 369.876 874.304 370.707 875.551 370.984C878.322 362.671 881.232 354.358 884.003 346.044C885.112 342.58 886.497 339.255 887.467 335.791C887.883 334.406 888.853 333.99 889.822 334.406C891.069 334.821 890.1 335.791 889.822 336.484C885.666 348.815 881.509 361.285 877.353 373.616C876.937 374.725 876.798 376.111 874.997 376.111C873.196 376.111 873.334 374.725 873.057 373.755C869.178 362.671 865.298 351.586 861.419 340.502C861.28 340.364 861.003 339.948 860.726 339.394Z" fill="white"/>
<path d="M630.726 339.669C630.726 344.657 630.726 349.229 630.726 353.801C630.726 360.729 630.726 367.795 630.726 374.723C630.726 375.693 630.865 376.524 629.479 376.386C628.232 376.386 628.371 375.554 628.371 374.723C628.371 361.838 628.371 349.091 628.371 336.205C628.371 335.651 627.955 334.681 629.064 334.542C629.895 334.404 630.588 334.542 631.142 335.235C635.853 341.47 640.702 347.705 645.413 353.94C649.708 359.482 654.004 365.024 658.576 370.705C659.269 369.458 658.991 368.488 658.991 367.657C658.991 357.404 658.991 347.289 658.991 337.036C658.991 336.066 658.16 334.542 660.238 334.542C662.594 334.404 661.763 336.066 661.763 337.175C661.763 349.368 661.763 361.699 661.763 373.892C661.763 374.723 662.455 375.97 661.07 376.386C659.961 376.663 659.13 376.247 658.299 375.139C652.064 367.38 645.967 359.482 640.01 351.585C637.239 347.566 634.052 343.825 630.726 339.669Z" fill="white"/>
<path d="M1038.63 375.969C1034.89 377.354 1034.33 374.306 1032.95 372.644C1030.59 369.595 1028.24 366.409 1026.02 363.222C1025.61 362.668 1025.47 361.975 1024.64 362.252C1020.34 363.499 1015.91 362.668 1011.61 362.668C1009.67 362.668 1009.26 363.222 1009.39 365.023C1009.53 368.21 1009.39 371.258 1009.39 374.445C1009.39 375.415 1009.67 376.385 1008.01 376.385C1006.35 376.385 1006.35 375.553 1006.48 374.306C1006.48 361.698 1006.48 349.089 1006.48 336.343C1006.48 335.65 1005.93 334.403 1007.45 334.403C1014.52 334.68 1021.73 333.433 1028.51 335.65C1038.49 338.836 1041.12 351.583 1033.64 358.65C1032.12 360.035 1030.18 360.589 1028.38 361.698C1031.84 366.547 1035.17 371.12 1038.63 375.969ZM1009.39 348.535C1009.39 351.999 1009.39 355.463 1009.39 358.788C1009.39 359.62 1009.26 360.589 1010.64 360.451C1016.74 360.174 1022.83 361.144 1028.65 358.788C1032.95 357.126 1035.17 353.8 1035.17 348.812C1035.17 343.547 1032.95 340.361 1028.51 338.698C1022.56 336.343 1016.46 337.174 1010.5 337.035C1008.98 337.035 1009.39 338.005 1009.39 338.836C1009.39 342.023 1009.39 345.21 1009.39 348.535Z" fill="white"/>
<path d="M945.66 334.543C957.16 334.266 967.828 343.134 966.997 356.712C966.304 369.736 956.882 376.941 945.382 376.802C933.19 376.664 923.768 368.628 923.907 354.772C924.184 343.411 933.467 334.266 945.66 334.543ZM945.521 374.031C956.467 374.447 964.503 366.134 964.503 355.742C964.503 345.074 957.16 337.037 945.66 337.037C933.882 336.899 926.539 345.074 926.539 355.742C926.539 365.718 934.16 374.447 945.521 374.031Z" fill="white"/>
<path d="M1110.12 334.819C1110.12 335.789 1109.57 336.066 1109.15 336.482C1104.03 341.886 1098.9 347.289 1093.64 352.554C1092.25 353.94 1092.8 354.633 1093.77 355.741C1099.59 362.253 1105.41 368.904 1111.23 375.554C1111.37 375.693 1111.23 375.97 1111.23 376.247C1107.63 377.217 1106.38 374.03 1104.58 372.229C1100.7 368.211 1097.24 363.777 1093.5 359.621C1092.39 358.512 1091.97 355.88 1090.17 356.295C1088.79 356.572 1087.95 358.651 1086.57 359.621C1081.58 363.223 1079.64 367.934 1080.61 374.03C1080.75 374.723 1081.44 376.386 1079.5 376.386C1077.56 376.386 1078.39 374.862 1078.39 374.03C1078.39 361.699 1078.39 349.229 1078.39 336.898C1078.39 336.066 1077.56 334.542 1079.5 334.542C1081.44 334.542 1080.61 336.066 1080.61 336.898C1080.61 343.964 1080.61 351.03 1080.61 358.096C1080.61 359.066 1080.61 360.036 1080.61 360.868C1084.63 357.127 1088.79 353.663 1092.39 349.783C1097.1 344.657 1102.23 339.946 1107.08 334.958C1107.91 334.127 1109.01 334.542 1110.12 334.819Z" fill="white"/>
<path d="M705.545 355.463C705.545 349.228 705.545 342.855 705.545 336.62C705.545 334.957 705.961 334.542 707.624 334.542C715.521 334.68 723.28 334.542 731.178 334.542C732.009 334.542 733.256 333.988 733.256 335.65C733.256 337.451 732.009 336.759 731.178 336.759C724.25 336.759 717.184 336.897 710.256 336.759C708.316 336.759 707.762 337.174 707.762 339.114C707.901 343.271 707.901 347.566 707.762 351.722C707.762 353.385 708.178 353.801 709.841 353.801C715.937 353.662 722.033 353.801 728.13 353.801C728.961 353.801 730.208 353.247 730.208 354.909C730.208 356.71 728.961 356.018 728.13 356.018C722.033 356.018 715.937 356.156 709.841 356.018C708.178 356.018 707.624 356.433 707.762 358.096C707.901 362.668 707.901 367.102 707.762 371.674C707.762 373.337 708.178 373.753 709.841 373.753C717.045 373.614 724.112 373.753 731.316 373.753C732.148 373.753 733.672 372.921 733.672 374.861C733.672 376.801 732.148 375.969 731.316 375.969C723.419 375.969 715.66 375.969 707.762 376.108C705.823 376.108 705.268 375.554 705.407 373.753C705.545 367.795 705.545 361.698 705.545 355.463Z" fill="white"/>
<path d="M784.383 356.711C784.383 362.53 784.383 368.488 784.383 374.307C784.383 375.138 784.937 376.385 783.136 376.385C781.334 376.385 782.027 375 782.027 374.307C782.027 362.668 781.889 351.168 782.027 339.53C782.027 337.175 781.334 336.759 779.256 336.897C775.792 337.036 772.19 337.036 768.726 336.897C767.895 336.897 766.648 337.452 766.648 335.65C766.648 334.126 767.756 334.542 768.449 334.542C778.286 334.542 788.124 334.542 797.822 334.542C798.654 334.542 799.624 334.265 799.624 335.789C799.624 337.313 798.515 336.897 797.822 336.897C794.22 336.897 790.618 337.036 786.877 336.897C784.521 336.759 784.106 337.59 784.244 339.668C784.521 345.349 784.383 351.03 784.383 356.711Z" fill="white"/>
<path d="M662.455 258.201C662.455 258.34 662.455 258.34 662.317 258.478C662.178 258.34 662.178 258.34 662.04 258.201C662.04 258.062 662.178 258.062 662.178 257.924C662.317 258.062 662.317 258.201 662.455 258.201Z" fill="white"/>
</g>
<defs>
<clipPath id="clip0">
<rect width="1278" height="500" fill="white"/>
</clipPath>
</defs>
</svg>
