<svg width="1278" height="500" viewBox="0 0 1278 500" fill="none" xmlns="http://www.w3.org/2000/svg">
<path d="M253.983 105.865C262.423 103.754 265.589 97.9513 268.754 89.5106C277.722 62.6056 311.485 56.8027 330.477 78.4322C335.225 83.7077 337.863 90.5657 338.39 97.4238C338.918 100.589 339.973 101.644 343.138 102.699C368.988 111.14 389.035 126.967 404.861 149.124C405.916 150.179 406.444 151.234 406.444 152.816C408.027 157.564 408.554 162.84 411.192 167.588C414.885 173.391 417.523 179.194 416.995 186.052C416.995 188.162 416.468 191.327 413.302 190.8C405.917 189.745 405.917 193.965 406.444 199.241C406.444 201.878 406.444 203.989 406.444 206.626C407.499 215.595 395.893 215.595 394.31 222.98C393.783 224.563 392.2 225.09 390.09 224.563C389.563 224.563 389.562 224.563 389.035 224.563C384.815 224.035 381.122 224.563 377.957 228.256C376.374 230.366 373.209 233.004 370.043 233.531C360.02 235.114 349.997 238.279 340.501 234.586C336.28 233.004 332.06 233.004 327.839 233.004C323.092 233.004 318.871 233.004 314.123 233.004C309.903 233.004 306.21 233.531 302.517 234.586C297.769 235.641 295.659 239.334 292.494 239.862C286.163 241.444 279.833 238.279 273.502 237.224C270.337 236.696 271.392 234.586 270.864 233.004C270.337 231.949 268.754 231.948 267.699 231.948C256.093 231.948 245.014 230.366 233.408 230.893C227.605 230.893 221.275 229.838 215.999 226.146C210.724 221.925 206.503 217.177 202.283 211.374C195.952 201.351 192.787 190.8 193.842 178.666C194.37 174.973 190.149 171.808 192.787 168.115C194.37 166.005 196.48 163.895 197.008 161.785C198.59 154.927 202.283 152.289 209.141 152.289C214.944 152.289 218.109 145.431 214.417 140.155C216.527 147.013 211.251 148.068 207.558 150.179C206.503 150.706 204.921 151.234 204.393 149.651C203.865 149.124 203.865 147.541 204.393 147.013C209.141 145.958 209.141 140.155 212.834 138.573C219.165 136.462 221.275 130.132 226.023 125.912C230.771 121.691 237.101 119.053 241.321 114.305C243.432 112.195 247.652 109.557 251.345 109.557C253.983 110.085 253.983 107.975 253.983 105.865Z" fill="white"/>
<path d="M466.056 385.464C461.835 385.464 457.615 385.464 453.394 385.464C406.443 385.464 358.963 385.464 312.012 385.464C310.429 385.464 308.319 385.464 306.736 385.464C306.209 382.827 304.099 383.882 302.516 383.882C297.768 383.882 292.493 383.882 287.745 383.882C287.745 383.354 287.745 382.299 287.745 381.772C292.493 381.772 296.713 381.772 301.461 381.772C304.626 381.772 305.681 380.189 303.571 377.551C300.933 373.331 300.406 368.583 301.988 364.362C305.681 357.504 304.098 350.646 304.626 343.261C309.901 342.206 312.012 339.04 310.957 333.765C310.957 332.71 310.429 331.655 310.957 331.127C312.539 326.907 312.012 321.104 317.287 318.993C320.452 317.938 321.507 316.356 321.507 312.663C321.507 303.695 321.508 303.695 330.476 303.695C338.389 303.695 345.775 306.332 353.688 307.915C362.129 309.498 370.57 308.443 379.01 308.97C379.538 308.97 380.593 308.443 380.593 307.915C383.231 302.64 389.561 302.639 393.254 303.167C404.333 303.167 414.883 300.529 425.962 300.529C425.962 303.695 425.962 306.86 426.49 310.025C427.545 327.434 443.371 344.843 461.835 346.426C469.221 346.953 476.079 349.064 480.3 355.394C487.158 365.945 481.354 382.299 470.276 383.882C468.693 383.882 466.583 383.354 466.056 385.464Z" fill="white"/>
<path d="M933.464 224.566C932.409 224.038 932.409 223.511 932.409 222.456C933.992 220.346 933.464 218.763 932.937 216.653C929.771 218.235 926.606 219.818 926.606 222.983C925.551 231.424 920.803 238.282 917.638 245.668C910.779 245.14 905.504 238.282 897.063 243.558C897.591 236.7 896.008 230.897 898.118 225.094C899.701 221.401 899.701 218.763 898.646 215.07C899.701 204.519 902.866 193.968 904.977 183.417C904.977 182.89 904.977 182.89 904.977 182.362C906.559 178.142 904.977 171.811 909.197 169.173C912.89 167.063 918.165 168.646 922.913 168.646C926.606 168.646 930.299 169.173 933.992 168.646C939.795 167.591 942.432 170.756 944.015 175.504C951.928 198.189 959.842 220.346 967.755 243.03C967.755 243.558 967.755 244.613 967.755 245.14C968.81 250.416 967.227 254.636 961.952 257.802C958.259 259.912 954.566 258.857 950.873 258.857C947.708 258.857 949.291 255.691 948.235 254.636C946.653 253.581 947.181 250.943 944.543 250.416C944.543 249.888 944.543 249.888 944.543 249.361C943.488 241.975 940.85 235.117 938.212 227.731C936.63 224.566 935.574 224.566 933.464 224.566Z" fill="white"/>
<path d="M155.33 343.789C155.858 342.206 157.44 341.679 159.023 340.623C171.684 332.71 178.015 321.104 178.015 306.333C178.015 288.924 178.015 271.515 178.015 254.105C178.015 264.129 178.015 274.68 178.015 285.231C178.542 285.231 179.07 285.231 179.598 285.231C179.598 281.538 179.598 278.373 179.598 274.68C183.29 275.735 186.455 276.79 185.928 281.538C185.928 283.121 186.456 283.648 188.038 284.176C193.314 286.814 195.951 292.616 201.754 295.254C204.392 296.309 202.282 300.53 203.865 302.64C209.14 310.026 212.833 317.939 213.888 327.435C213.888 328.49 214.416 329.545 215.471 329.545C221.274 330.6 226.549 332.71 231.825 335.876C232.352 338.513 233.407 341.151 236.045 343.261C238.155 345.371 237.628 348.009 237.1 350.119C236.573 352.757 233.935 351.702 232.353 351.702C229.715 351.702 226.549 351.702 223.912 351.702C221.274 351.702 220.746 352.757 220.746 355.395C220.746 363.308 220.746 371.221 220.219 379.135C220.219 383.355 219.164 383.882 215.998 383.882C213.361 383.882 210.195 381.772 208.085 385.465C185.4 385.465 162.188 385.993 139.504 385.465C130.008 385.465 122.622 377.024 122.095 367.001C121.567 357.505 128.425 348.537 137.921 346.954C143.197 345.899 149 345.371 155.33 343.789C152.692 348.009 148.472 348.537 144.252 348.009C133.701 346.954 128.425 354.34 123.15 361.725C121.567 363.836 121.567 365.946 122.622 368.056C124.205 367.528 122.622 365.418 124.205 364.891C124.732 378.607 130.535 383.882 144.779 383.882C155.33 383.882 166.409 383.355 176.96 383.882C182.235 383.882 186.456 381.772 191.731 380.717C190.149 378.079 185.4 380.717 185.928 376.497C187.511 367.528 184.873 359.088 185.928 350.119C186.455 345.899 184.873 342.206 181.708 340.096C178.015 337.986 176.96 336.403 179.598 332.71C180.653 331.128 181.18 327.962 178.542 326.38C175.377 324.797 174.849 328.49 173.794 330.072C173.794 330.072 173.794 330.6 173.267 331.128C167.991 336.931 163.243 342.734 155.33 343.789ZM184.345 293.144C188.038 288.396 183.818 286.814 183.818 283.648C183.818 282.593 183.29 281.538 181.708 281.538C180.125 282.066 180.652 283.121 180.652 284.176C180.125 288.396 184.873 288.924 184.345 293.144ZM192.786 297.365C192.786 294.727 192.259 292.616 189.621 292.616C189.093 292.616 188.038 292.617 188.038 293.672C188.038 296.309 190.676 296.309 192.786 297.365Z" fill="white"/>
<path d="M270.865 404.983C290.911 404.983 310.958 404.455 330.477 404.455C341.028 404.455 352.106 404.455 362.657 404.455C365.295 404.455 366.35 404.455 366.35 407.62C367.405 421.864 361.075 433.998 353.161 445.076C345.776 455.1 335.225 461.958 323.619 465.651C314.651 468.288 305.683 469.871 296.187 468.816C293.549 465.651 296.714 465.651 298.297 465.123C299.88 464.595 301.99 465.651 304.627 464.068C301.99 461.958 302.517 459.32 302.517 456.682C302.517 450.352 302.517 444.021 302.517 437.69C302.517 435.053 302.517 431.888 300.935 430.832C295.132 426.612 297.769 421.337 297.242 416.589C297.242 413.951 298.297 412.368 300.935 412.368C301.99 412.368 304.1 412.896 304.1 410.786C304.1 408.676 301.99 409.203 300.407 409.203C290.384 409.731 280.36 407.093 270.337 408.148C270.864 406.565 270.865 406.038 270.865 404.983Z" fill="white"/>
<path d="M389.563 224.565C390.09 224.565 390.09 224.565 390.618 224.565C392.2 224.565 394.31 224.565 394.838 222.982C396.421 215.597 407.499 215.597 406.972 206.628C406.972 203.991 406.972 201.88 406.972 199.243C406.444 193.967 406.444 189.747 413.83 190.802C416.995 191.329 416.995 188.164 417.523 186.054C418.05 179.196 415.413 172.865 411.72 167.59C408.554 162.842 408.554 157.566 406.972 152.818C413.302 159.149 416.467 167.59 419.105 175.503C421.215 181.306 423.853 187.109 423.853 193.44C423.853 198.715 423.853 203.991 423.853 209.266C423.853 212.959 424.908 216.652 419.105 217.707C418.05 217.707 416.467 219.817 416.467 221.4C415.94 224.037 414.357 225.62 411.192 225.092C407.499 224.565 406.444 226.147 406.972 229.84C407.499 233.006 405.917 234.061 402.751 233.533C399.058 233.006 398.003 234.588 398.003 238.281C398.003 239.864 398.531 241.974 396.421 241.974C392.728 241.974 390.618 244.612 387.452 245.667C377.956 249.36 367.405 252.525 356.854 252.525C345.776 252.525 335.225 254.108 324.146 254.108C320.453 254.108 317.288 254.635 313.595 255.69C305.155 258.328 296.186 259.911 287.218 259.383C282.998 258.855 278.777 259.383 274.557 259.383C272.447 259.383 270.336 259.911 268.754 261.493C265.588 262.021 263.478 258.855 260.313 259.383C252.4 259.911 245.014 257.273 237.628 255.69C227.605 253.052 221.274 244.084 211.778 240.391C204.92 237.754 196.479 234.061 192.259 226.148C192.259 225.62 191.204 225.62 190.676 225.62C185.929 226.148 183.818 224.565 184.346 219.289C184.346 218.762 183.818 217.707 183.291 217.179C180.125 213.486 179.598 209.266 180.126 205.046C180.126 200.825 180.126 196.077 180.126 191.857C180.653 187.109 181.708 182.361 184.346 178.141C184.346 181.306 183.818 183.944 182.763 186.582C180.653 193.44 182.763 200.298 184.346 206.628C184.873 209.794 188.039 208.211 189.621 208.738C190.676 209.266 190.149 210.849 190.676 211.376C195.424 222.455 201.755 231.951 215.471 234.061C221.802 235.116 228.66 237.754 234.991 240.919C241.321 244.084 249.762 243.029 255.038 248.832C266.644 248.305 278.25 252.525 289.856 250.942C291.438 250.942 293.021 251.47 294.076 249.887C297.241 244.084 303.044 243.029 308.32 243.029C327.312 242.501 345.776 243.029 364.768 243.029C366.35 243.029 368.461 243.029 370.043 242.501C375.846 240.391 379.539 234.061 386.397 234.588C387.452 234.588 387.98 233.533 387.98 231.95C389.563 228.785 389.563 226.675 389.563 224.565Z" fill="white"/>
<path d="M207.031 385.992C209.141 382.299 212.307 384.41 214.944 384.41C218.11 384.41 219.165 383.882 219.165 379.662C219.165 371.748 219.165 363.835 219.693 355.922C219.693 353.284 220.748 352.229 222.858 352.229C225.495 352.229 228.661 352.229 231.299 352.229C232.881 352.229 235.519 353.284 236.046 350.646C236.574 348.536 237.102 345.899 234.992 343.788C232.881 341.678 231.826 339.04 230.771 336.403C229.716 332.182 230.771 327.434 229.188 323.214C227.606 318.466 229.188 316.356 231.826 313.718C236.046 314.246 240.794 314.773 245.015 317.411C247.653 318.994 252.928 320.576 253.456 314.246C253.456 312.136 255.566 311.608 257.148 312.136C259.259 312.663 261.369 311.08 262.952 310.025C265.589 310.025 267.699 310.025 270.337 310.025C270.337 311.08 270.337 312.663 270.337 313.718C270.337 320.049 269.282 326.907 276.14 331.127C277.195 331.655 277.195 333.765 277.723 335.348C274.03 335.348 269.81 335.348 266.117 335.348C261.369 335.348 260.314 336.93 263.479 340.623C267.699 345.371 268.755 350.119 269.282 355.922C269.282 356.977 269.282 358.032 269.81 358.56C275.613 363.835 276.14 370.693 277.723 377.551C278.25 380.189 279.833 380.189 281.943 380.189C284.053 380.189 286.691 379.134 287.219 382.299C287.219 382.827 287.219 383.882 287.219 384.41C282.998 384.41 278.778 384.41 274.558 384.41C272.975 384.41 270.865 383.882 270.337 385.992C249.763 385.992 228.661 385.992 207.031 385.992Z" fill="white"/>
<path d="M278.25 334.82C277.722 333.237 277.722 331.127 276.667 330.6C269.809 326.379 270.864 319.521 270.864 313.191C270.864 312.135 270.864 310.553 270.864 309.498C274.029 307.915 279.305 308.97 280.887 304.222C280.887 303.695 282.997 303.167 283.525 303.167C289.328 304.75 294.604 305.277 300.407 301.057C302.517 299.474 306.21 299.474 308.848 297.364C312.013 295.254 314.65 294.199 318.871 295.254C322.564 295.781 326.784 296.837 329.422 294.726C332.587 292.089 335.752 292.616 339.445 292.089C354.744 291.034 370.043 293.144 385.342 290.506C395.893 288.396 406.444 287.341 416.995 285.758C421.215 285.23 425.436 284.175 423.853 278.372C423.325 276.79 423.853 275.735 425.963 275.207H426.491C427.018 278.372 427.018 282.065 426.491 285.23C426.491 290.506 425.963 295.781 425.963 300.529C414.884 300.529 404.334 303.167 393.255 303.167C389.562 303.167 383.759 303.167 380.594 307.915C380.594 308.443 379.539 308.97 379.011 308.97C370.571 307.915 362.657 308.97 353.689 307.915C345.776 306.86 338.39 303.695 330.477 303.695C321.509 303.695 321.509 303.695 321.509 312.663C321.509 315.828 320.453 317.411 317.288 318.993C312.013 321.104 312.54 326.907 310.958 331.127C310.43 331.655 310.958 332.71 310.958 333.765C312.013 339.04 309.902 342.206 304.627 343.261C300.407 343.261 295.659 343.261 291.438 343.261C289.328 343.261 288.273 342.733 287.218 340.623C285.635 337.458 283.525 333.765 278.25 334.82Z" fill="white"/>
<path d="M1166.64 266.236C1167.17 266.236 1167.17 266.764 1167.17 266.764C1165.58 269.402 1169.28 271.512 1168.75 274.677C1168.75 276.26 1170.86 275.732 1171.39 274.15C1179.83 291.031 1172.97 313.188 1156.09 324.267C1132.88 339.038 1089.09 336.928 1068.52 314.243C1062.19 306.858 1058.49 298.417 1057.44 288.921C1056.91 285.756 1057.44 284.173 1061.13 284.701C1065.88 285.228 1071.15 284.701 1075.9 284.701C1078.01 284.701 1079.07 285.228 1079.07 287.338C1080.12 303.165 1090.15 311.078 1103.86 314.243C1113.88 316.881 1123.91 316.353 1134.46 313.716C1142.37 311.606 1148.18 306.858 1151.34 300C1153.98 293.669 1153.98 286.283 1150.29 279.425C1149.76 278.37 1149.23 276.787 1148.18 275.732C1152.92 275.732 1149.76 271.512 1151.87 269.929C1157.14 274.15 1162.42 273.094 1165.06 266.764C1165.06 266.236 1166.11 266.236 1166.64 266.236Z" fill="white"/>
<path d="M425.962 275.735C424.379 276.263 423.325 277.318 423.852 278.9C425.435 285.231 421.214 285.759 416.994 286.286C406.443 287.869 395.365 288.924 385.341 291.034C370.042 294.199 354.743 292.089 339.445 292.617C336.279 292.617 333.114 292.089 329.421 295.254C326.783 297.365 322.035 296.31 318.87 295.782C315.177 295.254 312.012 295.782 308.847 297.892C306.209 300.002 302.516 300.002 300.406 301.585C294.603 305.278 289.327 305.278 283.524 303.695C282.469 303.695 280.887 304.223 280.887 304.75C279.304 309.498 274.029 308.443 270.863 310.026C268.226 310.026 266.115 310.026 263.478 310.026C263.478 305.805 260.84 303.695 257.675 303.168C253.454 302.113 252.927 298.42 252.927 295.782C252.927 293.144 256.092 292.617 258.73 293.144C261.368 293.672 262.423 292.089 262.423 289.451C262.423 287.869 262.423 286.286 262.423 284.703C268.226 286.286 274.029 287.341 280.359 286.286C282.997 285.759 285.107 285.759 287.745 286.814C294.076 288.924 299.879 286.286 305.154 282.593C306.737 281.538 308.319 281.538 309.902 281.011C314.122 279.956 318.87 281.538 322.036 278.373C324.146 276.263 326.784 275.735 329.949 275.735C344.72 275.735 359.491 275.735 374.263 275.735C376.373 275.735 377.956 275.735 380.066 275.208C389.562 272.042 399.585 269.405 409.081 266.767C415.411 265.184 421.214 263.074 425.962 258.854C425.962 259.381 426.49 259.909 426.49 260.436C426.49 262.019 426.49 263.074 426.49 264.657C425.962 267.822 425.962 272.042 425.962 275.735Z" fill="white"/>
<path d="M389.563 224.564C389.563 226.674 389.563 228.257 389.563 230.367C389.563 231.422 389.563 233.004 387.98 233.004C381.122 233.004 376.901 238.807 371.626 240.918C370.043 241.445 367.933 241.445 366.351 241.445C347.359 241.445 328.895 240.918 309.903 241.445C304.627 241.445 298.825 242.5 295.659 248.303C294.604 250.413 293.021 249.358 291.439 249.358C279.833 250.941 268.227 246.721 256.621 247.248C250.818 241.445 242.905 242.5 236.574 239.335C230.244 236.17 223.385 234.06 217.055 232.477C203.339 229.839 197.536 220.871 192.26 209.792C191.733 208.737 192.26 207.682 191.205 207.155C189.622 206.1 186.457 208.21 185.929 205.044C184.347 198.186 182.237 191.328 184.347 184.998C185.402 181.832 185.929 179.195 185.929 176.557C187.512 167.588 192.788 159.675 197.536 151.762C210.724 131.188 229.188 115.889 251.345 105.865C251.873 105.338 252.928 105.338 253.983 105.338C253.983 107.448 253.983 109.558 250.818 109.558C247.125 109.558 242.905 111.669 240.794 114.306C236.047 119.054 230.243 121.692 225.495 125.912C220.748 129.605 218.637 136.463 212.307 138.573C208.614 139.629 208.614 145.959 203.866 147.014C203.339 147.014 203.339 148.597 203.866 149.652C204.921 150.707 205.976 150.707 207.031 150.179C211.252 148.069 216 147.014 213.89 140.156C217.583 145.959 214.417 152.817 208.614 152.29C201.756 152.29 198.063 154.927 196.48 161.786C195.953 163.896 193.843 166.006 192.26 168.116C189.622 171.809 193.315 174.974 193.315 178.667C192.26 190.801 195.425 200.824 201.756 211.375C205.449 217.178 210.197 221.926 215.472 226.146C220.22 229.839 226.551 230.894 232.881 230.894C244.487 230.894 255.566 231.949 267.172 231.949C268.227 231.949 269.809 231.422 270.337 233.004C271.392 234.587 270.337 236.697 272.975 237.225C279.305 238.28 285.636 241.445 291.967 239.863C295.659 238.807 297.769 235.115 301.99 234.587C305.683 234.059 309.903 233.004 313.596 233.004C318.344 233.004 322.564 233.004 327.312 233.004C331.533 233.004 335.753 233.004 339.973 234.587C349.997 238.28 360.02 235.115 369.516 233.532C372.154 233.004 375.319 230.894 377.429 228.257C381.65 224.564 385.342 224.564 389.563 224.564Z" fill="white"/>
<path d="M630.124 235.115C630.124 236.17 630.124 236.697 630.124 237.752V238.28H630.652C653.864 238.28 677.076 237.752 700.288 238.808C702.926 238.808 703.981 239.335 703.454 242.5C702.926 245.666 702.926 248.831 703.454 251.996C704.509 256.744 702.398 256.744 698.706 256.744C679.186 256.744 659.667 256.744 639.62 256.744C631.179 256.744 631.179 256.744 631.179 265.185C631.179 279.956 631.179 294.728 631.179 309.499C631.179 313.192 632.762 314.247 635.927 314.247C656.502 314.247 677.076 314.247 697.65 314.247C702.398 314.247 706.619 314.247 711.367 314.247C714.532 314.247 715.587 315.302 715.587 317.94C715.587 322.16 715.587 325.853 715.587 330.073C715.587 332.183 715.06 333.766 711.894 333.766C679.186 333.766 647.006 333.766 614.298 333.766C613.243 333.766 612.188 333.239 611.133 333.239C613.243 333.239 615.88 332.711 617.991 332.711C646.478 332.711 674.966 332.711 703.454 332.711C715.06 332.711 713.477 333.766 713.477 322.688C713.477 317.412 711.894 315.829 706.619 316.357C682.352 316.357 658.612 316.357 634.344 316.357C630.124 316.357 628.541 315.302 629.069 311.082C629.597 305.278 629.069 298.948 629.069 293.145C629.069 282.594 629.069 272.571 629.069 262.02C629.069 256.217 629.597 255.162 635.4 255.162C637.51 255.162 639.093 255.162 641.203 255.162C647.533 255.162 653.336 255.162 660.722 255.162C659.667 254.106 659.139 253.579 659.139 253.579C651.226 254.634 643.841 248.303 635.927 253.051C635.4 253.051 634.344 253.579 634.344 253.051C631.179 248.303 626.432 251.469 622.739 250.414C617.991 248.831 611.133 250.941 609.55 243.028C608.495 247.776 610.605 252.524 607.967 256.744C607.967 240.918 607.967 225.091 607.967 208.737C613.77 206.627 619.573 208.21 625.376 207.682C629.069 207.155 629.069 208.21 629.597 211.375C629.597 219.288 629.069 227.201 630.124 235.115Z" fill="white"/>
<path d="M262.422 284.176C262.422 285.758 262.422 287.341 262.422 288.924C262.422 291.561 261.367 292.616 258.729 292.616C256.092 292.089 252.926 293.144 252.926 295.254C252.926 297.892 253.454 301.585 257.674 302.64C260.84 303.695 264.005 305.805 263.477 309.498C261.894 310.553 260.312 312.136 257.674 311.608C256.092 311.608 254.509 312.136 253.981 313.718C253.454 320.049 248.178 318.466 245.541 316.884C241.32 314.773 237.1 314.246 232.352 313.191C228.659 308.443 228.132 302.112 223.911 297.892C222.328 295.782 219.691 292.089 215.998 292.616C211.778 293.144 209.668 289.979 207.557 287.341C205.447 283.648 203.337 279.428 201.227 276.79C197.534 272.042 194.369 266.239 187.511 264.129C185.928 263.601 185.4 262.546 184.873 260.963C184.345 258.326 182.762 258.853 180.652 258.853C178.542 258.853 178.542 260.436 178.542 262.019C178.542 266.239 178.542 270.459 178.542 274.68C178.542 278.373 178.542 281.538 178.542 285.231C178.015 285.231 177.487 285.231 176.96 285.231C176.96 274.68 176.96 264.656 176.96 254.105C176.96 249.885 177.487 245.665 177.487 241.444C178.542 241.444 179.07 241.444 180.125 241.444C184.873 240.917 188.565 241.444 191.203 246.72C192.786 249.358 195.424 251.995 199.116 251.995C200.171 251.995 201.227 252.523 201.227 253.578C201.227 257.271 203.864 258.326 207.03 258.326C208.612 258.326 209.14 258.853 210.195 260.436C212.833 264.656 216.526 266.767 221.801 266.767C223.384 266.767 225.494 266.239 227.077 268.349C230.769 272.57 234.99 276.262 241.32 275.735C241.848 275.735 242.903 276.262 243.43 276.262C248.178 280.483 253.981 280.483 259.784 282.065C261.367 282.593 261.894 283.648 262.422 284.176Z" fill="white"/>
<path d="M629.596 292.617C629.596 298.42 630.123 304.751 629.596 310.554C629.596 314.774 630.651 315.829 634.871 315.829C659.138 315.829 682.878 315.829 707.145 315.829C712.421 315.829 714.003 317.412 714.003 322.159C713.476 333.766 715.058 332.183 703.98 332.183C675.492 332.183 647.005 332.183 618.517 332.183C616.407 332.183 613.769 332.71 611.659 332.71C611.131 332.71 610.604 332.71 610.604 332.71C610.076 332.71 609.549 332.183 609.021 332.183C609.021 330.6 609.021 329.545 609.021 327.963C610.604 326.38 610.076 324.27 610.076 322.159C610.076 312.664 610.076 303.695 610.076 294.2C610.076 285.231 610.076 276.263 610.076 267.822C611.131 269.405 611.132 271.515 611.132 273.098C611.132 283.649 611.131 283.649 621.155 283.649C625.375 283.649 629.068 283.649 628.013 289.452C627.486 291.562 628.013 292.089 629.596 292.617Z" fill="white"/>
<path d="M269.81 260.968C271.393 259.385 272.975 258.857 275.613 258.857C279.833 258.857 284.054 258.857 288.274 258.857C297.242 259.385 305.683 257.802 314.651 255.165C317.817 254.11 321.509 253.582 325.202 253.582C336.281 253.582 346.832 252.527 357.91 251.999C368.461 251.999 378.484 248.834 388.508 245.141C391.146 244.086 393.256 240.921 397.476 241.448C399.586 241.448 399.586 239.338 399.059 237.756C398.531 234.063 400.114 233.008 403.807 233.008C406.972 233.535 408.027 231.953 408.027 229.315C407.5 226.149 408.555 224.039 412.247 224.567C415.413 225.094 416.995 223.512 417.523 220.874C418.05 219.292 419.106 217.709 420.161 217.181C425.436 216.126 424.909 212.433 424.909 208.74C424.909 203.465 424.909 198.19 424.909 192.914C425.964 200.827 428.074 209.268 427.546 217.181C427.546 227.732 428.074 238.283 427.019 248.307C427.019 246.196 426.491 244.086 426.491 241.976C419.633 244.086 413.83 247.252 407.499 249.889C397.476 254.11 387.453 259.913 375.319 258.33C371.626 257.802 367.934 259.913 364.768 260.44C358.965 260.968 354.217 265.716 347.887 264.661C335.226 263.078 323.092 266.243 310.431 266.771C309.376 266.771 307.793 267.298 306.738 267.826C295.66 273.629 283.526 276.267 270.865 275.211C271.393 271.519 270.338 268.353 265.59 267.298C271.92 267.826 270.865 264.133 269.81 260.968Z" fill="white"/>
<path d="M270.863 275.736C283.525 276.791 295.13 274.153 306.737 268.35C307.792 267.822 308.847 267.295 310.429 267.295C323.091 266.767 335.224 263.602 347.885 265.185C354.216 265.712 358.964 261.492 364.767 260.964C367.932 260.437 371.625 258.326 375.318 258.854C387.451 260.964 396.947 255.161 407.498 250.413C413.828 247.775 419.632 244.083 426.49 242.5C426.49 244.61 427.017 246.72 427.017 248.831C427.545 251.468 427.545 253.579 427.017 256.216C427.017 257.271 426.49 258.326 426.49 258.854C421.214 262.547 415.411 265.185 409.608 266.767C399.585 269.405 390.089 272.57 380.593 275.208C378.483 275.736 376.9 275.736 374.79 275.736C360.019 275.736 345.247 275.736 330.476 275.736C327.311 275.736 325.201 276.263 322.563 278.373C319.398 281.539 314.65 279.956 310.429 281.011C308.847 281.539 307.264 281.539 305.681 282.594C300.406 285.759 295.13 288.924 288.272 286.814C285.635 285.759 283.524 285.759 280.887 286.287C275.084 287.342 268.753 286.286 262.95 284.704C262.423 284.176 261.895 283.121 261.895 282.594C262.423 279.428 264.533 278.373 267.698 278.373C268.225 277.846 270.336 278.373 270.863 275.736Z" fill="white"/>
<path d="M270.864 275.736C270.336 278.374 268.754 277.846 266.643 277.846C263.478 277.846 261.368 278.901 260.84 282.067C255.037 281.011 249.234 280.484 244.486 276.264C243.959 275.736 243.431 275.736 242.376 275.736C236.045 276.264 231.825 272.571 228.132 268.35C226.549 266.768 224.439 266.768 222.856 266.768C217.581 266.768 213.888 264.658 211.251 260.437C210.196 258.855 209.668 258.327 208.085 258.327C204.92 258.327 202.282 257.272 202.282 253.579C202.282 252.524 201.227 251.996 200.172 251.996C196.479 251.996 193.841 249.359 192.259 246.721C189.621 241.445 185.928 240.918 181.18 241.445C180.125 241.445 179.598 241.445 178.543 241.445C178.543 225.619 177.488 209.265 179.598 193.439C179.598 192.383 179.598 190.801 181.18 190.801C181.18 195.021 181.18 199.769 181.18 203.989C181.18 208.21 181.18 212.958 184.345 216.123C184.873 216.651 185.401 217.706 185.401 218.233C184.873 222.981 186.983 225.091 191.731 224.564C192.259 224.564 192.786 224.564 193.314 225.091C197.534 233.005 205.448 236.698 212.833 239.335C222.329 243.028 228.66 251.996 238.683 254.634C246.069 256.217 253.455 259.382 261.368 258.327C264.533 257.799 266.643 260.965 269.808 260.437C270.864 264.13 271.919 267.295 265.588 267.295C270.336 268.878 271.391 271.516 270.864 275.736ZM180.125 204.517C180.125 205.045 180.125 205.572 180.125 206.1C180.125 206.627 180.125 207.155 180.653 206.627C180.653 206.1 180.653 205.572 180.653 205.045C180.653 204.517 180.125 204.517 180.125 204.517Z" fill="white"/>
<path d="M270.863 407.093C280.887 406.566 290.91 408.676 300.934 408.148C301.989 408.148 304.099 407.621 304.627 409.731C304.627 411.841 303.044 411.314 301.461 411.314C298.296 411.314 297.241 412.896 297.768 415.534C298.296 420.282 296.186 426.085 301.461 429.778C303.044 430.833 303.044 433.998 303.044 436.636C303.044 442.966 303.044 449.297 303.044 455.628C303.044 458.265 302.517 460.903 305.154 463.013C303.044 464.596 300.934 463.541 298.824 464.068C297.241 464.596 294.075 464.596 296.713 467.761C284.052 467.234 272.446 462.486 262.95 454.572C262.423 454.045 262.423 454.045 261.895 453.517C262.423 451.407 263.478 450.352 265.588 452.462C267.171 454.045 268.753 454.572 270.863 454.572C270.863 454.572 270.863 454.572 270.336 454.045V454.572C270.336 455.1 270.336 455.1 270.863 455.628C270.863 455.628 270.863 455.1 270.863 454.572C271.919 451.935 271.919 449.824 269.281 448.242C267.171 446.659 267.17 445.077 270.336 445.077C274.556 444.549 276.139 441.911 275.611 438.218C275.611 432.415 275.611 426.085 275.611 420.282C275.084 415.534 276.667 410.258 270.863 407.093Z" fill="white"/>
<path d="M630.123 235.115C628.541 227.201 629.596 219.288 629.596 211.375C629.596 208.21 629.068 207.155 625.376 207.682C619.573 208.737 613.769 206.627 607.966 208.737C607.966 196.076 607.439 183.942 606.911 171.281C606.911 167.589 607.439 166.006 612.187 166.006C628.541 166.533 644.367 166.533 660.721 166.533C660.721 179.722 661.776 180.777 674.965 182.36C676.548 182.36 677.603 182.887 678.13 184.47C663.887 185.525 649.643 184.998 635.399 184.998C631.706 184.998 630.123 186.053 630.123 190.273C630.651 205.044 630.123 220.343 630.123 235.115Z" fill="white"/>
<path d="M1166.64 266.242C1166.11 266.242 1165.59 266.77 1165.06 266.77C1162.42 273.101 1157.14 274.156 1151.87 269.935C1149.76 271.518 1152.92 275.738 1148.18 275.738C1138.68 267.825 1127.07 264.132 1115.47 260.44C1103.86 256.747 1092.26 253.054 1081.71 246.196C1080.12 245.14 1078.01 244.085 1076.96 241.975C1078.54 241.975 1079.59 241.975 1081.18 241.975C1088.04 242.503 1094.89 243.03 1100.7 238.81C1102.28 237.755 1099.64 234.062 1103.33 235.645C1103.86 236.172 1104.92 236.172 1105.44 236.7C1105.97 237.755 1107.03 237.755 1108.08 237.755C1108.61 237.755 1109.14 238.282 1110.19 238.282C1111.25 238.81 1111.78 238.81 1112.83 239.337H1113.36C1113.89 239.337 1114.41 239.865 1114.41 239.865C1116 240.392 1117.05 240.393 1118.63 240.92H1119.16C1134.99 245.14 1150.81 250.416 1162.95 262.55C1165.06 263.605 1166.11 264.132 1166.64 266.242Z" fill="white"/>
<path d="M1067.46 191.854C1075.9 178.666 1088.04 171.807 1103.33 169.697H1103.86C1104.39 169.697 1104.92 169.697 1105.97 169.697C1110.72 172.335 1116.52 170.225 1121.8 171.28C1126.02 172.335 1130.77 173.39 1134.99 173.39C1140.79 173.39 1143.96 177.61 1148.18 179.721C1149.23 180.248 1149.76 181.303 1149.23 182.886C1148.7 184.469 1147.12 184.469 1146.07 184.469C1144.48 184.469 1142.37 184.996 1140.79 183.414C1139.74 182.358 1138.15 181.831 1137.1 182.886C1134.99 184.996 1132.88 184.469 1130.77 184.469C1122.85 184.469 1114.41 183.941 1106.5 184.469C1102.28 184.469 1097.53 185.524 1095.42 190.272C1091.2 193.964 1086.45 198.185 1084.87 203.46C1084.87 201.878 1085.93 200.295 1083.82 199.24C1079.07 202.933 1079.07 208.208 1079.6 212.956C1079.6 216.121 1079.07 216.121 1075.9 215.594C1071.68 214.539 1071.15 210.846 1069.57 207.681C1069.04 211.901 1069.57 215.594 1064.3 218.759C1065.35 211.373 1062.19 204.515 1067.46 198.185C1069.04 196.602 1070.63 193.964 1067.46 191.854Z" fill="white"/>
<path d="M270.864 407.093C276.667 410.258 275.084 415.534 275.084 420.282C275.084 426.085 275.084 432.415 275.084 438.218C275.084 441.911 273.502 444.549 269.809 445.076C266.644 445.076 266.644 446.659 268.754 448.241C271.392 449.824 271.392 451.934 269.809 454.572C267.699 454.572 266.116 454.045 264.533 452.462C262.423 450.352 261.368 451.407 260.84 453.517C259.258 453.517 258.203 452.462 258.73 450.879L259.258 450.352C258.73 449.824 258.73 450.352 258.203 450.879C252.4 449.297 250.289 444.021 247.652 440.328C240.793 430.832 237.628 420.281 237.101 408.675C236.573 401.817 241.849 405.51 244.486 404.983H245.014C250.817 404.983 256.62 404.983 262.951 404.983C265.061 404.983 267.171 404.983 269.809 404.983C270.336 404.983 270.864 404.983 271.392 404.983C270.864 406.038 270.864 406.565 270.864 407.093Z" fill="white"/>
<path d="M963.006 306.332C959.313 298.946 956.676 291.56 955.093 283.647C956.148 282.592 955.093 281.009 956.148 280.482C957.203 284.702 957.203 285.23 958.786 284.702C963.006 283.119 966.699 283.647 970.919 285.757C972.502 286.812 975.14 286.285 976.722 284.702C978.305 283.119 977.25 281.537 976.722 279.954C975.667 277.316 976.195 274.151 976.195 270.986C979.36 273.624 978.833 278.372 981.47 281.537C983.581 281.537 983.053 278.899 984.636 278.372C985.163 284.175 985.691 284.175 991.494 284.175C998.352 284.175 1003.63 279.427 1010.49 279.954C1012.6 279.954 1013.65 278.371 1013.12 276.789C1011.54 272.041 1015.23 269.931 1017.87 267.293C1016.82 274.151 1017.34 281.009 1014.18 287.34C1013.12 288.922 1015.76 291.56 1012.6 292.615C1011.54 292.615 1010.49 293.143 1010.49 294.726C1011.01 300.529 1006.79 304.749 1006.26 309.497C1001.52 308.969 998.352 305.804 993.076 305.277C985.691 304.749 978.833 302.111 971.447 303.166C968.282 303.694 965.644 305.276 963.534 300.529C963.006 303.166 963.006 304.749 963.006 306.332Z" fill="white"/>
<path d="M1052.16 104.808C1052.16 105.336 1052.16 105.335 1052.16 105.863C1051.63 106.391 1050.58 106.391 1050.58 106.918C1047.94 115.886 1046.89 124.855 1044.25 133.823C1041.08 143.847 1040.03 154.925 1036.86 164.948C1034.75 171.279 1037.39 178.665 1033.17 184.468C1031.06 187.633 1030.53 190.798 1031.06 193.964C1031.06 196.601 1031.59 199.239 1027.37 199.239C1025.26 199.239 1024.2 201.349 1024.73 202.932C1025.26 207.152 1018.93 208.207 1019.98 212.955C1019.45 212.955 1018.93 212.955 1018.4 212.955C1016.29 211.373 1016.29 213.483 1015.76 214.538C1013.12 218.758 1012.07 223.506 1008.37 227.199C1005.74 223.506 1006.79 219.286 1008.37 216.12C1013.65 207.152 1015.76 197.129 1017.87 187.633C1018.4 183.94 1022.09 182.358 1022.09 178.665C1022.62 173.389 1024.73 168.114 1026.84 163.366C1028.95 158.09 1031.06 153.342 1030.53 147.539C1032.11 138.571 1035.81 130.658 1038.97 122.217C1041.08 116.414 1043.19 110.611 1045.83 105.335C1049 103.753 1050.05 100.588 1051.11 96.3672C1052.69 100.06 1051.63 102.698 1052.16 104.808Z" fill="white"/>
<path d="M801.051 454.572C811.601 454.572 819.515 462.485 819.515 471.981C819.515 482.532 811.601 490.973 801.051 490.973C789.972 490.973 782.586 483.06 782.586 472.509C783.114 461.958 791.027 454.572 801.051 454.572Z" fill="white"/>
<path d="M1095.95 190.269C1098.06 185.521 1102.81 184.466 1107.03 184.466C1114.94 183.939 1123.38 184.466 1131.3 184.466C1133.41 184.466 1136.04 184.994 1137.63 182.884C1138.68 181.829 1140.26 182.356 1141.32 183.411C1142.9 184.994 1144.48 184.466 1146.59 184.466C1147.65 184.466 1149.23 184.466 1149.76 182.884C1150.29 181.301 1149.76 180.246 1148.7 179.718C1144.48 177.608 1141.32 173.388 1135.52 173.388C1131.3 173.388 1126.55 171.805 1122.33 171.277C1117.05 170.222 1111.78 172.333 1106.5 169.695C1113.36 167.585 1120.22 168.112 1127.07 169.167C1139.21 170.75 1150.29 174.443 1159.78 183.411C1168.22 191.324 1173.5 201.348 1174.55 212.954C1175.08 216.647 1173.5 218.229 1169.81 217.702C1165.59 217.174 1160.84 217.702 1156.62 217.702C1153.98 217.702 1152.92 217.174 1152.4 214.536C1150.29 190.269 1126.55 184.466 1108.61 187.632C1103.86 187.632 1099.64 189.214 1095.95 190.269Z" fill="white"/>
<path d="M1031.06 148.071C1031.59 153.874 1029.48 158.622 1027.37 163.897C1025.26 168.645 1023.15 173.393 1022.62 179.196C1022.62 182.361 1018.93 184.472 1018.4 188.164C1016.29 198.188 1013.65 207.684 1008.9 216.652C1007.32 219.817 1006.27 223.51 1008.9 227.73C1012.6 224.038 1013.65 218.762 1016.29 215.069C1016.82 214.014 1016.82 211.904 1018.93 213.487C1019.46 213.487 1019.98 213.487 1020.51 213.487C1019.45 208.739 1025.79 207.684 1025.26 203.463C1024.73 201.353 1025.79 199.77 1027.9 199.77C1032.12 199.77 1031.59 197.133 1031.59 194.495C1031.06 191.33 1031.59 188.164 1033.7 184.999C1037.92 179.196 1035.28 171.81 1037.39 165.48C1040.56 155.456 1041.61 144.378 1044.78 134.354C1047.42 125.386 1048.47 116.418 1051.11 107.45C1051.11 106.922 1052.16 106.922 1052.69 106.395C1050.58 119.583 1047.42 132.772 1044.78 146.488C1039.5 171.283 1034.75 195.55 1029.48 220.345C1028.95 222.455 1029.48 224.038 1027.37 225.62C1026.84 225.62 1025.79 225.62 1025.26 225.62C1021.04 227.73 1024.2 231.423 1023.15 234.061C1020.51 233.533 1018.4 235.644 1016.82 237.226C1014.18 239.864 1011.01 241.974 1007.32 242.502C1002.57 243.029 999.408 245.667 995.715 247.777C997.298 241.974 998.881 236.171 1002.05 230.896C1003.1 230.896 1004.16 231.423 1004.68 229.841C1004.68 228.258 1003.1 228.786 1002.57 228.786C1007.32 216.124 1011.54 202.936 1016.29 190.275C1020.51 178.141 1025.26 166.007 1029.48 154.401C1028.95 151.764 1029.48 149.653 1031.06 148.071ZM1000.46 235.116C999.408 237.754 997.826 239.336 998.881 241.447C1000.46 239.864 1001.52 238.281 1000.46 235.116ZM1007.85 231.951C1007.85 232.478 1007.85 232.478 1007.85 232.478C1008.38 231.951 1008.38 231.951 1007.85 231.951C1007.85 231.951 1008.38 231.951 1007.85 231.951Z" fill="white"/>
<path d="M117.876 98.48C120.513 89.5117 126.844 82.1261 132.647 75.2679C148.473 56.8038 169.048 45.1978 192.26 38.8672C194.37 38.3396 196.48 37.8121 198.59 38.3396C200.701 38.8672 201.756 39.9222 202.283 42.0323C202.283 44.1425 201.756 45.1977 199.646 46.2528C193.315 48.8906 186.984 49.4181 180.654 52.0559C156.386 62.6068 137.922 78.4332 125.261 101.645C124.734 102.7 124.206 104.811 122.096 104.811C116.293 107.448 117.348 112.724 117.348 117.472C116.82 119.054 117.876 120.637 116.293 121.692C117.348 117.472 113.128 119.054 112.073 117.999C112.6 111.141 118.931 105.866 117.876 98.48Z" fill="white"/>
<path d="M893.897 490.973C883.874 490.973 875.961 483.06 875.433 473.036C875.433 463.013 883.874 454.572 893.37 454.572C903.921 454.572 912.362 462.485 912.362 472.509C912.362 483.06 904.448 490.973 893.897 490.973Z" fill="white"/>
<path d="M848.002 490.975C837.451 490.975 829.538 483.59 829.538 472.511C829.538 462.488 837.978 454.047 848.002 454.047C858.552 454.047 866.466 461.96 865.938 472.511C865.938 483.062 858.025 490.975 848.002 490.975Z" fill="white"/>
<path d="M470.277 150.18C470.277 152.818 470.277 154.928 470.277 157.566C470.277 160.204 469.749 161.786 466.584 161.786C463.419 161.786 462.891 159.676 462.891 157.039C464.474 135.409 457.088 116.417 442.844 100.591C432.293 88.9848 419.632 80.0166 403.278 77.3788C400.641 76.8513 398.003 75.2687 398.531 72.1034C399.058 68.4105 402.751 69.4657 404.861 69.9932C433.876 77.3789 453.923 94.7879 465.001 122.748C468.167 131.716 470.277 140.684 470.277 150.18Z" fill="white"/>
<path d="M741.436 265.185C741.436 259.909 740.908 254.106 740.908 248.831C740.908 225.091 740.908 201.879 740.908 178.139C740.908 174.446 738.271 169.698 742.491 166.533C744.601 167.061 743.546 168.643 744.074 169.699C741.436 172.864 744.074 176.029 744.074 179.194C744.074 198.186 744.074 217.178 744.074 235.642C744.074 238.28 744.601 240.39 745.656 242.5C747.767 247.248 753.042 248.303 754.097 253.051C756.207 259.909 765.176 258.327 767.286 264.657C767.286 265.185 769.396 264.657 770.451 264.657C773.089 264.657 775.199 264.657 777.837 264.657C778.364 267.823 781.002 266.767 783.112 266.767C793.136 266.767 803.159 266.767 813.182 266.767C813.182 267.295 813.182 267.823 813.182 268.35C796.828 268.35 781.002 268.35 764.648 268.35C764.12 268.878 764.12 268.878 763.593 269.405C762.538 272.043 763.593 274.681 763.065 277.318C762.538 280.484 765.176 284.704 761.483 285.759C758.318 286.814 756.207 282.594 753.57 280.484C751.987 278.901 751.459 275.736 748.294 275.736C743.546 276.263 743.546 273.098 743.546 269.933C744.074 267.823 745.657 265.185 741.436 265.185Z" fill="white"/>
<path d="M963.007 306.336C963.007 304.753 963.007 303.171 963.007 301.061C965.117 305.281 967.755 304.226 970.92 303.698C978.305 302.643 985.691 305.281 992.549 305.808C997.297 306.336 1000.99 309.501 1005.74 310.029C1006.79 315.832 1002.57 321.635 1003.1 327.438C1003.1 329.548 1000.46 331.131 997.825 331.131C991.494 331.131 985.164 331.131 978.833 330.076C974.085 329.548 971.447 327.965 971.447 323.218C971.447 320.58 970.392 318.47 967.227 318.47C965.117 315.832 964.589 313.194 964.061 310.029C964.061 309.501 963.534 309.501 963.534 308.974C963.006 307.919 963.007 307.391 963.007 306.336Z" fill="white"/>
<path d="M902.338 296.312C902.338 296.839 901.81 297.367 901.81 297.894C899.7 298.949 900.755 301.06 900.228 302.642C895.48 316.359 891.26 330.075 885.457 343.791C880.709 343.791 883.874 348.539 881.764 350.122C877.544 352.759 878.071 356.98 878.599 361.2C875.961 361.728 873.323 362.255 873.851 365.948C873.851 366.476 875.433 368.058 872.796 368.586C870.158 369.113 870.685 367.003 870.158 365.948C868.575 363.31 872.268 362.783 872.268 360.673C871.741 356.452 873.851 351.704 873.851 348.011C873.851 340.098 878.071 333.24 875.961 325.327C877.016 314.248 879.654 303.697 882.819 293.146C882.819 295.784 882.819 298.95 882.819 301.587C882.819 303.17 883.347 305.28 885.457 304.753C890.732 302.642 898.117 303.697 900.228 295.784C900.228 294.729 900.755 293.147 902.338 294.202C902.865 293.674 902.338 295.257 902.338 296.312Z" fill="white"/>
<path d="M678.659 184.47C678.659 182.36 677.076 182.36 675.494 182.36C662.305 180.777 661.25 179.722 661.25 166.533C677.604 166.533 693.958 166.533 710.312 166.006C712.422 166.006 712.949 166.533 712.949 168.644C712.949 171.809 712.949 174.447 712.949 177.612C712.949 185.525 712.949 186.053 705.036 184.998C698.178 184.47 691.848 183.943 684.99 184.998C683.407 184.998 680.769 185.525 678.659 184.47Z" fill="white"/>
<path d="M480.829 102.698C480.301 102.171 480.301 101.116 479.773 100.588C480.301 95.8402 478.718 92.6749 474.498 91.0923C469.75 85.2893 465.002 79.4862 459.727 74.7383C447.593 63.6598 434.404 55.2191 418.578 50.4711C414.885 49.4161 411.192 48.3609 407.499 47.3058C404.334 46.2507 401.696 45.1958 403.279 41.503C404.334 37.8101 407.499 38.3377 410.665 38.8652C418.578 40.9754 426.491 43.0856 433.877 46.7784C451.813 55.2192 467.112 67.8803 478.718 83.7067C479.773 85.2893 481.356 86.8718 481.356 89.5096C479.773 92.6749 481.884 95.3126 482.939 97.4228C482.939 99.0054 482.939 100.061 482.939 101.643C482.411 101.643 481.356 101.643 480.829 102.698Z" fill="white"/>
<path d="M764.649 268.351C781.003 268.351 796.829 268.351 813.183 268.351C813.183 267.824 813.183 267.296 813.183 266.768C803.16 266.768 793.137 266.768 783.113 266.768C781.003 266.768 778.893 267.824 777.838 264.658C788.389 264.658 798.94 264.658 809.49 264.658C811.073 264.658 813.711 265.713 814.239 262.548C816.876 262.548 820.041 263.076 822.679 262.548C826.372 262.021 831.12 261.493 833.758 259.383C837.978 256.218 842.726 253.58 846.419 249.887C850.639 246.722 855.915 243.556 854.332 236.698C853.804 235.643 854.86 234.061 855.387 233.533C858.552 230.895 858.552 227.203 858.552 223.51C858.552 218.762 858.552 213.486 858.552 208.738C858.552 202.408 852.749 198.187 853.805 191.857L853.277 191.329C849.056 187.636 845.364 183.944 841.143 180.778C835.34 176.03 830.592 169.7 821.624 171.81C820.569 168.117 817.404 170.227 815.294 169.7C814.766 169.7 814.766 169.7 814.239 169.7C811.601 165.479 806.853 168.645 803.688 167.59C802.105 166.007 799.995 166.007 798.412 167.59C786.806 167.59 775.2 167.59 763.594 167.59C757.791 165.479 751.988 165.479 746.713 167.59C748.823 169.172 750.933 168.117 753.043 168.645C756.736 169.172 760.429 167.59 763.594 169.7C757.791 169.7 752.516 169.7 746.713 169.7C746.185 169.7 745.13 169.7 744.602 169.7C744.602 168.645 745.13 167.062 743.02 166.534C743.547 165.479 745.13 166.007 745.658 166.007C767.287 166.007 788.389 165.479 810.018 166.534C832.175 167.59 851.694 177.085 859.607 199.242C866.465 218.234 863.828 236.698 851.167 252.525C844.309 260.966 834.285 265.186 823.734 267.296C804.215 270.461 784.696 268.351 764.649 268.351Z" fill="white"/>
<path d="M629.597 292.617C628.014 292.09 627.487 291.562 627.487 289.979C628.542 284.176 624.849 283.649 620.629 284.177C610.605 284.177 610.605 284.177 610.605 273.626C610.605 272.043 610.605 269.933 609.55 268.35C609.55 277.318 609.55 286.287 609.55 294.728C609.55 304.223 609.55 313.192 609.55 322.688C609.55 324.798 610.078 326.38 608.495 328.491C607.968 304.223 608.495 280.484 608.495 256.216C610.605 251.996 608.495 247.248 610.078 242.5C611.66 250.413 618.519 248.303 623.266 249.886C626.959 250.941 631.707 247.776 634.873 252.524C634.873 252.524 635.928 252.524 636.455 252.524C644.368 247.776 652.282 254.106 659.667 253.051C659.667 253.051 660.195 253.579 661.25 254.634C654.392 254.634 648.061 254.634 641.731 254.634C639.62 254.634 638.038 254.634 635.928 254.634C630.125 254.634 629.07 256.216 629.597 261.492C629.597 272.043 629.597 282.066 629.597 292.617Z" fill="white"/>
<path d="M1067.46 191.857C1070.63 193.968 1069.04 196.605 1067.46 198.715C1062.19 205.046 1065.35 211.904 1064.3 219.29C1069.04 216.125 1068.52 211.904 1069.57 208.211C1071.15 211.377 1071.68 215.069 1075.9 216.125C1079.07 217.18 1079.6 216.652 1079.6 213.487C1079.07 208.211 1079.07 203.463 1083.82 199.771C1085.4 200.826 1084.34 202.408 1084.87 203.991C1080.65 218.235 1089.09 227.203 1100.17 233.006C1101.22 233.534 1102.81 234.061 1103.86 235.116C1100.17 233.534 1102.28 237.227 1101.22 238.282C1094.89 242.502 1088.56 241.975 1081.71 241.447C1080.12 241.447 1079.07 241.447 1077.48 241.447C1068.52 236.699 1064.82 228.258 1062.71 219.29C1060.6 209.794 1062.71 200.298 1067.46 191.857ZM1079.6 222.983C1079.6 222.455 1079.07 222.455 1079.07 221.928L1078.54 222.455C1078.54 222.983 1078.54 222.983 1079.07 223.51C1079.07 223.51 1079.6 223.51 1079.6 222.983Z" fill="white"/>
<path d="M1052.69 37.813C1050.05 32.0099 1049 26.7344 1052.16 20.9314C1055.33 20.4038 1057.44 17.7661 1060.08 16.1835C1064.3 13.5457 1067.99 10.908 1073.26 13.5457C1081.18 17.7661 1084.87 27.7896 1081.18 36.2304C1077.48 44.6712 1064.3 47.3089 1059.02 40.9783C1056.91 37.813 1055.33 37.813 1052.69 37.813Z" fill="white"/>
<path d="M1024.73 224.564C1025.26 224.564 1026.31 224.564 1026.84 224.564C1024.2 237.753 1021.56 250.414 1018.93 263.603C1018.93 264.658 1018.93 266.768 1016.82 266.768C1014.18 269.406 1010.49 270.989 1012.07 276.264C1012.6 277.847 1011.54 279.429 1009.43 279.429C1002.57 278.902 997.296 283.65 990.438 283.65C984.635 283.65 983.58 284.177 983.58 277.847C984.108 272.571 986.745 267.823 988.328 263.075C988.328 262.548 988.856 262.02 988.856 261.493C994.131 265.713 996.241 265.186 1000.46 259.383C1000.99 258.855 1001.52 258.327 1001.52 258.327C1006.79 259.382 1009.43 254.635 1013.65 253.58C1015.76 253.052 1017.34 251.997 1016.82 249.359C1016.82 247.777 1017.34 246.721 1017.87 245.666C1019.45 241.973 1021.56 237.753 1021.04 233.005C1025.26 230.895 1024.2 227.73 1024.73 224.564Z" fill="white"/>
<path d="M741.436 265.184C745.129 265.184 744.074 268.349 744.074 270.459C744.074 273.624 744.074 276.262 748.822 276.262C751.987 276.262 752.515 279.427 754.097 281.01C756.208 283.12 758.845 287.341 762.011 286.286C765.704 285.23 763.066 281.01 763.593 277.845C764.121 275.207 763.066 272.569 764.121 269.931C764.121 289.451 764.648 309.498 764.648 329.017C764.648 330.6 765.176 332.182 763.593 333.237C763.593 326.907 763.593 320.576 763.593 314.246C763.593 311.08 763.066 309.498 759.373 310.025C757.79 310.025 755.68 310.553 755.153 308.442C753.57 302.112 744.074 301.584 745.129 293.144C743.546 302.639 741.436 312.135 741.964 321.631C741.964 323.741 742.491 325.852 740.908 327.962C741.436 306.86 741.436 285.758 741.436 265.184Z" fill="white"/>
<path d="M741.437 327.435C743.02 325.853 742.492 323.215 742.492 321.105C741.964 311.609 744.075 302.113 745.657 292.617C744.602 300.53 754.098 301.586 755.68 307.916C756.208 310.026 758.318 309.499 759.901 309.499C763.066 308.971 764.121 310.554 764.121 313.719C764.121 320.05 764.121 326.38 764.121 332.711C759.901 332.711 755.681 331.656 751.46 333.238C750.405 333.238 748.822 333.238 747.767 333.238C741.964 334.821 739.854 332.711 741.437 327.435Z" fill="white"/>
<path d="M480.828 102.698C481.356 101.643 481.883 101.643 482.939 101.643C482.939 104.281 483.466 106.391 487.159 107.447C487.159 103.226 486.104 99.5332 482.939 97.423C481.883 94.7853 479.773 92.6751 481.356 89.5098C488.741 97.423 491.907 107.447 495.072 116.942C499.292 129.604 500.347 142.792 499.82 155.981C499.82 159.146 499.292 161.784 495.072 161.784C491.379 161.784 491.379 159.146 491.379 155.981C491.907 138.572 488.214 122.218 481.356 106.919C481.356 105.336 481.356 104.281 480.828 102.698Z" fill="white"/>
<path d="M875.434 324.799C877.017 332.712 872.797 339.57 873.324 347.483C873.324 351.704 871.214 355.924 871.741 360.145C871.741 362.255 868.049 362.782 869.631 365.42C870.159 366.475 869.631 368.058 872.269 368.058C874.907 367.53 873.852 365.948 873.324 365.42C872.797 361.727 875.434 361.2 878.072 360.672C877.017 367.53 874.379 373.861 872.269 380.719C867.521 394.963 862.246 408.679 857.498 422.395C856.443 424.505 855.915 426.616 853.277 429.253C856.443 415.009 859.081 401.821 861.718 388.632C865.939 369.113 870.159 349.066 873.852 329.547C874.379 327.437 874.907 326.381 875.434 324.799Z" fill="white"/>
<path d="M150.057 105.867C151.639 101.119 155.332 97.4264 158.498 94.2611C169.576 82.1275 183.82 74.7418 199.646 69.9939C200.174 69.9939 201.229 69.9939 201.756 69.9939C204.394 68.9388 206.504 69.4663 207.032 72.104C207.559 75.2693 205.449 76.8519 202.811 77.3795C194.898 78.4346 187.513 81.5999 180.654 85.8203C171.159 91.0958 162.718 98.4815 156.387 107.45C154.805 109.56 153.75 111.67 151.639 112.725C149.002 111.143 150.057 108.505 150.057 105.867Z" fill="white"/>
<path d="M898.647 215.066C899.702 218.232 899.702 221.397 898.119 225.09C896.009 230.893 897.592 236.696 897.064 243.554C904.977 238.279 910.78 245.664 917.638 245.664C916.056 249.885 916.583 254.105 916.583 258.325C911.308 257.27 912.89 263.073 910.253 264.656C907.615 265.184 906.032 263.601 903.922 261.491C902.34 259.908 900.757 258.325 899.174 261.491C898.119 263.073 896.537 262.546 894.954 262.018C892.844 261.491 893.371 259.908 893.371 258.325C893.371 253.577 893.371 248.829 894.954 243.554C896.009 239.861 896.009 236.168 894.954 232.475C894.954 227.2 895.482 220.869 898.647 215.066Z" fill="white"/>
<path d="M1022.62 233.004C1023.15 237.752 1021.04 241.445 1019.45 245.665C1018.93 246.72 1017.87 248.303 1018.4 249.358C1018.93 251.996 1017.34 253.051 1015.23 253.578C1011.01 254.633 1008.38 259.909 1003.1 258.326C1002.57 258.326 1002.05 258.854 1002.05 259.381C997.825 265.185 995.715 265.712 990.439 261.492C990.439 258.326 992.022 255.689 993.605 252.523C995.187 251.996 995.715 250.413 995.187 248.83C995.187 247.775 995.715 246.72 995.715 246.193C999.408 244.082 1002.57 241.445 1007.32 240.917C1011.01 240.39 1014.18 238.807 1016.82 235.642C1017.87 234.587 1019.45 233.004 1022.62 233.004Z" fill="white"/>
<path d="M117.874 98.4805C118.929 105.866 112.599 111.142 112.599 118C113.654 119.055 117.874 117.472 116.819 121.693C114.181 133.299 112.599 145.432 113.126 157.038C113.126 159.676 112.071 161.259 109.433 161.259C106.796 161.259 104.685 159.676 104.158 157.038C103.63 152.818 103.63 149.125 104.158 144.905C105.213 130.661 108.378 116.417 114.181 103.228C115.237 101.646 115.764 99.5356 117.874 98.4805Z" fill="white"/>
<path d="M1052.69 37.8109C1055.33 37.8109 1057.44 37.8109 1059.55 40.9762C1064.82 47.8343 1078.54 44.6691 1081.7 36.2283C1085.4 27.7875 1081.7 17.764 1073.79 13.5436C1068.52 10.3783 1064.29 13.5436 1060.6 16.1813C1057.96 17.764 1055.85 20.4017 1052.69 20.9293C1053.22 14.5987 1058.49 12.4885 1063.24 10.9059C1071.68 7.74056 1080.65 11.4334 1085.4 19.3467C1089.09 25.6773 1089.09 35.7006 1082.76 42.0312C1075.37 49.4169 1059.55 48.8894 1053.74 40.4486C1052.16 39.9211 1052.69 38.866 1052.69 37.8109Z" fill="white"/>
<path d="M902.34 296.307C902.34 295.252 902.867 294.197 901.812 293.669C900.229 293.141 900.229 294.724 899.702 295.252C897.592 303.165 890.206 302.11 884.93 304.22C882.82 304.748 882.292 303.165 882.292 301.055C882.292 298.417 882.292 295.252 882.292 292.614C882.82 286.811 883.347 281.008 885.985 275.732C887.568 277.843 886.513 279.953 886.513 282.59C886.513 285.756 886.513 289.449 888.623 292.614C890.206 289.449 891.261 285.756 895.481 287.338C898.119 288.393 901.812 293.669 900.757 285.228L901.284 284.701C907.087 285.228 904.977 280.48 905.505 277.843C906.56 277.315 907.615 277.315 908.67 276.787C907.615 280.48 906.56 283.646 905.505 286.283C905.505 287.338 904.977 287.866 904.977 288.921C904.977 289.449 904.45 290.504 904.45 291.031C903.922 292.614 903.922 294.724 902.34 296.307Z" fill="white"/>
<path d="M894.426 233.529C895.481 237.222 895.481 241.443 894.426 244.608C892.844 249.356 892.843 254.104 892.843 259.379C892.843 260.962 892.316 262.544 894.426 263.072C896.009 263.6 898.119 264.127 898.647 262.544C900.229 259.379 901.812 260.962 903.394 262.544C904.977 264.127 906.56 266.237 909.725 265.71C909.725 267.292 909.725 268.875 908.142 270.458C906.032 272.568 904.977 275.206 905.505 278.371C903.922 277.843 902.867 279.953 900.757 277.843C898.646 275.205 894.953 275.205 892.843 277.843C891.788 278.898 891.261 279.426 889.678 278.898C888.095 278.371 888.623 276.788 888.623 275.733C888.623 274.15 888.623 272.568 888.623 270.458C890.733 272.04 888.623 274.15 890.733 275.205C890.733 267.82 890.733 260.434 890.733 253.576C890.206 246.19 892.844 239.86 894.426 233.529Z" fill="white"/>
<path d="M944.015 249.889C946.652 249.889 946.125 252.526 947.708 254.109C948.763 255.164 947.18 258.329 950.345 258.329C954.038 258.329 957.731 259.384 961.424 257.274C966.699 254.637 968.282 250.416 967.227 244.613C970.392 249.889 971.975 255.692 973.558 261.495C973.03 261.495 972.502 259.384 971.975 260.967C969.864 266.242 966.172 267.825 961.424 266.77C960.896 266.77 959.841 266.77 959.314 266.77C955.621 267.825 951.4 268.88 950.345 263.077L949.818 263.605V264.132C946.653 260.44 945.07 255.164 944.015 249.889Z" fill="white"/>
<path d="M890.733 253.049C890.733 260.434 890.733 267.293 890.733 274.678C888.622 273.623 890.732 271.513 888.622 269.93C888.622 272.041 888.622 273.623 888.622 275.206C888.622 276.261 888.095 277.844 889.677 278.371C891.26 278.899 891.787 277.843 892.843 277.316C895.48 274.678 898.645 274.678 900.756 277.316C902.338 279.426 903.921 277.844 905.503 277.844C904.976 280.481 907.086 285.229 901.283 284.702L900.756 285.229C901.811 293.67 898.118 287.867 895.48 287.339C891.26 285.757 890.205 289.449 888.622 292.615C886.512 289.449 886.512 286.284 886.512 282.591C886.512 280.481 887.04 277.844 885.985 275.733C886.512 267.82 887.567 260.434 890.733 253.049Z" fill="white"/>
<path d="M967.228 317.94C970.393 317.94 971.448 320.05 971.448 322.688C971.448 327.435 974.086 329.018 978.834 329.546C985.164 330.601 991.495 330.601 997.825 330.601C1000.46 330.601 1003.63 329.018 1003.1 326.908C1002.57 320.577 1006.27 315.302 1005.74 309.499C1006.27 304.223 1010.49 300.003 1009.96 294.728C1009.96 293.672 1011.01 293.145 1012.07 292.617C1013.12 296.838 1011.54 300.53 1011.01 304.223C1009.43 312.664 1007.85 320.577 1006.27 328.491C1005.74 331.128 1005.21 332.711 1001.52 332.711C993.077 332.183 984.637 332.183 976.196 332.711C973.031 332.711 971.448 332.183 970.92 329.018C969.338 325.325 967.228 322.16 967.228 317.94Z" fill="white"/>
<path d="M975.668 270.988C975.668 274.153 975.141 276.791 976.196 279.956C976.723 281.539 978.306 283.121 976.196 284.704C974.613 286.287 971.975 286.814 970.393 285.759C966.172 284.177 962.48 283.121 958.259 284.704C957.204 285.232 956.677 284.704 955.622 280.484C954.039 281.011 955.094 282.594 954.566 283.649C954.039 282.594 953.511 282.066 952.984 281.011C952.984 279.956 952.984 278.374 951.929 277.318C951.929 276.791 951.929 275.736 951.401 275.208C958.259 277.319 964.59 273.098 971.448 274.681C973.03 275.208 973.03 272.571 973.03 271.515C973.558 269.933 971.975 267.295 974.613 266.768C975.668 268.35 975.668 269.933 975.668 270.988Z" fill="white"/>
<path d="M975.139 267.294C972.502 268.349 973.557 270.459 973.557 272.042C973.557 273.624 973.557 275.735 971.974 275.207C965.116 273.624 958.785 277.845 951.927 275.735C952.455 274.152 951.4 273.097 950.345 272.569V272.042C950.345 270.987 950.345 269.931 949.29 269.404V268.876C949.29 267.821 949.29 266.239 949.29 265.184V264.656L949.817 264.128C950.872 269.931 955.092 268.876 958.785 267.821C959.313 267.821 960.368 267.294 960.896 267.821C966.171 268.349 969.864 266.766 971.447 262.018C971.974 260.436 972.502 262.546 973.029 262.546C973.029 263.073 973.557 264.128 973.557 264.656C973.557 265.184 974.084 265.711 974.084 265.711C975.139 265.184 975.139 266.239 975.139 267.294Z" fill="white"/>
<path d="M1052.16 104.809C1051.64 102.699 1052.69 100.061 1051.11 96.8957C1050.05 101.116 1049 104.281 1045.83 105.864C1046.36 100.588 1048.47 96.3681 1050.05 91.6202C1052.69 83.707 1055.33 76.3212 1057.97 68.9355C1059.55 68.9355 1060.08 69.4632 1060.08 70.5183C1057.97 81.5968 1055.86 92.1477 1053.22 103.226C1053.22 103.754 1052.69 104.281 1052.16 104.809Z" fill="white"/>
<path d="M150.056 105.867C150.056 108.505 149 111.143 151.638 112.725C149 119.584 145.835 126.442 143.198 133.3C141.087 133.827 141.615 135.41 141.615 136.993C141.615 138.575 140.56 139.63 138.977 139.103C136.867 138.575 137.395 136.993 137.922 135.938C140.032 133.3 138.977 130.662 139.505 128.024C139.505 127.497 139.505 127.497 140.033 126.969C142.67 123.804 143.198 120.111 143.725 116.418C144.253 112.198 145.835 108.505 150.056 105.867Z" fill="white"/>
<path d="M138.976 128.02C138.976 130.657 139.504 133.823 137.394 135.933C136.338 136.988 136.338 138.571 138.448 139.098C140.031 139.626 141.086 138.57 141.086 136.988C141.086 135.405 140.559 133.823 142.669 133.295C142.142 141.736 140.031 150.176 140.559 158.617C140.559 160.2 138.976 161.255 137.394 161.783C135.811 161.783 134.228 161.255 134.228 159.672C134.228 149.121 132.646 139.098 137.394 129.075C138.449 128.547 138.976 128.547 138.976 128.02Z" fill="white"/>
<path d="M916.054 258.327C916.054 254.106 915.527 249.886 917.11 245.666C920.275 238.28 925.023 230.894 926.078 222.981C926.605 219.288 929.771 218.233 932.408 216.65C932.936 218.761 933.463 220.871 931.881 222.453C928.188 220.343 928.715 224.036 928.188 225.091C924.495 235.642 920.802 246.193 917.11 256.744C917.11 257.272 916.582 257.799 916.054 258.327Z" fill="white"/>
<path d="M905.504 277.846C904.977 274.68 906.032 272.043 908.142 269.932C909.725 268.35 909.725 266.767 909.725 265.185C912.362 263.602 910.78 257.799 916.055 258.854C913.945 268.35 910.252 277.846 905.504 286.287C906.559 283.121 907.614 279.956 908.669 276.791C907.614 276.791 906.559 277.318 905.504 277.846Z" fill="white"/>
<path d="M933.464 224.564C935.574 224.564 937.157 224.564 938.212 227.202C940.849 234.06 942.96 241.446 944.542 248.832C941.377 247.777 942.96 244.084 940.849 242.501V241.974C940.322 240.391 940.322 238.808 938.739 237.226C935.574 233.533 933.991 229.312 933.464 224.564Z" fill="white"/>
<path d="M270.864 385.465C271.392 382.827 273.502 383.882 275.085 383.882C279.305 383.882 283.525 383.882 287.746 383.882C292.494 383.882 297.769 383.882 302.517 383.882C304.1 383.882 306.21 383.355 306.738 385.465C295.131 385.465 282.998 385.465 270.864 385.465Z" fill="white"/>
<path d="M939.794 242.5C941.905 244.083 940.322 247.776 943.487 248.831C943.487 249.358 943.487 249.358 943.487 249.886C945.07 255.161 946.125 259.909 948.763 264.657C948.763 265.712 948.763 267.295 948.763 268.35C947.708 268.35 946.125 268.35 946.125 267.295C945.598 260.437 942.432 254.106 939.794 247.248C939.794 246.193 939.794 244.61 939.794 242.5Z" fill="white"/>
<path d="M878.072 360.673C878.072 356.452 877.017 352.76 881.237 349.594C883.347 348.012 880.182 343.264 884.93 343.264C883.347 349.594 881.237 355.397 878.072 360.673Z" fill="white"/>
<path d="M117.874 117.472C117.874 112.724 116.819 107.976 122.622 104.811C123.149 110.086 120.512 113.779 117.874 117.472Z" fill="white"/>
<path d="M425.963 301.059C425.963 295.783 426.491 290.508 426.491 285.76C427.018 294.201 427.546 302.114 426.491 310.555C425.963 307.389 425.963 304.224 425.963 301.059Z" fill="white"/>
<path d="M474.497 91.0918C479.245 92.6745 480.828 95.8397 479.772 100.588C477.662 97.4224 475.024 94.7847 474.497 91.0918Z" fill="white"/>
<path d="M143.197 116.416C142.67 120.109 142.142 123.802 139.504 126.967C138.976 122.747 140.032 119.054 143.197 116.416Z" fill="white"/>
<path d="M1170.86 273.622C1170.33 275.205 1168.22 275.732 1168.22 274.15C1168.75 270.984 1165.06 269.402 1166.64 266.236C1169.28 268.874 1170.33 270.984 1170.86 273.622Z" fill="white"/>
<path d="M750.933 333.767C755.153 332.184 759.373 333.239 763.594 333.239C759.373 334.822 755.153 333.767 750.933 333.767Z" fill="white"/>
<path d="M425.963 275.735C425.963 272.042 425.963 268.349 426.491 264.656C427.018 267.822 427.018 272.042 425.963 275.735Z" fill="white"/>
<path d="M937.684 237.225C938.739 238.28 939.267 240.39 939.795 241.973C937.157 241.445 937.684 239.335 937.684 237.225Z" fill="white"/>
<path d="M900.229 302.639C900.756 301.056 899.701 298.946 901.811 297.891C902.339 299.473 901.284 301.056 900.229 302.639Z" fill="white"/>
<path d="M269.282 404.987C267.172 404.987 265.061 404.987 262.423 404.987C265.061 404.46 267.172 404.46 269.282 404.987Z" fill="white"/>
<path d="M952.455 277.846C954.038 278.901 953.51 279.956 953.51 281.539C951.927 280.484 951.4 279.428 952.455 277.846Z" fill="white"/>
<path d="M1001.52 227.731C1002.57 227.731 1004.16 227.203 1003.63 228.786C1003.63 229.841 1002.05 229.313 1000.99 229.841C1001.52 229.313 1001.52 228.786 1001.52 227.731Z" fill="white"/>
<path d="M466.058 385.465C466.585 382.827 468.168 383.882 469.751 383.882C469.223 385.465 467.64 385.992 466.058 385.465Z" fill="white"/>
<path d="M994.66 249.887C995.187 251.469 994.132 252.524 993.077 253.579C992.55 251.469 993.077 250.414 994.66 249.887Z" fill="white"/>
<path d="M950.346 272.57C951.401 273.098 952.456 274.153 951.928 275.736C950.346 275.208 950.346 273.625 950.346 272.57Z" fill="white"/>
<path d="M425.963 258.853C425.963 257.797 426.491 256.742 426.491 256.215C427.018 257.797 427.018 259.38 426.491 260.963C425.963 259.908 425.963 259.38 425.963 258.853Z" fill="white"/>
<path d="M1108.61 237.223C1107.55 237.223 1106.5 237.223 1105.97 236.168C1107.55 235.64 1108.08 236.168 1108.61 237.223Z" fill="white"/>
<path d="M904.448 291.034C904.448 290.506 904.976 289.451 904.976 288.924C905.504 289.451 905.503 290.506 904.448 291.034Z" fill="white"/>
<path d="M1113.36 238.811C1112.3 238.283 1111.77 238.283 1110.72 237.756C1111.77 237.756 1112.3 237.756 1113.36 238.811Z" fill="white"/>
<path d="M949.29 269.406C950.345 269.934 950.345 271.516 950.345 272.044C949.29 271.516 949.29 270.461 949.29 269.406Z" fill="white"/>
<path d="M989.384 262.018C989.384 262.545 988.856 263.073 988.856 263.6C988.856 263.073 988.856 262.545 989.384 262.018Z" fill="white"/>
<path d="M608.495 332.713C609.023 332.713 609.55 333.241 610.078 333.241C609.55 333.241 609.55 333.768 609.023 333.768C608.495 333.768 608.495 333.241 608.495 332.713Z" fill="white"/>
<path d="M963.534 308.443C963.534 308.971 964.062 308.971 964.062 309.499C963.534 309.499 963.007 308.971 963.534 308.443Z" fill="white"/>
<path d="M1114.94 239.334C1114.41 239.334 1113.89 238.807 1113.89 238.807C1113.89 238.807 1114.41 239.334 1114.94 239.334Z" fill="white"/>
<path d="M974.085 265.186C974.085 264.658 973.557 264.131 973.557 264.131C974.085 264.131 974.085 264.658 974.085 265.186Z" fill="white"/>
<path d="M261.368 454.047C261.895 454.574 261.895 454.575 262.423 455.102C261.895 454.575 261.368 454.574 261.368 454.047Z" fill="white"/>
<path d="M1103.86 169.172H1103.33C1103.33 168.644 1103.86 169.172 1103.86 169.172Z" fill="white"/>
<path d="M278.25 334.82C283.525 333.238 285.636 337.458 287.746 340.623C288.801 342.733 289.856 343.261 291.966 343.261C296.186 343.261 300.934 343.261 305.155 343.261C304.627 350.119 306.21 357.505 302.517 364.363C300.407 368.056 300.934 373.331 304.1 377.552C306.21 380.189 305.155 381.772 301.989 381.772C297.241 381.772 293.021 381.772 288.273 381.772C287.746 378.607 285.108 379.662 282.998 379.662C280.887 379.662 279.305 379.134 278.777 377.024C277.195 370.166 276.667 363.308 270.864 358.032C270.337 357.505 270.336 356.45 270.336 355.395C269.809 350.119 268.226 344.844 264.533 340.096C261.368 336.403 262.423 334.82 267.171 334.82C270.336 334.82 274.557 334.82 278.25 334.82Z" fill="white"/>
<path d="M155.332 343.791C163.245 342.736 167.993 337.461 172.741 331.658C172.741 331.658 172.741 331.13 173.268 330.602C174.851 329.02 175.378 325.327 178.016 326.909C180.654 327.965 180.126 331.657 179.071 333.24C176.434 336.933 177.489 338.516 181.182 340.626C184.347 342.736 186.457 346.429 185.402 350.649C184.347 359.617 186.985 368.058 185.402 377.027C184.874 381.247 189.622 378.609 191.205 381.247C185.929 382.302 181.709 384.412 176.434 384.412C165.883 383.885 154.804 384.412 144.253 384.412C129.482 384.412 124.206 379.137 123.679 365.421C122.096 365.948 123.679 368.058 122.096 368.586C121.569 366.476 121.569 363.838 122.624 362.255C127.899 355.397 133.175 347.484 143.726 348.539C148.474 348.011 152.694 347.484 155.332 343.791Z" fill="white"/>
<path d="M179.598 274.678C179.598 270.458 179.598 266.237 179.598 262.017C179.598 260.434 179.598 258.852 181.708 258.852C183.291 258.852 185.401 258.324 185.928 260.962C185.928 262.544 186.983 263.6 188.566 264.127C194.897 266.237 198.59 272.04 202.282 276.788C204.393 279.426 206.503 284.174 208.613 287.339C210.723 290.505 212.306 293.142 217.054 292.615C220.747 292.087 222.857 296.308 224.967 297.89C228.66 302.111 229.715 308.969 233.408 313.189C230.77 315.827 229.187 317.937 230.77 322.685C232.353 326.378 231.298 331.126 232.353 335.874C227.605 332.708 222.329 330.071 215.999 329.543C214.943 329.543 214.416 328.488 214.416 327.433C213.361 318.465 209.668 310.024 204.392 302.638C202.81 300.528 205.448 296.835 202.282 295.252C196.479 292.615 193.841 286.812 188.566 284.174C187.511 283.647 186.456 282.591 186.456 281.536C186.456 276.788 183.291 275.733 179.598 274.678Z" fill="white"/>
<path d="M184.346 293.145C184.874 288.398 180.126 288.398 180.654 284.705C180.654 283.65 180.654 282.594 181.709 282.067C183.291 281.539 183.819 282.595 183.819 284.177C183.291 286.815 187.512 288.925 184.346 293.145Z" fill="white"/>
<path d="M192.787 297.365C190.677 296.31 188.039 296.31 188.039 293.672C188.039 293.145 189.094 292.617 189.621 292.617C192.259 292.617 192.259 294.728 192.787 297.365Z" fill="white"/>
<path d="M180.125 204.518C180.652 205.045 180.652 205.045 180.652 205.045C180.652 205.573 180.652 206.1 180.652 206.628C180.125 207.155 180.125 206.628 180.125 206.1C179.597 205.573 179.597 205.045 180.125 204.518Z" fill="white"/>
<path d="M270.335 455.627C270.335 455.627 270.336 456.155 269.808 456.155C269.808 455.627 269.808 455.627 269.281 455.1V454.572C269.808 455.1 270.335 455.627 270.335 455.627Z" fill="white"/>
<path d="M258.729 450.882C259.257 450.882 259.257 449.827 259.784 450.355C259.784 450.882 259.257 450.882 258.729 450.882C258.729 450.882 258.729 451.41 258.729 450.882Z" fill="white"/>
<path d="M1024.73 224.564C1024.73 227.73 1025.26 230.895 1022.62 233.005C1023.15 230.367 1019.98 226.675 1024.73 224.564Z" fill="white"/>
<path d="M1000.46 235.117C1000.99 238.283 1000.46 239.865 998.879 241.448C997.824 239.338 999.407 237.755 1000.46 235.117Z" fill="white"/>
<path d="M1007.85 231.947C1007.85 231.947 1008.38 231.947 1007.85 231.947C1008.38 232.475 1008.38 232.475 1007.85 232.475C1007.85 232.475 1007.85 232.475 1007.85 231.947Z" fill="white"/>
<path d="M744.073 169.172C744.601 169.172 745.656 169.172 746.183 169.172C746.183 171.282 748.294 171.282 749.876 171.282C755.152 172.337 760.955 168.644 764.648 174.975C765.175 175.502 766.758 174.975 768.34 175.503C769.396 175.503 770.978 174.975 770.978 177.085C769.923 178.14 768.34 177.613 767.285 177.613C765.175 177.613 763.592 178.668 763.592 180.25C763.592 182.361 766.23 181.305 767.285 181.833C784.167 182.888 801.049 180.25 817.93 183.943C823.733 184.998 828.481 186.053 832.174 190.801C835.866 195.022 838.504 199.77 840.087 206.1C843.252 218.234 844.307 230.367 835.339 240.391C829.536 247.249 822.678 252.524 813.182 251.997C802.631 251.469 792.08 255.162 781.529 254.635C781.529 254.635 781.002 255.162 781.002 255.69V256.217C781.529 256.217 781.529 256.745 782.057 256.745C787.86 257.8 794.718 254.107 798.938 260.965C798.938 261.493 800.521 260.965 801.576 260.965C804.214 260.965 806.851 260.965 809.489 260.965C811.072 260.965 813.71 259.91 814.237 263.075C813.71 266.241 811.599 265.186 809.489 265.186C798.938 265.186 788.387 265.186 777.836 265.186C775.198 265.186 773.088 265.186 770.451 265.186C769.396 265.186 767.285 265.186 767.285 265.186C765.175 258.855 756.207 260.438 754.097 253.58C752.514 249.359 747.239 247.777 745.656 243.029C744.601 240.391 744.073 238.281 744.073 236.171C744.073 217.179 744.073 198.187 744.073 179.723C744.601 176.03 741.436 172.865 744.073 169.172ZM764.12 217.179C764.12 226.147 764.12 235.643 764.12 244.611C764.12 247.777 764.647 249.887 768.868 249.887C781.001 249.887 793.135 250.414 805.269 249.887C814.765 249.359 824.261 247.777 831.119 240.391C845.89 224.037 842.197 192.912 816.347 186.581C799.993 182.361 783.639 184.471 767.285 184.998C764.12 184.998 764.12 187.636 764.12 189.746C764.12 199.242 764.12 208.21 764.12 217.179Z" fill="white"/>
<path d="M482.938 97.4238C486.103 100.062 487.158 103.227 487.158 107.448C483.465 106.392 482.938 104.282 482.938 101.644C482.938 100.062 482.938 98.4789 482.938 97.4238Z" fill="white"/>
<path d="M814.237 263.075C813.71 259.91 811.599 260.965 809.489 260.965C806.851 260.965 804.214 260.965 801.576 260.965C800.521 260.965 799.466 260.965 798.938 260.965C794.718 254.107 787.859 257.8 782.056 256.745C781.529 256.745 781.529 256.745 781.002 256.217V255.69C781.002 255.162 781.529 254.635 781.529 254.635C792.08 255.162 802.631 251.469 813.182 251.997C822.678 252.524 829.536 246.721 835.339 240.391C844.307 229.84 843.252 218.234 840.087 206.1C838.504 200.297 835.867 195.549 832.174 190.801C828.481 186.581 823.733 185.526 817.93 183.943C801.048 180.25 784.167 183.416 767.285 181.833C765.702 181.833 763.592 182.888 763.592 180.25C763.592 178.14 765.175 177.085 767.285 177.613C768.34 177.613 769.923 178.14 770.978 177.085C770.978 174.975 769.395 176.03 768.34 175.503C767.285 175.503 765.175 175.502 764.647 174.975C760.954 168.117 754.624 171.81 749.876 171.282C748.293 170.754 746.711 171.282 746.183 169.172C751.986 169.172 757.262 169.172 763.065 169.172C779.946 169.172 796.828 169.172 814.237 169.172C814.765 169.172 814.765 169.172 815.292 169.172C816.347 172.865 819.512 170.754 821.623 171.282C830.591 169.172 835.339 175.502 841.142 180.25C845.362 183.416 849.055 187.109 853.276 190.801L853.803 191.329C852.748 197.66 858.551 201.88 858.551 208.21C858.551 212.958 858.551 218.234 858.551 222.982C858.551 226.675 858.551 230.367 855.386 233.005C854.331 234.06 853.803 235.115 854.331 236.171C855.913 243.029 850.638 246.194 846.418 249.359C842.197 252.524 837.977 255.69 833.757 258.855C830.591 260.965 826.371 261.493 822.678 262.02C820.04 263.075 817.402 263.075 814.237 263.075ZM771.505 171.81C771.505 172.337 771.505 172.337 771.505 172.865C779.419 172.865 787.332 172.865 795.245 172.865C795.245 172.337 795.245 172.337 795.245 171.81C787.332 171.81 779.419 171.81 771.505 171.81Z" fill="white"/>
<path d="M814.237 169.171C797.356 169.171 780.474 169.171 763.065 169.171C759.899 167.061 756.207 168.643 752.514 168.116C750.404 167.588 747.766 168.643 746.183 167.061C751.986 167.061 757.789 167.061 763.065 167.061C774.671 167.061 786.277 167.061 797.883 167.061C799.466 167.061 801.576 167.061 803.159 167.061C807.379 168.643 811.6 164.95 814.237 169.171Z" fill="white"/>
<path d="M763.593 167.062C757.79 167.062 751.987 167.062 746.712 167.062C751.987 165.479 757.79 165.479 763.593 167.062Z" fill="white"/>
<path d="M821.623 171.282C819.513 170.755 816.348 172.865 815.293 169.172C817.403 170.227 820.568 167.589 821.623 171.282Z" fill="white"/>
<path d="M803.688 167.062C802.105 167.062 799.995 167.062 798.412 167.062C799.995 165.479 802.105 165.479 803.688 167.062Z" fill="white"/>
<path d="M1079.59 222.981L1079.07 223.509C1079.07 222.981 1078.54 222.981 1078.54 222.453L1079.07 221.926C1079.59 222.453 1079.59 222.981 1079.59 222.981Z" fill="white"/>
<path d="M771.507 171.809C779.42 171.809 787.333 171.809 795.246 171.809C795.246 172.336 795.246 172.336 795.246 172.864C787.333 172.864 779.42 172.864 771.507 172.864C771.507 172.864 771.507 172.336 771.507 171.809Z" fill="white"/>
</svg>
