<svg width="1278" height="500" viewBox="0 0 1278 500" fill="none" xmlns="http://www.w3.org/2000/svg">
<g clip-path="url(#clip0)">
<path d="M137.262 83.3828C168.072 97.6608 197.38 114.193 227.439 129.974C233.451 132.98 235.705 137.489 235.705 144.253C235.705 214.14 235.705 284.026 235.705 353.914C235.705 360.677 232.699 365.186 227.439 368.943C199.634 383.221 172.581 398.251 144.777 412.529C135.759 417.038 125.99 417.038 116.972 412.529C89.9189 398.251 62.8658 383.973 35.8128 370.446C29.0495 366.689 26.7951 361.428 26.7951 353.914C26.7951 284.778 26.7951 214.891 26.7951 145.756C26.7951 137.489 29.801 132.98 36.5643 129.223C65.8718 114.194 94.4277 99.164 123.735 84.1346C128.244 83.3831 132.753 83.3828 137.262 83.3828ZM39.5701 309.577C39.5701 323.103 39.5701 336.63 39.5701 350.156C39.5701 354.665 41.0731 357.671 44.8304 359.926C68.8776 371.949 92.9248 384.724 116.221 397.499C126.741 402.76 135.007 402.76 145.528 397.499C169.575 384.724 193.622 371.949 217.67 359.174C221.427 357.671 222.93 355.417 222.93 350.908C222.93 323.103 222.93 295.299 222.93 267.494C222.93 261.482 221.427 261.482 216.918 263.737C194.374 275.76 172.581 287.032 150.037 299.056C137.262 305.819 125.238 305.819 112.463 299.056C89.9189 287.032 67.3747 275.76 44.8304 263.737C40.3216 261.482 39.5701 262.234 39.5701 267.494C39.5701 281.772 39.5701 296.05 39.5701 309.577ZM41.0731 141.246C41.8245 143.501 44.079 144.252 45.582 145.004C70.3806 157.779 94.4278 170.554 119.226 184.081C126.741 187.838 134.256 187.838 141.019 184.081C165.818 171.305 189.865 158.53 214.664 145.004C216.167 144.252 218.421 143.501 219.173 141.246C192.12 126.968 165.066 112.69 137.262 98.4123C132.001 95.4064 125.238 96.1582 119.978 99.164C112.463 102.921 104.948 106.679 97.4336 111.187C80.1497 120.957 60.6114 130.726 41.0731 141.246ZM123.735 290.79C124.487 290.039 124.487 289.287 124.487 289.287C124.487 262.234 124.487 234.429 124.487 207.376C124.487 202.116 121.481 204.371 119.978 205.873C106.451 212.637 92.9249 220.151 80.1498 226.915C67.3748 233.678 54.5997 240.441 40.3217 247.956C68.8777 262.234 95.9307 276.512 123.735 290.79ZM221.427 247.205C192.871 232.175 165.066 217.897 137.262 202.867C137.262 232.926 137.262 261.483 137.262 290.79C165.818 276.512 192.871 262.234 221.427 247.205ZM148.534 194.601C172.581 207.376 195.877 219.4 219.173 231.423C224.433 234.429 222.93 229.92 222.93 227.666C222.93 208.879 222.93 189.341 222.93 170.554C222.93 166.045 222.93 161.536 222.93 155.525C197.38 169.051 174.084 181.075 148.534 194.601ZM39.5701 156.276C39.5701 182.578 39.5701 207.376 39.5701 233.678C64.3688 220.903 88.416 208.128 113.215 195.353C88.416 181.826 64.3688 169.051 39.5701 156.276Z" fill="white"/>
<path d="M1278 349.402C1270.49 347.899 1263.72 348.65 1256.21 348.65C1250.95 348.65 1249.44 347.147 1249.44 341.887C1249.44 315.585 1249.44 289.284 1249.44 262.982C1249.44 259.225 1249.44 254.716 1248.69 250.959C1245.69 226.912 1223.14 217.142 1202.85 230.669C1192.33 238.184 1187.82 248.704 1187.82 260.728C1187.07 287.781 1187.07 314.083 1187.07 341.136C1187.07 347.147 1185.57 349.402 1178.81 348.65C1173.54 347.899 1168.28 347.899 1163.02 348.65C1158.52 348.65 1157.01 347.147 1157.01 342.638C1157.01 315.585 1157.01 289.284 1157.01 262.231C1157.01 257.722 1157.01 253.213 1156.26 249.456C1153.25 229.166 1138.23 220.148 1117.94 226.911C1104.41 231.42 1094.64 244.947 1094.64 261.479C1093.89 288.532 1093.89 314.834 1094.64 341.887C1094.64 347.147 1093.14 349.402 1087.88 348.65C1081.11 347.899 1071.34 351.656 1067.59 347.147C1063.83 343.39 1066.84 333.621 1066.84 326.857C1066.08 290.787 1067.59 255.468 1066.08 219.397C1066.08 217.894 1066.08 216.391 1066.08 214.888C1065.33 205.118 1065.33 205.119 1075.1 205.119C1091.63 205.119 1091.63 205.119 1093.14 221.651C1093.14 223.154 1093.14 224.657 1094.64 226.16C1104.41 208.876 1120.19 201.361 1139.73 201.361C1159.27 201.361 1175.05 208.876 1182.56 228.415C1190.08 216.391 1199.1 208.124 1211.87 203.615C1223.14 199.858 1233.66 199.858 1244.93 202.113C1262.22 205.87 1271.24 217.894 1275.75 233.674C1276.5 236.68 1276.5 239.686 1278 242.692C1278 279.514 1278 314.082 1278 349.402Z" fill="white"/>
<path d="M558.087 225.411C558.087 220.151 558.087 214.89 558.087 209.63C558.087 206.624 558.838 205.121 562.596 205.873C569.359 205.873 575.371 205.873 582.134 205.873C585.891 205.873 587.394 207.375 587.394 211.133C587.394 227.665 587.394 244.198 587.394 260.73C587.394 287.783 587.394 314.836 587.394 341.889C587.394 348.653 585.14 350.156 579.128 349.404C573.868 348.653 568.607 349.404 563.347 349.404C559.59 349.404 558.087 348.653 558.087 344.144C558.087 338.883 558.087 332.872 558.087 325.357C550.572 337.381 541.554 344.895 530.282 347.901C497.217 358.422 464.904 342.641 452.881 310.327C442.36 280.268 443.863 250.961 463.401 224.66C482.939 198.358 524.27 193.849 548.318 214.89C551.324 217.896 553.578 221.654 558.087 225.411ZM558.087 276.511C558.087 270.499 558.087 263.736 556.584 257.724C552.827 238.937 540.803 226.914 523.519 224.66C504.732 222.405 488.951 229.92 482.188 246.452C473.922 265.99 473.922 285.529 482.188 305.067C488.951 320.848 502.478 327.611 519.01 326.86C535.543 326.86 547.566 318.594 553.578 303.564C556.584 295.298 558.087 286.28 558.087 276.511Z" fill="white"/>
<path d="M965.386 350.155C923.304 350.155 895.499 323.854 893.245 284.777C891.742 267.493 893.996 250.961 902.263 235.931C915.789 211.133 938.333 200.612 966.138 202.115C1008.22 203.618 1035.27 234.428 1033.77 278.765C1033.02 295.297 1029.26 311.079 1019.49 324.605C1004.46 342.641 984.925 350.155 965.386 350.155ZM1003.71 275.008C1003.71 270.499 1002.96 264.487 1002.21 258.476C998.451 238.937 986.428 226.162 968.392 224.659C948.854 222.405 933.073 230.671 926.31 247.955C918.795 266.742 918.795 286.28 927.061 305.067C933.824 320.848 946.6 326.86 963.132 326.86C979.665 326.86 991.688 320.096 998.451 305.067C1002.21 296.049 1003.71 286.28 1003.71 275.008Z" fill="white"/>
<path d="M656.531 227.663C659.537 223.906 662.543 220.148 665.549 216.391C682.081 199.858 714.395 196.101 734.684 208.125C748.962 217.142 754.223 230.669 755.726 247.202C757.98 272 756.477 296.799 756.477 321.597C756.477 328.36 756.477 335.875 756.477 342.638C756.477 346.396 755.725 347.899 751.217 347.899C745.205 347.899 738.442 347.899 732.43 347.899C727.921 347.899 727.17 346.396 727.17 342.638C727.17 315.585 727.17 288.532 727.17 261.479C727.17 253.965 727.169 247.201 724.163 240.438C721.909 233.675 716.649 228.414 709.886 226.16C685.838 218.645 658.034 230.669 657.282 262.231C656.531 288.533 657.282 314.834 657.282 341.136C657.282 346.396 656.531 347.899 651.271 347.899C643.756 347.147 633.987 350.905 630.229 346.396C626.472 342.638 629.478 332.87 628.726 326.106C627.975 290.036 629.478 253.213 627.975 217.143C627.975 213.385 624.969 208.125 627.975 205.119C630.981 202.113 636.241 204.367 640.75 204.367C654.277 204.367 654.277 204.367 655.78 218.645C655.028 221.651 654.276 224.657 656.531 227.663Z" fill="white"/>
<path d="M364.957 287.782C364.957 269.747 364.957 250.96 364.957 232.925C364.957 228.416 363.454 226.913 358.946 226.913C352.934 226.913 346.922 226.913 340.91 226.913C337.904 226.913 337.153 226.162 337.153 223.156V222.404C336.401 204.369 336.401 204.369 354.437 204.369C364.206 204.369 364.957 204.369 364.206 193.848C364.206 184.831 364.206 175.813 366.46 166.795C371.721 148.76 385.247 138.239 404.785 136.736C407.04 136.736 408.543 136.736 410.797 136.736C430.336 136.736 433.341 140.494 431.087 160.032C431.087 163.038 429.584 163.038 427.33 162.286C423.572 160.783 419.063 160.784 415.306 160.784C402.531 160.784 395.016 167.547 393.513 180.322C392.762 187.085 393.513 193.097 392.762 199.86C392.762 202.866 394.265 203.617 397.271 203.617C405.537 203.617 413.803 203.617 422.069 203.617C425.827 203.617 426.578 205.12 426.578 208.126C427.33 225.41 427.33 225.41 410.046 225.41C404.785 225.41 397.271 223.156 394.265 226.913C391.259 229.919 393.513 237.434 393.513 242.694C393.513 275.007 393.513 308.072 393.513 340.386C393.513 345.646 392.762 347.149 386.75 347.149C381.49 346.398 375.478 346.398 370.218 347.149C364.957 347.901 364.206 345.646 364.206 341.137C364.957 324.605 364.957 305.818 364.957 287.782Z" fill="white"/>
<path d="M834.63 159.279C834.63 172.806 834.63 185.581 834.63 198.356C834.63 203.616 835.381 205.871 841.393 205.119C851.162 204.368 860.18 205.119 869.949 205.119C873.706 205.119 874.458 205.871 874.458 209.628C875.209 226.912 875.209 226.912 857.925 226.912C851.914 226.912 845.902 226.912 840.641 226.912C836.133 226.912 834.63 227.664 834.63 232.172C834.63 253.965 834.63 276.509 834.63 298.302C834.63 320.095 845.902 329.112 866.943 324.604C872.955 323.101 874.458 324.604 873.706 329.864C873.706 331.367 873.706 333.621 873.706 335.124C873.706 347.148 873.706 347.148 861.683 348.651C853.417 349.402 845.15 349.402 837.636 347.148C818.849 341.888 806.825 326.858 806.825 305.065C806.074 281.018 806.825 256.22 806.825 232.172C806.825 226.912 805.322 225.409 800.062 225.409C794.05 226.16 788.038 225.409 782.027 225.409C779.021 225.409 778.269 224.657 778.269 221.652C778.269 216.391 778.269 211.882 778.269 206.622C778.269 203.616 779.772 202.865 782.027 202.865C788.038 202.865 794.05 202.865 800.062 202.865C804.571 202.865 806.825 202.113 806.074 196.853C805.322 188.587 806.074 179.569 806.074 171.303C806.074 169.048 806.074 166.794 809.08 166.042C817.346 165.291 825.612 162.285 834.63 159.279Z" fill="white"/>
<path d="M6.50455 353.162C11.0134 352.411 13.2678 353.162 13.2678 358.423C13.2678 369.695 19.2796 377.209 29.0488 381.718C35.0606 384.724 32.0547 386.979 30.5517 390.736C28.2973 394.493 26.7943 395.996 22.2854 392.99C9.51038 385.476 1.24416 374.955 -0.258789 359.926C-0.258789 354.665 0.492754 351.659 6.50455 353.162Z" fill="white"/>
<path d="M255.994 145.757C250.734 147.26 249.231 145.005 249.231 139.745C249.231 128.473 243.219 120.958 233.45 116.449C228.189 114.195 229.692 111.189 231.947 107.432C234.201 103.674 235.704 102.171 240.965 105.177C253.74 112.692 262.006 123.213 262.757 138.994C262.006 144.254 262.006 147.26 255.994 145.757Z" fill="white"/>
</g>
<defs>
<clipPath id="clip0">
<rect width="1278" height="500" fill="white"/>
</clipPath>
</defs>
</svg>
