<svg width="1278" height="500" viewBox="0 0 1278 500" fill="none" xmlns="http://www.w3.org/2000/svg">
<g clip-path="url(#clip0)">
<path d="M222.994 267.928C242.107 267.928 257.601 252.433 257.601 233.32C257.601 214.207 242.107 198.713 222.994 198.713C203.881 198.713 188.386 214.207 188.386 233.32C188.386 252.433 203.881 267.928 222.994 267.928Z" fill="white"/>
<path d="M262.491 137.625C200.134 78.2533 101.519 80.6663 42.1466 143.023C35.7967 149.754 29.9547 156.993 24.8747 164.74L24.4937 165.311C22.7157 167.978 21.0647 170.709 19.4772 173.503L19.1597 174.138C17.6358 176.868 16.1753 179.599 14.8418 182.393L14.5243 183.091C13.2543 185.822 11.9843 188.552 10.8413 191.346C10.7778 191.6 10.6508 191.854 10.5238 192.045C9.44429 194.775 8.4283 197.506 7.47581 200.236C7.41231 200.49 7.28531 200.744 7.22181 200.998C6.33281 203.729 5.50732 206.459 4.74532 209.19L4.55482 210.015C3.85632 212.746 3.15783 215.413 2.58633 218.143C2.52283 218.461 2.45933 218.715 2.39583 219.032C1.82433 221.763 1.37984 224.493 0.935339 227.224C0.87184 227.541 0.80834 227.859 0.80834 228.176C0.427342 230.907 0.109844 233.637 -0.144155 236.367C-0.144155 236.685 -0.207655 237.066 -0.207655 237.383C-0.461653 240.177 -0.588653 242.908 -0.715652 245.702C-0.715652 246.083 -0.715652 246.4 -0.779152 246.781C-0.842651 249.702 -0.842651 252.687 -0.715652 255.608C-0.715652 255.989 -0.715652 256.37 -0.652152 256.814C-0.525153 259.608 -0.334654 262.339 -0.0806554 265.069L0.0463439 266.339C0.363842 269.324 0.74484 272.308 1.25284 275.356C1.31634 275.801 1.37984 276.309 1.44334 276.753C1.95133 279.928 2.58633 283.04 3.34833 286.151C3.47533 286.659 3.60233 287.167 3.72932 287.675C4.55482 291.041 5.50732 294.343 6.52331 297.708C6.71381 298.28 6.90431 298.851 7.09481 299.423C8.3013 303.042 9.63479 306.662 11.0953 310.218C11.3493 310.853 11.6668 311.488 11.9208 312.123C13.6353 316.123 15.5403 320.06 17.5723 323.87C17.9533 324.569 18.3342 325.331 18.7787 326.029C21.1917 330.347 23.7952 334.538 26.5892 338.602C27.0972 339.364 27.6687 340.126 28.1767 340.888C31.2882 345.269 34.6537 349.46 38.2096 353.461C38.9081 354.223 39.6066 355.048 40.3051 355.81C42.6546 358.35 45.0676 360.827 47.6076 363.24C49.5761 365.145 51.6081 366.923 53.6401 368.701C54.6561 369.59 55.6721 370.415 56.688 371.241C62.3395 375.876 68.3085 380.067 74.5315 383.814C76.0554 384.703 77.5794 385.592 79.1034 386.417C86.9774 390.799 95.1689 394.482 103.678 397.466C105.9 398.228 108.123 398.927 110.345 399.625C153.525 412.516 200.134 406.166 238.234 382.163C240.075 381.02 241.853 379.813 243.631 378.607C244.774 377.845 245.854 377.019 246.933 376.257C248.33 375.241 249.791 374.162 251.188 373.019C251.696 372.638 252.204 372.193 252.712 371.812L253.664 371.05L254.299 370.542L255.506 369.526L256.141 369.018L256.776 368.447L257.22 368.066L257.919 367.431C258.236 367.177 258.554 366.859 258.871 366.605L259.57 365.97H259.633L259.76 365.907L260.331 365.335L261.157 364.573C261.411 364.319 261.728 364.065 261.982 363.811L262.173 363.621C262.618 363.176 263.125 362.732 263.57 362.287L263.887 361.97L264.078 361.779L264.713 361.144L264.84 361.017L265.284 360.573L265.411 360.446L265.475 360.382L265.729 360.128L265.792 360.065L265.856 360.001L266.237 359.62L266.364 359.493L266.427 359.43L266.935 358.922L266.999 358.858L267.126 358.731L267.253 358.604C267.507 358.35 267.697 358.16 267.951 357.906L268.142 357.715C268.459 357.398 268.713 357.08 268.967 356.826C327.26 294.406 324.466 196.553 262.491 137.625ZM26.5257 165.756C71.674 175.725 90.3429 214.778 109.901 255.671C117.267 271.102 124.76 286.786 133.904 301.201C125.712 288.818 118.664 275.42 111.679 262.275C95.0418 230.78 79.2939 200.998 50.2746 184.552C41.3211 179.472 31.6057 175.852 21.5092 173.947C23.0967 171.153 24.7477 168.423 26.5257 165.756ZM251.95 370.161H251.823L252.077 370.098L251.95 370.161ZM248.013 369.336C248.775 369.145 249.537 368.955 250.299 368.701L251.061 368.828L248.838 369.526L248.013 369.336ZM244.203 368.447L246.425 367.939L247.187 368.066C246.489 368.256 245.79 368.447 245.028 368.637L244.203 368.447ZM240.266 367.494L242.425 367.05L243.123 367.177L241.028 367.621L240.266 367.494ZM236.392 366.542L238.488 366.224L239.123 366.351C238.488 366.478 237.789 366.605 237.154 366.732L236.392 366.542ZM232.455 365.526L234.424 365.335L234.995 365.462L233.09 365.716L232.455 365.526ZM228.455 364.446L230.36 364.319L230.804 364.446L229.026 364.637L228.455 364.446ZM224.518 363.367H226.296L226.613 363.43L224.962 363.494L224.518 363.367ZM220.454 362.16H221.978H222.105H220.708H220.454ZM254.236 366.034L252.331 366.605L251.95 366.542L253.982 366.034H254.236ZM248.584 367.685L247.949 367.558L250.235 366.986L250.743 367.05L248.584 367.685ZM244.139 366.796L246.362 366.351L246.806 366.415L244.711 366.923L244.139 366.796ZM240.329 365.97L242.488 365.589L242.869 365.653L240.837 366.034L240.329 365.97ZM236.456 365.081L238.488 364.827L238.742 364.891L236.9 365.208L236.456 365.081ZM232.519 364.192L234.424 364.065H234.487L232.773 364.256L232.519 364.192ZM228.582 363.24H229.344H228.709H228.582ZM250.299 365.526L248.457 365.97L248.14 365.907C248.775 365.78 249.41 365.653 250.045 365.462L250.299 365.526ZM244.457 365.272L246.235 364.954H246.298L244.647 365.272H244.457ZM197.911 355.048L199.435 355.683L198.8 355.556C197.721 355.302 196.641 355.048 195.562 354.794L197.911 355.048ZM192.26 353.08C192.768 353.143 193.276 353.27 193.784 353.334L194.8 353.778C192.45 353.461 190.101 353.08 187.878 352.572C186.227 352 184.576 351.429 182.989 350.857C186.037 351.746 189.085 352.508 192.26 353.08ZM187.116 353.334C188.069 353.651 188.958 353.969 189.91 354.223C192.768 355.048 195.625 355.81 198.61 356.445C200.007 356.763 201.404 357.017 202.737 357.271L201.975 357.144C195.816 356.128 189.783 354.54 183.941 352.508C185.021 352.826 186.037 353.08 187.116 353.334ZM252.394 368.447L251.759 368.32L254.109 367.621L254.68 367.685L252.394 368.447ZM256.014 365.526H255.887L257.538 365.081L256.014 365.526ZM259.379 359.684C256.966 359.874 254.49 360.065 252.077 360.255C249.6 360.382 247.124 360.446 244.711 360.509C241.98 360.509 239.25 360.446 236.519 360.382C230.931 360.065 225.407 359.557 220.073 358.985C215.564 358.096 211.119 357.08 206.865 356.001C211.119 356.382 215.437 356.699 219.819 356.89C232.9 358.16 246.87 358.985 261.221 359.493L259.379 359.684ZM21.1282 174.519C31.2247 176.424 41.0036 180.043 49.9571 185.123C78.7859 201.506 94.4704 231.16 111.107 262.593C120.378 280.055 129.776 297.899 141.778 313.393C130.792 299.677 121.712 284.183 112.758 268.943C95.9943 240.304 78.5954 210.65 49.1951 194.331C39.0986 188.743 28.1132 184.806 16.7468 182.71C18.1438 179.98 19.6042 177.186 21.1282 174.519ZM16.4928 183.409C27.8592 185.441 38.7811 189.378 48.8776 194.966C78.0874 211.222 95.4228 240.749 112.123 269.26C123.172 288.12 134.475 307.297 149.271 323.108C135.618 309.011 124.569 292.12 113.838 275.547C96.1848 248.369 77.9604 220.302 48.1791 204.173C37.1301 198.141 25.1922 193.95 12.8098 191.664C13.9528 188.87 15.1593 186.139 16.4928 183.409ZM11.0318 196.109C11.4763 194.839 11.9843 193.569 12.4923 192.362C24.8747 194.648 36.7492 198.839 47.7981 204.808C77.3889 220.81 95.5498 248.813 113.139 275.928C127.363 297.835 141.968 320.314 162.669 336.189C143.683 322.092 129.459 302.407 114.727 281.96C96.2483 256.37 77.1349 229.891 47.0996 214.016C35.2252 207.729 22.5252 203.221 9.3808 200.617C9.95229 199.093 10.4603 197.569 11.0318 196.109ZM9.1268 201.379C22.2712 203.919 34.9077 208.428 46.7186 214.714C76.5634 230.526 95.6133 256.878 114.028 282.405C134.983 311.424 154.795 338.856 188.958 351.302C189.339 351.429 189.783 351.556 190.164 351.746C181.401 349.905 172.956 346.603 165.209 342.031L164.447 341.586L163.558 341.015C162.796 340.507 161.971 340.062 161.209 339.554H161.145C160.574 339.173 160.002 338.792 159.431 338.411C141.397 326.029 127.363 307.551 112.822 288.437C94.3434 264.053 75.23 238.907 46.0201 223.795C33.5742 217.318 20.3027 212.492 6.58681 209.571C7.41231 206.84 8.2378 204.11 9.1268 201.379ZM6.39631 210.396C20.0487 213.317 33.2567 218.08 45.6391 224.557C74.6585 239.542 93.7084 264.625 112.123 288.945C122.029 302.026 131.745 314.79 142.603 325.521C137.65 321.203 132.761 316.695 127.935 311.996C122.982 306.471 118.092 300.629 113.203 294.787C94.0259 271.927 74.214 248.305 45.0041 233.637C32.1137 226.97 18.5247 221.953 4.42782 218.588C4.99932 215.857 5.69781 213.127 6.39631 210.396ZM177.21 349.397C162.352 343.936 150.033 334.538 138.539 323.172C150.35 333.712 162.796 342.983 177.21 349.397ZM4.23732 219.477C17.7628 222.652 30.8437 227.478 44.5596 234.399C73.579 249.004 93.3274 272.562 112.504 295.359C114.854 298.153 117.14 300.883 119.489 303.614L116.06 300.185C95.4229 279.547 74.1505 258.275 43.9246 243.416C33.3202 238.209 19.6042 232.049 2.77683 227.668C3.22133 224.938 3.66583 222.207 4.23732 219.477ZM2.64983 228.684C19.3502 233.065 32.9392 239.098 43.5436 244.305C73.579 259.1 94.8514 280.373 115.425 300.883C119.553 305.011 123.68 309.138 127.744 313.075C133.65 319.743 139.936 326.029 146.667 331.934C136.063 324.061 125.966 315.044 115.679 305.836C94.5974 287.04 72.817 267.546 42.9086 253.195C31.2247 247.543 17.5088 241.511 1.76083 236.875C1.95133 234.145 2.26883 231.415 2.64983 228.684ZM1.63384 237.955C17.2548 242.527 30.8437 248.559 42.4641 254.147C72.182 268.435 93.9624 287.866 114.981 306.598C137.714 326.918 159.367 346.222 188.005 354.921C192.577 356.318 197.213 357.398 201.848 358.16C204.325 358.604 206.801 358.922 209.341 359.239H209.405C208.008 359.112 206.611 358.922 205.214 358.795C168.955 354.413 143.746 334.411 114.536 311.234C93.2004 294.279 71.1025 276.753 41.8291 263.037C31.0977 258.021 17.3818 251.544 1.18934 246.273C1.25284 243.543 1.37984 240.749 1.63384 237.955ZM1.18934 254.274C1.12584 251.988 1.12584 249.702 1.18934 247.416C17.1913 252.687 30.7802 259.037 41.4481 264.053C70.5945 277.706 92.6289 295.168 113.965 312.123C137.65 330.918 158.732 347.682 185.275 355.747C191.752 357.715 198.419 359.112 205.15 359.938C208.008 360.255 210.865 360.573 213.786 360.827L214.104 360.89C212.199 360.827 210.294 360.7 208.452 360.573C171.114 357.779 143.937 338.602 112.441 316.441C91.1049 301.455 69.0705 285.897 40.8131 273.007C30.2087 268.181 16.8103 262.275 1.25284 256.497C1.25284 255.671 1.18934 254.973 1.18934 254.274ZM1.31634 257.513C16.6198 263.228 29.8912 269.07 40.3686 273.832C68.499 286.723 90.5334 302.217 111.806 317.139C135.555 333.903 156.891 348.889 182.036 356.572C190.609 359.176 199.435 360.827 208.325 361.525C211.564 361.779 214.802 361.906 218.104 362.033L218.612 362.16C216.263 362.16 213.913 362.097 211.627 362.033C172.829 360.827 143.175 342.348 108.821 320.886C88.9459 308.503 66.467 294.47 39.7971 282.595C36.3682 281.071 32.8757 279.42 29.1292 277.706C20.8107 273.896 11.7938 269.705 1.95133 265.768C1.63384 263.101 1.44334 260.307 1.31634 257.513ZM2.01483 267.165C11.6033 271.038 20.4297 275.102 28.5577 278.849C32.3042 280.563 35.8602 282.214 39.2256 283.738C65.7685 295.613 87.2949 309.011 108.123 321.965C131.999 336.824 153.589 350.286 177.655 357.588C188.64 360.954 200.007 362.859 211.5 363.24C215.056 363.367 218.676 363.367 222.295 363.367L222.93 363.557C220.2 363.684 217.469 363.748 214.739 363.811C173.845 364.256 141.016 346.095 102.979 325.14C84.2469 314.79 62.9745 303.042 38.7176 292.501C33.5107 290.215 27.9227 287.612 22.0807 284.881C16.2388 282.151 9.88879 279.166 3.28483 276.245C2.77683 273.261 2.39583 270.213 2.01483 267.165ZM3.53883 277.706C9.88879 280.5 15.8578 283.357 21.5092 285.961C27.4147 288.755 32.9392 291.358 38.2096 293.644C62.403 304.185 82.7229 315.361 102.408 326.22C126.411 339.427 148.318 351.556 171.559 358.604C185.529 362.986 200.134 365.145 214.739 365.018C218.676 364.954 222.549 364.827 226.55 364.637L227.248 364.827C224.137 365.081 221.025 365.335 217.914 365.462C174.035 367.812 138.539 350.476 93.7084 328.505C76.2459 319.933 58.2755 311.107 37.6381 302.407C30.6532 299.423 22.9697 295.676 14.8418 291.739C11.8573 290.279 8.7458 288.818 5.57082 287.294C4.74532 284.056 4.11032 280.881 3.53883 277.706ZM5.95181 288.818C8.8093 290.215 11.6033 291.549 14.2703 292.819C22.3982 296.756 30.0817 300.502 37.1302 303.487C57.704 312.186 75.738 321.013 93.1369 329.585C118.219 341.904 140.381 352.762 162.733 359.493C180.512 364.891 198.356 367.748 217.977 366.669C222.232 366.415 226.423 366.097 230.677 365.716L231.439 365.907C228.01 366.351 224.518 366.732 221.089 367.113C172.765 371.685 131.3 353.461 78.7224 330.347C65.3875 324.505 51.5446 318.409 36.5587 312.186C28.1767 308.694 18.7787 303.995 8.9363 298.978C7.8568 295.613 6.84081 292.247 5.95181 288.818ZM9.50779 300.693C18.9692 305.519 27.9227 309.964 36.0507 313.329C51.0366 319.552 64.816 325.585 78.1509 331.49C104.059 342.92 127.3 353.143 150.033 360.001C173.527 367.113 196.451 370.733 221.152 368.383C225.661 367.939 230.169 367.431 234.678 366.796L235.567 367.05C231.82 367.685 228.074 368.32 224.264 368.828C169.146 376.321 120.632 356.636 53.4496 329.331C47.6076 326.982 41.6386 324.569 35.5427 322.029C28.8117 319.298 21.5092 315.742 13.8258 311.742C12.2383 308.059 10.7778 304.376 9.50779 300.693ZM14.6513 313.647C21.8267 317.33 28.6847 320.695 35.0347 323.235C41.1941 325.712 47.1631 328.125 52.9416 330.474C82.3419 342.412 108.186 352.953 132.57 360.319C164.066 369.907 193.212 374.289 224.454 370.034C229.28 369.399 234.043 368.637 238.742 367.748L239.631 368.002C235.567 368.891 231.503 369.717 227.375 370.415C166.733 381.147 109.139 361.208 34.3997 331.807C29.9547 330.029 25.3827 327.934 20.5567 325.521C18.4612 321.648 16.4928 317.711 14.6513 313.647ZM21.8267 327.68C26.0177 329.712 30.0182 331.553 33.9552 333.077C61.133 343.745 86.0884 353.207 109.71 360.382C151.239 373.019 188.831 378.67 227.693 371.749C232.773 370.86 237.789 369.844 242.806 368.701L243.758 368.955C239.44 370.098 235.122 371.114 230.677 372.066C168.384 385.592 106.789 369.653 33.4472 341.586C32.3042 341.142 31.1612 340.697 30.0182 340.189C27.0337 336.189 24.3667 331.998 21.8267 327.68ZM31.5422 342.412C31.9867 342.602 32.4312 342.793 32.8757 342.92C51.7351 350.159 69.769 356.572 87.2949 361.843C138.158 377.273 184.259 383.496 230.931 373.4C236.265 372.257 241.536 370.923 246.743 369.59L247.695 369.78C243.123 371.177 238.488 372.447 233.852 373.654C178.163 387.941 118.664 382.163 42.0831 354.858C38.3366 350.984 34.8442 346.793 31.5422 342.412ZM48.9411 361.97C47.3536 360.446 45.7661 358.858 44.2421 357.334C52.6876 360.319 60.879 362.986 68.9435 365.462C132.951 384.893 185.021 387.814 234.17 375.178C239.694 373.781 245.219 372.193 250.616 370.479L251.315 370.606L250.934 370.923C246.362 372.511 241.663 373.971 236.964 375.368C181.719 391.688 124.379 390.164 58.339 370.225C55.1006 367.621 51.9891 364.891 48.9411 361.97ZM214.739 392.45C184.767 404.959 151.62 407.753 119.997 400.387C125.014 400.641 130.03 400.768 134.983 400.768C165.717 400.578 196.324 395.752 225.661 386.544C226.994 386.1 228.264 385.719 229.598 385.274C224.708 387.878 219.819 390.291 214.739 392.45ZM112.314 398.419C103.106 395.752 94.2164 392.259 85.7074 387.941C139.555 398.419 190.609 395.307 240.456 378.67C238.996 379.686 237.472 380.639 235.948 381.591C199.435 394.291 158.288 401.848 112.314 398.419ZM245.155 375.368C243.504 375.94 241.853 376.511 240.139 377.083C188.894 394.228 136.317 397.022 80.6909 385.338C74.0235 381.655 67.6735 377.464 61.641 372.892C126.411 391.878 182.925 393.085 237.408 376.956C240.71 376.003 244.012 374.924 247.251 373.844C246.552 374.289 245.854 374.797 245.155 375.368ZM264.586 358.731C256.268 358.477 248.076 358.096 240.139 357.652C248.457 357.842 256.903 357.842 265.538 357.779L264.586 358.731ZM266.618 356.636L266.427 356.826C249.918 356.953 233.789 356.763 218.739 355.874C211.183 355.112 203.944 354.159 197.022 353.016C195.752 352.572 194.482 352.191 193.276 351.746C189.72 350.349 186.354 348.952 183.116 347.365C181.973 346.793 180.83 346.222 179.75 345.65C175.178 343.237 170.86 340.443 166.733 337.332C140.063 317.012 125.077 285.77 110.599 255.417C90.9144 214.397 72.2455 175.281 26.9702 165.184C31.8597 157.755 37.4476 150.77 43.5436 144.356C101.836 82.5078 199.308 79.5868 261.157 137.943C323.006 196.299 325.927 293.708 267.57 355.556C267.253 355.874 266.935 356.255 266.618 356.636Z" fill="white"/>
<path d="M419.191 314.684C414.985 314.684 411.693 313.769 409.132 311.941C406.572 310.112 404.743 307.551 403.646 304.077C402.732 300.602 402 296.579 402 291.824V269.329C402 264.392 402.549 260.185 403.463 256.711C404.56 253.236 406.389 250.676 408.949 248.847C411.51 247.018 415.167 246.104 419.922 246.104C424.129 246.104 427.42 246.835 429.981 248.298C432.541 249.761 434.37 251.773 435.65 254.699C436.747 257.625 437.296 261.283 437.296 265.672V268.232H428.518V266.22C428.518 263.294 428.335 260.917 427.969 259.088C427.603 257.259 426.872 255.796 425.592 254.882C424.494 253.967 422.483 253.602 419.922 253.602C417.179 253.602 415.167 254.15 413.887 255.43C412.607 256.711 411.876 258.357 411.51 260.551C411.144 262.746 411.144 265.123 411.144 267.866V292.738C411.144 295.847 411.327 298.59 411.876 300.785C412.424 302.979 413.156 304.625 414.619 305.54C415.899 306.637 417.728 307.186 420.288 307.186C422.666 307.186 424.677 306.637 425.957 305.54C427.238 304.442 428.152 302.614 428.701 300.419C429.249 298.225 429.432 295.298 429.432 292.007V287.434H420.837V280.851H437.845V313.769H431.992L431.078 306.088C430.164 308.649 428.883 310.66 426.872 312.123C425.226 313.769 422.666 314.684 419.191 314.684Z" fill="white"/>
<path d="M474.97 313.77V246.836H500.939V253.785H484.297V275.914H497.83V282.498H484.297V307.004H501.122V313.77H474.97Z" fill="white"/>
<path d="M536.236 313.77V246.836H542.637L561.656 291.276V246.836H569.52V313.77H563.485L544.283 268.05V313.77H536.236Z" fill="white"/>
<path d="M607.374 313.77V246.836H633.343V253.785H616.701V275.914H630.234V282.498H616.701V307.004H633.526V313.77H607.374Z" fill="white"/>
<path d="M684.185 314.502C680.345 314.502 677.053 313.587 674.493 311.941C671.932 310.295 669.921 307.918 668.641 304.992C667.36 302.066 666.629 298.591 666.263 294.75L674.493 292.556C674.676 294.933 675.041 297.128 675.59 299.505C676.139 301.7 677.053 303.529 678.516 304.992C679.796 306.455 681.625 307.186 684.003 307.186C686.38 307.186 688.209 306.455 689.489 305.175C690.769 303.895 691.318 301.883 691.318 299.323C691.318 296.214 690.586 293.836 689.306 292.007C687.843 290.178 686.197 288.35 684.185 286.338L672.847 276.462C670.652 274.451 669.006 272.439 667.909 270.062C666.812 267.684 666.263 264.941 666.263 261.649C666.263 256.711 667.726 252.871 670.469 250.311C673.213 247.567 677.053 246.287 681.991 246.287C684.551 246.287 686.929 246.653 688.94 247.384C690.952 248.116 692.598 249.213 694.061 250.493C695.341 251.956 696.438 253.785 697.353 255.98C698.084 258.174 698.633 260.735 698.999 263.661L691.135 265.855C690.952 263.661 690.586 261.649 690.221 259.82C689.672 257.992 688.94 256.528 687.66 255.431C686.38 254.334 684.551 253.785 682.357 253.785C680.162 253.785 678.15 254.334 676.87 255.614C675.59 256.894 674.859 258.723 674.859 261.101C674.859 263.112 675.224 264.758 675.956 266.221C676.687 267.684 677.785 268.964 679.248 270.245L690.586 280.12C693.147 282.315 695.341 284.875 697.353 287.984C699.365 291.093 700.279 294.751 700.279 298.774C700.279 302.066 699.547 304.992 698.267 307.369C696.804 309.747 694.975 311.576 692.598 312.856C690.221 314.136 687.294 314.502 684.185 314.502Z" fill="white"/>
<path d="M735.576 313.77V246.836H744.72V313.77H735.576Z" fill="white"/>
<path d="M798.852 314.502C795.012 314.502 791.72 313.587 789.159 311.941C786.599 310.295 784.587 307.918 783.307 304.992C782.027 302.066 781.295 298.591 780.93 294.75L789.159 292.556C789.342 294.933 789.708 297.128 790.257 299.505C790.805 301.7 791.72 303.529 793.183 304.992C794.463 306.455 796.292 307.186 798.669 307.186C801.047 307.186 802.875 306.455 804.156 305.175C805.436 303.895 805.984 301.883 805.984 299.323C805.984 296.214 805.253 293.836 803.973 292.007C802.51 290.178 800.864 288.35 798.852 286.338L787.513 276.462C785.319 274.451 783.673 272.439 782.576 270.062C781.478 267.684 780.93 264.941 780.93 261.649C780.93 256.711 782.393 252.871 785.136 250.311C787.879 247.567 791.72 246.287 796.657 246.287C799.218 246.287 801.595 246.653 803.607 247.384C805.619 248.116 807.264 249.213 808.728 250.493C810.008 251.956 811.105 253.785 812.019 255.98C812.751 258.174 813.3 260.735 813.665 263.661L805.801 265.855C805.619 263.661 805.253 261.649 804.887 259.82C804.338 257.992 803.607 256.528 802.327 255.431C801.047 254.334 799.218 253.785 797.023 253.785C794.829 253.785 792.817 254.334 791.537 255.614C790.257 256.894 789.525 258.723 789.525 261.101C789.525 263.112 789.891 264.758 790.622 266.221C791.354 267.684 792.451 268.964 793.914 270.245L805.253 280.12C807.813 282.315 810.008 284.875 812.019 287.984C814.031 291.093 814.946 294.751 814.946 298.774C814.946 302.066 814.214 304.992 812.934 307.369C811.471 309.747 809.642 311.576 807.265 312.856C804.887 314.136 801.961 314.502 798.852 314.502Z" fill="white"/>
<path d="M911.872 314.502C908.031 314.502 904.739 313.587 902.179 311.941C899.619 310.295 897.607 307.918 896.327 304.992C895.046 302.066 894.315 298.591 893.949 294.75L902.179 292.556C902.362 294.933 902.728 297.128 903.276 299.505C903.825 301.7 904.739 303.529 906.202 304.992C907.482 306.455 909.311 307.186 911.689 307.186C914.066 307.186 915.895 306.455 917.175 305.175C918.455 303.895 919.004 301.883 919.004 299.323C919.004 296.214 918.272 293.836 916.992 292.007C915.529 290.178 913.883 288.35 911.872 286.338L900.533 276.462C898.338 274.451 896.692 272.439 895.595 270.062C894.498 267.684 893.949 264.941 893.949 261.649C893.949 256.711 895.412 252.871 898.155 250.311C900.899 247.567 904.739 246.287 909.677 246.287C912.237 246.287 914.615 246.653 916.626 247.384C918.638 248.116 920.284 249.213 921.747 250.493C923.027 251.956 924.125 253.785 925.039 255.98C925.953 258.174 926.319 260.735 926.685 263.661L918.821 265.855C918.638 263.661 918.272 261.649 917.907 259.82C917.358 257.992 916.626 256.528 915.346 255.431C914.066 254.334 912.237 253.785 910.043 253.785C907.848 253.785 905.836 254.334 904.556 255.614C903.276 256.894 902.545 258.723 902.545 261.101C902.545 263.112 902.91 264.758 903.642 266.221C904.373 267.684 905.471 268.964 906.934 270.245L918.272 280.12C920.833 282.315 923.027 284.875 925.039 287.984C927.051 291.093 927.965 294.751 927.965 298.774C927.965 302.066 927.233 304.992 925.953 307.369C924.49 309.747 922.661 311.576 920.284 312.856C917.907 314.136 914.98 314.502 911.872 314.502Z" fill="white"/>
<path d="M962.53 313.77V246.836H971.857V275.731H989.048V246.836H998.375V313.77H989.048V282.498H971.857V313.77H962.53Z" fill="white"/>
<path d="M1032.76 313.77L1047.02 246.836H1055.98L1070.25 313.77H1061.47L1058.36 296.945H1044.64L1041.35 313.77H1032.76ZM1046.11 290.179H1057.26L1051.59 260.003L1046.11 290.179Z" fill="white"/>
<path d="M1104.63 313.77V246.836H1118.16C1122.55 246.836 1126.39 247.385 1129.32 248.665C1132.24 249.762 1134.44 251.774 1135.9 254.334C1137.36 256.894 1138.09 260.369 1138.09 264.575C1138.09 267.136 1137.73 269.513 1137.18 271.708C1136.63 273.902 1135.72 275.548 1134.62 277.011C1133.34 278.474 1131.88 279.571 1129.87 280.12L1139.01 313.77H1130.05L1121.27 282.315H1113.95V313.77H1104.63ZM1113.95 275.731H1117.43C1119.99 275.731 1122.18 275.365 1123.83 274.817C1125.48 274.085 1126.76 272.988 1127.49 271.342C1128.22 269.696 1128.59 267.501 1128.59 264.575C1128.59 260.735 1127.85 257.809 1126.39 256.163C1124.93 254.334 1122.18 253.602 1117.8 253.602H1113.59V275.731H1113.95Z" fill="white"/>
<path d="M1175.04 313.77V246.836H1189.67C1194.61 246.836 1198.63 247.567 1201.37 249.03C1204.3 250.493 1206.31 252.871 1207.59 255.797C1208.87 258.906 1209.42 262.564 1209.42 267.136V291.825C1209.42 296.579 1208.87 300.603 1207.59 303.895C1206.31 307.186 1204.3 309.564 1201.55 311.21C1198.81 312.856 1194.97 313.77 1190.4 313.77H1175.04ZM1184.36 307.004H1189.67C1193.14 307.004 1195.52 306.272 1196.98 304.992C1198.45 303.712 1199.36 301.7 1199.54 299.14C1199.91 296.579 1199.91 293.47 1199.91 289.996V268.233C1199.91 264.758 1199.73 262.015 1199.18 259.82C1198.81 257.626 1197.71 256.163 1196.25 255.066C1194.79 254.151 1192.41 253.602 1189.3 253.602H1184.18V307.004H1184.36Z" fill="white"/>
<path d="M1261.91 314.502C1258.07 314.502 1254.77 313.587 1252.21 311.941C1249.65 310.295 1247.64 307.918 1246.36 304.992C1245.08 302.066 1244.35 298.591 1243.98 294.75L1252.21 292.556C1252.4 294.933 1252.76 297.128 1253.31 299.505C1253.86 301.7 1254.77 303.529 1256.24 304.992C1257.52 306.455 1259.35 307.186 1261.72 307.186C1264.1 307.186 1265.93 306.455 1267.21 305.175C1268.49 303.895 1269.04 301.883 1269.04 299.323C1269.04 296.214 1268.31 293.836 1267.03 292.007C1265.56 290.178 1263.92 288.35 1261.91 286.338L1250.57 276.462C1248.37 274.451 1246.73 272.439 1245.63 270.062C1244.53 267.684 1243.98 264.941 1243.98 261.649C1243.98 256.711 1245.45 252.871 1248.19 250.311C1250.93 247.567 1254.77 246.287 1259.71 246.287C1262.27 246.287 1264.65 246.653 1266.66 247.384C1268.67 248.116 1270.32 249.213 1271.78 250.493C1273.06 251.956 1274.16 253.785 1275.07 255.98C1275.99 258.174 1276.35 260.735 1276.72 263.661L1268.86 265.855C1268.67 263.661 1268.31 261.649 1267.94 259.82C1267.39 257.992 1266.66 256.528 1265.38 255.431C1264.1 254.334 1262.27 253.785 1260.08 253.785C1257.88 253.785 1255.87 254.334 1254.59 255.614C1253.31 256.894 1252.58 258.723 1252.58 261.101C1252.58 263.112 1252.95 264.758 1253.68 266.221C1254.41 267.684 1255.51 268.964 1256.97 270.245L1268.31 280.12C1270.87 282.315 1273.06 284.875 1275.07 287.984C1277.09 291.093 1278 294.751 1278 298.774C1278 302.066 1277.27 304.992 1275.99 307.369C1274.53 309.747 1272.7 311.576 1270.32 312.856C1267.94 314.136 1265.02 314.502 1261.91 314.502Z" fill="white"/>
</g>
<defs>
<clipPath id="clip0">
<rect width="1278" height="500" fill="white"/>
</clipPath>
</defs>
</svg>
