<svg width="1278" height="500" viewBox="0 0 1278 500" fill="none" xmlns="http://www.w3.org/2000/svg">
<g clip-path="url(#clip0)">
<path d="M600.7 218.029C602.791 215.937 601.746 212.799 601.746 210.708C601.746 191.883 601.746 174.105 601.746 155.281C601.746 151.097 601.746 149.006 606.975 150.052C612.204 150.052 618.479 150.052 623.708 150.052C626.845 150.052 627.891 151.098 627.891 154.235C627.891 187.701 627.891 221.166 627.891 255.677C627.891 258.814 626.845 259.86 623.708 259.86C623.708 259.86 623.707 259.86 622.662 259.86C610.112 261.952 601.746 257.769 594.425 247.311C579.784 228.486 564.097 210.708 548.41 191.884C545.273 192.929 547.364 196.067 547.364 197.113C547.364 215.937 547.364 234.761 547.364 254.631C547.364 258.815 546.318 259.86 542.135 259.86C535.86 259.86 527.494 261.952 523.311 258.815C520.173 256.723 522.265 247.311 522.265 239.99C522.265 211.754 522.265 184.563 522.265 156.326C522.265 152.143 523.311 151.097 527.494 150.052C540.044 149.006 547.364 153.189 554.685 162.601C568.28 180.38 582.921 197.112 597.563 213.845C597.563 214.891 599.654 215.937 600.7 218.029Z" fill="white"/>
<path d="M1213.54 204.438C1213.54 187.706 1213.54 170.973 1213.54 155.286C1213.54 151.102 1214.58 150.057 1218.77 150.057C1236.55 150.057 1253.28 150.057 1271.06 150.057C1275.24 150.057 1276.29 151.102 1276.29 155.286C1276.29 172.018 1276.29 172.018 1259.55 172.018C1257.46 172.018 1255.37 172.018 1253.28 172.018C1249.09 172.018 1241.77 169.927 1240.73 173.064C1238.64 178.293 1239.68 184.568 1239.68 190.843C1239.68 193.98 1241.77 192.934 1243.87 192.934C1252.23 192.934 1261.64 192.934 1270.01 192.934C1273.15 192.934 1274.19 193.98 1274.19 197.118C1275.24 213.85 1275.24 213.85 1258.51 213.85C1252.23 213.85 1243.87 211.759 1241.77 214.896C1238.64 219.079 1240.73 226.4 1240.73 232.675C1240.73 236.858 1242.82 237.904 1245.96 237.904C1254.32 237.904 1263.74 237.904 1272.1 237.904C1276.29 237.904 1277.33 238.95 1277.33 243.133C1277.33 259.866 1277.33 259.865 1261.64 259.865C1248.05 259.865 1234.45 259.865 1220.86 259.865C1216.68 259.865 1215.63 258.82 1215.63 254.636C1213.54 236.858 1213.54 221.171 1213.54 204.438Z" fill="white"/>
<path d="M740.833 204.438C740.833 187.706 740.833 170.973 740.833 155.286C740.833 151.102 741.879 150.057 746.062 150.057C763.841 150.057 780.574 150.057 798.352 150.057C801.49 150.057 802.536 151.103 803.581 154.24C804.627 172.019 804.627 172.018 786.849 172.018C781.62 172.018 777.436 172.018 772.207 172.018C771.162 172.018 769.07 172.018 769.07 172.018C764.887 177.247 768.024 183.522 766.978 189.797C766.978 192.934 769.07 192.934 772.207 192.934C780.574 192.934 788.94 192.934 797.307 192.934C801.49 192.934 802.536 193.98 802.536 198.163C802.536 213.85 802.536 213.85 786.849 213.85C786.849 213.85 786.849 213.85 785.803 213.85C766.979 213.85 766.979 213.851 768.024 232.675C768.024 236.858 769.07 236.858 773.253 236.858C782.665 236.858 791.032 236.858 800.444 236.858C803.582 236.858 804.627 237.904 805.673 241.041C806.719 257.774 806.719 257.774 789.986 257.774C776.391 257.774 762.795 257.774 749.2 257.774C745.017 257.774 743.971 256.728 743.971 252.545C740.834 236.858 740.833 220.125 740.833 204.438Z" fill="white"/>
<path d="M1080.72 150.054C1081.77 150.054 1081.77 150.054 1081.77 150.054C1090.13 150.054 1100.59 146.916 1106.86 151.099C1112.09 154.237 1114.19 165.741 1116.28 173.062C1122.55 187.703 1127.78 202.344 1133.01 215.939C1133.01 215.939 1133.01 216.985 1134.06 216.985C1136.15 214.894 1136.15 212.802 1137.19 209.665C1144.51 190.84 1151.83 172.016 1159.15 153.191C1160.2 150.054 1162.29 147.963 1166.47 149.008C1173.8 149.008 1181.12 149.008 1189.48 149.008C1184.25 161.558 1179.02 173.061 1173.8 184.565C1164.38 207.573 1154.97 229.534 1145.56 252.542C1144.51 256.725 1142.42 257.771 1138.24 257.771C1126.73 257.771 1126.73 257.771 1121.51 246.268C1107.91 215.939 1095.36 184.566 1081.77 154.237C1081.77 153.192 1080.72 152.146 1080.72 150.054Z" fill="white"/>
<path d="M862.147 329.929C862.147 301.693 883.062 281.822 911.299 281.822C939.535 281.822 960.451 301.692 960.451 328.883C960.451 356.074 939.536 376.99 912.345 376.99C882.017 376.99 861.101 357.12 862.147 329.929ZM911.299 357.12C926.986 357.12 938.49 345.616 938.49 329.929C938.49 313.197 926.986 301.693 910.253 301.693C894.566 301.693 883.063 313.196 883.063 328.883C883.063 346.662 894.566 357.12 911.299 357.12Z" fill="white"/>
<path d="M1142.42 282.871C1170.66 282.871 1191.58 302.741 1191.58 329.932C1191.58 357.123 1170.66 378.038 1142.42 378.038C1114.19 378.038 1093.27 358.168 1093.27 330.978C1093.27 302.741 1114.19 282.871 1142.42 282.871ZM1142.42 357.123C1159.16 357.123 1170.66 345.619 1170.66 329.932C1170.66 314.245 1159.16 302.741 1143.47 301.695C1127.78 301.695 1116.28 313.199 1116.28 328.886C1115.23 345.619 1125.69 357.123 1142.42 357.123Z" fill="white"/>
<path d="M753.385 329.929C753.385 357.12 732.469 378.036 704.232 376.99C675.996 376.99 655.08 357.12 655.08 329.929C655.08 301.693 674.95 281.822 704.232 281.822C731.423 281.822 753.385 302.739 753.385 329.929ZM703.187 357.12C718.874 357.12 731.423 346.662 731.423 330.975C731.423 314.242 720.965 302.738 704.232 302.738C688.545 302.738 677.042 314.242 677.042 329.929C675.996 345.616 687.5 357.12 703.187 357.12Z" fill="white"/>
<path d="M912.346 182.47C893.521 168.874 875.742 167.829 864.239 181.424C852.735 193.974 852.735 214.89 863.193 226.394C875.743 241.035 893.521 241.035 913.391 227.44C913.391 235.806 913.391 245.218 913.391 253.585C913.391 256.722 911.3 256.722 909.208 257.767C887.247 265.088 866.331 262.997 849.598 248.356C831.819 232.669 825.544 212.798 831.819 189.791C838.094 167.829 852.735 154.234 875.743 149.005C887.247 146.913 897.705 147.959 909.208 152.142C912.346 153.188 914.437 154.233 914.437 158.417C912.346 165.737 912.346 173.058 912.346 182.47Z" fill="white"/>
<path d="M600.699 338.291C609.066 349.795 618.478 361.299 627.89 374.894C619.524 374.894 611.157 374.894 603.837 374.894C600.699 374.894 600.699 372.803 598.608 370.711C592.333 361.299 586.058 351.887 579.783 342.475C578.737 342.475 578.738 342.475 577.692 342.475C577.692 349.796 577.692 356.07 577.692 363.391C577.692 374.895 577.692 374.894 566.188 374.894C564.096 374.894 562.005 374.894 559.913 374.894C556.776 374.894 556.776 373.849 556.776 371.757C556.776 344.566 556.776 316.33 556.776 289.139C556.776 286.001 557.822 284.956 560.959 286.002C571.417 286.002 581.875 286.002 592.333 286.002C605.928 286.002 616.386 295.414 619.524 306.918C622.661 321.559 617.432 332.017 603.837 338.291C601.745 337.246 601.745 338.291 600.699 338.291ZM582.921 301.689C578.738 300.643 577.692 302.734 577.692 307.963C577.692 313.192 577.692 318.421 577.692 322.605C577.692 324.696 577.692 325.742 580.829 325.742C589.195 326.788 597.562 321.559 598.608 314.238C598.608 306.918 593.379 301.689 582.921 301.689Z" fill="white"/>
<path d="M309.966 317.386C312.058 320.523 315.195 323.661 317.286 327.844C319.378 330.981 321.47 329.936 322.515 327.844C323.561 329.936 325.653 330.982 327.744 332.028C335.065 336.211 342.386 340.394 349.706 345.623C345.523 353.989 340.294 362.356 332.973 368.63C302.645 350.852 271.271 333.073 240.943 316.341C234.669 313.203 228.394 306.928 221.073 306.928C220.027 300.653 223.165 296.47 225.256 292.287C228.394 287.058 230.485 281.829 234.668 278.691C236.76 279.737 238.852 279.737 239.897 280.783C255.584 289.15 270.226 298.561 285.913 307.974C294.279 310.065 300.554 317.386 309.966 317.386Z" fill="white"/>
<path d="M221.073 306.918C229.44 306.918 234.669 313.193 240.944 316.33C271.272 334.109 302.646 350.842 332.974 368.62C325.653 378.033 318.333 386.399 307.875 392.674C302.646 395.811 298.462 401.04 293.234 405.223C290.096 408.361 288.005 408.36 284.867 404.177C271.272 383.261 256.631 362.345 241.989 341.429C235.715 333.063 230.486 324.697 224.211 316.33C222.119 313.193 221.073 310.055 221.073 306.918Z" fill="white"/>
<path d="M957.316 214.893C957.316 202.343 957.316 188.748 957.316 176.198C957.316 172.015 956.27 170.969 952.087 170.969C947.904 170.969 942.675 170.969 938.492 170.969C934.309 170.969 933.263 169.924 933.263 165.74C933.263 149.008 933.263 149.008 948.95 149.008C965.683 149.008 983.461 149.008 1000.19 149.008C1004.38 149.008 1005.42 150.054 1005.42 154.237C1005.42 170.97 1005.42 170.969 988.69 170.969C982.415 170.969 981.369 173.061 981.369 178.29C981.369 203.389 981.369 227.442 981.369 252.541C981.369 256.725 980.324 258.816 976.14 257.77C969.866 257.77 961.499 259.862 957.316 256.725C954.179 253.588 956.271 244.175 956.271 237.901C957.316 230.58 957.316 223.259 957.316 214.893Z" fill="white"/>
<path d="M459.515 329.924C459.515 316.329 459.515 303.779 459.515 290.184C459.515 286.001 459.515 284.955 464.744 284.955C475.202 284.955 484.614 284.955 495.072 284.955C512.851 284.955 524.355 296.458 524.355 315.283C524.355 333.061 512.851 344.565 495.072 344.565C481.477 344.565 481.477 344.566 481.477 358.161C481.477 360.253 481.477 362.344 481.477 365.481C481.477 376.985 481.477 376.985 469.973 376.985C459.515 376.985 459.515 376.985 459.515 366.527C459.515 352.932 459.515 341.428 459.515 329.924ZM480.431 314.237C480.431 317.375 480.431 320.512 480.431 322.604C480.431 324.695 480.431 325.741 483.569 325.741C487.752 325.741 491.935 325.741 496.118 324.695C501.347 322.604 504.485 316.329 502.393 310.054C500.301 303.779 494.026 300.642 484.614 301.688C477.294 302.733 482.523 307.963 481.477 311.1C479.385 312.146 480.431 313.192 480.431 314.237Z" fill="white"/>
<path d="M141.592 169.918C144.73 174.101 147.867 178.283 151.004 182.467C157.279 191.879 157.279 199.199 148.913 208.612H147.867C117.539 190.833 87.2107 174.1 56.8826 156.322C49.562 152.139 42.2415 145.864 32.8293 143.773C38.0583 134.36 44.333 127.039 51.6536 119.719C53.7452 122.856 56.8828 123.902 60.0202 125.994C81.9819 138.544 104.989 152.139 126.951 164.689C132.18 167.826 135.318 170.963 141.592 169.918Z" fill="white"/>
<path d="M1060.85 349.805C1060.85 357.126 1060.85 363.401 1060.85 369.676C1060.85 372.813 1059.8 373.859 1056.67 374.905C1040.98 381.179 1017.97 376.996 1005.42 365.492C991.827 351.897 986.598 330.981 993.919 313.202C1001.24 295.424 1016.93 283.92 1036.8 283.92C1037.84 283.92 1037.84 283.92 1038.89 283.92C1058.76 283.92 1060.85 286.012 1060.85 304.836C1060.85 306.927 1060.85 309.019 1060.85 312.157C1043.07 300.653 1029.48 300.653 1020.06 312.157C1011.7 322.615 1010.65 338.302 1019.02 348.76C1028.43 360.263 1042.03 360.263 1060.85 349.805Z" fill="white"/>
<path d="M661.354 230.575C663.446 232.667 664.492 234.758 665.538 235.804C669.721 241.033 677.041 238.941 679.133 233.712C681.224 229.529 680.179 226.392 680.179 222.209C680.179 200.247 680.179 178.285 680.179 155.277C680.179 151.094 681.224 149.003 685.408 150.048C691.682 151.094 701.094 146.911 704.232 151.094C707.369 154.231 705.278 163.644 705.278 169.919C705.278 190.835 706.323 211.751 704.232 232.667C703.186 246.262 696.911 255.674 684.362 259.857C670.766 264.04 658.217 262.995 647.759 251.491C644.621 249.399 644.621 247.308 647.759 244.17C652.988 239.987 657.171 235.804 661.354 230.575Z" fill="white"/>
<path d="M311.012 151.097C316.241 161.555 322.516 172.013 324.608 184.563C322.516 184.563 321.47 184.563 319.379 183.517C306.829 176.197 294.279 168.876 281.73 161.555C271.272 156.326 261.86 147.96 249.31 144.822C224.211 109.265 187.608 90.4408 146.822 79.9828C145.776 79.9828 143.684 78.9373 142.639 78.9373C139.501 77.8915 138.456 76.8457 138.456 73.7083C138.456 70.5709 140.547 69.5251 142.639 68.4793C151.005 67.4335 159.371 66.3873 166.692 67.4331C166.692 70.5705 168.783 71.6163 170.875 72.6621C210.615 95.6697 250.356 118.678 291.142 141.685C296.371 144.823 302.646 151.097 311.012 151.097Z" fill="white"/>
<path d="M32.8305 143.779C42.2427 145.871 49.5632 152.145 56.8837 156.328C87.2119 173.061 117.54 190.84 147.868 208.618H148.914C145.777 215.939 140.548 222.214 136.364 229.534C124.861 225.351 115.448 216.985 103.945 211.756C94.5325 207.573 87.2118 200.252 76.7538 198.16C70.4791 189.794 64.2045 181.428 58.9755 172.015C56.8839 168.878 55.8381 168.878 53.7465 172.015C51.6549 175.153 49.5632 177.245 47.4716 180.382C38.0594 176.199 29.693 170.97 21.3267 165.741C23.4183 157.374 27.6015 150.054 32.8305 143.779Z" fill="white"/>
<path d="M796.263 338.302C796.263 328.889 796.263 319.477 796.263 310.065C796.263 302.744 794.171 300.653 787.896 301.699C786.85 301.699 786.85 301.699 785.805 301.699C776.393 301.699 776.393 301.698 776.393 292.286C776.393 283.92 776.393 283.92 785.805 283.92C801.492 283.92 816.133 283.92 831.82 283.92C836.003 283.92 837.049 284.966 837.049 289.149C837.049 301.698 837.049 302.744 823.454 301.699C818.225 301.699 817.179 303.79 817.179 307.973C817.179 327.843 817.179 348.76 817.179 368.63C817.179 372.813 816.133 373.859 811.95 373.859C796.263 373.859 796.263 373.859 796.263 358.172C796.263 352.943 796.263 345.622 796.263 338.302Z" fill="white"/>
<path d="M485.661 204.438C485.661 220.125 485.661 235.812 485.661 251.499C485.661 257.774 483.569 258.82 478.34 258.82C474.157 258.82 468.928 258.82 464.745 258.82C460.562 258.82 460.562 257.774 460.562 254.636C460.562 221.171 460.562 188.751 460.562 155.286C460.562 152.148 460.562 150.057 464.745 150.057C469.974 150.057 476.249 150.057 481.478 150.057C485.661 150.057 485.661 151.103 485.661 154.24C485.661 170.973 485.661 187.706 485.661 204.438Z" fill="white"/>
<path d="M1030.52 203.392C1030.52 186.659 1030.52 170.973 1030.52 154.24C1030.52 150.057 1031.57 149.011 1035.75 149.011C1042.03 150.057 1051.44 145.874 1054.58 150.057C1057.71 153.194 1055.62 162.606 1055.62 168.881C1055.62 196.072 1055.62 224.309 1055.62 251.499C1055.62 256.728 1054.58 257.774 1049.35 257.774C1043.07 256.728 1034.71 260.912 1030.52 256.728C1027.39 253.591 1029.48 245.224 1029.48 238.95C1030.52 227.446 1030.52 215.942 1030.52 203.392Z" fill="white"/>
<path d="M132.181 362.35C158.326 393.724 192.838 410.456 231.532 419.869C234.67 420.914 238.853 420.915 238.853 426.144C238.853 431.373 234.67 431.372 230.486 432.418C224.212 433.464 217.937 433.464 211.662 433.464C211.662 428.235 207.479 427.19 204.341 426.144C161.464 402.09 119.632 376.991 76.7539 352.938C72.5707 349.8 68.3876 345.617 62.1128 346.663C57.9296 339.342 53.7465 333.068 52.7007 324.701C54.7923 324.701 56.884 324.701 60.0214 326.793C80.9374 339.342 101.853 350.846 122.769 363.396C125.907 362.35 127.998 366.533 132.181 362.35Z" fill="white"/>
<path d="M1227.13 329.935C1227.13 316.34 1227.13 302.744 1227.13 289.149C1227.13 284.966 1228.18 283.92 1232.36 283.92C1249.09 283.92 1249.09 283.92 1249.09 299.607C1249.09 317.385 1249.09 334.118 1249.09 351.897C1249.09 356.08 1250.14 357.126 1254.32 357.126C1260.6 357.126 1266.87 357.126 1273.15 357.126C1276.28 357.126 1277.33 358.172 1277.33 361.309C1278.37 374.905 1278.37 374.905 1263.73 374.905C1253.28 374.905 1242.82 374.905 1232.36 374.905C1228.18 374.905 1227.13 373.859 1227.13 369.676C1227.13 357.126 1227.13 343.531 1227.13 329.935Z" fill="white"/>
<path d="M141.594 169.922C136.365 169.922 132.181 166.784 127.998 164.693C106.037 152.143 83.0287 138.548 61.0669 125.998C57.9295 123.907 54.7923 122.86 52.7007 119.723C62.1129 109.265 73.6167 100.899 85.1205 92.5325C89.3037 89.3951 90.3496 93.5781 91.3954 95.6697C106.037 117.631 120.678 139.593 135.319 161.555C136.364 164.692 139.502 167.83 141.594 169.922Z" fill="white"/>
<path d="M309.968 317.383C300.556 317.383 294.281 310.063 286.96 306.925C271.273 298.559 256.632 289.147 240.945 279.735C238.854 278.689 236.762 278.689 235.716 277.643C240.945 269.277 247.22 259.864 252.449 251.498C253.495 251.498 255.586 251.498 256.632 252.544C269.182 259.864 281.731 266.139 293.235 273.46C297.418 275.551 302.647 275.551 303.693 281.826C302.647 282.872 302.647 283.918 301.601 284.964C296.372 290.193 297.418 296.467 301.601 301.696C303.693 306.925 306.831 312.154 309.968 317.383Z" fill="white"/>
<path d="M302.647 281.818C301.601 275.543 295.326 275.544 292.189 273.452C280.685 266.131 268.135 258.811 255.586 252.536C254.54 251.49 252.448 251.491 251.403 251.491C256.632 242.078 260.815 231.62 263.952 221.162C267.09 222.208 270.227 223.254 272.319 225.346C288.006 233.712 302.647 244.17 319.379 251.491C315.196 262.994 309.967 273.452 302.647 281.818Z" fill="white"/>
<path d="M63.1597 345.617C69.4345 344.571 73.6176 349.8 77.8008 351.892C120.679 375.945 162.511 401.044 205.388 425.098C208.526 427.189 212.709 428.235 212.709 432.418C203.297 432.418 193.885 431.372 185.518 430.327C184.472 425.098 180.289 424.052 176.106 421.96C147.869 405.228 118.587 388.495 90.3505 371.762C87.2131 369.671 84.0757 367.579 79.8925 368.625C71.5261 361.304 66.2971 353.984 63.1597 345.617Z" fill="white"/>
<path d="M55.8359 248.353C58.9733 238.941 64.2026 229.528 70.4774 221.162C71.5232 222.208 72.5689 224.3 74.6605 225.346C85.1185 231.62 94.5306 236.849 104.989 242.078C111.263 245.215 115.447 250.445 122.767 251.491C118.584 259.857 114.401 269.269 112.309 278.681C108.126 277.635 103.943 275.544 100.805 273.452C85.1185 265.086 70.4771 256.72 55.8359 248.353Z" fill="white"/>
<path d="M311.011 151.096C302.644 151.096 296.37 144.821 290.095 141.684C250.354 118.676 209.568 95.6682 169.828 72.6606C167.736 71.6148 165.645 70.569 165.645 67.4316C174.011 67.4316 182.378 68.4776 190.744 69.5234C191.79 72.6608 193.881 73.7066 195.973 74.7524C225.255 91.4851 255.583 109.264 284.866 125.997C288.003 128.088 291.14 131.225 296.369 130.18C302.644 136.454 305.782 143.775 311.011 151.096Z" fill="white"/>
<path d="M109.174 294.375C109.174 303.787 110.22 313.199 111.266 321.566C108.128 321.566 106.037 320.52 103.945 319.474C93.487 313.199 84.0749 306.924 73.6169 301.695C65.2505 297.512 56.8841 290.192 47.4719 288.1C47.4719 279.734 47.4718 270.321 50.6092 261.955C63.1588 267.184 73.6169 275.55 85.1207 280.779C93.4871 286.008 100.808 292.283 109.174 294.375Z" fill="white"/>
<path d="M327.745 212.8C328.791 222.213 325.654 230.579 323.562 238.945C315.196 235.808 306.83 229.533 298.463 225.35C286.959 220.121 277.547 211.755 266.043 207.571C267.089 198.159 264.998 188.747 263.952 180.381C267.089 180.381 269.181 181.426 271.272 182.472C281.73 188.747 292.188 195.022 302.646 200.251C311.013 205.48 318.333 211.755 327.745 212.8Z" fill="white"/>
<path d="M121.722 251.498C114.401 250.452 109.172 245.223 103.943 242.086C93.4854 236.857 84.0732 230.582 73.6153 225.353C72.5695 224.307 71.5237 223.261 69.4321 221.17C70.4779 219.078 72.5695 215.941 73.6153 214.895C78.8443 209.666 78.8444 204.437 75.707 198.162C86.165 200.254 93.4853 207.575 102.897 211.758C113.355 216.987 123.814 225.353 135.317 229.536C131.134 236.857 126.951 244.178 121.722 251.498Z" fill="white"/>
<path d="M77.7993 368.622C81.9825 367.576 85.1199 369.668 88.2573 371.759C116.494 388.492 145.776 405.225 174.013 421.957C177.15 424.049 182.379 425.095 183.425 430.324C148.914 426.14 118.585 410.453 93.4863 386.4C88.2573 381.171 81.9825 375.943 77.7993 368.622Z" fill="white"/>
<path d="M297.415 130.184C293.232 131.229 290.095 128.092 285.912 126.001C256.629 109.268 226.301 91.4891 197.019 74.7563C194.927 73.7105 191.79 72.6647 191.79 69.5273C234.668 75.8021 269.179 96.718 297.415 130.184Z" fill="white"/>
<path d="M132.182 362.35C129.044 365.487 125.907 362.35 123.815 361.304C102.899 349.8 81.9832 337.251 61.0672 324.701C58.9757 323.655 56.8842 322.609 53.7469 322.609C50.6095 316.335 49.5637 310.06 49.5637 303.785C51.6553 303.785 52.7011 303.785 54.7927 304.831C70.4797 314.243 86.1667 323.655 101.854 332.022C107.083 335.159 111.266 339.342 118.586 339.342C121.724 347.708 126.953 355.029 132.182 362.35Z" fill="white"/>
<path d="M336.111 305.872C342.386 294.369 346.569 281.819 351.798 269.27C357.027 275.544 365.393 278.681 372.714 281.819C370.622 294.368 367.485 305.872 362.256 317.376C361.21 316.33 359.118 316.33 358.073 315.284C350.752 314.238 344.477 307.964 336.111 305.872Z" fill="white"/>
<path d="M249.309 143.779C260.813 146.917 270.225 155.283 281.729 160.512C294.278 167.832 306.828 175.153 319.378 182.473C321.469 183.519 322.515 183.52 324.607 183.52C327.744 188.749 325.652 193.977 327.744 198.16C324.607 198.16 322.515 197.115 320.424 196.069C311.011 190.84 300.553 184.565 291.141 179.336C280.683 174.107 271.271 166.787 260.813 162.604C256.63 157.375 252.446 151.1 249.309 143.779Z" fill="white"/>
<path d="M117.538 339.343C111.263 339.343 106.034 335.161 100.805 332.023C85.1185 323.657 69.4315 314.244 53.7445 304.832C51.6529 303.786 50.6071 303.787 48.5155 303.787C46.4239 298.558 47.4697 293.329 47.4697 288.1C57.9277 290.191 65.2482 297.512 73.6146 301.695C84.0726 306.924 93.4847 313.199 103.943 319.474C106.034 320.519 108.126 321.565 111.263 321.565C113.355 327.84 115.447 334.114 117.538 339.343Z" fill="white"/>
<path d="M109.173 294.372C100.807 292.28 93.4862 286.005 86.1656 281.822C74.6618 275.547 63.1578 268.227 51.6541 262.998C52.6999 257.769 53.7456 253.586 55.8372 249.402C70.4784 257.769 85.1197 266.135 99.7608 274.502C103.944 276.593 107.081 278.685 111.265 279.731C110.219 283.914 110.219 289.143 109.173 294.372Z" fill="white"/>
<path d="M259.767 163.646C271.27 166.784 280.683 174.105 290.095 180.38C300.553 185.609 309.965 191.883 319.377 197.112C321.469 198.158 323.561 199.204 326.698 199.204C327.744 203.387 327.743 208.616 327.743 212.799C318.331 211.753 311.011 204.433 302.644 200.249C292.186 193.975 281.728 187.7 271.27 182.471C269.179 181.425 267.087 179.334 263.95 180.38C262.904 174.105 260.812 168.875 259.767 163.646Z" fill="white"/>
<path d="M336.11 305.883C344.477 307.974 350.751 313.203 358.072 316.341C359.118 317.387 361.209 317.386 362.255 318.432C359.118 327.844 354.934 336.21 349.705 344.577C342.385 340.394 335.064 336.211 327.744 330.982C325.652 329.936 323.56 328.89 322.515 326.799C326.698 320.524 331.927 313.203 336.11 305.883Z" fill="white"/>
<path d="M266.043 207.572C277.547 211.755 288.005 220.122 298.463 225.351C306.83 229.534 314.15 235.809 323.562 238.946C322.516 243.129 321.471 247.313 319.379 251.496C303.692 243.13 288.005 233.717 272.318 225.351C269.181 223.259 267.089 222.213 263.952 221.168C264.998 216.984 266.043 211.755 266.043 207.572Z" fill="white"/>
<path d="M20.2805 164.693C28.6469 169.922 37.0133 176.197 46.4255 179.334C42.2423 186.655 38.0593 195.021 33.8761 202.342C31.7845 201.296 29.6928 200.25 27.6012 199.205C21.3264 196.067 16.0973 191.884 9.82251 189.792C11.9141 181.426 16.0973 173.06 20.2805 164.693Z" fill="white"/>
<path d="M9.82235 190.838C16.0971 192.929 21.3263 197.112 27.601 200.25C29.6926 201.295 31.7843 202.341 33.8759 203.387C30.7385 212.799 26.5553 221.166 23.4179 230.578C18.1889 224.303 9.82254 221.166 2.50195 218.028C4.59355 208.616 5.63916 199.204 9.82235 190.838Z" fill="white"/>
<path d="M37.0126 346.657C47.4706 364.435 60.0203 380.123 74.6614 394.764C78.8446 397.901 83.0278 401.038 85.1194 406.267C61.0661 389.535 40.15 369.664 25.5088 343.52C29.692 343.52 32.8294 347.703 37.0126 346.657Z" fill="white"/>
<path d="M338.204 151.091C326.7 133.312 314.15 116.58 298.463 101.939C295.326 99.8471 293.235 96.7096 290.097 94.618C294.28 93.5722 296.372 95.6637 298.463 97.7553C318.334 112.396 336.112 130.175 348.662 152.137C344.478 153.183 341.341 150.045 338.204 151.091Z" fill="white"/>
<path d="M18.1889 259.856C18.1889 268.222 18.1889 277.634 18.1889 286.001C12.96 283.909 7.73096 281.818 2.50197 278.68C0.410377 270.314 -0.635549 260.902 0.410249 252.535C6.68504 253.581 11.9142 258.81 18.1889 259.856Z" fill="white"/>
<path d="M374.806 242.081C375.851 249.402 375.851 256.723 374.806 264.043C371.668 264.043 369.577 262.997 367.485 260.905C363.302 258.814 360.165 255.676 354.936 255.676C355.981 248.356 357.027 241.035 358.073 233.715C364.348 234.761 368.531 239.99 374.806 242.081Z" fill="white"/>
<path d="M374.806 242.079C368.532 239.988 364.349 234.759 357.028 233.713C357.028 225.347 355.982 216.98 355.982 208.614C362.257 207.568 365.394 213.843 371.669 213.843C374.807 223.255 372.715 232.667 374.806 242.079Z" fill="white"/>
<path d="M2.50195 278.691C7.73094 280.783 12.9599 282.875 18.1889 286.012C20.2805 295.424 21.3263 304.836 23.4179 313.203C18.1889 313.203 15.0513 309.02 9.82235 309.02C6.68495 299.608 3.54775 289.149 2.50195 278.691Z" fill="white"/>
<path d="M354.934 255.68C360.163 255.68 363.301 258.817 367.484 260.909C369.576 261.954 371.667 264.047 374.804 264.047C375.85 270.321 372.713 276.596 372.713 282.871C365.392 278.688 358.072 276.596 351.797 270.321C352.843 265.092 353.889 260.909 354.934 255.68Z" fill="white"/>
<path d="M371.669 214.892C365.394 214.892 362.256 208.617 355.982 209.663C353.89 200.251 351.798 190.839 349.707 180.381C354.936 180.381 357.028 185.609 362.256 184.564C367.485 193.976 369.577 204.434 371.669 214.892Z" fill="white"/>
<path d="M9.82251 309.016C15.0515 309.016 18.1891 313.198 23.4181 313.198C27.6013 324.702 31.7843 335.16 37.0133 346.664C32.8301 347.71 29.6927 344.573 25.5095 343.527C19.2347 333.069 14.0057 321.565 9.82251 309.016Z" fill="white"/>
<path d="M18.1881 259.856C11.9133 258.81 6.68416 253.581 0.409367 252.535C0.409367 245.215 -0.636368 238.94 1.45523 231.619C3.54683 232.665 5.63849 233.711 7.73008 234.756C11.9133 236.848 16.0963 239.985 21.3253 239.985C20.2795 247.306 19.2339 253.581 18.1881 259.856Z" fill="white"/>
<path d="M363.302 184.567C358.073 185.613 355.981 180.384 350.752 180.384C346.569 170.972 342.386 161.559 338.203 151.101C341.34 150.056 344.477 152.148 348.661 152.148C354.935 161.56 358.073 173.063 363.302 184.567Z" fill="white"/>
<path d="M21.3268 241.037C16.0978 241.037 11.9147 237.9 7.73153 235.808C5.63993 234.762 3.54827 233.717 1.45667 232.671C0.410875 227.442 2.50228 222.212 3.54808 218.029C10.8687 221.167 19.2351 224.304 24.464 230.579C23.4182 233.716 22.3726 236.854 21.3268 241.037Z" fill="white"/>
</g>
<defs>
<clipPath id="clip0">
<rect width="1278" height="500" fill="white"/>
</clipPath>
</defs>
</svg>
