<svg width="1278" height="500" viewBox="0 0 1278 500" fill="none" xmlns="http://www.w3.org/2000/svg">
<path d="M50.8526 292.518C50.8526 308.577 50.8526 325.305 50.8526 341.363C50.8526 358.091 44.1614 371.473 26.0955 372.142C7.36038 372.811 0 359.429 0 342.701C0 281.143 0 219.585 0 157.358C0 140.63 6.02232 127.248 25.4265 127.917C44.8307 128.586 50.1835 141.299 50.8526 158.027C50.8526 174.086 50.8526 190.144 50.8526 213.563C75.6097 188.806 96.3519 168.064 117.094 147.321C127.8 136.616 137.837 125.91 148.543 115.873C167.947 97.8072 177.315 97.1379 196.05 115.204C217.461 135.946 238.203 157.358 258.946 178.1C271.659 190.813 274.335 204.196 260.953 216.909C248.24 228.953 234.858 224.938 223.483 213.563C210.101 200.181 196.05 186.129 182.667 172.078C175.307 164.718 170.623 164.049 162.594 172.078C140.513 195.497 117.763 217.578 95.0137 240.327C87.6535 247.688 86.9844 253.041 95.0137 260.401C117.763 282.481 140.513 305.231 162.594 327.981C170.623 336.01 175.976 334.672 182.667 327.312C196.05 313.261 209.432 299.878 223.483 286.496C234.858 275.121 248.24 271.776 260.953 283.82C273.666 295.864 270.99 309.246 258.946 321.29C236.865 343.371 214.785 365.451 192.704 387.532C178.653 401.583 163.932 400.914 149.881 386.863C118.433 354.745 86.3153 322.628 54.8671 290.511C54.198 290.511 52.86 291.849 50.8526 292.518Z" fill="white"/>
<path d="M1176.3 238.988C1176.3 266.421 1175.63 293.855 1176.3 320.619C1176.3 332.663 1172.95 337.347 1160.24 337.347C1146.85 337.347 1141.5 334.002 1142.17 319.951C1142.84 274.451 1142.17 229.621 1142.84 184.121C1142.84 176.761 1137.49 164.717 1151.54 162.71C1163.58 161.371 1174.29 160.702 1182.32 174.085C1198.38 200.849 1215.77 226.944 1232.5 253.04C1234.51 256.385 1235.18 261.738 1243.21 261.738C1243.21 233.635 1243.88 206.202 1243.21 178.099C1242.54 164.717 1247.89 162.04 1259.93 162.04C1273.32 161.371 1278 166.055 1278 180.106C1277.33 226.275 1278 272.444 1277.33 317.943C1277.33 325.304 1281.35 336.009 1268.63 336.678C1257.93 337.347 1247.22 338.685 1239.86 325.972C1223.8 299.208 1206.41 273.113 1189.68 247.017C1187.67 243.672 1184.32 240.326 1182.32 236.981C1178.97 238.319 1177.63 238.988 1176.3 238.988Z" fill="white"/>
<path d="M407.49 228.951C419.534 214.231 433.585 200.18 444.291 184.121C458.342 163.379 476.408 158.026 502.503 164.717C487.114 183.452 472.393 202.187 457.004 219.584C449.644 228.282 448.974 234.973 454.996 245.01C473.062 273.782 489.79 303.222 507.856 335.34C485.106 340.024 468.378 340.023 458.342 315.935C449.643 296.531 436.93 279.134 426.225 260.399C402.806 274.451 400.129 295.193 402.806 317.274C404.144 329.987 402.137 338.016 385.409 338.016C368.012 338.016 368.681 328.649 368.681 316.605C368.681 271.774 368.681 227.613 368.681 182.783C368.681 171.408 367.343 162.04 384.74 161.371C403.475 161.371 402.806 171.408 402.806 184.121C402.137 198.841 402.806 212.893 402.806 227.613C404.144 228.282 405.482 228.951 407.49 228.951Z" fill="white"/>
<path d="M541.978 227.613C541.978 211.555 542.647 194.826 541.978 178.768C541.309 166.724 545.323 161.371 558.037 161.371C570.08 161.371 577.441 162.709 576.772 178.099C575.433 204.863 576.772 231.628 576.772 258.392C576.772 291.848 585.47 306.568 606.213 307.237C626.955 307.906 636.322 292.517 636.322 257.723C636.322 230.959 636.992 204.194 636.322 177.43C635.653 163.379 643.014 162.04 654.389 162.04C665.094 162.04 672.454 163.379 672.454 177.43C671.785 210.216 673.123 243.002 671.785 275.789C670.447 314.597 644.352 339.354 605.543 338.685C567.404 338.016 543.316 313.259 542.647 273.113C541.978 257.723 542.647 243.003 541.978 227.613Z" fill="white"/>
<path d="M876.534 248.36C876.534 239.661 875.865 230.294 876.534 221.595C878.542 186.132 902.63 162.045 937.424 160.706C971.548 159.368 997.643 182.118 1003 216.911C1006.34 240.33 1006.34 264.418 1002.33 287.837C996.974 319.955 972.217 339.359 936.754 338.69C904.637 338.02 879.211 315.94 876.534 284.492C875.865 272.448 876.534 260.404 876.534 248.36ZM970.879 251.705C970.21 239.661 970.21 227.617 968.202 216.242C965.526 200.853 955.489 192.824 940.1 192.824C925.379 192.824 914.005 199.514 911.328 215.573C907.313 238.992 907.313 263.08 911.328 286.499C914.005 302.558 924.71 309.249 940.1 308.58C955.489 308.58 965.526 300.55 968.202 285.161C970.21 273.117 970.21 262.411 970.879 251.705Z" fill="white"/>
<path d="M715.948 247.688C717.286 234.975 717.286 222.262 719.293 210.218C723.977 182.784 744.05 165.387 772.822 161.373C798.917 157.358 826.351 170.74 837.726 194.159C841.071 200.85 849.101 210.887 840.402 214.901C831.704 218.916 816.984 222.262 810.293 210.887C800.925 194.828 788.881 188.806 771.484 194.159C752.749 200.181 752.08 216.239 752.08 232.298C752.08 247.019 752.08 261.739 752.749 277.129C753.418 291.18 758.102 301.886 772.822 305.9C786.873 309.915 800.256 307.239 807.616 293.187C815.645 277.798 829.697 283.82 841.071 284.489C849.101 285.158 843.748 293.187 842.41 297.202C835.05 322.628 811.631 338.687 780.852 338.018C752.08 337.349 728.661 321.29 721.97 295.864C716.617 280.474 716.617 263.747 715.948 247.688Z" fill="white"/>
<path d="M1087.3 251.034C1087.3 275.122 1086.63 298.54 1087.3 322.628C1087.3 334.003 1083.96 338.687 1071.91 338.018C1061.21 337.349 1053.18 337.349 1053.85 323.297C1054.52 275.121 1054.52 226.945 1053.85 178.1C1053.85 164.049 1060.54 162.711 1071.91 162.711C1082.62 162.711 1087.97 165.387 1087.97 177.431C1086.63 202.189 1087.3 226.276 1087.3 251.034Z" fill="white"/>
<path d="M172.631 225.605C188.021 225.605 197.388 234.304 197.388 249.694C197.388 263.745 188.021 273.782 173.3 274.451C157.911 275.12 147.874 265.752 147.874 249.694C147.874 235.642 155.903 226.275 172.631 225.605Z" fill="white"/>
</svg>
