<svg width="272" height="56" viewBox="0 0 272 56" fill="none" xmlns="http://www.w3.org/2000/svg">
<path d="M104.034 46.3757C99.422 46.3757 95.777 45.1102 93.099 42.5791C90.421 40.0481 89.082 36.4562 89.082 31.8036V11.5365H98.0086V31.0219C98.0086 33.4041 98.5293 35.2279 99.5708 36.4935C100.649 37.759 102.137 38.3917 104.034 38.3917C105.894 38.3917 107.344 37.759 108.386 36.4935C109.464 35.2279 110.004 33.4041 110.004 31.0219V11.5365H118.93V31.8594C118.93 36.4748 117.591 40.0481 114.913 42.5791C112.235 45.1102 108.609 46.3757 104.034 46.3757Z" fill="black"/>
<path d="M122.907 45.8174V20.693H131.666V22.8704C133.303 21.0466 135.553 20.1347 138.417 20.1347C141.169 20.1347 143.327 20.9721 144.889 22.6471C146.488 24.2848 147.288 26.5181 147.288 29.3469V45.8174H138.584V31.4686C138.584 30.3891 138.306 29.5331 137.748 28.9003C137.19 28.2303 136.371 27.8953 135.293 27.8953C134.4 27.8953 133.619 28.1373 132.95 28.6211C132.317 29.105 131.89 29.775 131.666 30.6311V45.8174H122.907Z" fill="black"/>
<path d="M160.039 20.693V45.8174H151.28V20.693H160.039ZM160.653 13.8815C160.653 15.2587 160.169 16.3939 159.202 17.2872C158.235 18.1433 157.064 18.5714 155.687 18.5714C154.311 18.5714 153.14 18.1433 152.173 17.2872C151.206 16.3939 150.722 15.2587 150.722 13.8815C150.722 12.4671 151.206 11.3318 152.173 10.4757C153.14 9.5824 154.311 9.13574 155.687 9.13574C157.064 9.13574 158.235 9.5824 159.202 10.4757C160.169 11.3318 160.653 12.4671 160.653 13.8815Z" fill="black"/>
<path d="M164.457 45.8174V11.5365H173.44V38.0567H188.782V45.8174H164.457Z" fill="black"/>
<path d="M207.127 37.0518H215.217C214.77 39.955 213.506 42.2442 211.423 43.9191C209.34 45.5569 206.681 46.3757 203.445 46.3757C199.614 46.3757 196.527 45.166 194.183 42.7466C191.84 40.3273 190.669 37.1634 190.669 33.2552C190.669 29.3842 191.859 26.239 194.239 23.8196C196.62 21.363 199.632 20.1347 203.277 20.1347C207.071 20.1347 210.028 21.2885 212.148 23.5962C214.268 25.904 215.328 28.9561 215.328 32.7527V34.9302H199.093C199.391 38.0195 200.841 39.5642 203.445 39.5642C205.416 39.5642 206.643 38.7267 207.127 37.0518ZM203.277 26.9462C201.157 26.9462 199.818 28.1559 199.26 30.5753H206.848C206.774 29.4958 206.42 28.6211 205.788 27.9511C205.156 27.2812 204.319 26.9462 203.277 26.9462Z" fill="black"/>
<path d="M218.092 45.8174V20.693H226.851V22.8704C228.488 21.0466 230.738 20.1347 233.602 20.1347C236.354 20.1347 238.512 20.9721 240.074 22.6471C241.673 24.2848 242.473 26.5181 242.473 29.3469V45.8174H233.769V31.4686C233.769 30.3891 233.49 29.5331 232.932 28.9003C232.375 28.2303 231.556 27.8953 230.478 27.8953C229.585 27.8953 228.804 28.1373 228.134 28.6211C227.502 29.105 227.074 29.775 226.851 30.6311V45.8174H218.092Z" fill="black"/>
<path d="M262.533 45.8174V43.8074C261.9 44.5147 261.008 45.1288 259.855 45.6499C258.739 46.1338 257.567 46.3757 256.34 46.3757C252.844 46.3757 250.091 45.1474 248.083 42.6908C246.112 40.197 245.126 37.0518 245.126 33.2552C245.126 29.4586 246.112 26.332 248.083 23.8754C250.091 21.3816 252.844 20.1347 256.34 20.1347C257.567 20.1347 258.739 20.3952 259.855 20.9163C261.008 21.4002 261.9 21.9957 262.533 22.7029V9.52656H271.292V45.8174H262.533ZM262.533 36.5493V29.9053C262.198 29.2353 261.677 28.677 260.971 28.2303C260.264 27.7837 259.501 27.5603 258.683 27.5603C257.195 27.5603 256.024 28.1 255.168 29.1795C254.313 30.2216 253.885 31.5802 253.885 33.2552C253.885 34.8929 254.313 36.2515 255.168 37.3309C256.024 38.3731 257.195 38.8942 258.683 38.8942C260.506 38.8942 261.789 38.1126 262.533 36.5493Z" fill="black"/>
<path fill-rule="evenodd" clip-rule="evenodd" d="M56.57 15.6602L56.5698 15.6624L60.5198 15.6837C60.9692 15.6503 61.4225 15.6523 61.8754 15.6906L71.5233 15.7423C72.9907 15.8271 74.1539 17.0535 74.1539 18.5546C74.1539 19.2641 73.8941 19.9121 73.4654 20.4069L68.7707 28.6067C68.7335 28.6759 68.6954 28.7448 68.6563 28.8133L57.0396 49.1572C55.466 51.913 52.6362 53.4783 49.7038 53.5406L49.7041 53.5426L49.5675 53.5424C49.492 53.5429 49.4164 53.5423 49.3407 53.5407L14.9656 53.3633H11.1348L11.135 53.2947C14.0452 52.8868 16.4937 51.0186 17.7335 48.4455L17.7612 48.4462L34.6022 18.8321C35.5476 16.9499 37.4805 15.6602 39.7113 15.6602L39.5559 15.6635L39.5612 15.6602H56.57Z" fill="#2BBDF7"/>
<path fill-rule="evenodd" clip-rule="evenodd" d="M29.6613 1.13076L60.0034 1.13124C61.4703 1.21612 62.6334 2.4425 62.6334 3.94356C62.6334 4.54524 62.4465 5.1028 62.1282 5.56012L53.9395 19.9338L45.2345 35.2099L45.2395 35.2085H45.3104L42.5265 40.0875C40.1798 44.1972 41.4977 49.4294 45.455 51.9158L45.7006 52.0645C46.8154 52.7153 48.0137 53.0873 49.2165 53.2021L49.2169 53.4072L34.8717 53.4069L34.8659 53.4197H9.98899C8.57647 53.3939 7.14218 53.0322 5.81518 52.2884C1.5474 49.8965 0.0054369 44.4594 2.3711 40.1443L21.2499 5.70844C22.9801 2.55243 26.3214 0.870698 29.6613 1.13076Z" fill="#2B6DEF"/>
<path fill-rule="evenodd" clip-rule="evenodd" d="M39.6134 15.6597L56.3219 15.6769L53.9049 19.9205L45.2 35.1966L45.2049 35.1953H45.2758L42.492 40.0743C40.1453 44.184 41.4631 49.4161 45.4204 51.9025L45.666 52.0513C46.7808 52.7021 47.9791 53.0741 49.182 53.1888L49.1823 53.394L34.8371 53.3937L34.8314 53.4065L11.0723 53.4072C13.7063 53.131 16.1791 51.6647 17.6692 49.2404L17.8367 48.9565L35.4093 17.899C36.406 16.5966 37.9398 15.7356 39.6749 15.6553L39.6134 15.6597Z" fill="#022974"/>
<path fill-rule="evenodd" clip-rule="evenodd" d="M39.6134 15.6597L56.3219 15.6769L53.9049 19.9205L45.2 35.1966L45.2049 35.1953H45.2758L42.492 40.0743C40.1453 44.184 41.4631 49.4161 45.4204 51.9025L45.666 52.0513C46.7808 52.7021 47.9791 53.0741 49.182 53.1888L49.1823 53.394L34.8371 53.3937L34.8314 53.4065L11.0723 53.4072C13.7063 53.131 16.1791 51.6647 17.6692 49.2404L17.8367 48.9565L35.4093 17.899C36.406 16.5966 37.9398 15.7356 39.6749 15.6553L39.6134 15.6597Z" fill="#0CC19B" fill-opacity="0.5"/>
<path fill-rule="evenodd" clip-rule="evenodd" d="M39.6134 15.6597L56.3219 15.6769L53.9049 19.9205L45.2 35.1966L45.2049 35.1953H45.2758L42.492 40.0743C40.1453 44.184 41.4631 49.4161 45.4204 51.9025L45.666 52.0513C46.7808 52.7021 47.9791 53.0741 49.182 53.1888L49.1823 53.394L34.8371 53.3937L34.8314 53.4065L11.0723 53.4072C13.7063 53.131 16.1791 51.6647 17.6692 49.2404L17.8367 48.9565L35.4093 17.899C36.406 16.5966 37.9398 15.7356 39.6749 15.6553L39.6134 15.6597Z" fill="#003CB2"/>
</svg>
