<svg width="1278" height="500" viewBox="0 0 1278 500" fill="none" xmlns="http://www.w3.org/2000/svg">
<path d="M104.312 430.277C89.384 426.545 75.3894 423.746 61.3947 420.947C53.9308 419.081 52.9978 415.349 52.9978 408.818C52.9978 396.689 52.9978 384.561 52.9978 372.432C52.9978 364.035 51.1318 358.437 41.802 357.504C34.3382 356.571 27.8073 352.839 20.3435 352.839C6.34877 350.973 0.750977 345.375 0.750977 329.515C1.68396 277.268 1.68396 225.021 0.750977 172.774C0.750977 161.578 3.54992 157.846 14.7457 161.578C15.6787 161.578 15.6786 161.578 16.6116 161.578C27.8074 163.444 42.735 173.707 50.1988 166.243C57.6626 159.712 52.0648 142.919 52.9978 131.723C52.9978 112.131 52.9978 112.13 72.5904 116.795C104.312 124.259 104.312 124.259 104.312 91.6047C104.312 66.4142 104.312 66.4145 129.502 72.0123C155.626 78.5432 155.626 78.5432 155.626 104.667C155.626 135.455 155.626 137.321 186.414 142.919C203.208 145.718 207.873 153.182 206.94 169.975C206.007 220.356 206.94 269.804 206.94 320.185C206.94 325.783 206.94 330.448 206.94 336.979C192.012 333.247 178.95 331.381 165.888 327.649C157.491 325.783 155.626 326.716 155.626 335.113C156.559 350.973 155.626 366.834 155.626 383.628C140.698 379.896 127.636 377.097 114.575 373.365C107.111 371.499 104.312 373.365 104.312 381.762C104.312 397.622 104.312 413.483 104.312 430.277ZM113.641 335.113C113.641 328.582 113.641 322.984 113.641 316.453C113.641 288.464 113.641 259.541 113.641 231.552C113.641 225.021 110.843 223.155 105.245 222.222C87.5181 218.49 69.7915 213.825 52.0649 209.161C44.601 207.295 41.802 209.16 41.802 217.557C41.802 248.345 41.802 278.201 41.802 308.989C41.802 316.453 44.601 319.252 51.1318 320.185C72.5904 324.85 92.1829 330.448 113.641 335.113Z" fill="white"/>
<path d="M379.54 258.607C373.942 292.194 368.344 325.782 363.679 360.302C362.746 369.632 359.947 376.163 347.818 374.297C333.824 372.431 313.298 380.828 305.834 370.565C300.236 362.168 308.633 343.508 311.432 329.513C319.829 279.133 329.159 228.752 337.556 178.371C339.422 167.175 342.221 162.51 355.282 162.51C397.266 163.443 397.266 162.51 412.194 200.762C421.524 224.087 430.854 247.411 440.184 270.736C445.781 267.937 445.781 262.339 447.647 257.674C455.111 239.015 462.575 220.355 470.039 201.696C486.832 158.779 486.832 159.711 532.548 162.51C540.012 162.51 541.878 165.309 543.744 171.84C554.94 235.283 566.136 297.792 577.331 361.235C579.197 370.565 576.398 373.364 567.069 372.431C552.141 371.498 533.482 378.029 524.152 369.632C515.755 362.168 517.621 343.508 514.822 329.513C511.09 306.189 507.358 282.864 503.626 259.54C496.162 258.607 497.095 264.205 495.229 267.937C481.235 299.658 468.173 330.446 455.111 362.168C451.379 370.565 447.647 372.431 439.25 373.364C429.921 373.364 426.189 369.632 423.39 362.168C409.395 326.714 395.4 292.195 380.473 257.674C381.406 257.674 380.473 257.674 379.54 258.607Z" fill="white"/>
<path d="M1046.62 225.025C1061.55 225.025 1075.54 227.824 1089.54 233.422C1120.33 247.417 1137.12 271.674 1136.19 303.395C1135.25 334.184 1116.59 359.374 1085.81 370.57C1058.75 379.9 1032.63 380.833 1005.57 370.57C974.782 358.441 957.055 333.251 957.055 301.529C957.055 269.808 973.849 248.35 1000.91 234.355C1014.9 227.824 1030.76 225.025 1046.62 225.025ZM1046.62 268.875C1027.96 268.875 1013.03 283.803 1013.03 301.529C1013.03 319.256 1027.96 334.184 1046.62 334.184C1066.21 334.184 1082.07 319.256 1081.14 300.597C1080.21 283.803 1065.28 268.875 1046.62 268.875Z" fill="white"/>
<path d="M881.484 250.211C896.411 235.284 911.339 227.82 930.931 227.82C938.395 227.82 941.194 229.686 941.194 238.083C940.261 250.212 941.194 262.34 941.194 273.536C937.462 276.335 935.597 274.469 932.798 273.536C898.277 267.005 882.417 280.067 881.484 315.52C881.484 330.448 881.484 346.309 881.484 361.236C881.484 370.566 879.618 374.298 869.355 374.298C828.304 375.231 828.304 375.231 828.304 334.18C828.304 303.391 828.304 273.536 828.304 242.748C828.304 234.351 830.17 230.619 839.5 231.552C846.963 232.485 855.36 232.485 862.824 231.552C875.886 229.686 887.082 229.686 881.484 250.211Z" fill="white"/>
<path d="M1277.07 275.4C1273.33 274.467 1271.47 274.467 1269.6 273.534C1233.22 266.07 1217.36 279.132 1217.36 315.518C1217.36 331.379 1217.36 347.24 1217.36 363.1C1217.36 370.564 1216.42 375.229 1207.09 374.296C1195.9 373.363 1184.7 373.363 1174.44 374.296C1165.11 375.229 1164.18 370.564 1164.18 363.1C1164.18 322.982 1164.18 281.931 1164.18 241.813C1164.18 233.416 1166.04 230.617 1174.44 230.617C1182.84 231.55 1191.23 231.55 1199.63 230.617C1213.62 228.751 1221.09 233.416 1216.42 252.075C1231.35 236.215 1245.35 226.885 1264.94 226.885C1274.27 226.885 1278 228.751 1278 239.014C1276.13 251.143 1277.07 262.338 1277.07 275.4Z" fill="white"/>
<path d="M748.068 249.277C762.063 236.215 776.991 226.885 795.65 227.818C803.114 227.818 806.846 229.684 806.846 238.081C805.913 250.209 806.846 262.338 806.846 274.467C801.248 273.534 796.583 272.601 791.918 271.668C763.929 267.936 749.934 279.132 747.135 307.121C746.202 325.781 746.202 343.507 746.202 362.167C746.202 370.564 743.403 372.43 735.939 373.363C693.955 375.229 693.955 375.229 693.955 334.178C693.955 304.322 694.888 274.467 693.955 243.679C693.955 232.483 697.687 228.751 707.95 229.684C714.481 230.617 721.945 230.617 728.476 229.684C743.403 228.751 750.867 232.483 748.068 249.277Z" fill="white"/>
<path d="M661.301 302.455C661.301 322.981 661.301 343.506 661.301 364.032C661.301 371.495 659.435 374.295 651.038 374.295C639.842 373.362 628.647 373.362 617.451 374.295C608.121 375.228 607.188 370.563 607.188 363.099C607.188 322.981 607.188 281.93 607.188 241.811C607.188 233.415 609.987 231.548 618.384 231.548C660.368 229.682 660.368 229.683 660.368 271.667C661.301 280.997 661.301 292.192 661.301 302.455Z" fill="white"/>
<path d="M635.177 147.585C651.971 147.585 665.032 160.647 664.099 176.508C664.099 192.369 651.038 204.497 634.244 204.497C617.45 204.497 604.388 191.436 604.388 176.508C605.321 160.647 619.316 146.652 635.177 147.585Z" fill="white"/>
</svg>
