<svg width="1278" height="500" viewBox="0 0 1278 500" fill="none" xmlns="http://www.w3.org/2000/svg">
<g clip-path="url(#clip0)">
<path d="M699.8 239.913C681.149 266.104 661.704 291.898 643.45 318.486C633.132 333.962 626.386 333.169 616.068 318.089C597.02 289.914 576.782 262.929 552.178 228.802C552.178 267.294 550.988 299.041 552.575 330.391C553.369 348.645 545.035 350.232 529.956 351.026C512.892 351.82 511.304 343.883 511.304 329.994C512.098 288.723 510.908 247.85 512.098 206.579C512.495 197.452 504.162 181.578 520.828 180.388C535.114 179.197 552.178 172.055 563.686 189.118C581.544 214.912 600.592 239.913 617.656 266.104C627.576 281.183 633.132 278.802 641.862 265.31C657.339 241.5 674.006 218.484 689.879 195.071C696.228 185.944 702.181 179.594 715.276 178.801C738.293 177.213 748.61 181.578 746.626 208.166C743.848 249.04 745.039 290.311 746.229 331.581C746.626 348.248 739.483 350.629 725.594 350.629C711.705 350.629 704.165 349.439 704.959 331.978C706.546 301.819 705.356 271.659 705.356 241.897C703.371 241.103 701.784 240.707 699.8 239.913Z" fill="white"/>
<path d="M1193.06 350.237C1171.63 350.237 1150.21 350.634 1128.38 350.237C1107.35 349.84 1095.44 338.729 1095.44 317.3C1095.05 281.982 1095.05 247.06 1095.44 211.742C1095.84 190.71 1106.55 178.805 1127.98 178.805C1172.03 178.408 1216.08 178.805 1260.13 178.408C1271.64 178.408 1277.59 179.599 1277.99 193.885C1278.38 209.758 1270.84 210.948 1258.54 210.552C1224.41 210.155 1189.89 211.345 1155.76 210.155C1138.7 209.758 1133.54 215.314 1134.33 231.981C1135.52 254.6 1135.52 276.823 1134.33 299.442C1133.54 315.315 1139.89 319.681 1154.57 319.284C1188.7 318.49 1223.22 319.284 1257.35 318.887C1268.86 318.887 1277.59 318.093 1277.99 334.76C1277.99 352.221 1268.46 350.237 1257.35 350.237C1235.92 350.237 1214.49 350.237 1193.06 350.237Z" fill="white"/>
<path d="M1028.77 182.773C1007.35 205.393 987.901 226.822 966.869 247.06C956.155 257.378 955.758 264.521 966.472 275.235C989.488 297.855 1011.31 321.665 1036.71 348.253C1012.11 349.84 991.869 357.777 973.615 336.348C959.329 319.284 941.472 304.998 925.202 289.125C893.852 311.347 880.36 366.507 820.438 347.062C840.676 325.633 858.93 303.411 880.756 284.759C902.185 266.505 899.407 253.41 879.566 237.536C860.518 222.457 841.867 206.583 818.454 187.139C868.058 173.249 872.026 172.853 904.566 212.139C923.217 234.758 935.122 236.346 951.393 212.139C969.25 186.345 991.473 170.075 1028.77 182.773Z" fill="white"/>
<path d="M375.191 381.584H173.997C139.869 381.584 118.44 345.076 135.107 314.916L233.919 141.501C251.776 110.151 296.618 110.151 314.476 141.501L413.287 314.916C430.748 344.282 409.319 381.584 375.191 381.584Z" fill="white" fill-opacity="0.87"/>
<path opacity="0.95" d="M245.03 381.584H43.8358C9.70815 381.584 -11.7208 345.076 4.94615 314.916L103.758 141.501C121.615 110.151 166.457 110.151 184.314 141.501L283.126 314.916C306.539 352.615 327.571 381.584 371.223 381.584" fill="white"/>
</g>
<defs>
<clipPath id="clip0">
<rect width="1278" height="500" fill="white"/>
</clipPath>
</defs>
</svg>
