<svg width="1278" height="500" viewBox="0 0 1278 500" fill="none" xmlns="http://www.w3.org/2000/svg">
<g clip-path="url(#clip0)">
<path d="M-0.64893 249.886C-1.30074 243.531 2.61012 239.457 6.68393 235.383C78.5459 163.684 150.245 91.8224 222.107 19.9604C225.366 16.7013 228.625 13.4423 231.884 10.1832C239.38 3.0133 248.831 2.68741 256.653 9.53141C258.282 10.998 259.749 12.6275 261.216 14.0941C334.218 87.0968 407.058 159.937 480.061 232.939C493.26 246.138 493.26 253.634 479.898 267.159C469.469 277.588 459.203 287.854 448.774 298.283C438.182 308.875 429.22 308.875 418.628 298.446C365.668 245.487 312.709 192.527 259.586 139.567C247.691 127.672 240.521 127.672 228.625 139.567C175.829 192.364 123.032 245.161 70.2354 297.957C58.9917 309.201 50.844 309.201 39.7633 298.283C28.0307 286.551 16.4611 274.818 4.56557 263.248C1.30652 259.337 -1.13779 255.264 -0.64893 249.886Z" fill="white"/>
<path d="M246.061 495.295C239.705 495.295 235.632 493.666 232.21 490.244C188.864 446.899 145.519 403.553 102.174 360.045C94.8407 352.712 94.6778 342.935 102.011 335.439C145.356 291.931 188.701 248.585 232.21 205.24C239.705 197.744 249.32 197.744 256.815 205.077C300.324 248.422 343.669 291.768 387.014 335.276C394.999 343.424 394.347 352.875 385.548 361.837C361.431 386.117 337.151 410.234 313.034 434.351C295.109 452.276 277.347 470.038 259.586 487.962C255.186 492.199 250.786 495.458 246.061 495.295Z" fill="white"/>
<path d="M721.23 194.641C721.23 166.288 721.393 138.749 721.067 111.047C720.904 104.366 723.022 102.736 729.215 103.225C736.547 103.714 743.88 103.714 751.213 103.225C756.917 102.899 758.546 104.529 758.546 110.395C758.22 134.023 758.383 157.651 758.383 181.279C758.383 205.233 758.22 229.024 758.546 252.978C758.546 258.682 756.754 259.659 751.376 260.311C739.806 261.452 731.822 257.378 724 248.905C699.883 223.484 674.789 199.041 650.183 174.272C648.39 172.48 647.25 169.873 645.783 167.591C644.968 168.08 644.154 168.732 643.339 169.221C643.339 184.701 643.339 200.345 643.339 215.825C643.339 228.536 643.339 241.409 643.665 254.119C643.828 258.519 642.687 260.311 637.961 260.148C629.325 259.822 620.525 259.822 611.889 260.148C607.815 260.311 606.186 259.334 606.186 254.771C606.348 206.211 606.348 157.651 606.186 109.091C606.186 104.855 607.489 103.877 611.563 103.388C623.133 102.41 632.095 105.344 640.732 114.306C666.641 141.519 693.854 167.428 721.23 194.641Z" fill="white"/>
<path d="M867.399 261.456C833.994 260.968 805.803 250.213 790.974 217.948C770.28 173.299 787.716 105.348 861.533 101.6C871.636 101.111 881.576 101.6 891.353 104.044C932.417 114.31 954.905 147.227 950.994 191.224C947.572 230.658 917.1 259.338 876.362 261.456C873.428 261.619 870.495 261.456 867.399 261.456ZM822.098 181.773C822.098 203.608 831.876 220.229 848.66 227.236C882.065 241.25 915.144 216.644 912.863 179.491C911.722 161.73 906.019 146.575 889.398 137.613C863.814 124.087 821.935 135.331 822.098 181.773Z" fill="white"/>
<path d="M1133.99 180.792C1133.99 157.163 1133.99 133.535 1133.99 110.07C1133.99 107.137 1132.69 103.226 1138.23 103.389C1163.65 104.204 1189.23 101.271 1214.65 104.856C1254.9 110.559 1279.99 143.15 1277.88 184.051C1276.25 214.849 1264.51 238.966 1235.67 252.654C1225.73 257.379 1215.14 259.661 1204.22 259.661C1183.04 259.824 1161.85 259.498 1140.83 259.823C1135.46 259.823 1133.99 258.194 1134.15 252.979C1134.15 229.025 1133.99 204.909 1133.99 180.792ZM1171.47 181.443C1171.47 195.294 1171.63 209.145 1171.3 222.833C1171.14 227.396 1172.28 229.025 1177.17 228.863C1184.67 228.537 1192.33 228.7 1199.98 228.7C1215.3 228.7 1226.55 221.856 1233.06 208.168C1241.37 191.22 1241.37 173.622 1234.04 156.349C1227.85 141.846 1216.12 134.513 1200.15 134.187C1192.81 134.024 1185.48 134.513 1178.15 134.024C1172.93 133.698 1171.14 135.165 1171.3 140.705C1171.79 154.393 1171.47 167.918 1171.47 181.443Z" fill="white"/>
<path d="M1113.78 259.83C1100.75 259.83 1088.04 259.667 1075.33 259.993C1071.25 260.156 1069.78 257.712 1067.99 254.941C1059.36 240.602 1050.39 226.262 1041.92 211.759C1039.15 207.033 1036.22 205.73 1031 205.73C1013.4 206.056 1013.4 205.73 1013.4 223.654C1013.4 233.921 1013.24 244.349 1013.57 254.615C1013.73 259.015 1012.26 260.156 1008.03 259.993C999.389 259.667 990.59 259.667 981.953 259.993C977.554 260.156 975.924 259.015 975.924 254.29C976.087 205.893 976.087 157.659 976.087 109.262C976.087 106.818 974.947 103.396 979.509 103.559C1006.4 104.373 1033.28 101.44 1060.01 105.188C1081.19 108.121 1096.51 122.624 1100.91 142.015C1105.8 163.525 1098.79 182.591 1080.38 195.301C1076.63 197.908 1076.3 199.701 1078.75 203.448C1090.64 221.536 1102.21 239.95 1113.94 258.2C1113.94 258.2 1113.78 258.526 1113.78 259.83ZM1013.4 153.585C1013.4 158.962 1013.4 164.503 1013.4 169.88C1013.4 171.999 1012.91 174.932 1016.01 174.769C1028.07 174.28 1040.45 177.213 1052.19 171.836C1060.01 168.251 1064.24 160.918 1063.43 152.933C1062.45 144.297 1058.05 138.593 1049.58 135.66C1044.04 133.705 1038.34 134.52 1032.63 134.357C1013.4 134.357 1013.4 134.357 1013.4 153.585Z" fill="white"/>
<path d="M823.89 385.301C823.89 370.147 823.727 355.155 824.053 340C824.053 337.23 821.772 332.668 827.149 332.342C832.853 332.016 830.571 336.904 830.571 339.512C830.734 357.925 830.734 376.339 830.571 394.915C830.571 397.034 832.038 400.293 828.779 401.271C826.009 402.085 824.542 399.478 822.913 397.686C810.691 383.183 798.47 368.68 786.248 354.177C784.13 351.733 782.012 349.289 778.427 345.215C778.427 361.836 778.589 376.665 778.263 391.33C778.101 394.752 781.36 400.945 775.33 401.108C768.324 401.271 771.908 394.59 771.745 391.005C771.257 373.732 771.582 356.296 771.582 338.86C771.582 336.741 770.116 333.482 773.375 332.505C776.308 331.69 777.612 334.46 779.078 336.253C790.648 349.941 802.218 363.629 813.787 377.154C816.394 380.25 819.002 383.183 821.609 386.279C822.424 385.953 823.238 385.627 823.89 385.301Z" fill="white"/>
<path d="M1005.26 345.705C1005.26 363.304 1005.26 378.948 1005.26 394.591C1005.26 397.198 1006.89 401.272 1001.83 401.272C996.62 401.272 998.575 397.198 998.575 394.591C998.412 376.34 998.412 358.253 998.575 340.002C998.575 337.558 997.109 333.973 999.879 332.669C1003.46 331.04 1005.09 334.625 1006.89 336.906C1018.62 350.757 1030.35 364.608 1042.08 378.622C1044.36 381.392 1046.97 384.162 1050.72 388.399C1050.72 370.637 1050.56 354.994 1050.88 339.513C1050.88 336.906 1048.76 332.18 1054.47 332.506C1059.36 332.832 1057.4 336.906 1057.56 339.513C1057.73 357.927 1057.73 376.34 1057.56 394.917C1057.56 397.035 1059.03 400.294 1055.77 401.272C1052.84 402.25 1051.53 399.48 1050.07 397.687C1036.54 381.718 1023.18 365.749 1009.66 349.779C1008.68 348.639 1007.54 347.824 1005.26 345.705Z" fill="white"/>
<path d="M947.245 398.66C947.734 399.801 947.571 400.942 946.267 401.105C944.475 401.431 942.193 401.919 940.89 400.453C939.749 399.149 938.772 397.194 938.283 395.401C936.164 384.972 929.646 381.55 919.543 383.343C917.425 383.669 915.143 383.669 913.025 383.343C901.455 381.387 892.982 384.158 890.7 397.194C890.049 400.616 887.278 402.571 884.019 401.105C880.597 399.638 883.205 397.031 884.019 395.075C892.33 376.01 900.641 356.945 908.951 337.879C910.092 335.272 910.744 332.176 914.817 332.176C918.891 332.176 919.38 335.272 920.521 337.879C928.831 356.945 937.305 376.01 945.616 395.075C946.43 396.216 946.756 397.52 947.245 398.66ZM914.98 341.138C909.929 352.708 905.855 362.322 901.618 371.936C900.478 374.543 899.011 377.151 903.9 377.151C912.373 376.988 920.847 377.151 930.298 377.151C925.246 364.929 920.521 354.011 914.98 341.138Z" fill="white"/>
<path d="M1220.19 366.399C1220.19 356.948 1220.35 347.334 1220.03 337.883C1219.86 333.157 1221.66 331.854 1226.22 331.854C1236.49 332.016 1246.91 331.853 1257.18 332.016C1259.46 332.016 1262.4 331.365 1262.4 335.275C1262.4 339.349 1259.14 338.046 1257.02 338.209C1249.68 338.372 1242.35 338.209 1235.02 338.209C1233.39 338.209 1230.95 337.557 1230.29 338.372C1224.75 344.401 1228.83 352.06 1227.69 358.904C1227.03 362.814 1229.97 363.14 1232.9 363.14C1240.56 363.14 1248.06 363.14 1255.71 363.14C1257.83 363.14 1260.28 362.977 1260.44 366.236C1260.6 369.658 1258 369.333 1256.04 369.333C1248.38 369.333 1240.89 369.496 1233.23 369.333C1228.99 369.17 1227.69 370.473 1227.52 374.873C1226.55 395.568 1226.55 395.568 1247.24 395.568C1251.64 395.568 1255.88 395.568 1260.28 395.568C1262.56 395.568 1263.86 396.546 1263.7 398.99C1263.54 401.108 1262.23 401.76 1260.44 401.76C1248.22 401.76 1236 401.76 1223.78 401.76C1219.54 401.76 1220.03 398.664 1220.03 396.057C1220.19 385.954 1220.19 376.177 1220.19 366.399Z" fill="white"/>
<path d="M1165.44 390.841C1167.07 395.404 1165.11 397.196 1161.69 398.826C1148.33 405.507 1129.43 401.433 1120.14 389.863C1110.2 377.479 1110.2 355.806 1120.14 343.585C1129.43 332.015 1148.17 327.941 1161.69 334.622C1164.95 336.252 1167.07 338.207 1165.44 342.607C1156.64 337.881 1147.35 335.6 1137.57 339.022C1132.36 340.814 1128.12 344.237 1125.03 348.962C1118.02 359.717 1119 377.805 1126.98 387.256C1135.78 397.359 1148.98 398.663 1165.44 390.841Z" fill="white"/>
<path d="M612.378 366.072C612.378 356.621 612.541 347.007 612.378 337.556C612.215 333.319 613.682 331.852 617.919 331.852C627.37 332.015 636.984 331.852 646.435 331.852C648.88 331.852 651.65 331.526 651.487 335.437C651.324 339.022 648.554 337.882 646.598 338.045C639.591 338.207 632.421 338.37 625.414 338.045C621.178 337.882 620.037 339.511 619.874 343.585C618.896 365.095 618.896 365.095 639.754 365.095C641.384 365.095 643.013 365.095 644.643 365.095C646.435 365.095 647.739 365.421 647.902 367.702C648.065 370.309 646.598 370.961 644.48 370.961C639.265 370.961 634.051 371.45 628.999 370.798C621.015 369.82 619.059 373.242 619.711 380.412C620.2 385.464 619.711 390.678 619.874 395.893C619.874 398.826 619.874 401.433 615.8 401.27C612.052 401.107 612.378 398.5 612.378 396.056C612.378 386.278 612.378 376.175 612.378 366.072Z" fill="white"/>
<path d="M711.942 367.375C711.942 376.826 711.942 386.277 711.942 395.891C711.942 398.499 712.594 401.595 708.194 401.432C704.283 401.269 705.261 398.173 705.261 396.054C705.261 376.5 705.261 357.109 705.261 337.554C705.261 335.273 704.609 332.503 708.52 332.34C712.268 332.34 712.105 334.784 712.105 337.391C711.942 347.331 711.942 357.272 711.942 367.375Z" fill="white"/>
</g>
<defs>
<clipPath id="clip0">
<rect width="1278" height="500" fill="white"/>
</clipPath>
</defs>
</svg>
