<svg width="1278" height="500" viewBox="0 0 1278 500" fill="none" xmlns="http://www.w3.org/2000/svg">
<g clip-path="url(#clip0)">
<path d="M456.029 150.338C455.986 151.845 455.943 153.351 455.9 154.857C455.9 155.093 455.879 155.309 455.879 155.545C455.836 156.557 455.793 157.589 455.771 158.601C453.275 157.934 453.017 159.461 453.06 161.333C450.263 161.311 447.488 161.29 444.691 161.268C444.712 159.762 444.906 158.149 442.539 158.407C442.345 158.428 441.893 157.955 441.915 157.74C442.195 155.093 440.022 155.846 438.731 155.416V155.438C439.505 152.856 437.784 152.77 436.02 152.748C435.998 151.371 436.278 149.779 433.954 150.123C433.222 150.231 433.158 149.521 433.223 148.983C433.373 147.692 432.835 147.197 431.566 147.326C431.006 147.391 430.425 147.197 430.447 146.509C430.511 144.959 429.952 144.4 428.317 144.271C426.789 144.142 427.822 142.464 427.306 141.625C427.714 139.236 426.38 138.87 424.38 138.806C422.228 138.741 421.711 139.688 421.97 141.538L421.991 141.56C419.108 141.668 416.246 144.508 416.053 147.455C413.944 147.111 413.062 148.015 413.342 150.102L413.32 150.123C411.814 150.08 410.717 150.08 409.899 152.038C409.426 153.157 407.769 154.835 406.672 155.266C404.714 156.04 404.714 157.159 404.714 158.665L404.692 158.708C402.648 158.428 401.745 159.289 402.024 161.355L401.981 161.376C399.916 161.139 398.453 161.591 398.883 164.152C398.883 164.324 398.905 164.496 398.905 164.668C398.905 165.378 398.926 166.066 398.926 166.777C398.969 167.809 398.991 168.821 399.034 169.853C398.431 172.177 399.55 172.93 401.702 172.736C401.831 173.64 401.938 174.544 402.067 175.426C401.766 177.427 402.519 178.438 404.649 178.137C404.735 179.148 404.8 180.159 404.886 181.171C404.37 183.344 405.273 184.247 407.446 184.011C407.489 184.871 407.533 185.711 407.576 186.571C407.619 187.604 407.102 188.83 408.049 189.626C409.792 191.068 410.33 192.961 410.265 195.07C410.201 197.157 411.061 198.254 413.256 198.061C413.32 198.921 413.363 199.803 413.428 200.664C413.449 201.697 413.492 202.751 413.514 203.784C413.019 205.914 413.901 206.818 416.031 206.602C416.074 207.463 416.117 208.345 416.16 209.206C416.16 210.26 416.246 211.314 416.139 212.369C415.924 214.391 416.763 215.338 418.807 215.166C418.828 216.048 418.85 216.909 418.871 217.791C418.871 218.027 418.893 218.264 418.893 218.479C418.893 218.953 418.893 219.426 418.893 219.921C418.893 220.157 418.914 220.373 418.914 220.609C418.936 221.427 418.979 222.245 419.001 223.062C418.958 224.116 418.979 225.171 418.85 226.225C418.527 228.57 419.581 229.474 421.841 229.216C421.905 230.098 421.97 230.958 422.034 231.841C422.034 233.799 422.034 235.778 422.034 237.736C422.056 239.5 422.056 241.286 422.077 243.05C422.056 245.977 422.142 248.903 421.991 251.829C421.905 253.808 422.637 254.647 424.595 254.432C424.595 261.769 424.616 269.085 424.616 276.422C423.153 276.379 421.97 276.529 422.013 278.53C422.142 282.726 422.12 286.921 422.163 291.138C422.12 293.053 422.077 294.968 422.034 296.883C422.034 298.669 422.034 300.455 422.034 302.262C421.991 303.295 421.97 304.328 421.927 305.382C421.324 306.07 419.797 305.576 419.797 307.039C419.797 309.448 418.699 311.751 418.979 314.182C418.957 314.849 418.957 315.516 418.936 316.161C418.936 316.377 418.914 316.592 418.914 316.807C418.871 317.689 418.828 318.55 418.785 319.432C416.053 319.088 416.01 320.787 416.246 322.724C416.246 324.337 415.816 325.93 416.16 327.543C416.096 328.576 416.053 329.609 415.988 330.663C413.708 330.211 413.084 331.395 413.299 333.396C412.653 334.364 413.471 335.827 412.309 336.558C410.179 337.914 409.985 339.807 410.631 342.002C410.566 342.863 410.502 343.723 410.416 344.562C408.242 344.541 407.296 345.617 407.489 347.79C407.576 348.736 407.511 349.705 407.533 350.673C407.489 351.534 407.468 352.394 407.425 353.255C405.144 352.889 404.413 353.922 404.865 356.052C404.822 356.913 404.757 357.773 404.714 358.612C402.562 358.591 401.508 359.516 401.659 361.797C401.723 362.614 401.96 364.034 401.185 364.249C397.635 365.196 399.163 367.907 398.948 370.016C398.948 370.166 398.905 370.317 398.819 370.446C396.495 370.016 395.914 371.221 396.258 373.243C396.215 374.104 396.194 374.964 396.151 375.825C394.171 375.61 393.095 376.298 393.483 378.471C392.536 379.246 393.181 380.322 392.988 381.226C392.192 381.634 390.664 381.075 390.621 382.323C390.535 384.603 389.072 384.41 387.609 384.474C386.77 384.431 385.931 384.388 385.091 384.345C385.221 382.022 384.059 381.182 381.886 381.527C381.843 381.419 381.778 381.333 381.713 381.247C382.23 378.837 380.917 378.364 378.916 378.622C378.077 378.579 377.217 378.558 376.378 378.515C376.614 376.406 375.904 375.309 373.602 375.933C373.451 375.89 373.301 375.846 373.15 375.76C373.473 373.566 372.376 372.899 370.396 373.178C368.331 373.437 367.169 372.813 367.793 370.489C370.073 370.575 370.826 369.392 370.482 367.262C370.504 366.422 370.547 365.562 370.568 364.723C372.419 364.701 374.032 364.465 373.215 361.926L373.344 361.99C375.818 362.141 376.7 360.914 376.291 358.569C376.334 357.73 376.377 356.869 376.42 356.03C378.723 356.439 379.39 355.32 379.002 353.233C379.045 352.394 379.089 351.534 379.153 350.694C381.219 350.78 382.596 350.221 381.864 347.747C382.337 346.951 382.144 346.069 382.187 345.208C384.381 345.165 385.328 344.132 384.855 341.916C384.898 341.055 384.962 340.216 385.005 339.356C387.781 339.786 387.932 338.108 387.63 336.064C387.652 335.375 387.673 334.665 387.695 333.977C389.803 333.869 391.051 333.094 390.341 330.706C390.406 329.845 390.492 329.006 390.556 328.146C392.794 328.06 394.193 327.371 393.009 324.789C392.708 322.96 393.741 321.282 393.59 319.475C396.022 319.948 396.538 318.722 396.129 316.656C396.172 315.796 396.215 314.935 396.258 314.053C398.281 314.074 398.905 313.042 398.969 311.084C399.012 309.083 398.496 306.501 399.959 305.231C402.024 303.467 402.111 301.595 401.874 299.358C401.895 297.593 401.917 295.829 401.938 294.065L402.11 294.129C404.111 294.409 405.058 293.634 404.822 291.526C404.692 290.407 404.757 289.267 404.735 288.148C404.735 286.362 404.757 284.598 404.757 282.812C404.8 280.875 404.843 278.917 404.886 276.981C406.78 277.132 407.554 276.357 407.489 274.356C407.36 270.548 407.468 266.739 407.468 262.953C407.468 256.347 407.468 249.763 407.446 243.158C407.468 240.21 407.403 237.284 407.533 234.336C407.619 232.357 406.887 231.496 404.908 231.776C404.843 229.108 404.778 226.462 404.714 223.794C404.735 222.739 404.735 221.685 404.757 220.609C404.219 217.597 406.672 213.81 402.412 211.745C402.154 211.616 402.261 210.734 402.24 210.196C402.197 208.948 402.067 207.7 402.154 206.452C402.304 204.214 401.465 203.031 399.098 203.268C399.012 202.407 398.926 201.546 398.862 200.664C398.862 199.76 398.862 198.878 398.883 197.975C399.335 195.866 398.539 194.898 396.344 195.199C396.301 194.166 396.258 193.112 396.215 192.079C396.645 187.152 396.538 186.937 393.547 186.657C393.504 185.818 393.461 184.958 393.418 184.118C393.612 179.923 393.203 179.127 390.556 178.481C390.513 178.309 390.449 178.137 390.406 177.965C391.008 175.878 390.255 174.91 388.061 175.275C386.641 175.512 384.64 174.91 384.747 177.491C384.769 177.943 384.188 178.158 383.736 178.158C382.553 178.158 381.929 178.675 381.907 179.901C381.907 180.482 381.584 181.063 381.025 181.063C378.809 181.02 379.067 182.591 379.046 183.989C376.851 183.623 375.947 184.506 376.378 186.7C376.399 188.637 376.421 190.573 376.442 192.51C376.442 193.413 376.42 194.317 376.42 195.199C376.033 197.265 376.808 198.254 378.959 197.975C379.024 198.857 379.067 199.717 379.132 200.6C379.132 201.632 379.153 202.687 379.153 203.719C379.11 204.688 379.132 205.656 379.024 206.602C378.787 208.733 379.777 209.464 381.778 209.184H381.95C381.907 210.067 381.864 210.949 381.821 211.831C381.477 213.853 381.929 215.833 382.165 217.834C381.713 218.759 381.649 219.663 382.273 220.523C382.015 222.417 382.617 223.535 384.769 223.234C384.833 223.772 384.898 224.289 384.962 224.826C384.984 229.087 385.027 233.347 385.048 237.628C385.048 246.106 385.07 254.583 385.07 263.06C385.048 265.9 385.027 268.762 385.005 271.602C384.984 274.464 384.984 277.304 384.962 280.165L384.812 280.101C383.047 279.95 382.359 280.768 382.122 282.511C381.713 285.523 381.735 288.513 381.843 291.526C381.907 292.408 381.95 293.29 382.015 294.194L381.864 294.215C379.906 293.957 378.873 294.646 379.11 296.776C379.218 297.722 379.175 298.69 379.196 299.637C379.175 300.691 379.175 301.724 379.153 302.779C379.11 303.661 379.067 304.521 379.024 305.403C377.238 305.296 376.227 305.92 376.399 307.921C376.485 309.04 376.378 310.18 376.356 311.299C376.313 312.181 376.27 313.063 376.227 313.967C374.097 313.666 373.365 314.698 373.667 316.678C373.624 317.56 373.58 318.421 373.559 319.303C372.72 320.12 373.344 321.175 373.086 322.078C370.159 321.605 370.461 323.563 370.568 325.392C370.525 326.231 370.461 327.092 370.396 327.931C368.051 327.479 367.448 328.641 367.814 330.706C367.771 331.567 367.707 332.427 367.664 333.288C365.297 333.051 364.673 334.342 364.996 336.408C364.716 337.72 365.512 339.571 362.93 339.657C362.543 339.678 362.22 341.937 361.897 343.185C361.747 343.723 362.134 344.713 361.23 344.627C358.928 344.412 359.208 345.939 359.165 347.316C357.013 347.316 355.98 348.285 356.454 350.522C356.325 351.921 356.669 353.448 354.216 353.341C352.731 353.276 353.829 355.127 353.269 355.923C351.161 355.686 350.107 356.418 350.666 358.698C350.623 358.827 350.558 358.978 350.494 359.107C348.321 358.741 347.589 359.774 347.847 361.797C345.954 361.711 345.029 362.593 345.201 364.508C344.62 365.626 345.309 367.735 342.791 367.369C341.974 367.24 342.103 368.23 342.06 368.811C342.017 369.413 342.124 370.338 341.307 370.252C338.961 369.994 339.392 371.694 339.198 372.985C337.111 372.705 336.014 373.415 336.509 375.696H336.53C334.486 375.524 332.937 375.89 333.432 378.493L333.41 378.515C331.883 378.45 330.269 378.256 330.613 380.645C330.656 381.032 330.334 381.376 329.968 381.312C327.321 380.795 328.053 383.162 327.386 384.324C326.116 384.302 324.847 383.936 324.804 386.088C324.782 387.895 322.997 386.604 322.136 387.099C320.049 386.755 319.038 387.53 319.382 389.746C319.274 389.875 319.167 389.961 319.038 390.047C316.865 389.445 316.241 390.391 316.671 392.414L316.714 392.457C314.326 392.156 313.314 393.554 312.884 395.62C312.196 395.641 311.507 395.663 310.819 395.663C308.818 395.361 307.72 396.028 308.065 398.245L308.108 398.331C306.042 398.051 304.45 398.331 304.88 401.02C304.02 401.063 303.18 401.085 302.32 401.128C300.362 400.891 298.963 401.257 299.523 403.71C298.275 404.398 296.166 403.43 295.908 406.248C295.822 407.174 292.724 406.894 290.981 406.958C288.958 406.657 287.388 406.98 287.667 409.583L287.732 409.691C286.85 409.691 285.968 409.691 285.086 409.669C282.955 409.239 282.009 410.078 282.288 412.251L282.353 412.359C280.051 412.596 277.017 411.326 276.436 415.156C275.576 415.221 274.693 415.285 273.833 415.35C272.004 415.005 269.573 415.199 268.819 416.318C267.744 417.953 266.517 417.91 265.097 418.168C264.215 418.19 263.311 418.19 262.429 418.211C260.493 417.996 258.772 418.082 259.159 420.793C258.277 420.836 257.416 420.901 256.534 420.944C254.748 420.965 252.984 420.965 251.198 420.987C249.24 420.729 247.476 420.707 247.863 423.526C246.981 423.547 246.099 423.569 245.217 423.612C245.023 423.612 244.829 423.612 244.614 423.633C243.775 423.655 242.914 423.698 242.075 423.719C238.353 423.741 234.631 423.762 230.887 423.762C228.864 423.719 226.842 423.676 224.841 423.612C222.862 423.569 221.893 424.494 222.022 426.495C215.417 426.732 208.833 426.775 202.228 426.452C202.529 424.107 201.41 423.289 199.194 423.569C198.333 423.676 197.473 423.676 196.591 423.741C192.675 423.719 188.78 423.698 184.865 423.655C183.1 423.612 181.357 423.569 179.593 423.504C179.959 420.75 178.216 420.707 176.28 420.944C174.494 420.944 172.73 420.944 170.944 420.944C169.889 420.901 168.835 420.858 167.802 420.836C167.286 417.265 164.554 418.297 162.359 418.233C161.326 418.168 160.315 418.104 159.282 418.061C158.594 414.661 155.904 415.393 153.602 415.307C152.763 415.264 151.902 415.221 151.063 415.178C150.095 412.101 147.491 412.488 145.125 412.402C144.264 412.359 143.403 412.294 142.543 412.251C142.844 410.035 141.94 409.153 139.746 409.713C138.734 409.648 137.723 409.583 136.734 409.519C137.207 407.088 135.98 406.528 133.893 406.958C133.054 406.915 132.237 406.872 131.397 406.829C131.72 404.054 129.934 403.86 127.912 403.989C127.137 403.925 126.341 403.882 125.567 403.817C125.481 403.602 125.416 403.365 125.33 403.15C125.975 400.461 123.846 401.343 122.619 401.042C122.748 399.041 122.124 397.836 119.822 398.46C118.509 398.115 116.552 399.041 116.595 396.265C116.616 395.125 114.938 395.964 114.099 395.598C114.077 393.791 113.841 392.199 111.345 392.952L111.388 392.866C111.495 390.477 110.463 389.337 108.01 389.832C106.762 389.681 105.213 390.327 105.299 387.874C105.342 386.346 103.599 387.465 102.738 387.078C102.889 384.84 101.878 383.872 99.64 384.281V384.259C99.9627 382.151 99.2312 381.096 96.9505 381.613V381.548C97.1657 379.418 96.5633 378.084 94.0675 378.601L94.0459 378.579C94.2396 376.6 93.7447 375.33 91.378 375.911C91.2489 375.846 91.1198 375.782 90.9907 375.739C91.4856 373.437 90.3237 372.813 88.3012 373.071H88.2797C88.4948 371.113 88.0646 369.757 85.6333 370.36L85.6117 370.381C85.4181 368.983 86.1927 366.96 83.4601 367.176C82.578 367.24 82.7931 366.315 82.7285 365.756C82.664 365.132 82.7285 364.443 81.7603 364.572C79.372 364.959 79.7593 363.217 79.6303 361.84C79.8884 359.839 79.1785 358.784 77.0054 359.129C76.9408 359 76.8763 358.849 76.8547 358.72C77.4572 356.375 76.2308 355.772 74.1868 355.987C73.821 354.761 74.3589 353.061 71.9061 353.147C70.5937 353.19 71.6049 351.34 71.067 350.501C71.4973 348.285 70.529 347.273 68.3344 347.359L68.2484 347.402C68.8508 345.122 67.8396 344.347 65.6665 344.627C65.6234 343.788 65.5589 342.927 65.5158 342.088C65.9892 339.743 64.8703 338.904 62.6542 339.119C62.5896 338.237 62.5467 337.355 62.4821 336.472C62.8049 334.385 62.1809 333.116 59.8142 333.331C59.7712 332.47 59.7066 331.61 59.6636 330.749C60.0509 328.684 59.3408 327.586 57.0816 327.974C57.0386 327.113 56.9956 326.274 56.931 325.413C57.3398 323.068 56.6943 321.605 53.9403 322.014C53.8757 321.153 53.8112 320.314 53.7252 319.453C53.6606 318.205 54.5213 316.29 52.0039 316.721C50.4548 316.979 51.2508 318.421 51.0141 319.346C49.7662 319.518 47.9158 318.808 48.3031 321.304C48.4107 322.014 47.7867 322.186 47.2273 322.121C45.9579 321.992 45.9795 323.025 45.3985 323.67C44.1076 325.155 42.7306 326.747 41.1169 327.802C40.2993 328.318 39.6968 328.468 39.7829 329.501C39.8259 330.039 39.8259 330.706 39.0728 330.642C37.5237 330.491 36.7276 330.943 36.8997 332.664C36.9643 333.331 36.2973 333.482 35.7379 333.417C34.4685 333.31 33.9305 333.869 34.0165 335.117C34.0811 335.848 33.8014 336.386 32.9838 336.322C31.5422 336.193 31.0474 336.86 31.2195 338.194C31.241 338.28 31.198 338.452 31.198 338.452C28.6806 338.344 29.0465 341.873 26.7443 341.98C25.9697 342.024 25.5609 342.282 25.6469 343.078C25.776 344.326 25.2596 344.928 23.9686 344.778C23.7965 344.756 23.4523 344.799 23.4523 344.821C23.4953 347.295 20.2034 347.166 19.9236 349.36C19.8591 349.812 19.8161 350.501 19.3857 350.415C16.8899 349.941 17.1481 351.921 16.6963 353.276C14.3295 352.717 13.7056 353.857 14.0283 355.966C12.7374 356.073 10.9731 355.428 11.2528 357.859C11.3174 358.333 11.0591 358.806 10.5427 358.763C8.13297 358.526 8.36971 360.14 8.45577 361.668L8.43423 361.689C6.17506 361.302 5.29282 362.399 5.37888 364.529C4.49673 364.508 3.61464 364.486 2.75401 364.465C3.0122 362.356 2.13 361.474 0.0214454 361.861L-9.15527e-05 361.883C0.0214243 359.903 0.0214664 357.924 0.0429823 355.944C2.32367 356.439 3.01218 355.342 2.73247 353.255C4.77648 353.513 5.98139 352.954 5.44349 350.587H5.46503C7.44449 350.737 8.90753 350.286 8.64934 347.833C10.9946 348.005 11.6831 346.757 11.3604 344.648H11.3819C13.512 344.971 14.3941 344.068 14.0499 341.959H14.0714C16.933 341.873 19.8592 338.968 19.9883 336.064V336.042C22.1398 336.386 22.8929 335.354 22.6562 333.331C22.6992 331.846 22.5056 330.168 24.9154 330.62C25.4102 330.706 25.647 330.254 25.6685 329.759C25.69 329.415 25.6899 328.748 25.733 328.748C28.1643 328.662 28.2073 325.908 30.0146 324.94C31.5638 324.101 32.4244 322.1 34.0596 321.024C34.2102 320.938 34.0166 320.357 33.9951 320.013C35.3937 319.217 37.911 319.475 37.0934 316.656L37.1148 316.635C39.2234 317.022 40.2777 316.29 39.8474 314.031C41.8268 313.945 43.2469 313.343 42.666 310.933L42.5369 310.804L42.6875 310.933C44.086 310.847 45.9364 311.428 45.6567 308.889C45.6137 308.502 45.8933 308.136 46.2591 308.179C49.1852 308.459 48.3462 306.393 48.3677 304.866C48.3677 304.026 48.3677 303.187 48.3462 302.327C48.3677 301.294 48.3031 300.24 48.4107 299.228C48.6258 297.184 47.5501 296.625 45.7643 296.84C45.6782 295.893 45.6137 294.947 45.5276 294C45.9579 292.193 45.2479 290.385 45.4201 288.578C45.8719 286.491 45.6352 284.425 45.3554 282.317C45.1188 280.553 44.1937 280.144 42.7306 280.122C42.6445 277.304 42.5585 274.464 42.4724 271.645C42.4724 269.687 42.4509 267.729 42.4509 265.771C42.4293 256.412 42.4293 247.052 42.4078 237.693C42.4293 235.735 42.4509 233.777 42.4724 231.819C42.4724 230.033 42.4724 228.247 42.4724 226.462C42.4724 224.504 42.4938 222.524 42.4938 220.566L42.6444 220.631C44.3442 220.695 45.1403 220.007 45.377 218.2C45.6567 216.048 45.7428 213.939 45.5707 211.809C45.5492 210.927 45.5061 210.067 45.4845 209.184C45.5706 208.324 45.6567 207.463 45.7427 206.602C47.8728 206.861 48.6474 205.871 48.4537 203.827C48.3462 202.773 48.4107 201.697 48.4107 200.621C48.3892 199.739 48.3677 198.857 48.3677 197.975C48.4323 197.092 48.4752 196.232 48.5398 195.35C50.6483 195.565 51.6166 194.726 51.0788 192.553C51.1003 191.52 51.1433 190.466 51.1648 189.433C51.2723 188.099 51.4014 186.765 51.5305 185.431C51.5735 185.001 51.509 184.269 51.9608 184.29C54.4567 184.42 53.7251 182.44 54.1124 181.171C54.4997 179.923 53.8328 178.374 56.1565 177.75C57.3614 177.427 56.9956 174.565 57.1247 172.801C59.2763 173.059 60.2874 172.285 59.7065 170.025C59.7926 169.014 59.8572 168.003 59.9433 166.992C62.2455 167.4 62.9124 166.303 62.5251 164.216C62.5681 163.377 62.6327 162.559 62.6757 161.72C64.6767 161.72 66.2474 161.312 65.5589 158.73L65.6665 158.773C67.6674 158.923 68.8724 158.321 68.2915 156.019C68.356 155.007 68.399 153.975 68.4635 152.963C70.5936 153.265 71.6695 152.533 71.11 150.231L71.2176 150.274C73.821 150.554 74.6386 149.263 74.2513 146.874C74.2943 146.057 74.3373 145.218 74.3804 144.4C76.8332 144.959 77.3066 143.669 77.0054 141.625L77.0699 141.668C79.1999 141.969 80.1682 141.151 79.7164 138.935L79.7378 138.956C81.7603 139.107 82.9007 138.44 82.3197 136.159L82.3413 136.181C84.8371 136.547 86.0421 135.579 85.6117 132.954C85.6548 131.598 85.2459 129.898 87.6127 130.307C87.6557 127.962 90.4528 127.897 91.1198 126.133C91.378 125.423 91.378 124.691 92.3462 124.778C93.7448 124.907 93.7662 123.379 94.261 123.078C96.0253 122.002 96.6063 119.743 98.6288 119.076C99.0161 118.947 99.7907 119.076 99.7046 118.602C99.1452 115.848 101.749 116.601 102.803 115.676C105.449 117.139 105.643 115.612 105.449 113.546L105.428 113.503C107.665 113.804 108.698 112.879 108.333 110.599L108.311 110.512C110.57 110.964 111.603 110.018 111.474 107.758C112.184 107.737 112.894 107.737 113.582 107.715C116.422 108.146 116.96 104.337 119.65 104.445C119.714 104.445 119.865 103.972 119.865 103.713C119.908 102.487 120.769 102.487 121.672 102.272C123.372 101.842 125.459 101.734 125.481 99.1952L125.459 99.1521C127.568 99.5394 128.687 98.8939 128.256 96.5702C129.267 96.5057 130.279 96.4411 131.29 96.3766C133.442 96.8499 134.388 95.9893 134.087 93.7946C134.926 93.7516 135.787 93.7086 136.626 93.6656C138.863 94.0528 140.24 93.3859 140.111 90.847C140.8 90.8255 141.488 90.7824 142.177 90.7609C144.565 91.4709 145.813 90.7609 145.469 88.0929C146.48 87.9854 147.513 87.8993 148.524 87.7917C150.719 88.3726 151.687 87.5551 151.364 85.2744C153.129 85.2313 154.871 85.1883 156.636 85.1453C158.551 85.3174 160.422 85.4465 159.928 82.5633C160.788 82.5203 161.649 82.4558 162.51 82.4127C163.607 82.5418 164.704 82.6494 165.758 82.2621C167.802 81.9824 170.513 83.0582 171.008 79.6802L171.051 79.6372C173.095 79.5941 175.139 79.422 177.183 79.5726C179.356 79.7232 180.023 78.7335 179.916 76.7971C181.831 76.7541 183.746 76.6895 185.682 76.6465C187.49 77.1198 189.275 76.625 191.061 76.5819C193.019 76.5604 194.977 76.5604 196.913 76.5389C198.936 76.5389 200.98 76.4313 203.002 76.5819C205.003 76.7325 205.756 75.8934 205.606 74C213.115 74 220.624 74 228.133 74C227.961 75.9149 228.779 76.668 230.736 76.5819C233.641 76.4528 236.567 76.5604 239.472 76.5819C240.548 76.5819 241.624 76.5604 242.699 76.5604C244.829 76.6249 246.981 76.5819 249.111 76.8186C250.875 77.0122 253.113 76.3883 253.952 78.9272C254.146 79.4866 254.899 79.2714 255.394 79.3144C257.158 79.465 258.944 79.5081 260.708 79.7448C262.429 79.9599 264.43 79.5081 265.226 81.9609C265.549 82.9506 267.034 82.1331 267.937 82.5203C267.615 85.1453 269.228 85.4034 271.208 85.1668C272.112 85.1668 272.994 85.1668 273.897 85.1453C274.779 85.1883 275.64 85.2313 276.522 85.2744C276.372 87.1247 277.103 87.9638 279.083 88.0714C280.18 88.136 281.88 87.7487 282.396 89.1902C282.955 90.7824 284.117 90.4382 285.215 90.5027C286.269 90.9546 287.409 90.8039 288.507 90.8685C289.346 90.976 290.206 91.0836 291.045 91.2127C290.335 93.8807 292.035 93.8162 293.821 93.6656C295.176 93.8807 296.79 93.4289 296.833 95.8817C296.855 96.9575 298.727 96.0969 299.652 96.5702C299.286 98.7864 300.362 99.4748 302.384 99.1521C303.223 99.1951 304.084 99.2381 304.923 99.2812C304.687 101.777 306.279 102.293 308.258 102.401L308.215 102.487C307.828 104.832 309.183 105.241 311.077 105.004C311.916 105.026 312.776 105.069 313.616 105.09C313.314 107.242 314.046 108.275 316.348 107.694C316.477 107.78 316.606 107.845 316.757 107.866C316.241 110.233 317.445 110.814 319.511 110.512L319.49 110.577C319.683 113.374 322.523 116.042 325.557 116.3C326.719 116.365 328.246 115.848 328.01 117.978C327.924 118.775 328.311 119.162 329.086 119.054C330.484 118.861 331.065 119.42 330.871 120.819C330.807 121.249 330.871 121.851 331.452 121.787C333.217 121.593 333.862 122.411 333.69 124.068C336.229 123.938 336.121 127.252 338.273 127.575C339.004 127.682 339.521 127.833 339.392 128.65C339.198 130.07 339.8 130.393 341.177 130.458C342.985 130.522 341.758 132.136 342.189 132.954C341.737 135.471 342.877 136.482 345.309 136.267L345.352 136.224C344.706 138.591 346.105 139 347.977 138.956L348.019 138.913C347.525 141.173 348.493 141.99 350.688 141.646C350.709 142.334 350.752 143.023 350.774 143.69C350.752 143.905 350.709 144.12 350.688 144.335C350.58 146.358 350.946 147.929 353.571 147.369L353.657 147.348C352.99 149.908 354.453 150.381 356.518 150.274C356.561 151.135 356.626 151.974 356.669 152.834C356.346 154.878 357.099 155.911 359.272 155.61H359.315C358.993 157.697 359.251 159.311 362.005 158.816C362.026 159.504 362.069 160.193 362.091 160.881C361.79 163.269 362.521 164.646 365.232 164.195C367.62 164.84 368.18 163.592 367.986 161.548C369.385 161.462 371.171 161.978 370.848 159.461C370.826 159.246 371.257 158.751 371.429 158.751C373.946 158.966 373.408 156.879 373.86 155.567L373.882 155.588C375.667 155.933 376.98 155.739 376.399 153.394C376.442 152.339 376.485 151.285 376.528 150.209C376.808 148.122 376.076 147.046 373.817 147.52L373.688 147.584C373.796 145.497 373.236 144.013 370.74 144.12C370.697 143.281 370.654 142.442 370.611 141.603C371.02 139.451 370.095 138.591 367.986 138.849L367.9 138.913C368.18 136.934 367.793 135.535 365.318 136.116C364.953 134.675 365.426 132.76 362.758 132.803C361.876 132.824 362.607 131.06 362.048 130.286C362.521 128.048 361.445 127.338 359.401 127.575L359.358 127.618C359.681 125.552 359.1 124.369 356.734 124.864C356.411 123.508 356.776 121.658 354.367 121.894C353.721 121.959 353.528 121.292 353.571 120.733C353.678 119.506 353.291 119.011 351.935 118.99C349.891 118.968 351.204 117.225 350.731 116.365C350.709 115.418 350.666 114.493 350.645 113.546L350.666 113.568C352.624 113.546 354.539 112.815 356.54 113.159L356.583 113.245C356.432 115.289 356.927 116.709 359.423 116.257V116.236C359.036 118.301 359.875 119.248 361.983 119.097C361.919 121.313 363.167 121.98 365.146 121.765L365.211 121.83C364.953 123.938 365.684 125.143 368.008 124.885L368.029 124.864C367.513 127.166 368.61 127.854 370.697 127.553L370.719 127.532C370.504 129.49 370.934 130.845 373.365 130.243L373.451 130.2C373.494 132.157 373.946 133.685 376.464 133.126C376.636 134.567 376.012 136.396 378.744 136.246C379.712 136.202 378.959 137.924 379.325 138.784C378.981 140.914 379.756 141.947 382.015 141.495L382.079 141.452C382.294 142.786 381.498 144.809 384.145 144.486C385.974 144.249 388.34 144.68 387.824 141.517L387.867 141.56C389.911 141.818 390.987 141.087 390.556 138.87C390.944 137.536 390.729 135.794 393.052 136.009C393.784 136.073 393.719 135.105 393.741 134.481C393.762 133.943 393.719 133.233 394.429 133.276C396.021 133.362 396.753 132.824 396.516 131.146C396.409 130.436 396.99 130.243 397.571 130.329C398.862 130.479 399.378 129.963 399.227 128.672C399.141 127.897 399.55 127.467 400.325 127.553C401.723 127.725 402.326 127.144 402.175 125.746C402.111 125.143 402.39 124.627 403.079 124.735C405.316 125.079 404.929 123.444 405.058 122.196C406.198 122.045 407.748 122.497 407.705 120.517C407.662 118.473 406.112 119.097 404.994 118.99L404.972 119.011C405.252 116.946 404.606 115.827 402.304 116.3L402.283 116.322C402.175 114.88 402.498 113.159 400.174 113.18C399.701 113.18 399.27 112.836 399.292 112.363C399.356 110.147 397.764 110.448 396.387 110.383C396.796 108.167 395.914 107.264 393.698 107.715L393.655 107.737C393.848 105.564 392.966 104.488 390.686 104.854H390.642C391.137 102.573 390.083 101.626 387.867 101.691C387.867 99.0445 387.867 96.3981 387.867 93.7516C388.728 93.4504 390.341 94.1389 390.427 93.02C390.599 90.3521 392.622 90.8255 394.042 90.6964C395.914 90.5457 396.818 89.9218 396.581 87.9853C400.088 87.9423 403.595 87.8778 407.102 87.8348C407.317 88.0499 407.532 88.0284 407.726 87.8132L407.683 87.7702C409.641 87.7487 411.599 87.7487 413.557 87.7272C416.419 87.7272 419.302 87.7487 422.163 87.7487C423.132 87.7487 424.1 87.7056 425.068 87.7917C427.047 87.9853 427.822 87.1032 427.585 85.1883C430.447 85.1237 433.287 85.0807 436.149 85.0161C439.032 84.9946 441.936 84.9731 444.82 84.9731C446.735 85.0377 448.671 85.1022 450.586 85.1883C450.22 87.4044 451.21 88.222 453.361 87.8132L453.34 87.8562C453.189 89.8142 453.749 91.0406 456.051 90.5027L456.137 90.4382C456.374 92.8695 456.288 95.4514 459.192 96.5487C459.171 97.3663 459.128 98.2054 459.106 99.023C458.568 101.024 458.547 103.003 459.106 105.004C459.085 107.651 459.063 110.276 459.042 112.922C457.514 112.987 456.804 113.546 456.61 115.311C455.814 122.712 456.309 130.113 456.18 137.493C455.814 141.775 455.491 146.057 456.029 150.338ZM295.585 240.275C295.93 240.339 296.123 240.232 296.123 239.845C296.145 239.135 296.166 238.446 296.188 237.736L296.209 237.758C298.533 237.908 299.609 236.832 299.415 234.509H299.394C301.889 235.176 302.298 233.799 302.062 231.798L302.083 231.819C304.192 232.12 305.224 231.346 304.751 229.108L304.773 229.13C306.644 229.194 308.065 228.828 307.441 226.419L307.484 226.44C309.829 226.634 311.098 225.773 310.689 223.234V223.213C312.927 223.643 313.637 222.567 313.357 220.502H313.379C315.358 220.717 316.499 220.071 316.068 217.834C316.563 216.328 316.628 214.37 319.102 215.037C321.125 215.381 322.244 214.714 321.985 212.498C321.985 212.304 321.985 212.132 321.964 211.938V211.917C324.029 212.175 324.89 211.25 324.61 209.206C326.611 209.4 327.579 208.56 327.278 206.495C328.268 205.806 326.869 203.741 328.505 203.762C330.764 203.784 330.549 202.514 330.484 201.094C332.27 200.858 334.013 200.557 333.303 198.018C335.519 198.362 336.681 197.566 336.336 195.178H336.379C338.596 195.586 339.478 194.683 339.026 192.488L339.047 192.467C341.457 192.703 342.382 191.649 341.758 189.304C341.758 188.443 341.758 187.582 341.737 186.7C342.167 184.592 341.371 183.602 339.176 183.903C339.112 183.043 339.069 182.182 339.004 181.3C339.327 179.277 339.026 177.728 336.401 178.008C336.336 177.147 336.272 176.287 336.207 175.426C336.874 172.909 335.196 172.349 333.303 171.962C333.281 171.273 333.238 170.606 333.217 169.918C333.625 167.766 332.872 166.561 330.527 166.669C330.484 165.808 330.441 164.948 330.398 164.087C330.871 161.892 329.989 160.989 327.773 161.333C327.73 160.515 327.665 159.676 327.622 158.859C328.053 156.427 327.042 155.287 324.589 155.416L324.524 155.459C324.546 154.728 324.567 153.996 324.589 153.265C324.395 153.114 324.18 152.963 323.986 152.834C323.298 152.791 322.609 152.748 321.921 152.705C321.77 151.414 322.287 149.693 319.877 149.994C318.952 150.102 319.231 149.134 319.167 148.574C319.102 148.058 319.21 147.176 318.607 147.262C315.961 147.649 316.757 145.239 315.939 144.163C316.542 141.797 315.186 141.366 313.271 141.452L313.228 141.495C313.68 139.279 312.755 138.419 310.582 138.784V138.806C310.582 137.278 310.732 135.686 308.387 135.858C308.172 135.88 307.699 135.406 307.72 135.17C307.849 132.803 306.021 133.19 304.644 132.911L304.665 132.889C305.224 130.522 303.955 130.006 301.954 130.221L301.976 130.2C302.32 128.048 301.545 127.015 299.243 127.553L299.286 127.51C299.523 125.208 298.447 124.347 296.231 124.713L296.145 124.648C296.338 122.54 295.607 121.357 293.283 121.701C293.111 121.615 292.939 121.636 292.81 121.787C292.1 121.744 291.39 121.679 290.68 121.636C291.218 118.839 289.432 118.775 287.474 118.925L287.517 118.861C287.947 116.58 286.893 115.848 284.784 116.236C283.644 115.87 281.708 116.709 281.987 114.235C282.095 113.331 281.191 113.482 280.61 113.439C279.298 113.353 277.189 113.073 277.06 112.384C276.608 109.996 275.016 110.383 273.51 110.297C273.725 108.189 272.972 107.156 270.713 107.737C269.702 107.672 268.669 107.608 267.658 107.543C268.066 105.22 266.991 104.531 264.861 104.983C263.247 104.983 261.031 104.875 260.428 103.821C259.331 101.906 257.717 102.25 256.254 101.777C256.685 99.3242 255.437 98.7863 253.328 99.2382C251.456 99.1521 249.584 99.0661 247.712 98.98C248.143 96.6348 246.938 96.0969 244.915 96.4411C244.033 96.4411 243.151 96.4626 242.269 96.4626C241.215 96.3981 240.16 96.355 239.106 96.2905C239.257 94.4401 238.568 93.4504 236.546 93.6656C235.577 93.7731 234.609 93.7086 233.641 93.7301C232.565 93.7301 231.511 93.7301 230.435 93.7086C228.671 93.644 226.928 93.5795 225.164 93.5365C224.733 92.7404 225.25 91.3849 223.851 91.1912C220.516 90.7179 217.16 90.1585 213.782 90.9115C206.961 90.9115 200.162 90.9115 193.342 90.9115C190.373 90.266 187.425 90.6964 184.456 90.9115C182.627 91.0406 182.003 91.9012 181.981 93.5149C180.217 93.558 178.453 93.601 176.688 93.644C174.752 93.7086 172.816 93.8592 170.879 93.7731C168.986 93.687 168.19 94.5692 168.039 96.312C166.103 96.355 164.188 96.3981 162.251 96.4411C160.229 96.1184 158.594 96.312 158.916 99.0015C157.346 99.0445 155.775 99.1091 154.204 99.1521C152.419 99.0875 150.353 98.6788 150.891 101.669C150.009 101.713 149.127 101.756 148.244 101.777C146.416 101.992 144.608 102.272 144.845 104.811C144.006 104.854 143.167 104.918 142.306 104.961C140.262 104.596 138.95 105.047 139.487 107.522C138.476 107.586 137.465 107.672 136.454 107.737C134.238 107.178 133.377 108.124 133.657 110.297C132.796 110.34 131.957 110.383 131.096 110.426C129.676 110.491 127.912 109.824 127.74 112.234C127.718 112.729 127.267 112.987 126.793 112.987C124.814 112.987 124.685 114.17 125.05 115.676C124.319 116.623 123.221 115.827 122.382 116.236C120.188 115.87 119.047 116.688 119.241 119.011L119.263 119.054C116.96 118.473 116.293 119.592 116.53 121.658C115.669 122.088 114.615 121.443 113.798 122.153C111.883 121.98 110.957 122.82 111.065 124.756L111.022 124.799C109.021 124.648 107.558 125.122 107.945 127.596V127.575C105.772 127.209 104.89 128.113 105.234 130.264H105.256C103.19 129.984 102.093 130.694 102.545 132.954H102.566C101.06 132.997 99.3819 132.781 99.3173 135.084C99.2958 135.535 98.9946 136.009 98.5213 136.03C96.5418 136.138 96.6494 137.536 96.6494 138.892C96.6064 139.731 96.5632 140.57 96.5417 141.409C95.1001 141.409 93.379 141.022 93.6587 143.475C93.6802 143.69 93.2498 144.206 93.0561 144.185C90.5173 144.056 91.1198 146.1 90.7325 147.455L90.6679 147.412C88.2366 146.81 87.8063 148.144 88.0215 150.123L87.9569 150.08C85.8053 149.779 84.9447 150.726 85.3105 152.834C85.2674 153.673 85.2244 154.534 85.2029 155.373C82.7716 155.158 82.04 156.556 82.04 158.665C81.6743 159.504 82.5349 161.161 81.373 161.161C78.9202 161.139 79.6733 162.861 79.3505 164.044C77.1774 163.786 76.2308 164.625 76.7687 166.863C76.7042 167.874 76.6396 168.885 76.5535 169.896C74.2513 169.445 73.5412 170.52 73.95 172.65C73.864 173.511 73.7779 174.372 73.6918 175.232C71.4757 175.103 70.3354 175.899 71.0024 178.288C70.8948 179.277 70.8088 180.245 70.7012 181.235C68.4206 180.848 67.7535 181.945 68.1193 184.011C68.1193 184.893 68.1408 185.775 68.1408 186.657C68.0978 187.518 68.0332 188.4 67.9902 189.261C65.4513 189.024 65.021 190.466 65.3867 192.531C65.3867 193.435 65.3868 194.317 65.4083 195.221C65.3652 196.06 65.3222 196.92 65.3007 197.759C63.8592 198.125 63.02 198.9 62.6973 200.513C62.31 202.536 62.2455 204.537 62.3315 206.559L62.1809 206.495C60.1799 206.237 59.2117 206.99 59.4699 209.098C59.5775 210.045 59.5559 211.013 59.5774 211.96C59.5774 213.014 59.5774 214.09 59.5774 215.144C59.5774 216.026 59.599 216.93 59.599 217.812C59.5344 220.652 59.4699 223.492 59.4054 226.354C57.4259 226.139 56.7804 227.021 56.8019 229.001C56.888 236.596 56.8664 244.169 56.7804 251.764C56.7589 253.744 57.4474 254.604 59.4054 254.346C59.4484 257.186 59.513 260.026 59.556 262.867C59.556 264.652 59.556 266.417 59.556 268.202C59.5345 269.321 59.599 270.462 59.4699 271.58C59.2547 273.646 60.1369 274.485 62.1594 274.205C62.2669 275.088 62.3746 275.948 62.4821 276.83C62.4606 277.713 62.4391 278.573 62.4175 279.455C62.2454 280.617 61.8366 281.779 62.6757 282.876C62.396 284.942 63.2781 285.824 65.3437 285.544L65.3867 285.523C65.4728 286.556 64.8273 288.04 66.6132 288.126C68.6572 288.234 67.9256 286.556 68.0978 285.501L68.0762 285.48C70.1418 285.759 71.2606 285.114 70.7873 282.812L70.8088 282.833C73.3261 283.156 74.3374 282.016 73.9931 279.563V279.584C76.1662 279.993 76.9623 278.982 76.7041 276.916C78.8127 277.218 79.6948 276.335 79.3936 274.227C82.3198 274.141 85.1814 271.236 85.2889 268.267C85.7193 267.449 84.4714 265.836 86.2572 265.75C87.5912 265.664 88.2582 265.405 88.043 263.964C87.9355 263.125 88.4518 262.823 89.1833 262.931C90.6679 263.168 91.0552 262.393 90.9692 261.102C90.9261 260.5 91.2704 260.026 91.9159 260.091C93.5081 260.242 93.9384 259.424 93.8308 258.004C93.8093 257.531 94.1321 257.1 94.6484 257.165C97.0797 257.552 96.4558 255.702 96.6709 254.454C98.1125 254.432 99.8337 254.798 99.5325 252.367C99.4894 252.001 99.8337 251.678 100.199 251.721C102.545 252.023 102.437 250.452 102.373 248.903L102.437 248.86C103.9 248.817 105.579 249.118 105.277 246.708C105.213 246.213 105.643 245.912 106.138 245.955C108.526 246.149 107.881 244.427 107.967 243.136H107.988C110.204 243.481 111.366 242.685 111.022 240.296H111.065C113.238 240.684 114.142 239.801 113.733 237.607L113.754 237.585C115.992 237.8 116.939 236.789 116.616 234.573L116.659 234.552C118.725 234.831 119.714 234.057 119.284 231.884C119.392 231.798 119.521 231.755 119.65 231.712C121.974 232.228 122.619 231.088 122.361 229.022V229.044C124.491 229.388 125.502 228.592 125.05 226.354V226.376C127.417 226.741 128.149 225.536 127.89 223.385L127.955 223.277C130.042 223.471 131.311 222.804 130.967 220.437L130.989 220.459C133.162 220.824 134.044 219.899 133.7 217.748C133.721 217.662 133.743 217.576 133.743 217.49C133.872 214.692 136.518 213.703 138.11 212.326C139.552 211.078 139.939 208.582 142.328 208.431C142.328 208.431 142.328 208.259 142.349 208.173C142.543 205.892 145.964 206.215 145.942 203.741C145.942 203.741 146.286 203.698 146.459 203.719C147.448 203.784 147.814 203.375 147.986 202.364C148.352 200.277 151.644 200.47 151.644 197.953C154.011 198.383 153.602 196.684 153.688 195.328C155.474 195.328 157.217 195.307 156.442 192.66L156.464 192.682C158.744 192.789 159.928 191.821 159.648 189.433L159.626 189.411C162.058 190.014 162.531 188.701 162.294 186.679V186.7C164.338 186.958 165.586 186.421 165.005 184.032L165.048 184.054C167.114 184.204 168.534 183.688 168.018 181.171L168.061 181.128C169.395 181.063 171.094 181.579 170.944 179.234C170.901 178.718 171.331 178.395 171.804 178.438C174.171 178.653 173.87 176.825 174.15 175.447C175.01 175.383 175.849 175.34 176.71 175.275C177.592 175.275 178.474 175.297 179.378 175.297C183.186 175.297 186.995 175.275 190.803 175.275C191.707 175.275 192.61 175.275 193.514 175.275C194.504 175.34 195.515 175.404 196.505 175.469C196.311 177.491 196.957 178.675 199.259 178.137V178.115C199.28 178.976 199.323 179.858 199.345 180.719C199.624 181.752 198.871 183.365 200.377 183.71C201.991 184.075 202.056 185.087 201.991 186.27C201.862 188.465 202.658 189.669 205.025 189.433L205.176 189.411C205.197 191.369 205.219 193.306 205.24 195.264C204.186 197.265 205.692 199.223 205.369 201.223C205.046 203.181 205.993 203.999 207.886 203.913L207.973 203.87C207.994 206.538 208.016 209.206 208.037 211.874C207.757 213.853 207.822 215.553 210.597 215.187C210.641 216.069 210.662 216.93 210.705 217.812C210.705 218.027 210.727 218.221 210.727 218.436C210.748 219.103 210.748 219.792 210.77 220.459C210.576 221.556 210.554 222.632 210.856 223.708C210.684 225.752 210.791 227.774 211.157 229.818C211.437 231.346 212.168 231.733 213.459 231.733C213.502 232.615 213.567 233.519 213.61 234.401C213.309 235.369 213.179 236.359 213.717 237.306C213.739 237.456 213.782 237.607 213.868 237.736C213.825 238.64 213.803 239.522 213.76 240.425C212.921 242.362 213.868 244.255 213.846 246.17C213.825 248.107 214.772 248.645 216.45 248.537C216.514 250.473 216.6 252.388 216.665 254.325C216.622 255.25 216.6 256.175 216.557 257.1C216.557 259.123 216.687 261.167 216.557 263.168C216.428 265.212 217.353 265.879 219.204 265.707C219.268 266.739 219.355 267.794 219.419 268.826C219.398 269.859 219.441 270.913 219.312 271.946C219.096 273.969 220.043 274.614 221.915 274.335C222.195 276.314 221.743 278.315 222.324 280.273C222.001 281.134 222.108 282.016 222.281 282.876C221.893 284.791 222.152 286.663 222.388 288.578C222.582 290.278 223.378 291.031 225.013 291.074C225.035 292.085 225.056 293.118 225.078 294.129C225.035 294.194 224.949 294.28 224.949 294.323C224.97 294.473 225.035 294.624 225.099 294.775C225.142 295.463 225.185 296.152 225.207 296.84C224.755 298.927 225.293 300.175 227.746 299.68C227.767 300.541 227.81 301.423 227.832 302.284C227.315 305.274 229.144 305.425 231.403 305.489C233.598 305.554 233.921 304.457 233.727 302.735C233.985 302.692 234.222 302.649 234.48 302.628C234.911 302.628 235.319 302.628 235.75 302.628C236.137 302.757 236.374 302.649 236.46 302.241C236.868 301.423 235.664 299.788 237.514 299.766C238.912 299.745 239.472 299.336 239.3 297.937C239.214 297.313 239.536 296.84 240.203 296.926C241.839 297.141 242.527 296.517 242.333 294.861C242.269 294.301 242.721 294.086 243.216 294.129C244.614 294.28 245.195 293.699 245.044 292.3C244.958 291.504 245.41 291.117 246.163 291.203C247.519 291.354 247.906 290.708 247.777 289.482C247.712 288.922 247.928 288.255 248.595 288.384C251.134 288.858 250.423 286.706 250.983 285.566C253.35 286.104 253.93 284.92 253.608 282.855H253.651C254.92 282.683 256.728 283.264 256.448 280.875C256.383 280.381 256.728 279.95 257.223 279.993C259.503 280.122 259.137 278.487 259.18 277.132H259.202C261.354 277.411 262.494 276.594 262.257 274.291H262.279C264.495 274.722 265.398 273.84 264.947 271.602L264.99 271.623C267.4 271.925 268.066 270.677 267.787 268.547L267.851 268.504C270.068 268.826 271.186 268.009 270.864 265.664V265.685C273.101 266.137 273.876 265.126 273.575 262.996H273.553C274.844 262.974 276.372 263.318 276.393 261.21C276.393 260.607 276.91 260.285 277.49 260.242C278.674 260.177 279.276 259.639 279.341 258.434C279.384 257.767 279.707 257.143 280.438 257.122C282.375 257.014 281.966 255.53 282.138 254.368C282.224 253.034 281.837 251.399 284.203 251.721C285.15 251.85 284.957 250.904 284.935 250.344C284.935 249.505 285.107 248.903 286.097 249.01C287.409 249.139 287.84 248.515 287.754 247.289C287.689 246.385 288.248 245.977 289.088 246.041C290.4 246.149 290.852 245.568 290.723 244.32C290.658 243.782 290.766 243.093 291.497 243.223C293.95 243.61 293.348 241.824 293.52 240.555C294.165 240.361 294.875 240.318 295.585 240.275ZM322.48 237.671C322.114 237.671 321.985 237.887 322.05 238.231C322.007 238.941 321.964 239.629 321.921 240.339C319.769 239.974 318.736 240.727 319.21 243.007C317.381 242.964 315.746 243.115 316.477 245.675L316.456 245.654C314.326 245.675 312.841 246.342 313.25 248.881L313.271 248.903C310.926 248.365 310.324 249.548 310.582 251.614C309.183 251.678 307.398 251.162 307.634 253.658C307.677 254.174 307.182 254.411 306.709 254.346C304.342 254.088 304.816 255.745 304.816 257.1L304.773 257.143C302.341 256.778 301.653 258.025 301.932 260.177C300.598 260.177 298.963 259.661 299.135 262.006C299.178 262.501 298.856 262.931 298.361 262.867C295.951 262.544 296.295 264.287 296.145 265.685L296.123 265.707C293.929 265.276 292.939 266.051 293.434 268.353V268.375C291.175 268.181 290.206 269.192 290.615 271.451H290.594C288.313 271.021 287.388 272.075 287.538 274.27V274.291C285.236 273.775 284.526 274.851 284.849 276.959V276.981C283.558 277.132 281.751 276.572 282.052 279.003C282.116 279.52 281.751 279.907 281.256 279.864C278.997 279.67 279.147 281.155 279.255 282.64L279.19 282.661C276.996 282.381 275.898 283.221 276.221 285.523V285.544C274.026 285.114 273.058 285.953 273.51 288.212C272.241 288.427 270.412 287.825 270.627 290.213C270.67 290.665 270.283 291.16 269.809 291.117C267.399 290.902 267.744 292.688 267.572 294.108H267.593C265.248 293.57 264.602 294.732 264.904 296.819V296.797C262.86 296.539 261.655 297.141 262.214 299.487V299.465C259.804 299.142 258.901 300.412 258.922 302.628L258.944 302.649C256.362 301.896 256.233 303.553 256.276 305.382C254.06 304.952 253.178 305.855 253.565 308.071C251.671 307.942 250.101 308.157 250.832 310.739V310.718C249.046 310.782 247.282 310.912 247.583 313.45C242.463 313.429 242.463 313.429 242.269 316.57C241.387 316.613 240.526 316.678 239.644 316.721C238.611 316.764 237.557 316.807 236.524 316.828C232.694 316.828 228.865 316.807 225.056 316.807C224.023 316.764 222.991 316.742 221.958 316.699C221.248 316.678 220.559 316.635 219.849 316.613C219.677 316.463 219.484 316.312 219.312 316.14C218.967 315.387 219.935 313.881 218.322 313.945C216.17 314.031 216.471 312.697 216.536 311.385C216.945 309.018 216.02 307.813 213.524 308.028L213.352 308.093C213.373 307.211 213.395 306.307 213.438 305.425C214.449 302.843 213.158 302.09 210.834 302.133C210.748 300.369 210.662 298.626 210.576 296.862C210.597 295.958 210.641 295.033 210.662 294.129C210.619 292.128 210.468 290.106 210.597 288.126C210.727 286.125 209.801 285.458 207.994 285.544C207.951 284.662 207.929 283.801 207.886 282.919C207.886 280.94 207.865 278.982 207.865 277.002C207.865 276.034 207.8 275.066 207.886 274.119C208.08 272.118 207.112 271.43 205.262 271.58C205.219 269.666 205.154 267.751 205.111 265.836C205.111 263.06 205.003 260.285 205.176 257.531C205.305 255.271 204.509 254.174 202.206 254.303C202.185 253.443 202.185 252.582 202.163 251.743C202.206 251.678 202.314 251.614 202.292 251.549C202.271 251.399 202.185 251.269 202.142 251.119C202.099 250.43 202.056 249.72 202.013 249.032C202.013 247.956 202.013 246.902 202.013 245.826C202.013 243.976 201.905 242.125 202.034 240.275C202.185 238.274 201.324 237.521 199.431 237.693C199.366 235.757 199.302 233.799 199.259 231.862C199.28 230.958 199.302 230.076 199.323 229.173C199.323 227.129 199.173 225.106 199.323 223.084C199.474 221.018 198.527 220.373 196.677 220.545L196.548 220.609C196.741 217.791 196.591 214.994 196.311 212.197C196.827 208.539 196.246 207.162 193.923 206.581C193.815 206.366 193.708 206.129 193.6 205.914C193.578 205.075 193.535 204.214 193.514 203.375C194.009 200.729 193.385 198.125 193.385 195.479C193.385 193.736 192.61 192.703 190.824 192.553C190.781 191.541 190.738 190.53 190.674 189.497C191.147 187.195 190.157 186.378 187.941 186.786C186.048 186.786 184.133 186.786 182.24 186.786C180.109 186.378 179.055 187.109 179.486 189.411L179.529 189.497C177.614 189.368 176.194 189.777 176.602 192.187C174.644 192.316 173.138 192.875 173.547 195.307C171.31 194.855 170.492 195.845 170.858 197.996L170.836 197.975C168.276 198.061 165.242 201.073 164.898 203.848L164.919 203.87C162.51 203.246 161.972 204.515 162.23 206.559L162.208 206.538C160.121 206.258 159.088 207.011 159.519 209.227L159.497 209.206C157.991 209.206 156.334 208.969 156.334 211.293C156.334 211.508 155.861 211.938 155.624 211.917C153.172 211.852 153.688 213.66 153.559 215.08L153.58 215.101C151.3 214.628 150.633 215.747 150.912 217.791H150.891C148.911 217.576 147.62 218.07 148.201 220.437C148.094 220.502 147.965 220.566 147.836 220.609C145.576 220.136 144.759 221.126 145.125 223.299V223.32C142.672 222.89 142.005 224.138 142.242 226.311L142.22 226.354C140.068 225.967 139.186 226.87 139.552 229.022L139.509 229.044C137.357 228.785 136.109 229.474 136.497 231.884H136.475C134.302 231.496 133.312 232.292 133.764 234.552V234.53C131.398 234.186 130.644 235.369 130.924 237.521L130.903 237.628C129.397 237.585 127.826 237.456 127.804 239.694C127.804 239.909 127.331 240.296 127.094 240.296C124.857 240.189 125.179 241.781 125.158 243.136L125.136 243.115C123.695 243.072 122.232 242.943 122.232 245.073C122.232 245.31 121.801 245.761 121.565 245.761C119.198 245.783 119.327 247.483 119.263 249.053V249.032C116.939 248.472 116.336 249.677 116.53 251.7H116.552C114.378 251.312 113.496 252.216 113.841 254.368C111.108 254.454 108.139 257.402 107.924 260.285V260.263C105.729 259.876 104.976 260.887 105.234 262.953C103.728 262.91 102.588 262.824 101.792 264.846C101.34 265.943 99.6831 267.686 98.5213 268.116C96.4127 268.891 96.7139 270.16 96.6494 271.58L96.6279 271.559C94.5193 271.236 93.6156 272.118 93.9168 274.227L93.9384 274.248C91.9159 274.012 90.8401 274.743 91.2489 276.938H91.2274C88.753 276.594 87.6127 277.605 87.9784 280.122V280.144C85.8053 279.778 85.0953 280.832 85.3105 282.833H85.2889C83.7828 282.812 82.1477 282.532 81.9755 284.813C81.954 285.049 81.5021 285.437 81.2439 285.437C79.2215 285.566 79.4582 286.986 79.5227 288.341C78.533 288.427 77.156 287.76 76.8332 289.288C76.575 290.45 76.0801 290.988 74.9183 291.052C74.2298 291.095 73.778 291.547 73.6704 292.236C73.3262 294.452 70.6582 294.689 69.8621 296.69C69.6469 297.227 67.9902 297.4 68.2484 298.82C68.5281 300.412 69.8836 299.831 70.8303 300.046C70.8734 300.864 70.9379 301.681 70.981 302.499C70.4215 307.598 70.5721 307.856 73.864 308.179L74.0146 308.114C74.0146 309.018 74.0362 309.9 74.0362 310.804C73.778 312.805 74.2298 314.203 76.661 314.031C76.4029 316.118 77.3281 317.001 79.3936 316.721C79.4366 317.56 79.4797 318.421 79.5227 319.26C79.286 321.218 79.6734 322.595 82.1262 322.035C82.9007 322.853 81.9325 324.789 83.0298 324.789C85.6117 324.746 85.1598 326.468 85.3965 327.909C84.9016 330.147 85.8914 330.943 88.0215 330.663L88.086 330.62C87.8278 332.621 88.1936 334.02 90.711 333.396C91.335 334.256 90.4313 336.128 91.6362 336.193C93.9168 336.322 93.7662 337.785 94.0029 339.205C93.5725 341.421 94.5838 342.217 96.6923 341.916L96.7139 341.894C96.4557 343.938 97.0581 345.122 99.3818 344.605L99.4034 344.584C99.554 346.004 99.2097 347.747 101.533 347.747C101.77 347.747 102.222 348.177 102.222 348.414C102.179 350.737 103.836 350.458 105.299 350.501C104.911 352.695 105.772 353.599 107.988 353.169L107.967 353.212C107.644 355.622 108.956 356.224 111.044 356.009L111.108 356.073C110.85 358.117 111.71 359.021 113.776 358.677L113.819 358.698C113.647 361.151 114.852 362.098 117.219 361.754C117.886 361.797 118.574 361.84 119.241 361.861C118.789 364.508 120.231 364.981 122.404 364.572L122.447 364.594C122.146 366.745 123.092 367.606 125.201 367.197C126.04 367.24 126.879 367.283 127.718 367.326C127.568 369.844 129.095 370.381 131.182 370.231L131.118 370.381C130.644 372.77 131.828 373.372 133.936 373.028C134.775 373.049 135.636 373.071 136.475 373.114C136.26 375.588 137.637 376.126 139.724 375.803C140.585 375.847 141.467 375.868 142.328 375.911C142.069 378.084 142.973 378.945 145.125 378.45C146.136 378.493 147.147 378.557 148.158 378.601C149.041 381.419 151.235 381.527 153.623 381.268C154.463 381.849 155.474 381.419 156.356 381.656C156.076 384.281 157.625 384.582 159.669 384.238C160.552 384.238 161.434 384.238 162.294 384.238C163.155 384.302 164.037 384.367 164.898 384.453C164.553 387.228 166.275 387.293 168.254 387.013C170.019 387.056 171.761 387.121 173.526 387.164C173.375 388.993 173.977 390.026 176.043 389.81C177.183 389.681 178.324 389.789 179.464 389.767C180.368 389.746 181.271 389.724 182.197 389.703C185.919 389.789 189.663 389.896 193.385 389.982C193.471 391.101 193.277 392.392 195.042 392.457C200.614 392.65 206.165 393.446 211.781 392.586C213.588 392.306 214.019 391.532 213.933 390.004C217.676 389.918 221.398 389.832 225.142 389.746C226.046 389.767 226.95 389.789 227.853 389.81C229.876 389.789 231.898 389.638 233.899 389.789C235.943 389.939 236.546 388.971 236.481 387.185C237.363 387.142 238.224 387.099 239.106 387.035C240.16 387.035 241.193 387.035 242.247 387.035C243.194 387.056 244.162 387.035 245.109 387.142C247.218 387.379 247.992 386.411 247.734 384.41L247.691 384.367C250.359 384.496 253.328 385.313 254.361 381.548C254.77 381.548 255.2 381.548 255.609 381.548C260.192 381.935 261.289 381.441 261.805 378.687C261.978 378.644 262.128 378.579 262.257 378.493C264.581 379.138 265.312 378.063 265.076 375.911C265.936 375.868 266.776 375.847 267.636 375.803C269.68 376.126 271.337 375.933 270.907 373.178C271.767 373.135 272.606 373.092 273.467 373.028C275.403 373.286 276.888 373.028 276.286 370.489C277.06 370.059 277.878 370.188 278.695 370.231C281.019 370.661 282.482 370.037 282.202 367.326L282.159 367.24C284.462 367.821 285.172 366.724 284.935 364.615C285.796 364.594 286.656 364.572 287.517 364.529C289.561 364.744 291.11 364.4 290.68 361.775C292.831 362.162 293.929 361.474 293.412 359.129L293.369 358.978C294.617 358.612 296.597 359.236 296.381 356.783C296.36 356.568 296.855 356.095 297.07 356.138C299.437 356.439 299.2 354.696 299.394 353.276C302.492 354.008 302.212 349.683 304.794 349.619C304.816 349.619 304.816 348.952 304.837 348.586C304.859 348.091 305.074 347.575 305.547 347.639C308 347.962 307.376 345.853 307.978 344.691C310.453 345.337 310.883 344.003 310.668 341.98V342.002C312.841 342.368 313.831 341.529 313.336 339.291L313.357 339.312C315.1 339.226 316.886 339.183 315.982 336.58L316.068 336.645C318.457 336.795 319.619 335.784 319.188 333.31C319.21 332.47 319.253 331.61 319.274 330.771C321.469 331.093 322.459 330.297 321.899 328.017L321.985 328.081C323.943 328.167 325.213 327.608 324.567 325.284C325.234 324.38 324.266 322.38 325.535 322.358C327.988 322.336 327.214 320.508 327.795 319.41C330.011 319.755 330.893 318.808 330.441 316.635C330.506 315.624 330.57 314.612 330.613 313.601C332.915 314.01 333.539 312.869 333.174 310.825C333.26 309.965 333.324 309.104 333.41 308.222C335.863 308.566 336.917 307.663 336.143 305.124C336.207 304.328 336.272 303.532 336.336 302.735C339.09 303.101 339.327 301.488 339.004 299.401C339.069 297.679 339.112 295.958 339.176 294.237C341.393 294.516 342.253 293.591 341.715 291.397C341.801 290.385 341.887 289.353 341.974 288.341C342.834 288.105 344.125 288.578 344.383 287.244C344.814 284.942 345.502 282.618 344.728 280.23C344.814 279.154 344.878 278.057 344.964 276.981C346.858 277.153 347.718 276.379 347.611 274.399C347.503 272.355 347.611 270.311 347.611 268.289C347.675 265.642 347.718 263.017 347.783 260.371C350.601 260.758 350.623 259.015 350.3 257.057C350.3 255.271 350.322 253.507 350.322 251.721C350.322 243.33 350.322 234.917 350.322 226.526C350.322 224.568 350.322 222.61 350.322 220.652C350.343 219.706 350.3 218.737 350.386 217.791C350.58 215.682 349.633 214.929 347.611 215.273C345.007 214.348 344.685 216.048 344.534 217.941L344.491 217.92C342.06 217.296 341.651 218.673 341.823 220.609C339.736 220.287 338.596 220.932 339.112 223.277L339.133 223.32C336.638 222.89 336.186 224.654 335.777 226.44C333.281 225.816 333.26 227.516 333.195 229.194C330.914 228.721 330.14 229.711 330.506 231.884C328.612 231.755 327.128 232.077 327.795 234.552L327.773 234.53C325.449 234.336 324.352 235.391 324.546 237.736L324.589 237.779C323.879 237.65 323.19 237.671 322.48 237.671Z" fill="white"/>
<path d="M931.703 210.518C931.703 181.643 931.703 153.436 931.703 125.229C931.703 121.636 931.703 121.636 935.404 121.636C939.427 121.636 943.472 121.679 947.495 121.614C948.894 121.593 949.496 122.001 949.324 123.421C949.26 123.959 949.324 124.497 949.324 125.035C949.324 197.995 949.303 270.977 949.389 343.938C949.389 346.821 948.571 347.531 945.86 347.359C942.203 347.122 938.523 347.23 934.844 347.337C933.23 347.38 932.736 346.993 932.714 345.293C932.606 339.247 932.305 333.18 932.047 326.596C929.896 329.027 928.131 331.179 926.216 333.201C915.889 344.067 902.893 349.016 888.198 350.027C877.225 350.78 866.617 349.532 856.72 344.304C842.993 337.053 834.322 325.456 828.556 311.427C823.499 299.12 821.649 286.168 821.283 272.957C820.853 257.143 821.886 241.501 827.48 226.504C833.16 211.206 842.111 198.447 857.15 191.003C877.87 180.761 912.317 183.063 929.917 208.173C930.326 208.797 930.821 209.377 931.703 210.518ZM931.703 268.955C931.703 257.229 931.703 245.503 931.703 233.798C931.703 232.83 931.853 231.862 931.402 230.893C927.981 223.513 923.656 216.8 917.416 211.464C907.239 202.772 895.19 199.975 882.195 200.793C872.34 201.395 863.627 204.967 856.505 212.045C850.61 217.898 846.543 224.869 844.112 232.722C837.743 253.313 837.442 274.205 841.723 295.204C843.574 304.219 847.167 312.568 852.933 319.84C862.013 331.286 874.191 335.547 888.434 334.923C907.648 334.084 921.935 325.456 930.799 308.221C931.488 306.887 931.746 305.597 931.746 304.133C931.681 292.386 931.703 280.66 931.703 268.955Z" fill="white"/>
<path d="M1099.01 210.602C1099.01 208.903 1099.01 207.956 1099.01 207.009C1099.01 179.447 1099.03 151.864 1098.97 124.302C1098.97 122.323 1099.29 121.484 1101.55 121.591C1105.83 121.806 1110.16 121.742 1114.44 121.613C1116.27 121.548 1116.87 122.172 1116.61 123.872C1116.57 124.216 1116.61 124.582 1116.61 124.948C1116.61 197.994 1116.59 271.041 1116.7 344.087C1116.7 346.906 1115.9 347.53 1113.3 347.357C1109.73 347.121 1106.13 347.185 1102.56 347.336C1100.62 347.422 1099.94 346.97 1099.98 344.883C1100.13 338.902 1100.02 332.92 1100.02 326.917C1099.74 326.853 1099.46 326.81 1099.18 326.745C1097.22 328.983 1095.37 331.285 1093.31 333.415C1083.26 343.807 1070.72 348.756 1056.52 349.918C1045.76 350.778 1035.24 349.81 1025.38 344.969C1011.66 338.192 1002.68 327.046 996.681 313.276C991.022 300.302 988.935 286.618 988.612 272.568C988.268 257.034 989.193 241.65 994.616 226.89C1000.38 211.205 1009.55 198.274 1024.97 190.679C1034.98 185.752 1045.72 184.762 1056.62 185.666C1068.48 186.634 1079.22 190.657 1088.34 198.51C1092.25 201.888 1095.55 205.826 1099.01 210.602ZM1099.01 268.954C1099.01 257.227 1099.01 245.501 1099.01 233.775C1099.01 232.721 1099.12 231.666 1098.64 230.612C1093.05 218.649 1085.18 208.774 1072.42 204.105C1058.11 198.876 1043.8 198.64 1030.4 206.859C1019.36 213.636 1013.51 224.351 1010.28 236.486C1005.2 255.549 1004.96 274.827 1008.79 294.106C1010.9 304.734 1015.16 314.546 1022.72 322.614C1031.67 332.167 1043.03 335.416 1055.76 334.9C1075 334.104 1089.22 325.39 1098.15 308.22C1098.8 306.994 1099.05 305.767 1099.05 304.39C1098.99 292.578 1099.01 280.766 1099.01 268.954Z" fill="white"/>
<path d="M649.844 267.538C649.457 252.95 651.673 238.836 657.956 225.582C668.692 202.926 686.292 189.241 711.423 186.014C748.344 181.259 779.886 202.99 788.557 239.632C793.915 262.353 793.721 285.073 784.878 307.084C776.422 328.105 761.62 342.736 739.221 347.878C711.681 354.204 687.153 348.588 668.047 326.362C659.053 315.884 654.04 303.469 651.544 289.979C650.167 282.556 649.672 275.068 649.844 267.538ZM667.294 269.819C667.487 275.52 667.746 282.577 669.295 289.527C672.479 303.814 678.891 316.185 690.509 325.48C709.25 340.477 745.267 340.8 763.147 312.076C771 299.467 773.862 285.633 774.249 271.002C774.679 255.188 772.356 240.062 764.46 226.077C753.422 206.519 731.476 196.729 709.68 201.506C694.64 204.798 684.313 214.049 676.804 226.916C669.295 239.761 667.423 253.918 667.294 269.819Z" fill="white"/>
<path d="M1174.6 332.383C1175.99 332.383 1176.96 332.383 1177.93 332.383C1210.27 332.383 1242.61 332.405 1274.97 332.34C1277.27 332.34 1278.15 332.813 1277.98 335.266C1277.74 338.558 1277.83 341.893 1277.96 345.207C1278.02 346.82 1277.61 347.401 1275.89 347.337C1271.67 347.207 1267.48 347.294 1263.26 347.294C1227.52 347.294 1191.77 347.25 1156.03 347.38C1153.12 347.38 1152.86 346.454 1152.58 343.873C1151.87 337.117 1154.33 331.953 1158.31 326.595C1188.24 286.382 1217.89 245.954 1247.62 205.59C1248.03 205.03 1248.42 204.428 1248.87 203.804C1247.92 203.029 1246.91 203.417 1246.01 203.417C1216.9 203.395 1187.76 203.352 1158.65 203.46C1156.13 203.46 1155.47 202.75 1155.62 200.34C1155.81 197.134 1155.77 193.885 1155.64 190.679C1155.55 188.829 1156.07 188.205 1158.01 188.27C1163.39 188.399 1168.76 188.313 1174.12 188.313C1205.58 188.313 1237.01 188.334 1268.47 188.248C1270.94 188.248 1271.4 188.958 1271.59 191.325C1272.13 197.93 1270.3 203.266 1266.21 208.731C1236.04 249.009 1206.25 289.545 1176.34 329.995C1175.84 330.619 1175.39 331.264 1174.6 332.383Z" fill="white"/>
</g>
<defs>
<clipPath id="clip0">
<rect width="1278" height="500" fill="white"/>
</clipPath>
</defs>
</svg>
