<svg width="1278" height="500" viewBox="0 0 1278 500" fill="none" xmlns="http://www.w3.org/2000/svg">
<g clip-path="url(#clip0)">
<path d="M244.605 348.125C168.625 348.125 93.3858 348.125 17.1594 348.125C54.9026 282.506 92.6457 217.38 130.882 151.021C168.872 217.134 206.615 282.506 244.605 348.125ZM198.228 321.976C175.533 282.753 153.577 244.516 130.882 205.539C108.187 244.763 86.2319 282.999 63.7833 321.976C108.927 321.976 152.837 321.976 198.228 321.976Z" fill="white"/>
<path d="M895.612 289.906C901.533 277.325 906.22 265.237 910.413 252.903C917.074 234.402 922.994 215.9 928.175 196.905C929.162 193.205 930.642 191.725 934.835 191.725C944.21 191.971 943.963 191.725 946.183 200.605C953.83 231.195 964.438 260.797 977.759 290.153C983.186 280.532 986.887 270.665 990.587 261.044C998.728 239.829 1006.37 218.614 1011.56 196.658C1012.3 193.205 1013.53 191.725 1017.48 191.725C1029.07 191.971 1029.32 191.725 1026.11 202.826C1016.24 237.362 1003.41 270.665 987.38 302.734C985.653 306.188 983.679 306.928 979.979 307.421C971.838 308.408 968.138 304.954 964.931 297.553C955.064 274.365 945.196 250.93 937.796 226.754C937.302 225.274 936.809 224.041 936.069 221.82C932.369 232.675 928.915 242.789 925.461 252.656C919.541 269.431 912.14 285.959 904.986 302.241C903.26 306.188 901.039 307.174 896.846 307.421C889.198 308.161 885.251 305.447 881.798 298.294C866.01 265.484 853.429 231.441 843.561 196.412C842.574 192.711 843.314 191.971 847.015 191.971C859.843 191.971 859.842 191.725 863.296 204.059C870.943 231.195 880.318 257.59 892.159 283.246C893.145 285.219 894.132 287.193 895.612 289.906Z" fill="white"/>
<path d="M1181.77 300.515C1181.77 314.823 1181.52 328.391 1181.77 342.206C1181.77 347.139 1180.29 348.126 1175.6 348.126C1164.75 347.879 1164.75 348.126 1164.75 337.025C1164.75 291.881 1164.75 246.491 1164.75 201.347C1164.75 197.153 1165.73 195.427 1169.93 194.44C1189.91 189.999 1209.89 187.533 1229.87 191.48C1262.44 197.647 1281.43 224.782 1277.48 258.085C1273.04 295.582 1243.69 313.096 1207.92 309.149C1199.04 307.916 1190.65 304.709 1181.77 300.515ZM1181.77 246.244C1181.77 258.332 1182.02 270.173 1181.77 282.261C1181.77 285.467 1182.76 286.948 1185.47 288.428C1194.84 293.361 1204.96 296.322 1215.57 296.322C1238.01 296.815 1254.79 287.194 1259.23 262.772C1259.97 258.579 1260.22 254.385 1260.46 250.191C1260.96 223.302 1244.67 204.554 1219.02 203.074C1207.92 202.334 1197.06 202.827 1185.96 205.047C1182.51 205.787 1181.77 207.021 1181.77 210.228C1181.77 222.069 1181.77 234.156 1181.77 246.244Z" fill="white"/>
<path d="M295.67 271.652C295.67 247.97 295.67 224.288 295.67 200.606C295.67 196.906 296.656 195.426 300.357 194.439C320.092 189.999 340.073 187.532 360.302 191.232C391.878 197.153 410.133 220.834 408.406 252.904C406.432 291.14 378.063 314.082 339.333 308.902C331.439 307.915 323.545 305.942 316.391 302.241C311.951 300.021 311.951 301.748 311.951 305.448C312.198 317.783 311.951 330.364 312.198 342.698C312.198 346.645 311.704 348.372 307.017 348.372C295.67 348.125 295.67 348.372 295.67 337.024C295.67 315.069 295.67 293.361 295.67 271.652ZM311.951 246.243C311.951 258.084 312.198 269.925 311.951 281.766C311.951 285.22 313.184 286.947 315.898 288.427C325.272 293.361 335.386 295.827 345.994 296.567C368.442 297.801 384.724 285.96 389.411 264.992C390.891 257.838 391.384 250.684 390.644 243.283C388.917 222.068 375.843 207.513 354.875 204.06C342.047 201.84 328.972 202.826 316.145 205.293C312.691 205.787 311.951 207.267 311.951 210.474C312.198 222.315 311.951 234.156 311.951 246.243Z" fill="white"/>
<path d="M1137.12 264.251C1137.12 276.339 1137.12 288.18 1137.12 300.268C1137.12 302.488 1137.37 304.461 1134.16 304.708C1112.7 308.162 1091.24 311.615 1069.53 307.175C1046.59 302.488 1034.74 284.48 1040.91 263.511C1044.36 251.67 1053.49 245.75 1064.35 242.049C1075.69 238.102 1087.54 237.609 1099.38 237.856C1106.78 238.102 1102.34 243.776 1103.08 246.736C1104.06 250.437 1101.35 250.437 1098.64 250.19C1087.78 249.943 1076.93 249.943 1067.06 255.617C1059.17 260.058 1056.21 266.718 1056.95 275.599C1057.69 283.74 1061.88 289.413 1069.53 292.374C1076.68 295.334 1084.33 295.827 1091.98 295.827C1100.36 295.827 1108.75 295.334 1117.14 294.347C1119.85 294.1 1120.59 293.114 1120.59 290.4C1120.59 270.418 1120.84 250.437 1120.34 230.455C1119.85 210.72 1109.49 201.346 1088.03 201.593C1078.9 201.593 1069.77 202.086 1060.89 205.293C1057.44 206.526 1055.96 206.033 1055.96 202.086C1055.96 201.099 1055.71 200.112 1055.22 199.372C1053.74 195.179 1054.97 192.959 1059.66 191.972C1075.2 188.765 1090.99 187.038 1106.78 190.738C1126.27 195.425 1136.63 208.5 1137.12 228.975C1137.37 241.063 1137.12 252.657 1137.12 264.251Z" fill="white"/>
<path d="M524.595 264.747C524.595 275.601 524.348 286.455 524.842 297.31C525.088 302.49 523.855 304.71 518.428 305.45C497.953 308.411 477.724 311.617 457.003 307.177C443.188 304.217 432.087 297.556 428.14 282.755C423.7 266.227 430.114 251.919 445.408 244.765C458.729 238.351 473.284 237.611 487.839 238.105C489.812 238.105 490.306 238.845 490.552 240.818C491.539 249.699 491.046 250.192 482.411 250.439C474.024 250.686 465.637 250.932 457.743 254.139C448.122 258.086 443.928 264.253 444.175 274.368C444.422 284.235 449.109 290.402 458.976 293.609C472.544 298.05 486.605 296.076 500.42 295.336C506.587 295.089 508.067 292.869 507.82 286.702C507.327 269.187 507.327 251.672 507.574 234.158C508.067 209.982 495.239 201.595 473.284 202.088C464.403 202.335 455.769 202.828 447.382 205.789C444.422 206.775 443.188 206.282 442.942 203.075C442.942 201.102 442.448 199.375 441.955 197.401C441.215 194.688 441.955 193.454 444.668 192.961C462.183 188.767 479.698 187.04 497.213 191.974C514.728 196.908 523.608 209.736 524.348 229.964C524.595 241.558 524.348 253.153 524.595 264.747C524.348 264.747 524.348 264.747 524.595 264.747Z" fill="white"/>
<path d="M724.165 263.754C724.165 275.842 724.165 288.176 724.165 300.264C724.165 302.484 724.411 304.211 721.451 304.951C701.469 308.158 681.488 311.118 661.259 308.158C656.326 307.418 651.639 306.184 646.952 304.211C633.384 298.537 625.983 286.203 626.97 271.401C627.71 257.587 636.837 246.733 651.885 242.046C663.233 238.592 675.074 237.605 686.915 238.099C694.315 238.345 689.875 244.019 690.615 246.979C691.602 250.68 688.888 250.68 686.175 250.433C676.801 249.94 667.427 250.433 658.546 253.64C648.678 257.34 643.745 264.247 643.991 273.868C644.238 283.736 649.172 290.396 659.286 293.357C674.581 298.044 690.122 295.823 705.663 294.343C707.39 294.097 707.637 293.11 707.637 291.63C707.143 269.428 708.87 246.979 706.65 224.777C705.416 212.443 697.522 204.549 685.435 202.822C673.1 200.849 660.766 201.589 648.678 205.289C644.485 206.523 643.004 205.783 642.511 201.589C641.278 193.202 641.031 193.202 649.665 191.475C664.466 188.761 679.514 187.281 694.562 190.981C713.31 195.668 723.425 208.249 724.165 227.244C724.411 239.579 724.165 251.666 724.165 263.754Z" fill="white"/>
<path d="M-0.108887 151.514C34.4273 151.514 68.2235 151.514 102.513 151.514C85.2449 181.363 68.4702 210.472 51.2021 240.321C34.1807 210.719 17.1592 181.363 -0.108887 151.514Z" fill="white"/>
<path d="M767.828 207.511C767.828 208.744 767.828 210.224 767.828 211.458C767.582 227.986 770.048 231.686 785.59 237.853C796.691 242.293 808.285 245.5 819.139 250.928C833.694 257.835 839.614 268.689 837.641 282.997C836.407 291.631 831.474 297.551 824.32 301.745C817.166 305.939 809.272 307.912 800.884 308.652C784.603 310.379 768.568 309.886 753.027 304.459C750.067 303.472 749.327 302.485 750.313 299.278C753.274 290.397 753.027 290.644 761.908 293.111C776.462 297.305 791.263 298.291 806.065 294.591C818.152 291.384 822.839 284.477 820.619 274.116C819.386 268.442 815.439 265.235 810.752 263.015C800.638 257.835 789.537 254.875 778.929 250.434C775.229 248.954 771.529 247.474 768.075 245.5C756.974 239.58 750.313 230.946 751.3 217.378C751.794 209.977 751.547 202.577 751.3 195.176C751.3 192.463 752.04 191.723 754.754 191.723C768.075 191.229 768.075 191.229 768.075 204.55C767.828 205.29 767.828 206.277 767.828 207.511Z" fill="white"/>
<path d="M551.977 251.67C551.977 235.388 551.977 218.86 551.977 202.579C551.977 198.878 552.717 196.905 556.664 195.672C576.399 189.504 596.628 188.271 617.103 191.725C621.296 192.465 622.53 193.698 621.296 198.385C620.063 204.059 618.336 205.786 612.169 204.306C599.588 201.592 586.76 202.332 574.179 204.552C569.985 205.292 568.505 207.019 568.505 211.706C568.752 241.555 568.505 271.158 568.752 301.007C568.752 305.941 568.012 307.668 562.585 307.421C552.224 306.928 552.224 307.174 552.224 297.06C551.977 281.765 551.977 266.717 551.977 251.67Z" fill="white"/>
</g>
<defs>
<clipPath id="clip0">
<rect width="1278" height="500" fill="white"/>
</clipPath>
</defs>
</svg>
