<svg width="1278" height="500" viewBox="0 0 1278 500" fill="none" xmlns="http://www.w3.org/2000/svg">
<g clip-path="url(#clip0)">
<path d="M1079.45 203.139H1065.52V300.672H1079.45V203.139Z" fill="white"/>
<path fill-rule="evenodd" clip-rule="evenodd" d="M1089.69 236.029V213.801L1147.73 284.21V203.585H1162.24V300.449H1142.89L1089.69 236.029ZM964.248 286.271H1039.1V300.172H964.231L964.248 286.271ZM964.248 203.585H1039.1V217.053L978.76 217.424V242.304H1036.8V256.064H978.742V275.481H964.231L964.248 203.585ZM562.458 203.585H576.967V286.549H622.974V300.445H562.44L562.458 203.585ZM657.788 252.017L680.698 203.585H695.212L741.148 300.449H726.639L716.966 281.033H658.556L649.246 300.449H634.736L651.918 264.426H709.545L687.96 220.173L672.302 252.013L657.788 252.017ZM732.226 203.585H749.24L776.183 236.307L767.552 246.373L732.226 203.585ZM818.797 203.585H835.687L787.322 262.18V300.454H775.264V256.412L818.797 203.585ZM436.519 236.77H451.028V218.827H504.23C506.221 218.697 508.217 219.003 510.077 219.725C511.937 220.446 513.618 221.565 515 223.003C516.382 224.441 517.433 226.164 518.079 228.05C518.725 229.937 518.95 231.941 518.739 233.924C518.739 249.978 505.811 249.833 504.23 249.833H436.519V300.449H451.028V264.431H509.066C509.066 264.431 533.249 265.799 533.249 233.712C533.249 201.626 508.413 203.801 509.066 203.585H436.514L436.519 236.77Z" fill="white"/>
<path d="M849.552 250.992C849.601 245.091 850.663 239.243 852.69 233.704C854.766 228.017 857.918 222.787 861.972 218.299C866.103 213.704 871.107 209.981 876.69 207.35C882.871 204.46 889.633 203.027 896.453 203.161C904.393 202.902 912.24 204.918 919.077 208.972C925.112 212.594 930.017 217.832 933.246 224.097L921.247 232.077C919.999 229.404 918.345 226.942 916.342 224.78C914.538 222.857 912.416 221.257 910.074 220.05C907.842 218.881 905.465 218.016 903.003 217.479C900.665 217.064 898.301 216.839 895.932 216.805C891.305 216.684 886.717 217.704 882.575 219.775C878.843 221.752 875.586 224.521 873.031 227.888C870.396 231.226 868.408 235.03 867.17 239.103C864.356 247.493 864.453 256.592 867.444 264.92C868.892 269.043 871.113 272.849 873.986 276.135C876.687 279.361 880.03 281.985 883.802 283.84C887.675 285.851 891.98 286.871 896.338 286.81C898.821 286.814 901.296 286.496 903.7 285.866C906.241 285.301 908.676 284.344 910.921 283.028C913.268 281.704 915.425 280.063 917.326 278.152C919.329 276.069 920.947 273.645 922.099 270.993L934.776 278.152C933.303 281.744 931.071 284.972 928.23 287.612C925.412 290.413 922.2 292.782 918.693 294.643C915.169 296.558 911.411 298.013 907.52 298.969C903.682 299.919 899.748 300.417 895.795 300.455C889.315 300.517 882.915 299.034 877.123 296.128C871.57 293.336 866.615 289.481 862.538 284.78C858.436 280.125 855.203 274.767 852.995 268.963C850.727 263.244 849.57 257.143 849.587 250.988L849.552 250.992ZM1278 203.147H1182.73V219.815H1278V203.147ZM1237.08 231.146H1222.56V300.672H1237.08V231.146Z" fill="white"/>
<path d="M258.185 136.357C265.733 138.765 272.794 135.302 280.045 134.491C310.48 131.082 327.281 145.691 327.281 175.883C327.281 220.035 327.281 264.186 327.281 308.338C327.281 337.556 311.238 358.009 282.074 363.311C238.328 371.238 194.338 377.677 150.565 385.306C115.991 391.339 88.3147 408.626 68.5384 438.007C65.7248 442.173 65.3461 450.37 57.8251 448.26C51.0887 446.394 53.0907 439.305 52.6578 434.03C56.2289 431.243 54.6328 427.294 54.9845 423.777C56.1207 412.333 52.9284 401.16 52.8743 389.824C52.6849 334.607 52.7931 279.418 52.7931 224.201C52.7931 195.28 72.1365 169.282 103.194 164.06C149.267 156.269 195.393 148.802 241.601 141.687C246.958 140.875 254.425 143.31 258.185 136.357ZM196.422 228.475C187.9 228.232 179.459 228.881 171.613 232.452C159.52 237.971 150.998 246.845 149.483 260.453C148.131 272.654 152.432 282.799 163.389 289.401C168.475 297.273 177.457 296.597 184.897 298.464C201.751 302.711 222.745 292.701 230.076 278.146C237.922 262.536 234.08 249.361 217.983 235.726C211.68 230.369 203.942 229.855 196.422 228.475Z" fill="white"/>
<path d="M258.185 136.357C254.425 143.31 246.931 140.875 241.574 141.714C195.394 148.829 149.267 156.296 103.167 164.088C72.1637 169.309 52.8202 195.308 52.8202 224.228C52.8202 279.445 52.712 334.634 52.9014 389.851C52.9285 401.187 56.1478 412.36 55.0116 423.804C54.6599 427.321 56.2561 431.27 52.685 434.057C43.135 379.084 33.6121 324.111 24.0621 269.164C20.7345 250.01 17.2986 230.856 13.9981 211.702C8.50617 179.779 28.1472 152.022 60.2871 149.506C126.19 144.365 192.228 140.659 258.185 136.357Z" fill="#E2E2E2"/>
<path d="M163.389 289.401C173.669 288.562 183.896 287.372 192.715 281.257C207.081 271.302 217.686 249.713 196.422 228.476C203.942 229.855 211.68 230.369 217.983 235.699C234.08 249.361 237.922 262.536 230.076 278.119C222.745 292.674 201.751 302.684 184.897 298.437C177.484 296.597 168.475 297.273 163.389 289.401Z" fill="#E2E2E2"/>
</g>
<defs>
<clipPath id="clip0">
<rect width="1278" height="500" fill="white"/>
</clipPath>
</defs>
</svg>
