<svg width="1278" height="500" viewBox="0 0 1278 500" fill="none" xmlns="http://www.w3.org/2000/svg">
<g clip-path="url(#clip0)">
<path d="M1259.49 272.808C1260.5 272.742 1261.54 272.565 1262.51 273.096C1261.94 275.57 1262.89 276.432 1265.32 275.791L1265.25 275.879C1265.14 278.244 1265.8 279.79 1268.61 279.105C1268.19 281.69 1269.14 282.95 1271.88 282.441L1271.92 282.397C1271.42 285.027 1272.34 286.286 1275.13 285.778L1275.19 285.734C1275.22 286.816 1275.24 287.899 1275.26 288.959C1274.91 291.102 1275.11 292.782 1277.98 292.34C1277.98 302.989 1277.98 313.661 1277.98 324.31C1259.95 324.31 1241.94 324.332 1223.91 324.332C1222.81 324.73 1221.02 323.426 1220.64 325.548C1220.16 328.199 1222.34 327.359 1223.6 327.713C1223.63 328.597 1223.67 329.502 1223.69 330.386C1223.03 334.054 1223.03 334.054 1226.76 334.341C1226.52 336.639 1227.58 337.523 1229.81 337.059C1229.61 339.533 1230.61 340.793 1233.21 340.329C1233.99 341.323 1235.05 340.66 1235.98 340.77C1236.46 343.422 1238.25 343.753 1240.57 343.621C1243.47 343.444 1246.36 343.554 1249.26 343.554C1250.36 343.554 1251.46 343.444 1252.55 343.599C1255.11 343.952 1256.3 343.002 1255.95 340.351L1255.88 340.196C1256.97 340.174 1258.05 340.174 1259.15 340.152C1261.92 340.969 1262.71 339.555 1262.64 337.125C1263.55 337.081 1264.43 337.037 1265.34 336.992C1267.9 337.545 1269.25 336.705 1268.76 333.899L1268.72 333.789C1269.76 333.789 1270.78 333.789 1271.81 333.789L1271.77 333.811C1271.84 334.849 1271.9 335.866 1271.97 336.904C1271.46 339.489 1272.48 340.66 1275.13 340.307C1275.17 341.367 1275.24 342.45 1275.28 343.51C1275.28 344.615 1275.28 345.698 1275.28 346.802C1275.04 348.835 1275.02 350.713 1278 350.183C1278 352.193 1278 354.226 1278 356.236C1275.11 355.684 1275.08 357.562 1275.24 359.551L1275.3 359.639C1274.2 359.639 1273.12 359.617 1272.01 359.617C1269.38 359.087 1268.12 360.015 1268.59 362.799L1268.65 362.909C1267.57 362.931 1266.47 362.953 1265.38 362.953C1264.46 362.931 1263.53 362.909 1262.6 362.865C1260.04 362.379 1258.73 363.24 1259.22 366.002C1258.14 366.068 1257.05 366.135 1255.95 366.201C1253.76 366.201 1251.58 366.223 1249.39 366.223C1245.1 366.223 1240.82 366.223 1236.53 366.223C1234.34 366.201 1232.13 366.179 1229.95 366.179C1228.84 366.179 1227.76 366.179 1226.65 366.201C1225.75 366.135 1224.84 366.068 1223.94 366.002C1224.44 363.108 1223.03 362.357 1220.47 362.909C1219.38 362.909 1218.3 362.909 1217.22 362.909C1216.16 362.843 1215.1 362.798 1214.02 362.732C1214.57 359.838 1213.09 359.153 1210.57 359.595L1210.63 359.528C1210.63 356.082 1210.63 356.082 1207.08 356.347C1206.04 356.214 1204.34 357.187 1204.23 355.353C1204.14 353.607 1203.54 353.121 1201.95 353.254C1201.29 353.298 1200.91 352.746 1201 352.171C1201.31 349.52 1199.43 350.139 1197.97 350.116C1197.93 349.056 1197.91 348.017 1197.86 346.957C1198.39 344.306 1197.47 343.024 1194.64 343.532L1194.55 343.599C1194.55 342.516 1194.55 341.433 1194.55 340.351C1195.1 337.699 1194.11 336.484 1191.35 336.926L1191.28 336.97C1191.28 334.938 1191.28 332.927 1191.3 330.894C1191.3 329.723 1191.19 328.53 1191.35 327.381C1191.7 324.885 1190.68 323.868 1188.23 324.222C1188.23 319.847 1188.23 315.45 1188.23 311.076C1190.75 311.429 1191.68 310.347 1191.32 307.894C1191.19 306.922 1191.26 305.906 1191.24 304.911C1191.26 303.829 1191.26 302.746 1191.28 301.641C1191.28 300.537 1191.28 299.432 1191.26 298.327C1191.32 297.267 1191.39 296.184 1191.46 295.124C1193.8 295.543 1195.19 294.969 1194.53 292.207C1194.55 291.125 1194.57 290.042 1194.59 288.981L1194.66 289.026C1197.42 289.578 1198.26 288.186 1198.04 285.711C1199.01 285.358 1200.74 286.264 1200.91 284.916C1201.16 283.038 1201.62 282.066 1203.67 282.176C1204.36 282.221 1204.34 281.425 1204.38 280.895C1204.45 280.343 1204.49 279.569 1205.13 279.613C1208.03 279.812 1207.56 277.559 1207.96 275.924C1208.82 275.857 1209.71 275.813 1210.57 275.747C1212.69 275.924 1214.57 275.835 1213.75 272.83V272.698C1214.83 272.72 1215.92 272.764 1217 272.786C1220.38 273.118 1220.42 273.074 1220.53 269.671L1220.49 269.627C1223.6 269.605 1226.72 269.583 1229.83 269.561C1235.23 269.561 1240.62 269.561 1246.03 269.583C1247.13 269.583 1248.24 269.561 1249.32 269.561C1250.43 269.561 1251.53 269.561 1252.64 269.561C1253.7 269.627 1254.78 269.693 1255.84 269.737C1255.91 273.14 1255.91 273.14 1259.49 272.808ZM1220.62 305.066C1219.94 308.049 1221.48 308.645 1224 308.226C1232.49 308.226 1240.99 308.115 1249.48 308.314C1252.15 308.38 1253.19 307.695 1252.53 305.044C1252.53 303.939 1252.53 302.857 1252.55 301.752C1253.36 298.902 1251.77 298.239 1249.39 298.349C1249.37 297.466 1249.32 296.56 1249.3 295.676C1249.7 293.091 1248.73 291.854 1246.01 292.34C1245.08 292.34 1244.15 292.362 1243.22 292.362L1243.31 292.207C1243.49 289.6 1242.25 288.65 1239.73 289.026C1238.65 289.18 1237.52 289.158 1236.44 289.004C1233.94 288.65 1232.86 289.6 1233.24 292.119C1232.18 292.207 1231.12 292.274 1230.03 292.362C1228.42 292.229 1226.61 291.721 1226.76 294.417C1226.79 294.925 1226.41 295.278 1225.9 295.278C1222.9 295.212 1223.54 297.178 1223.85 298.946C1223.78 299.852 1223.69 300.758 1223.63 301.664C1220.84 301.266 1220.16 302.658 1220.62 305.066Z" fill="white"/>
<path d="M119.264 112.161C120.148 112.139 121.032 112.117 121.938 112.095C124.589 112.603 125.627 111.41 125.318 108.847C127.859 109.333 129.008 108.295 128.72 105.71L128.654 105.577C129.737 105.555 130.819 105.533 131.902 105.511C134.156 105.82 135.769 105.4 135.26 102.572C136.299 102.55 137.315 102.528 138.354 102.528C141.668 102.948 141.8 102.838 141.844 99.4571C143.855 99.3687 145.844 99.2583 147.854 99.1699C150.97 99.5013 154.107 99.3467 157.244 99.2362C163.674 99.5013 170.125 99.435 176.555 99.2583C187.469 99.5455 198.384 99.5013 209.298 99.2804C215.75 99.3908 222.179 99.5676 228.631 99.192C231.945 99.3466 235.237 99.4571 238.551 99.1699C240.562 99.2362 242.572 99.3245 244.583 99.3908C244.804 100.341 243.964 101.888 245.489 102.064C247.411 102.285 249.311 103.191 251.278 102.484C252.36 102.55 253.443 102.594 254.525 102.639C255.674 102.749 256.801 102.771 257.884 102.307C258.768 102.418 259.651 102.506 260.535 102.617C260.005 105.445 261.662 105.754 263.827 105.511C264.932 105.533 266.014 105.555 267.119 105.599C268.555 106.24 271.096 105.268 270.941 108.251C270.941 108.339 271.737 108.56 272.157 108.582C273.615 108.715 275.073 108.803 276.531 108.913C276.134 111.697 277.437 112.581 280.022 111.985C281.105 111.985 282.165 112.007 283.248 112.007C284.309 112.051 285.369 112.095 286.43 112.139C285.921 114.967 287.291 115.807 289.854 115.343V115.387C289.854 117.066 289.523 118.989 292.307 118.635C292.55 118.613 293.102 119.011 293.102 119.209C293.036 121.75 294.936 121.286 296.438 121.463C297.3 122.148 298.316 121.662 299.244 121.905C298.692 124.623 300.018 125.55 302.536 125.307C302.559 126.213 302.558 127.097 302.581 128.003C302.05 130.698 303.067 131.892 305.851 131.361L305.873 131.317C305.342 133.991 306.403 135.139 309.12 134.675L309.143 134.653C309.386 135.758 308.303 137.68 310.137 137.791C312.103 137.923 311.816 139.315 312.368 140.287C312.368 140.442 312.39 140.575 312.435 140.707C311.949 143.204 313.031 144.353 315.506 144.286C315.55 145.303 315.616 146.341 315.66 147.358C314.821 150.539 314.931 150.672 318.533 150.65L318.687 150.627C318.709 151.71 318.709 152.771 318.709 153.853C318.709 154.936 318.731 156.041 318.731 157.123C317.958 159.907 319.173 160.879 321.847 160.57C321.891 161.454 321.935 162.36 321.979 163.243C321.957 164.348 321.935 165.431 321.913 166.535C321.891 167.706 321.979 168.877 321.825 170.026C321.471 172.611 322.487 173.694 325.073 173.274L325.227 173.252C325.227 183.879 325.227 194.529 325.227 205.156L325.095 205.134C322.488 204.714 321.493 205.841 321.847 208.404C322.001 209.553 321.913 210.746 321.935 211.917C321.913 212.779 321.891 213.663 321.869 214.524C318.422 214.657 318.422 214.657 318.709 218.545C318.732 219.451 318.754 220.357 318.754 221.241L318.577 221.175C315.174 221.219 315.152 221.241 315.395 224.666C315.395 225.726 315.373 226.787 315.373 227.847L315.307 227.825C312.39 227.162 312.192 228.886 312.457 231.051L312.39 231.007C309.827 230.675 308.701 231.758 309.143 234.343C307.044 234.166 305.232 234.321 305.983 237.237L305.939 237.193C302.89 237.105 301.807 237.878 302.669 239.623C303.31 240.905 304.834 240.551 305.961 240.949C307.022 240.949 308.104 240.927 309.165 240.927V241.06C308.634 244.042 310.579 243.888 312.545 243.689C314.556 243.689 316.588 243.667 318.599 243.667C319.704 243.645 320.808 243.644 321.913 243.622C324.1 243.711 326.288 243.777 328.475 243.865C328.122 246.318 329.005 247.445 331.612 247.069C332.783 246.892 333.999 247.003 335.17 246.981C343.588 246.981 352.028 246.892 360.446 247.069C363.008 247.113 364.179 246.428 363.892 243.821C364.975 243.777 366.035 243.733 367.118 243.689C368.223 243.711 369.327 243.755 370.432 243.777C370.41 244.838 370.41 245.898 370.388 246.981L370.432 247.047C367.869 246.605 366.521 247.489 366.985 250.273C365.947 250.317 364.887 250.361 363.848 250.405C361.197 249.743 360.136 250.847 360.379 253.477L360.446 253.587C359.385 253.631 358.324 253.675 357.242 253.697C354.9 253.256 353.685 254.051 354.016 256.57C353.044 256.68 352.072 256.769 351.1 256.879C348.89 256.017 347.432 256.282 347.786 259.155C347.609 259.376 347.454 259.574 347.277 259.795C346.372 259.862 345.488 259.928 344.582 259.972C343.477 259.95 342.395 259.906 341.29 259.884C338.572 259.177 337.467 260.282 337.799 262.999C337.445 262.999 337.07 263.021 336.716 263.021C335.612 263.021 334.529 262.889 334.485 264.59C334.441 266.402 335.523 266.402 336.783 266.357C337.335 266.335 337.865 266.313 338.418 266.291C341.555 266.291 344.67 266.291 347.808 266.291C348.89 266.291 349.995 266.291 351.078 266.291C351.983 266.335 352.889 266.38 353.795 266.446C353.42 269.186 354.568 270.202 357.242 269.539C358.324 269.539 359.429 269.539 360.512 269.561L360.446 269.694C359.959 272.588 361.307 273.45 363.959 272.831C365.019 272.809 366.102 272.809 367.162 272.787L367.096 272.942C366.853 275.173 367.008 277.029 370.101 275.991C370.233 276.035 370.344 276.101 370.432 276.211C369.99 278.553 370.962 279.459 373.282 278.951C373.437 278.995 373.548 279.084 373.658 279.194C373.503 281.271 373.791 282.906 376.53 282.287C376 284.961 376.972 286.198 379.778 285.646L379.844 285.602C379.358 288.253 380.286 289.512 383.092 288.938H383.159C383.159 289.998 383.181 291.059 383.181 292.119C382.518 294.815 383.622 295.964 386.34 295.677C386.384 296.693 386.428 297.709 386.451 298.726C386.451 301.863 386.473 305.023 386.473 308.16C386.451 313.529 386.428 318.876 386.384 324.245C386.406 325.371 386.428 326.498 386.451 327.603C386.384 329.591 386.318 331.58 386.274 333.568C383.512 333.148 382.606 334.408 383.159 336.993C383.159 338.098 383.159 339.18 383.159 340.285L383.092 340.219C380.242 339.688 379.314 340.97 379.866 343.643C379.844 344.704 379.822 345.786 379.8 346.847L379.734 346.803C376.884 346.251 376.066 347.598 376.508 350.183L376.486 350.161C374.277 349.896 372.465 350.029 373.393 353.078L373.327 353.144C371.449 352.724 369.791 352.614 369.791 355.309C369.791 355.574 369.394 356.06 369.173 356.06C366.544 355.972 366.963 357.806 367.008 359.397L367.074 359.551C365.991 359.573 364.931 359.595 363.848 359.618C361.219 359.043 359.937 359.949 360.401 362.755L360.446 362.865C359.363 362.887 358.28 362.91 357.176 362.932C356.071 362.932 354.966 362.954 353.884 362.954C352.978 362.91 352.05 362.976 351.144 362.843C348.603 362.468 347.388 363.418 347.675 366.047C345.488 366.113 343.3 366.157 341.135 366.224C337.998 366.224 334.838 366.224 331.701 366.224C329.513 366.157 327.326 366.113 325.161 366.047C325.448 363.44 324.277 362.49 321.736 362.843C320.676 362.998 319.549 362.887 318.466 362.887C317.362 362.887 316.257 362.91 315.152 362.91C314.246 362.865 313.363 362.821 312.457 362.799C312.854 360.104 311.706 359.043 309.032 359.64C307.95 359.618 306.867 359.595 305.784 359.573L305.851 359.463C305.806 357.894 306.381 355.928 303.619 356.193C303.155 356.237 302.603 356.016 302.625 355.486C302.713 352.901 300.747 353.608 299.355 353.387L299.289 353.298C299.068 351.929 299.797 349.962 297.234 350.051C296.726 350.073 296.394 349.565 296.461 349.101C296.748 346.383 294.825 346.869 293.235 346.825C293.367 344.461 292.704 342.87 289.876 343.533L289.766 343.577C289.744 342.494 289.722 341.412 289.7 340.329C289.7 339.224 289.722 338.12 289.722 337.015C289.744 336.021 289.678 335.027 289.832 334.054C290.252 331.337 289.015 330.475 286.496 330.917L286.452 330.939C286.452 329.834 286.452 328.73 286.452 327.625C286.452 318.964 286.43 310.303 286.43 301.642C286.43 300.537 286.43 299.455 286.43 298.35L286.562 298.394C289.147 298.836 290.252 297.82 289.854 295.191C289.722 294.218 289.788 293.202 289.766 292.208C289.832 291.169 289.898 290.131 289.965 289.07C292.704 289.556 293.456 288.12 293.213 285.734C294.958 285.778 296.836 286.043 296.549 283.26C296.483 282.619 297.145 282.398 297.72 282.398C299.2 282.42 299.222 281.426 299.2 280.365C299.178 278.995 299.178 277.648 299.178 276.278C300.216 276.234 301.277 276.167 302.315 276.123C305.851 276.499 305.85 276.499 305.762 272.964L305.718 272.853C306.933 272.61 308.855 273.98 309.12 271.616C309.452 268.677 307.154 269.981 305.784 269.782C297.344 269.716 288.926 269.672 280.486 269.605C280.796 266.976 279.625 266.004 277.04 266.402C275.979 266.556 274.852 266.468 273.77 266.468C272.665 266.468 271.56 266.468 270.455 266.468C269.351 266.468 268.246 266.49 267.141 266.49C266.059 266.424 264.954 266.38 263.871 266.313C264.313 263.618 263.142 262.624 260.535 263.11C259.607 263.132 258.657 263.176 257.729 263.198C256.448 263.198 255.166 263.198 253.885 263.198C252.979 263.154 252.095 263.087 251.189 263.043C251.697 260.171 250.35 259.331 247.72 259.928C245.511 259.972 243.302 259.597 241.092 260.016C240.208 259.972 239.325 259.906 238.441 259.862C238.397 256.415 237.999 256.062 235.149 257.034C234.044 257.034 232.939 257.034 231.857 257.034C230.752 257.012 229.669 256.989 228.565 256.989C228.962 254.404 227.858 253.278 225.25 253.675C224.146 253.101 223.041 253.079 221.914 253.609C221.03 253.587 220.169 253.543 219.285 253.521C219.572 250.361 217.65 250.118 215.264 250.472C214.336 250.472 213.408 250.472 212.48 250.494L212.546 250.361C212.944 247.666 211.795 246.649 209.144 247.202C208.039 247.224 206.934 247.224 205.83 247.246C204.747 247.18 203.686 247.135 202.604 247.069C203.112 244.263 201.764 243.446 199.223 243.91C198.295 243.954 197.368 243.976 196.44 244.02C195.379 243.954 194.296 243.888 193.236 243.821C193.678 240.971 192.396 240.087 189.745 240.772C188.662 240.794 187.58 240.816 186.497 240.839C185.591 240.772 184.707 240.684 183.802 240.618C184.199 237.966 183.006 236.994 180.443 237.281C179.294 237.414 178.101 237.105 176.952 237.524C175.914 237.458 174.876 237.392 173.837 237.326C173.903 233.658 173.704 233.503 170.567 234.498C169.462 234.52 168.336 234.52 167.231 234.542C166.17 234.453 165.088 234.343 164.027 234.254C164.337 231.758 163.166 230.874 160.779 231.183C159.807 231.294 158.791 231.25 157.819 231.25C156.714 231.25 155.631 231.272 154.527 231.272C153.444 231.205 152.361 231.139 151.279 231.073C151.676 228.377 150.506 227.383 147.876 227.935C146.772 227.935 145.667 227.935 144.584 227.935C143.656 227.958 142.728 227.98 141.8 228.002C140.718 227.935 139.635 227.869 138.53 227.803C138.972 225.107 137.757 224.179 135.15 224.555C134.067 224.71 132.941 224.599 131.836 224.621C128.698 224.666 125.561 224.688 122.424 224.732C113.807 224.732 105.212 224.71 96.5954 224.71C93.3034 224.688 89.9893 224.688 86.6972 224.666C84.6645 224.82 83.3609 224.224 83.847 221.837C84.9296 221.793 86.0123 221.749 87.0949 221.705C90.0776 222.434 90.0554 220.534 89.9008 218.523C90.9834 218.148 92.2428 218.766 93.2592 217.971C95.2918 218.148 97.1035 218.037 96.5291 215.165C97.5675 215.099 98.6281 215.032 99.6666 214.966C102.428 215.761 103.4 214.546 103.157 211.917C104.041 211.873 104.947 211.829 105.831 211.807C108.571 212.381 109.675 211.321 109.278 208.537C109.123 207.476 109.233 206.371 109.211 205.289C109.233 190.928 109.278 176.544 109.278 162.183C109.278 154.141 109.211 146.076 109.167 138.034C109.233 136.951 109.3 135.846 109.366 134.764C111.818 135.117 112.923 134.211 112.547 131.626C112.371 130.455 112.481 129.262 112.481 128.069C112.481 126.965 112.481 125.86 112.503 124.777C112.548 123.893 112.592 122.988 112.614 122.104C115.331 122.457 116.436 121.375 115.751 118.657L115.795 118.701C118.557 119.187 119.596 118.016 119.087 115.321C119.176 114.26 119.22 113.222 119.264 112.161ZM318.511 330.939C318.4 333.171 319.218 334.386 321.67 333.878C321.714 334.01 321.803 334.121 321.913 334.231C321.228 337.103 322.841 337.457 325.095 337.081L325.051 337.236C324.741 339.887 325.934 340.837 328.475 340.307C329.58 340.285 330.685 340.285 331.789 340.263C334.882 340.263 337.998 340.241 341.091 340.241C343.654 340.904 344.935 339.998 344.692 337.28C345.731 337.214 346.747 337.148 347.786 337.103C349.553 337.656 351.122 337.877 351.078 335.247C351.078 334.761 351.321 334.253 351.851 334.297C354.657 334.629 354.325 332.662 354.37 330.961C357.22 331.58 357.264 329.658 357.286 327.735C359.827 328.023 360.865 326.94 360.446 324.377C360.269 323.25 360.291 322.079 360.225 320.908C360.225 317.859 360.225 314.81 360.247 311.783C360.313 310.612 360.291 309.419 360.446 308.248C360.777 305.818 359.937 304.625 357.352 305.045C357.264 303.962 357.176 302.901 357.087 301.819C357.374 299.742 357.308 297.93 354.37 298.438C355.541 294.859 350.26 295.544 350.503 292.583C348.47 292.716 346.548 291.059 344.471 292.252C343.389 292.208 342.306 292.164 341.201 292.119C341.511 289.601 340.318 288.761 337.909 289.07C336.738 289.225 335.545 289.225 334.374 289.07C331.922 288.717 330.839 289.689 331.104 292.164C330.198 292.23 329.315 292.318 328.409 292.385C326.244 292.031 324.476 292.142 325.073 295.124C324.034 295.168 323.018 295.213 321.979 295.257C319.35 294.682 318.091 295.632 318.422 298.394C315.683 298.085 314.666 299.3 315.285 301.929C315.241 302.968 315.174 304.006 315.13 305.045C314.246 305.288 312.656 304.536 312.567 305.84C312.413 307.762 311.065 309.684 312.346 311.651C312.346 313.683 312.368 315.716 312.368 317.749C312.368 319.384 312.368 321.041 312.368 322.676C311.661 326.321 312.346 327.492 315.241 327.625C314.843 330.188 315.948 331.27 318.511 330.939ZM263.893 218.545C266.456 218.899 267.605 217.838 267.208 215.253C269.903 215.629 270.986 214.524 270.411 211.851C270.389 210.746 270.389 209.641 270.367 208.515C270.367 207.432 270.367 206.349 270.389 205.245L270.5 205.289C271.803 205.046 273.814 206.128 273.77 203.389C273.659 198.661 273.681 193.954 273.637 189.226C273.615 188.188 273.615 187.149 273.593 186.111C273.637 182.929 273.549 179.726 273.792 176.566C273.991 173.937 273.129 172.832 270.478 173.296L270.389 173.34C270.389 172.236 270.389 171.153 270.389 170.048C270.411 168.966 270.323 167.883 270.478 166.823C270.853 164.193 269.925 162.934 267.163 163.354C267.163 161.653 267.583 159.686 264.733 159.973C264.49 159.996 263.982 159.576 263.982 159.355C263.96 156.681 262.015 157.366 260.491 157.322C259.607 157.278 258.723 157.234 257.84 157.19C258.105 154.693 257.022 153.588 254.503 153.964C254.945 151.158 253.62 150.296 251.013 150.672C249.952 150.826 248.869 150.716 247.787 150.738C246.682 150.76 245.577 150.782 244.473 150.804C243.39 150.738 242.307 150.672 241.225 150.627C241.645 148.02 240.562 147.159 237.933 147.358C234.773 147.601 231.592 147.446 228.432 147.468C222.003 147.49 215.551 147.512 209.122 147.556C197.345 147.556 185.591 147.578 173.815 147.578C169.418 147.578 165.044 147.601 160.647 147.601C159.653 147.512 158.636 147.115 157.752 147.91C157.134 148.617 157.333 149.479 157.333 150.274C157.311 166.646 157.311 182.996 157.311 199.368C157.311 200.075 157.156 200.848 157.708 201.467C157.752 201.643 157.775 201.82 157.819 202.019C157.266 204.825 158.526 205.775 161.177 205.267C165.397 205.267 169.639 205.245 173.859 205.245C174.942 205.289 176.024 205.355 177.107 205.399C177.527 206.526 176.245 208.404 178.786 208.603C181.548 208.824 180.885 206.902 181.062 205.443C181.769 205.443 182.454 205.466 183.161 205.466C182.807 207.918 183.757 209.023 186.342 208.647C187.513 208.47 188.729 208.581 189.9 208.581C191.004 208.559 192.087 208.537 193.192 208.515C194.274 208.581 195.357 208.647 196.462 208.713C196.064 211.254 197.08 212.337 199.687 211.961C200.66 211.829 201.654 211.895 202.648 211.873C204.835 211.873 207.045 211.873 209.232 211.873L209.188 211.939C208.79 214.458 209.718 215.563 212.414 215.253C214.468 215.032 216.567 215.187 218.644 215.165C218.821 215.165 218.976 215.187 219.13 215.209C219.329 216.314 218.556 218.081 220.699 217.905C223.35 217.684 225.869 218.59 228.498 218.567C228.189 220.733 229.095 221.572 231.282 221.307C232.542 221.153 233.845 221.285 235.149 221.285C236.055 221.351 236.96 221.396 237.844 221.462C237.535 223.892 238.485 225.019 241.048 224.621C242.219 224.445 243.412 224.555 244.605 224.533C245.688 224.555 246.77 224.555 247.853 224.577C250.018 224.555 252.184 224.555 254.349 224.533C255.255 224.555 256.16 224.511 257.022 224.621C259.607 224.997 260.889 224.069 260.646 221.351C262.678 221.484 264.335 221.219 263.893 218.545Z" fill="white"/>
<path d="M672.993 227.934C698.732 227.934 724.472 227.956 750.212 227.956C749.726 230.784 751.03 231.623 753.637 231.049C754.741 231.049 755.824 231.049 756.929 231.027C757.857 231.005 758.785 230.96 759.713 230.938C760.795 230.96 761.878 230.983 762.983 231.005L762.916 231.181C762.983 234.849 763.159 234.982 766.23 233.943C767.313 234.253 768.374 234.23 769.478 234.01C769.501 234.098 769.501 234.186 769.456 234.275C769.633 235.954 769.014 238.185 772.041 237.854C772.262 237.832 772.77 238.296 772.748 238.495C772.594 241.102 774.67 240.306 775.974 240.66C776.283 242.096 775.797 244.107 778.36 243.996C778.537 243.996 778.913 244.548 778.891 244.814C778.626 247.664 780.592 247.156 782.271 247.111L782.315 247.067C782.359 248.128 782.404 249.166 782.47 250.227C782.227 251.287 782.161 252.348 782.404 253.408C782.779 255.087 782.779 257.142 785.497 256.524C785.563 256.7 785.607 256.855 785.696 257.032C785.629 261.274 785.563 265.516 785.475 269.758C783.486 269.36 782.691 270.355 782.426 272.188C782.227 273.47 782.183 274.729 782.47 275.989C782.249 277.116 782.227 278.242 782.58 279.347L782.448 279.369C778.957 279.016 778.714 279.259 779.465 282.44C779.2 283.501 779.222 284.583 779.399 285.644V285.688C776.681 285.18 775.62 286.528 775.598 289.046C774.715 289.069 773.809 289.069 772.925 289.091C770.362 288.627 769.037 289.488 769.501 292.272L769.545 292.361C767.954 292.338 765.789 291.543 766.275 294.526C766.628 296.691 768.528 295.189 769.567 295.785C769.036 298.724 770.959 298.569 772.881 298.414C773.765 298.459 774.671 298.481 775.554 298.525C775.665 301.021 776.814 302.281 779.443 301.773V301.817C779.112 304.071 779.509 305.661 782.359 304.932C781.962 307.451 782.602 308.998 785.585 308.335L785.651 308.291C785.696 309.373 785.74 310.456 785.784 311.516C785.762 312.444 785.74 313.372 785.718 314.278C785.055 316.929 786.16 318.211 788.833 318.255C788.899 319.161 788.966 320.067 789.01 320.951C789.01 326.319 789.01 331.666 789.01 337.035C788.988 338.118 788.988 339.223 788.966 340.305L788.833 340.239C785.939 339.664 785.143 341.078 785.651 343.663C785.651 344.746 785.651 345.851 785.651 346.934L785.585 346.889C784.524 347.132 782.845 346.138 782.536 347.729C782.249 349.32 781.697 349.894 780.15 349.938C779.266 349.96 779.134 350.844 779.134 351.618C779.112 352.302 778.957 353.054 778.161 353.009C775.51 352.855 775.842 354.689 775.842 356.324C773.875 356.478 772.174 356.854 772.859 359.483C771.798 359.549 770.76 359.593 769.699 359.66C767.159 359.152 765.744 359.903 766.23 362.775C765.148 362.841 764.087 362.908 763.005 362.952C762.077 362.93 761.171 362.908 760.243 362.908C759.138 362.908 758.033 362.886 756.929 362.886C755.736 362.886 754.521 363.018 753.372 362.841C750.742 362.444 749.903 363.637 750.256 366.045C734.172 366.089 718.087 366.133 702.002 366.133C692.347 366.133 682.714 366.089 673.059 366.067C673.037 364.874 672.993 363.681 672.993 362.488C672.993 330.562 672.993 298.613 672.993 266.687C672.948 253.806 672.97 240.881 672.993 227.934ZM746.92 257.076C745.815 256.966 744.711 256.877 743.606 256.767C744.18 253.85 742.59 253.408 740.226 253.806C731.476 253.784 722.749 253.718 714.022 253.806C712.144 253.828 710.221 252.856 708.366 253.961C706.51 253.563 705.493 254.093 705.405 256.214C705.361 257.076 705.074 257.982 705.074 258.888C705.074 265.626 705.206 272.387 705.029 279.126C704.963 281.733 705.714 282.86 708.366 282.33C718.993 282.33 729.598 282.33 740.226 282.352C741.352 282.374 742.457 282.396 743.584 282.418C745.882 282.772 747.428 282.286 746.92 279.457C749.372 279.524 750.676 278.463 750.433 275.878C752.753 276.232 754.123 275.657 753.372 272.94C753.394 269.736 753.394 266.51 753.416 263.307C754.012 260.699 753.195 259.374 750.323 259.816C750.654 257.098 749.063 256.745 746.92 257.076ZM756.487 317.879C757.548 315.029 755.979 314.344 753.57 314.366C754.034 311.472 752.355 311.273 750.19 311.693C749.129 311.627 748.047 311.583 746.986 311.516C747.362 309.064 746.456 307.937 743.849 308.313C742.678 308.467 741.463 308.357 740.27 308.379C729.62 308.379 718.971 308.401 708.321 308.401C705.957 308.07 704.963 308.755 705.029 311.45C705.228 319.404 705.051 327.38 705.096 335.356C705.118 339.819 705.626 340.349 709.978 340.349C721.18 340.349 732.36 340.283 743.562 340.261C746.08 340.769 747.384 339.952 746.964 337.212C748.047 337.124 749.152 337.035 750.234 336.947C751.98 337.521 753.482 337.676 753.548 335.157C753.57 334.671 753.791 334.185 754.322 334.207C757.481 334.273 756.818 332.13 756.619 330.274C756.664 329.391 756.73 328.529 756.774 327.645C760.155 328.242 759.492 325.856 759.668 323.911C759.889 321.613 759.072 320.663 756.774 320.995C756.686 319.956 756.575 318.918 756.487 317.879Z" fill="white"/>
<path d="M105.721 276.102C104.683 276.058 103.666 276.036 102.628 275.992C102.319 275.041 103.246 273.539 101.656 273.208C98.8939 272.655 96.1101 272.037 93.282 272.942C92.1994 272.898 91.1388 272.854 90.0562 272.81C90.3434 270.159 89.084 269.275 86.5874 269.827C85.4827 269.827 84.3779 269.827 83.2732 269.849C82.3674 269.783 81.4615 269.739 80.5557 269.672C81.0196 266.889 79.7161 266.027 77.1532 266.535C76.0485 266.557 74.9659 266.557 73.8612 266.579C72.7565 266.579 71.6737 266.579 70.569 266.557C69.4864 266.491 68.4038 266.425 67.3212 266.358C67.8294 263.552 66.4816 262.735 63.9407 263.221C63.0128 263.243 62.0849 263.287 61.1569 263.309C58.9696 263.309 56.7601 263.287 54.5728 263.287C52.5622 263.221 50.5517 263.177 48.5632 263.11C48.8504 260.658 47.9003 259.598 45.3152 259.841C43.0616 260.062 40.786 259.973 38.5103 260.017C33.2297 260.017 27.9491 259.995 22.6907 259.995C19.3324 259.951 15.9519 260.062 12.5936 259.841C9.98645 259.664 9.08065 260.702 9.34578 263.133C7.3352 263.177 5.34665 263.221 3.33606 263.265C2.23135 263.221 1.10465 263.155 -6.10352e-05 263.11C0.0220333 262.072 0.0219416 261.056 0.0440359 260.017L-6.10352e-05 259.907C0.949994 259.907 1.87788 259.907 2.82794 259.929C5.08156 260.15 6.47352 259.443 6.1642 256.88C6.1642 256.88 6.20841 256.703 6.18632 256.703C7.24684 256.659 8.3074 256.637 9.39002 256.593C11.4227 256.703 13.2343 256.571 12.5715 253.698L12.5495 253.588C13.6321 253.61 14.7368 253.61 15.8194 253.632C18.4928 254.295 19.7301 253.345 19.2882 250.539L19.2219 250.428C20.3266 250.406 21.4092 250.384 22.5139 250.34C23.4419 250.384 24.3698 250.406 25.2757 250.45C27.8828 250.959 29.1423 250.053 28.6783 247.291L28.6119 247.181C29.7167 247.181 30.8214 247.158 31.9261 247.158C33.0308 247.158 34.1134 247.158 35.2181 247.181C37.8253 247.755 39.0184 246.783 38.6207 244.065C39.5266 243.999 40.4324 243.933 41.3383 243.866C42.6198 243.866 43.9012 243.866 45.1827 243.866C47.2595 243.866 49.3585 243.734 51.4354 243.933C53.8879 244.176 54.9705 243.314 54.7274 240.862C56.8927 240.795 59.08 240.707 61.2453 240.641C71.9168 240.641 82.5662 240.663 93.2378 240.663C95.403 240.707 97.5461 240.751 99.7114 240.795C100.485 241.679 99.1812 243.8 101.612 243.756C105.279 243.69 108.947 243.822 112.615 243.866C114.603 243.933 116.592 243.977 118.602 244.043C118.293 246.672 119.486 247.622 122.049 247.247C123.131 247.092 124.236 247.203 125.319 247.181C126.423 247.181 127.528 247.158 128.633 247.158C129.716 247.225 130.798 247.269 131.881 247.335C131.373 250.141 132.676 251.003 135.261 250.495C136.366 250.473 137.471 250.473 138.553 250.45C139.658 250.45 140.741 250.45 141.845 250.45C142.751 250.495 143.635 250.561 144.541 250.605C144.099 253.301 145.712 253.632 147.811 253.389C148.96 253.919 150.131 253.853 151.324 253.588C152.384 253.654 153.467 253.72 154.527 253.765C154.13 256.35 155.212 257.388 157.797 257.057C158.946 256.902 160.139 256.902 161.31 256.858C162.194 256.88 163.056 256.924 163.94 256.946C164.315 258.095 163.255 260.039 165.42 260.216C167.099 260.349 168.867 260.813 170.524 259.951C171.584 260.017 172.667 260.084 173.727 260.15C173.44 262.779 174.677 263.685 177.174 263.177C178.279 263.177 179.383 263.177 180.488 263.177C181.394 263.221 182.3 263.287 183.184 263.331C182.83 265.983 183.935 267.087 186.608 266.447C187.713 266.447 188.818 266.425 189.9 266.425C190.983 266.491 192.066 266.557 193.126 266.601C192.618 269.429 193.944 270.269 196.529 269.739C197.633 269.717 198.738 269.717 199.821 269.695C200.727 269.739 201.61 269.783 202.516 269.849C202.649 273.186 202.649 273.186 206.427 273.009C207.399 272.965 208.349 272.92 209.321 272.854C210.382 272.898 211.42 272.92 212.481 272.965C212.856 273.826 212.017 275.417 213.254 275.572C215.176 275.815 217.098 276.986 219.109 275.947C220.192 275.947 221.274 275.947 222.357 275.969C223.329 276.08 224.279 276.19 225.251 276.301C225.362 277.229 224.721 278.797 225.826 278.908C227.792 279.129 229.759 280.521 231.791 279.195C233.824 279.195 235.834 279.173 237.867 279.173C238.95 279.261 240.054 279.35 241.137 279.438C240.761 282.178 242.131 282.907 244.584 282.377C247.876 282.399 251.168 282.421 254.46 282.443C257.597 282.421 260.713 282.421 263.85 282.399C267.142 282.399 270.456 282.399 273.748 282.399C276.886 282.399 280.001 282.399 283.138 282.399C284.243 282.421 285.37 282.443 286.475 282.465C286.475 283.526 286.475 284.586 286.475 285.647C283.956 285.359 282.674 286.309 283.116 288.983L283.16 289.027C282.078 289.049 281.017 289.071 279.935 289.093C277.327 288.453 276.201 289.513 276.488 292.142C275.582 292.187 274.698 292.253 273.792 292.297C270.523 291.325 270.059 291.678 269.948 295.302C269.086 295.346 268.225 295.39 267.363 295.434C266.17 295.103 264.999 295.059 263.872 295.678C261.773 295.479 260.006 295.633 260.646 298.528L260.668 298.66C259.586 298.616 258.503 298.638 257.443 298.528C255.012 298.263 253.665 299.124 253.93 301.753C251.919 301.798 249.931 301.864 247.92 301.908C246.815 301.886 245.711 301.886 244.606 301.864C243.501 301.842 242.396 301.82 241.27 301.82C238.618 301.267 237.425 302.262 237.889 305.001C236.983 305.045 236.077 305.09 235.172 305.134C231.857 305.156 228.565 305.156 225.251 305.178C218.778 305.156 212.326 305.156 205.852 305.134C203.643 305.134 201.434 305.156 199.224 305.156C197.214 305.112 195.225 305.045 193.214 305.001C193.524 302.615 192.728 301.356 190.077 301.776C188.906 301.952 187.691 301.842 186.498 301.864C185.393 301.886 184.288 301.908 183.162 301.908C182.256 301.864 181.372 301.798 180.466 301.753C180.82 299.102 179.715 298.019 177.064 298.594C175.959 298.616 174.854 298.638 173.727 298.66C172.623 298.528 171.496 298.439 170.391 298.771C169.309 298.704 168.226 298.638 167.143 298.572C166.878 297.6 167.872 296.031 165.928 295.81C163.873 295.567 161.863 295.125 159.742 295.214C157.201 295.302 156.759 296.429 157.82 298.506C157.797 304.913 157.775 311.342 157.731 317.75L157.554 317.705C155.014 317.396 154.329 318.567 154.461 320.998C154.66 325.262 154.549 329.548 154.549 333.834C154.549 336.044 154.549 338.253 154.549 340.441C154.461 342.606 154.395 344.771 154.306 346.936C151.523 346.494 150.727 347.842 151.235 350.339C151.213 351.223 151.169 352.128 151.147 353.012C148.65 352.725 147.303 353.609 147.855 356.326C145.38 356.105 144.209 357.144 144.629 359.685L144.585 359.707C143.546 359.729 142.486 359.751 141.448 359.773C138.553 359 138.244 360.701 138.465 362.888L138.531 362.999C135.99 362.513 134.665 363.396 135.062 366.158C134.002 366.202 132.941 366.269 131.881 366.313C130.776 366.313 129.693 366.313 128.589 366.313C126.18 365.805 124.789 366.534 125.098 369.252C119.839 369.539 114.603 369.494 109.345 369.318C109.3 368.125 109.234 366.932 109.234 365.738C109.234 336.905 109.256 308.072 109.256 279.239C109.278 275.704 109.19 275.704 105.721 276.102Z" fill="white"/>
<path d="M1136.66 401.374C1122.7 401.374 1108.71 401.396 1094.75 401.396C1095.21 398.612 1093.96 397.707 1091.35 398.259C1090.42 398.303 1089.47 398.347 1088.54 398.392C1087.28 398.347 1086 398.325 1084.74 398.281C1083.86 398.237 1082.95 398.171 1082.07 398.126C1082.02 394.525 1081.91 394.437 1078.75 395.32C1077.67 395.32 1076.59 395.343 1075.48 395.343L1075.51 395.144C1075.79 392.581 1074.58 391.653 1072.13 392.073C1071.11 392.028 1070.07 391.962 1069.05 391.918H1068.94C1068.88 390.857 1068.79 389.797 1068.72 388.759L1068.88 388.825C1071.46 389.134 1072.66 388.14 1072.08 385.444C1072.08 384.34 1072.08 383.235 1072.06 382.13C1072.1 381.07 1072.15 380.009 1072.19 378.949C1074.78 379.015 1075.48 377.468 1075.44 375.237C1075.42 374.508 1075.53 373.778 1075.46 373.049C1075.18 370.509 1075.95 368.896 1078.86 369.095C1079.95 369.117 1081.05 369.161 1082.13 369.183L1082.09 369.426C1081.98 372.983 1081.98 372.983 1085.25 372.298C1086.2 372.453 1087.15 372.519 1088.1 372.232C1089.16 372.342 1090.24 372.453 1091.3 372.541C1091.06 375.17 1092.25 376.121 1094.77 375.48C1095.88 375.48 1096.96 375.48 1098.06 375.48C1099.15 375.568 1100.23 375.657 1101.33 375.745C1100.94 378.242 1102 379.236 1104.49 378.86C1105.47 378.728 1106.48 378.794 1107.5 378.772C1111.87 378.772 1116.27 378.772 1120.65 378.772C1122.72 379.037 1124.56 378.993 1124 376.032C1124.91 376.032 1125.82 376.01 1126.72 376.01C1129.81 376.695 1130.46 374.729 1130.74 372.32C1133.13 372.784 1133.64 371.459 1133.48 369.47C1136 369.691 1137.37 368.829 1136.66 366.046C1136.66 364.941 1136.66 363.858 1136.64 362.753L1136.77 362.82C1139.34 363.151 1140.35 362.135 1140.04 359.484C1139.82 357.429 1139.82 355.308 1140.04 353.231C1140.35 350.447 1139.18 349.629 1136.64 350.16C1135.03 350.049 1133.24 349.607 1133.31 352.237C1133.31 352.458 1132.8 352.877 1132.58 352.855C1129.77 352.524 1130.17 354.49 1130.1 356.169C1127.69 355.926 1126.5 356.943 1126.74 359.439C1125.86 359.484 1124.95 359.506 1124.07 359.55C1122.99 359.55 1121.88 359.528 1120.8 359.528C1118.26 359.042 1116.78 359.727 1117.38 362.643C1115.19 362.709 1113 362.798 1110.81 362.864C1109.89 362.842 1108.96 362.82 1108.03 362.82C1106.73 362.82 1105.42 362.82 1104.12 362.798C1102.11 362.754 1100.1 362.709 1098.09 362.665C1098.55 359.881 1097.27 358.997 1094.68 359.528C1093.58 359.528 1092.47 359.528 1091.35 359.528C1090.27 359.528 1089.16 359.528 1088.08 359.528L1088.17 359.373C1088.08 356.015 1087.77 355.75 1084.83 356.611C1083.95 356.258 1083.06 356.324 1082.18 356.545L1082.2 356.412C1081.91 354.822 1082.62 352.524 1079.59 352.944C1079.11 353.01 1078.71 352.612 1078.75 352.104C1079 349.298 1076.9 350.204 1075.48 350.005L1075.46 350.027C1075.95 347.442 1075.02 346.161 1072.24 346.647L1072.19 346.691C1072.15 345.63 1072.13 344.548 1072.08 343.487C1072.72 340.77 1071.37 339.886 1068.88 340.085L1068.77 340.151C1068.72 339.046 1068.68 337.964 1068.61 336.859C1069.67 334.119 1069.54 333.965 1065.85 333.39C1065.76 331.424 1065.67 329.457 1065.61 327.491C1066.05 325.326 1065.96 323.16 1065.59 320.995C1066.09 316.687 1066.01 312.401 1065.65 308.092C1065.92 307.01 1066.01 305.927 1065.61 304.866C1065.72 303.784 1065.87 302.679 1065.5 301.619C1065.52 300.514 1065.54 299.409 1065.56 298.304C1068.13 298.768 1069.23 297.686 1068.86 295.123C1068.83 294.151 1068.81 293.178 1068.79 292.228C1069.08 291.146 1069.03 290.085 1068.88 289.003L1068.94 289.047C1071.29 289.091 1072.88 288.428 1072.08 285.622L1072.21 285.689C1074.91 286.086 1075.9 284.893 1075.42 282.286C1075.46 281.225 1075.51 280.165 1075.55 279.127C1078.38 279.767 1079.2 278.375 1078.89 275.835C1079.95 275.923 1081.03 276.122 1082.07 275.636C1083.08 276.321 1084.85 276.343 1084.87 275.481C1084.94 272.653 1087.28 273.161 1088.7 272.322C1091.7 273.625 1091.44 271.482 1091.48 269.67L1091.41 269.515C1092.52 269.515 1093.6 269.493 1094.71 269.493C1095.81 269.471 1096.92 269.449 1098.02 269.449C1099.1 269.471 1100.21 269.471 1101.29 269.493C1105.6 269.516 1109.89 269.516 1114.19 269.538C1115.3 269.538 1116.4 269.538 1117.49 269.515C1118.59 269.515 1119.69 269.516 1120.82 269.493C1121.73 269.538 1122.61 269.56 1123.52 269.604C1123.38 272.565 1125 273.249 1127.56 272.653C1128.44 272.719 1129.31 272.808 1130.19 272.874C1129.42 275.768 1131.05 276.431 1133.44 276.409C1133.17 278.177 1133.06 279.811 1135.69 279.59C1136.51 279.524 1136.75 280.187 1136.75 280.894C1136.77 282.242 1137.66 282.242 1138.65 282.242C1140 282.22 1140.02 281.336 1140.02 280.364C1140.02 276.785 1140.04 273.227 1140.04 269.648C1150.14 269.626 1160.26 269.626 1170.36 269.515C1171.86 269.493 1172.19 270.002 1172.17 271.394C1172.1 276.519 1172.15 281.667 1172.15 286.793C1172.12 312.113 1172.1 337.411 1172.06 362.731C1171.15 363.085 1169.54 362.135 1169.43 363.858C1169.3 365.736 1168.35 367.57 1169.1 369.514C1169.1 370.619 1169.1 371.746 1169.12 372.851C1169.05 373.734 1168.99 374.618 1168.9 375.502C1166.16 375.016 1165.61 376.452 1166.05 378.772C1166 379.854 1165.98 380.915 1165.94 381.998L1165.81 381.931C1163.27 381.688 1162.07 382.66 1162.67 385.312L1162.62 385.29C1161.17 385.444 1159.13 384.693 1159.27 387.411C1159.29 387.654 1158.82 388.14 1158.63 388.118C1155.53 387.853 1156.08 390.062 1156.02 391.874L1156.04 391.918C1153.85 391.52 1152.31 391.918 1152.73 394.658L1152.79 394.746C1151.78 395.475 1150.58 395.166 1149.46 395.254C1146.58 394.481 1146.45 394.591 1146.14 398.016C1145.26 398.06 1144.35 398.104 1143.47 398.149C1142.36 398.126 1141.28 398.104 1140.18 398.082C1137.55 397.751 1136.07 398.436 1136.66 401.374ZM1107.83 334.031C1107.63 336.218 1108.21 337.61 1110.81 336.903C1111.9 337.168 1112.98 337.168 1114.06 336.947C1116.27 336.947 1118.46 336.925 1120.67 336.925C1121.75 336.925 1122.83 336.903 1123.94 336.903C1126.57 337.632 1127.6 336.55 1127.3 333.965C1128.22 333.898 1129.17 333.832 1130.1 333.766C1133.19 334.605 1133.26 334.539 1133.48 331.004C1136.16 331.269 1137.22 330.098 1136.62 327.469C1136.62 326.386 1136.62 325.326 1136.62 324.243C1136.69 323.161 1136.73 322.078 1136.8 320.995C1139.43 321.371 1140.35 320.266 1140.04 317.637C1139.82 315.648 1139.8 313.616 1140.04 311.627C1140.35 308.998 1139.36 307.915 1136.77 308.269L1136.64 308.335C1136.64 307.23 1136.64 306.148 1136.64 305.043C1137.28 302.348 1136.02 301.398 1133.48 301.596C1134.03 298.724 1132.33 298.282 1130.08 298.393L1130.12 298.326C1131.23 294.99 1128.55 295.454 1126.77 295.012C1127.16 292.737 1126.17 291.897 1123.96 292.339C1122.88 292.339 1121.77 292.317 1120.69 292.317C1118.5 292.317 1116.31 292.339 1114.13 292.339C1111.61 291.72 1110.42 292.67 1110.66 295.277C1109.77 295.344 1108.89 295.41 1108.01 295.476C1105.53 294.703 1104.3 295.521 1104.58 298.216C1102.22 298.216 1100.67 298.923 1101.45 301.729L1101.42 301.685C1098.66 301.199 1097.6 302.326 1098.15 305.043C1098.15 306.148 1098.15 307.23 1098.15 308.335C1098.15 309.418 1098.15 310.523 1098.13 311.605C1098.13 314.698 1098.15 317.792 1098.15 320.885C1098.13 321.989 1098.13 323.072 1098.11 324.177C1097.6 326.806 1098.53 328.065 1101.33 327.579L1101.42 327.513C1100.65 330.341 1102.17 331.048 1104.58 330.938L1104.67 330.871C1103.9 333.92 1105.75 333.987 1107.92 333.722L1107.83 334.031Z" fill="white"/>
<path d="M1014.17 227.983C1024.98 227.983 1035.78 227.983 1046.61 227.961C1046.63 257.413 1046.65 286.842 1046.65 316.294C1046.65 332.887 1046.61 349.502 1046.61 366.095C1035.8 366.095 1025.02 366.095 1014.22 366.072C1014.17 362.825 1014.13 359.577 1014.08 356.329C1014.02 355.114 1014.79 353.479 1012.47 353.501C1010.17 353.523 1010.97 355.18 1010.88 356.373C1008.36 356.042 1007.65 357.323 1008.03 359.577L1008.05 359.599C1005.56 359.201 1003.99 359.82 1004.65 362.803C1003.59 362.847 1002.53 362.913 1001.49 362.957C1000.41 362.957 999.302 362.979 998.22 362.979C995.613 362.405 994.42 363.399 994.795 366.095C993.713 366.161 992.63 366.227 991.548 366.293C986.179 366.293 980.832 366.271 975.463 366.271C974.358 366.271 973.253 366.293 972.149 366.293C971.243 366.227 970.337 366.183 969.431 366.117C969.939 363.289 968.614 362.449 966.028 362.979C964.946 362.979 963.863 362.979 962.781 362.979L962.847 362.891C963.377 360.041 962.052 359.201 959.444 359.709L959.489 359.665C959.467 358.848 959.599 357.367 959.4 357.323C956.992 356.771 956.528 354.186 954.716 353.103C954.186 352.794 953.435 352.794 953.457 351.998C953.523 349.391 951.689 349.767 950.054 349.767C949.767 348.861 950.297 347.8 949.568 346.961C949.679 344.972 949.679 343.094 946.762 343.691L946.674 343.735C946.674 342.653 946.674 341.57 946.696 340.487C947.293 337.836 946.342 336.599 943.558 337.018C943.514 336.113 943.47 335.229 943.426 334.323C943.448 333.218 943.47 332.091 943.492 330.987C943.492 329.794 943.382 328.578 943.536 327.407C943.934 324.756 942.741 323.939 940.311 324.292L940.134 324.358C940.134 319.012 940.134 313.687 940.134 308.34L940.311 308.406C943.139 308.914 943.934 307.545 943.448 305.004C943.426 303.899 943.404 302.772 943.404 301.668C943.404 300.585 943.404 299.48 943.404 298.398C943.47 297.492 943.514 296.586 943.581 295.702C946.431 296.166 947.293 294.84 946.696 292.211C946.696 291.129 946.696 290.068 946.674 288.985L946.784 289.052C950.253 289.03 950.253 289.03 949.922 285.45C949.789 284.434 949.657 283.418 950.099 282.445C951.557 282.379 953.435 282.998 953.125 280.324C953.059 279.75 953.457 279.176 954.098 279.22C955.777 279.374 956.417 278.645 956.307 277.01C956.263 276.37 956.881 276.038 957.456 276.104C960.107 276.414 959.555 274.58 959.511 273.1C960.505 272.614 961.565 272.901 962.604 272.834C965.145 273.409 966.625 272.724 966.161 269.785C967.045 269.741 967.951 269.697 968.835 269.631C969.939 269.631 971.044 269.653 972.149 269.653C973.253 269.653 974.336 269.653 975.441 269.653C980.854 269.631 986.289 269.609 991.702 269.587C992.785 269.587 993.867 269.565 994.95 269.565C996.032 269.587 997.137 269.609 998.22 269.631L998.154 269.763C998.198 273.409 998.33 273.519 1001.47 272.547C1002.55 272.569 1003.61 272.591 1004.69 272.614L1004.65 272.812C1004.19 275.53 1005.6 276.524 1008.1 276.524C1006.73 279.684 1011.26 279.308 1011.23 281.716C1011.23 281.915 1011.76 282.247 1012.07 282.291C1013.09 282.468 1014.15 282.578 1014.17 281.031C1014.17 280.391 1014.19 279.772 1014.22 279.131C1014.15 262.097 1014.17 245.04 1014.17 227.983ZM1010.81 330.942C1010.92 329.838 1011.01 328.733 1011.12 327.628C1014 328.181 1014.5 326.656 1014.06 324.292C1014.08 320.072 1014.08 315.852 1014.11 311.632C1014.11 310.527 1014.11 309.445 1014.11 308.34C1014.53 305.932 1013.84 304.496 1011.06 305.026C1010.97 303.921 1010.9 302.816 1010.81 301.712C1011.76 298.839 1011.48 298.508 1008.05 298.398C1007.74 295.017 1007.57 294.885 1004.74 295.702C1003.66 295.326 1002.57 295.437 1001.47 295.592L1001.53 295.415C1001.78 292.808 1000.63 291.813 998.065 292.41C995.878 292.366 993.691 291.902 991.503 292.41C990.575 292.388 989.647 292.366 988.719 292.344C985.935 291.526 985.405 293.515 984.831 295.459C982.864 295.481 981.428 296.011 982.135 298.442L982.091 298.42C979.462 298.044 978.158 298.95 978.843 301.778L978.777 301.734C976.037 301.204 975.198 302.551 975.507 305.026C973.121 305.291 972.966 306.992 972.679 308.914C971.906 314.261 972.546 319.564 972.657 324.889C972.701 327.054 973.32 327.916 975.441 327.628C975.507 328.689 975.595 329.727 975.662 330.788C974.955 333.461 976.081 334.5 978.711 334.301C978.843 335.847 978.379 337.836 981.097 337.46C981.561 337.394 982.047 337.725 982.025 338.256C981.936 341.106 984.013 340.112 985.472 340.266C986.554 340.333 987.615 340.377 988.697 340.443C988.344 342.851 989.139 343.978 991.791 343.669C993.867 343.426 996.01 343.448 998.087 343.647C1000.72 343.934 1001.8 342.962 1001.42 340.355L1001.36 340.266C1003.72 340.73 1005.25 340.244 1004.69 337.372C1007.46 337.681 1008.05 335.936 1008.16 333.726C1010.75 334.389 1011.32 333.174 1010.81 330.942Z" fill="white"/>
<path d="M576.374 269.825C577.457 269.759 578.539 269.693 579.622 269.648C580.727 269.648 581.831 269.671 582.936 269.671C588.305 269.671 593.674 269.671 599.021 269.693C601.054 269.693 603.064 269.715 605.097 269.715L605.03 269.803C605.163 273.272 605.163 273.272 608.566 272.808C609.626 272.83 610.687 272.874 611.747 272.896L611.725 273.051C611.084 275.945 612.52 276.697 615.083 276.277L615.105 276.299C614.376 279.193 616.122 279.414 618.265 279.193L618.243 279.282C617.956 281.668 618.817 282.552 621.424 282.529C624.098 282.507 625.401 281.977 624.915 279.061C624.717 277.912 624.982 276.674 624.871 275.503C624.694 273.603 625.401 272.963 627.346 272.985C635.034 273.095 642.723 273.073 650.412 273.073C650.434 288.318 650.456 303.563 650.456 318.786C650.456 334.385 650.412 350.005 650.39 365.604C650.191 365.759 649.992 365.913 649.794 366.068C641.53 366.068 633.267 366.068 625.004 366.068C624.716 362.445 625.446 358.777 624.451 355.198C624.252 354.491 624.319 353.43 623.391 353.629C621.601 354.004 618.773 351.861 618.221 355.573C618.177 355.816 617.713 356.214 617.47 356.192C614.619 355.883 615.039 357.871 615.039 359.572C612.344 359.086 611.239 360.169 611.725 362.886L611.791 362.953C609.118 362.356 608.013 363.439 608.367 366.112C607.483 366.156 606.577 366.178 605.693 366.223C604.412 366.223 603.152 366.223 601.871 366.223C599.794 366.223 597.695 366.333 595.64 366.156C593.254 365.935 591.995 366.62 592.393 369.205C590.426 369.205 588.46 369.205 586.493 369.205C586.736 366.709 585.565 365.847 583.179 366.178C582.03 366.333 580.837 366.245 579.666 366.289C577.501 366.245 575.314 366.201 573.148 366.178L573.215 366.09C573.657 363.306 572.353 362.445 569.79 362.953C568.884 362.931 568 362.909 567.095 362.886C567.338 360.456 566.454 359.152 563.803 359.572C564.112 356.921 563.029 355.794 560.356 356.413V356.391C561.063 353.629 559.737 352.723 557.196 352.944C557.174 352.06 557.152 351.154 557.13 350.271C557.616 347.641 556.622 346.426 553.882 346.912L553.838 346.956C553.816 345.874 553.816 344.769 553.794 343.686C553.175 341.234 555.672 337.721 551.319 336.528C551.143 336.484 551.12 335.688 551.076 335.246C550.259 325.768 550.546 316.267 550.524 306.767C550.524 305.088 551.805 303.431 550.612 301.752C550.59 300.669 550.59 299.586 550.568 298.504L550.656 298.526C553.109 298.835 554.236 297.885 553.86 295.322C553.705 294.328 553.816 293.311 553.794 292.295C553.794 291.212 553.794 290.13 553.794 289.047L553.86 289.091C556.688 289.644 557.616 288.384 557.086 285.733L557.13 285.777C559.87 286.285 560.952 285.159 560.444 282.441C563.228 282.971 564.266 281.8 563.714 279.083C565.879 279.37 567.735 279.304 566.94 276.233V276.078C569.348 276.498 570.232 275.393 569.856 273.095L569.812 272.918C570.873 272.918 571.933 272.896 572.994 272.896C576.286 273.184 576.286 273.184 576.374 269.825ZM589.034 295.676C586.781 295.256 585.853 296.184 586.25 298.437C586.14 298.57 586.029 298.658 585.897 298.747C582.958 297.686 582.782 299.608 582.715 301.663C580.064 301.31 579.269 302.657 579.512 305.044C576.816 304.624 575.778 305.773 576.352 308.424C576.352 310.633 576.374 312.843 576.374 315.074C576.374 318.123 576.396 321.172 576.396 324.221C576.374 325.348 576.33 326.497 576.308 327.624C575.822 330.209 576.728 331.468 579.489 330.938C579.534 331.844 579.578 332.772 579.622 333.678C579.092 336.285 580.174 337.412 582.804 337.125C582.605 339.621 583.577 340.836 586.206 340.35C587.156 340.328 588.084 340.306 589.034 340.284L588.968 340.372C588.57 343.112 589.719 344.15 592.415 343.532C597.673 343.532 602.932 343.554 608.212 343.554C610.863 344.128 612.101 343.178 611.659 340.394L611.615 340.328C614.266 340.858 615.415 339.798 615.017 337.102C617.16 337.39 618.751 337.058 618.309 334.318C621.005 334.628 622.109 333.501 621.424 330.805C621.491 329.767 621.535 328.751 621.601 327.712C622.794 327.359 624.915 328.596 624.827 326.033C624.694 320.951 625.18 315.87 624.473 310.744C624.186 308.557 623.347 308.181 621.557 308.358C621.513 307.297 621.491 306.237 621.447 305.176C622.021 302.591 621.181 301.265 618.353 301.707C618.663 299.144 617.492 298.062 614.951 298.371C615.128 295.919 614.2 294.77 611.615 295.565C610.532 295.565 609.471 295.565 608.389 295.565C607.483 295.477 606.555 295.388 605.649 295.3C605.848 292.649 604.721 291.5 601.981 291.875C599.662 292.185 597.297 292.03 594.955 292.229C592.503 292.45 592.194 293.599 592.172 295.433L592.216 295.631C591.199 295.609 590.117 295.631 589.034 295.676Z" fill="white"/>
<path d="M453.795 227.98C462.456 227.98 471.139 228.003 479.8 228.003C479.8 253.654 479.8 279.306 479.822 304.957C479.667 308.382 479.667 308.382 482.959 308.227C485.721 308.912 486.693 307.697 486.362 305.068C488.107 305.068 490.007 305.355 489.72 302.571C489.654 301.93 490.317 301.709 490.913 301.731C492.173 301.775 492.283 300.98 492.46 299.986C492.747 298.55 493.056 297.136 492.946 295.677C495.862 296.164 495.995 294.44 495.664 292.319L495.686 292.341C498.359 292.827 499.552 291.811 499.022 289.049L499.044 289.071C501.872 289.601 502.844 288.364 502.292 285.669C502.292 284.608 502.314 283.548 502.314 282.487L502.358 282.465C505.275 283.106 505.959 281.603 505.584 279.085L505.65 279.129C507.948 279.46 509.649 279.173 508.743 276.168C508.788 276.036 508.854 275.925 508.92 275.815C511.218 276.279 512.146 275.351 511.704 273.053L511.66 272.942C521.271 272.964 530.86 272.987 540.471 273.009C541.2 273.009 541.929 273.009 542.658 273.031C543.431 273.053 543.829 273.451 543.829 274.224C543.829 274.842 543.94 275.77 543.122 275.77C540.449 275.793 540.957 277.582 541.045 279.195L540.979 279.151C538.283 278.687 537.112 279.747 537.709 282.487C534.947 281.935 533.865 283.106 534.373 285.823C534.373 286.707 534.351 287.569 534.351 288.453C532.694 288.651 530.727 288.475 531.037 291.148C531.059 291.369 530.617 291.877 530.418 291.877C527.325 291.678 527.987 293.998 527.789 295.722L527.744 295.677C525.314 295.103 524.563 296.208 524.961 298.439C523.635 299.301 521.315 299.19 521.691 301.731C518.995 301.267 517.846 302.328 518.377 305.068L518.354 305.045C515.571 304.537 514.576 305.752 515.084 308.426C515.084 309.332 515.062 310.238 515.062 311.143C512.61 310.989 511.174 311.74 512.013 314.524C511.903 314.656 511.815 314.789 511.726 314.922C510.599 315.098 508.854 314.237 508.986 316.468C509.097 318.457 510.71 317.529 511.748 317.705L511.837 317.661C511.837 318.744 511.859 319.804 511.859 320.887C511.306 323.538 512.168 324.864 515.062 324.334L515.106 324.29C514.598 326.985 515.681 328.112 518.399 327.626L518.421 327.604C517.758 330.388 519.216 331.139 521.646 331.028C521.669 331.912 521.691 332.796 521.713 333.68C521.823 335.182 521.094 337.148 523.79 337.148C524.01 337.148 524.43 337.657 524.408 337.9C524.121 340.706 526.043 340.352 527.767 340.33C527.722 342.584 528.429 344.086 531.081 343.644C530.749 346.185 531.567 347.577 534.395 346.936H534.439C534.461 347.997 534.461 349.057 534.483 350.118C533.909 352.813 534.881 354.073 537.731 353.565L537.775 353.52C537.112 356.37 538.858 356.591 540.957 356.37L541.001 356.348C540.493 358.955 541.576 360.082 544.205 359.729L544.249 359.707C543.917 361.894 544.249 363.529 547.077 363.065C547.121 364.103 547.232 365.164 546.723 366.158C535.102 366.136 523.48 366.092 511.859 366.07C512.013 363.949 511.682 362.292 508.876 363.065H508.832C509.428 360.436 508.567 359.11 505.694 359.574C505.65 358.558 505.584 357.564 505.54 356.547C505.783 353.056 505.739 353.012 502.292 353.078L502.248 353.123C503.021 350.206 501.253 350.029 499.132 350.228L499.088 350.25C499.066 349.168 499.044 348.107 499.022 347.025C499.574 344.307 498.514 343.136 495.73 343.666L495.686 343.688C495.619 342.23 496.503 340.242 493.741 340.242C493.211 340.242 492.968 339.756 492.99 339.292C493.078 336.751 491.311 336.994 489.654 337.038C489.455 335.911 489.433 334.74 489.3 333.613C489.057 331.603 488.306 330.719 486.273 331.139L486.318 331.006C486.782 328.355 485.854 327.096 483.026 327.692C480.087 327.029 479.292 328.421 479.8 331.05C479.8 342.716 479.8 354.382 479.778 366.07C471.117 366.07 462.478 366.092 453.817 366.092C453.795 320.025 453.795 274.003 453.795 227.98Z" fill="white"/>
<path d="M856.243 269.85C857.303 269.784 858.386 269.696 859.446 269.63C860.551 269.63 861.678 269.652 862.783 269.652C864.97 269.629 867.179 269.63 869.367 269.607C872.526 269.652 875.708 269.696 878.867 269.74C878.978 270.801 879.066 271.861 879.176 272.899C878.646 277.119 879.022 281.362 879 285.604C878.956 288.852 878.912 292.099 878.867 295.347C876.835 295.436 874.802 295.546 872.791 295.635C871.687 295.635 870.582 295.612 869.455 295.612C868.35 295.59 867.246 295.546 866.163 295.524C862.032 294.419 859.601 295.502 859.557 298.463C858.651 298.573 857.745 298.706 856.839 298.816C852.177 298.485 850.962 299.015 850.189 301.733C847.582 301.291 846.234 302.152 846.852 305.002L846.809 304.958C843.87 304.34 843.097 305.754 843.627 308.361L843.56 308.317C842.478 308.582 840.777 307.742 840.821 309.974C840.887 313.442 840.224 316.889 840.246 320.38C840.313 335.603 840.224 350.848 840.18 366.071C829.553 366.071 818.903 366.093 808.276 366.093C808.254 333.968 808.254 301.865 808.232 269.74C817.799 269.74 827.365 269.74 836.91 269.74C836.91 273.032 836.954 276.302 836.932 279.594C836.932 281.096 836.733 282.621 839.053 282.444C840.224 282.356 840.246 283.35 840.246 284.19C840.224 285.449 840.953 285.67 842.014 285.67C843.273 285.692 843.56 285.007 843.538 283.947C843.516 282.4 843.583 280.853 843.605 279.307V279.13C845.262 279.174 847.206 279.66 846.941 276.854C846.919 276.633 847.405 276.169 847.604 276.192C850.498 276.523 850.056 274.358 850.299 272.679L850.255 272.568C851.294 272.789 852.31 272.789 853.326 272.391C855.514 272.988 856.662 272.303 856.243 269.85Z" fill="white"/>
<path d="M405.761 227.978C414.201 227.956 422.664 227.934 431.104 227.912C431.148 228.641 431.214 229.37 431.214 230.099C431.214 274.642 431.214 319.162 431.214 363.704C431.214 364.521 431.126 365.339 431.059 366.178C422.619 366.134 414.179 366.112 405.761 366.068C405.761 320.023 405.761 274.001 405.761 227.978Z" fill="white"/>
<path d="M920.802 366.11C911.235 366.11 901.691 366.11 892.124 366.11C892.124 334.007 892.124 301.904 892.102 269.801C901.668 269.801 911.235 269.801 920.802 269.801C920.802 301.904 920.802 334.007 920.802 366.11Z" fill="white"/>
<path d="M892.102 215.077C892.964 215.055 893.825 215.011 894.687 214.988C898.575 215.364 898.597 215.364 898.774 211.939C903.9 211.939 909.026 211.939 914.174 211.939C914.307 215.254 914.307 215.254 918.195 215.055C919.079 215.121 919.985 215.187 920.868 215.254C921.089 216.336 920.051 218.258 921.907 218.303C924.271 218.369 924.249 219.628 924.161 221.241C923.697 223.87 924.625 225.13 927.409 224.577H927.497C927.519 225.66 927.519 226.765 927.541 227.847C927.541 234.321 927.519 240.795 927.519 247.268C927.519 248.351 927.519 249.434 927.519 250.516L927.431 250.472C924.757 249.92 923.829 251.201 924.05 253.698C922.526 253.83 920.603 253.411 920.67 255.973C920.67 256.15 920.117 256.526 919.852 256.504C916.958 256.261 917.554 258.271 917.599 259.928L917.621 260.105C916.693 260.083 915.765 260.083 914.837 260.061C913.732 260.039 912.649 260.039 911.545 260.017C907.236 259.818 902.928 259.729 898.62 260.039C897.36 260.039 896.079 260.017 894.819 260.017C893.936 259.95 893.03 259.884 892.146 259.818C892.765 257.012 891.284 256.283 888.832 256.504C888.81 255.62 888.81 254.714 888.788 253.83C889.296 251.135 888.28 249.942 885.496 250.45L885.407 250.516C885.96 247.887 885.032 246.628 882.248 247.091L882.16 247.114C882.137 246.031 882.115 244.97 882.093 243.888C882.093 239.624 882.071 235.359 882.071 231.095C882.137 230.035 882.226 228.974 882.292 227.914C885.098 228.378 885.96 227.052 885.452 224.467C885.474 223.583 885.474 222.677 885.496 221.794C887.175 221.617 889.185 221.926 888.876 219.164C888.832 218.767 889.208 218.435 889.583 218.479C892.301 218.722 892.102 216.844 892.102 215.077Z" fill="white"/>
</g>
<defs>
<clipPath id="clip0">
<rect width="1278" height="500" fill="white"/>
</clipPath>
</defs>
</svg>
