<svg width="1278" height="500" viewBox="0 0 1278 500" fill="none" xmlns="http://www.w3.org/2000/svg">
<path d="M119.707 76.0625C148.518 92.8902 177.361 109.655 206.118 126.569C214.92 131.742 219.247 139.643 219.192 149.902C219.137 160.319 219.184 170.743 219.184 181.159C219.184 182.57 219.364 183.864 217.71 184.804C205.162 191.968 192.677 199.233 179.517 206.844C179.517 203.364 179.517 200.448 179.517 197.533C179.517 189.326 179.525 181.12 179.517 172.914C179.509 163.109 175.237 155.647 166.875 150.576C152.61 141.916 138.353 133.231 123.986 124.743C114.855 119.351 105.505 118.998 96.1463 124.453C82.0618 132.651 67.9381 140.787 53.8457 148.97C44.8636 154.182 40.1453 161.973 40.0904 172.35C40.0042 189.021 40.0042 205.692 40.0982 222.363C40.1531 232.865 44.8244 240.672 53.9868 246.056C67.5854 254.043 81.0429 262.289 94.5239 270.479C104.713 276.663 114.769 277.039 125.091 270.612C174.689 239.739 226.497 212.644 276.533 182.492C285.163 177.295 294.395 177.209 303.346 182.39C330.653 198.191 357.944 214.023 385.267 229.801C394.852 235.334 399.367 243.572 399.343 254.584C399.265 286.108 399.281 317.623 399.336 349.147C399.351 360.151 394.805 368.334 385.181 373.867C358.281 389.339 331.531 405.062 304.545 420.385C294.991 425.808 284.857 425.895 275.185 420.338C248.388 404.952 221.7 389.378 194.934 373.938C185.403 368.436 180.465 360.48 180.677 349.327C180.865 339.561 180.724 329.788 180.708 320.022C180.708 318.329 180.599 316.816 182.511 315.727C194.848 308.704 207.114 301.564 219.403 294.463C220.634 295.325 220.109 296.453 220.117 297.371C220.164 306.878 220.132 316.385 220.148 325.892C220.172 336.23 224.412 344.217 233.472 349.476C247.682 357.722 261.845 366.053 276.133 374.15C285.492 379.456 294.952 379.534 304.349 373.883C317.65 365.889 330.982 357.964 344.369 350.111C353.994 344.468 358.822 336.316 358.697 325.069C358.524 308.923 358.642 292.77 358.658 276.616C358.665 266.082 354.213 258.134 345.012 252.836C331.225 244.896 317.47 236.91 303.73 228.907C293.862 223.162 284.167 222.966 274.127 228.821C225.227 257.296 176.217 285.575 127.309 314.034C119.856 318.368 112.331 321.362 103.553 319.23C101.249 318.674 99.0776 317.819 97.0398 316.636C69.5056 300.709 41.9793 284.752 14.4138 268.872C7.09329 264.656 2.77466 258.338 0.580078 250.367C0.580078 214.933 0.580078 179.498 0.580078 144.063C2.92358 137.135 6.36437 131.084 13.3087 127.698C14.9468 126.898 16.4751 125.895 18.0584 124.986C46.2274 108.73 74.028 91.8557 102.464 76.0625C108.209 76.0625 113.962 76.0625 119.707 76.0625Z" fill="white"/>
<path d="M1277.99 373.082C1268.2 373.098 1258.41 372.996 1248.62 373.2C1245.72 373.263 1245.27 372.236 1245.28 369.642C1245.38 348.809 1245.34 327.984 1245.32 307.151C1245.32 304.415 1245.37 301.657 1245.02 298.96C1243.7 288.959 1235.8 282.705 1225.52 283.355C1214.22 284.069 1205.49 292.016 1205.46 301.829C1205.39 324.355 1205.38 346.873 1205.52 369.399C1205.53 372.502 1204.68 373.278 1201.64 373.2C1193.16 372.988 1184.68 373.051 1176.19 373.176C1173.84 373.208 1172.86 372.871 1172.86 370.104C1172.97 333.259 1172.96 296.421 1172.88 259.575C1172.87 257.146 1173.5 256.534 1175.91 256.581C1184.65 256.738 1193.41 256.77 1202.15 256.566C1205.03 256.495 1205.75 257.483 1205.48 260.093C1205.29 262.005 1205.45 263.949 1205.45 265.885C1205.97 265.885 1206.32 265.995 1206.45 265.869C1219.4 253.125 1235.1 251.604 1251.46 256.174C1266.65 260.422 1274.38 271.936 1277.19 287.008C1277.35 287.854 1277 288.881 1278 289.445C1277.99 317.332 1277.99 345.203 1277.99 373.082Z" fill="white"/>
<path d="M984.733 265.297C984.898 256.644 984.898 256.644 992.994 256.644C999.915 256.644 1006.84 256.738 1013.76 256.597C1016.16 256.55 1017.09 256.989 1017.08 259.709C1016.97 294.485 1017.3 329.261 1016.88 364.03C1016.63 384.283 1009.55 401.424 990.619 411.731C981.371 416.77 971.33 418.604 960.906 418.714C947.198 418.863 934.203 416.394 922.885 408.086C913.519 401.204 908.142 391.83 905.83 380.575C905.321 378.075 905.697 376.923 908.754 377.001C917.109 377.221 925.464 377.158 933.819 377.025C935.943 376.994 937.056 377.503 937.722 379.635C940.073 387.175 945.364 391.415 953.092 392.873C958.445 393.884 963.744 393.798 968.956 392.301C978.251 389.644 982.492 382.676 984.004 373.78C984.788 369.195 985.117 364.508 984.686 359.79C984.412 359.79 984.059 359.688 983.957 359.805C970.28 375.732 937.103 373.349 921.349 357.854C908.855 345.556 903.204 330.5 903.024 313.304C902.82 293.882 908.73 276.709 924.398 264.388C939.023 252.898 955.686 251.275 973.141 257.263C977.491 258.753 980.947 261.747 984.733 265.297ZM984.804 312.347C984.804 306.884 984.733 301.422 984.843 295.966C984.882 294.031 984.318 292.486 983.189 290.95C971.903 275.667 946.461 278.849 938.686 296.593C935.355 304.188 934.689 312.167 936.358 320.24C938.474 330.484 943.428 338.643 954.095 341.959C964.457 345.172 973.596 342.907 981.402 335.391C983.714 333.165 985.117 330.664 984.898 327.169C984.568 322.247 984.804 317.293 984.804 312.347Z" fill="white"/>
<path d="M460.949 293.358C460.949 268.222 460.941 243.086 460.957 217.95C460.964 212.26 460.431 213.06 466.043 213.052C486.022 213.028 506 212.95 525.979 213.075C539.342 213.161 552.149 215.536 563.35 223.499C575.718 232.286 581.447 244.716 582.615 259.373C583.681 272.721 582.074 285.692 573.993 296.963C565.536 308.759 553.466 314.677 539.405 316.738C525.908 318.713 512.294 317.451 498.735 317.6C495.364 317.639 494.142 318.188 494.197 321.934C494.44 337.822 494.212 353.709 494.377 369.604C494.408 372.519 493.703 373.288 490.764 373.209C482.017 372.99 473.262 372.99 464.523 373.209C461.552 373.28 460.855 372.465 460.87 369.549C461.004 344.154 460.949 318.76 460.949 293.358ZM494.306 265.314C494.306 272.345 494.338 279.367 494.283 286.398C494.267 288.13 494.275 289.337 496.673 289.266C507.231 288.953 517.812 289.76 528.362 288.827C541.576 287.652 549.053 279.751 549.751 266.529C550.433 253.534 543.41 244.309 530.525 242.412C519.144 240.735 507.607 242.106 496.14 241.722C494.001 241.652 494.299 242.945 494.299 244.23C494.314 251.261 494.306 258.284 494.306 265.314Z" fill="white"/>
<path d="M591.009 315.012C591.213 294.234 597.789 276.34 615.267 263.878C642.347 244.558 694.915 251.079 704.328 300.653C706.828 313.813 706.194 326.855 701.616 339.482C693.073 363.05 671.072 376.782 645.827 375.841C613.057 374.619 592.71 349.083 591.425 321.251C591.323 319.174 591.15 317.097 591.009 315.012ZM673.157 315.239C673.337 306.876 671.982 298.89 667.326 291.781C658.344 278.057 638.64 277.994 629.501 291.601C621.436 303.608 621.373 325.946 629.367 338.04C638.514 351.881 658.406 351.818 667.42 337.875C671.88 330.986 673.314 323.281 673.157 315.239Z" fill="white"/>
<path d="M1095.03 375.85C1063.67 375.787 1039.94 353.128 1038.11 321.808C1037.4 309.824 1038.33 298.154 1043.14 287.048C1052.51 265.4 1072.41 253.345 1097.27 254.152C1121.19 254.928 1138.17 266.403 1147.33 288.262C1154.65 305.733 1154.44 323.862 1147.47 341.489C1138.86 363.254 1119.12 375.897 1095.03 375.85ZM1119.86 315.13C1120.04 306.807 1118.66 298.82 1114 291.727C1105.02 278.034 1085.27 278.034 1076.17 291.664C1068.12 303.719 1068.09 326.033 1076.12 338.103C1085.31 351.929 1105.18 351.795 1114.17 337.829C1118.6 330.916 1120.01 323.211 1119.86 315.13Z" fill="white"/>
<path d="M775.895 256.646C786.985 256.646 797.55 256.725 808.124 256.591C810.616 256.56 810.71 258.198 811.243 259.742C819.238 282.738 827.232 305.734 835.234 328.73C835.697 330.063 836.238 331.364 837.037 333.433C841.285 321.12 845.298 309.52 849.303 297.904C853.739 285.05 858.207 272.212 862.557 259.334C863.168 257.524 863.78 256.568 865.974 256.599C875.889 256.732 885.812 256.654 896.291 256.654C894.606 261.192 893.062 265.471 891.431 269.72C873.224 317.389 854.978 365.043 836.849 412.736C835.861 415.33 834.694 416.224 831.911 416.153C823.689 415.949 815.46 415.902 807.238 416.161C803.523 416.278 803.64 415.158 804.816 412.32C809.707 400.47 814.347 388.517 819.237 376.666C820.154 374.448 820.076 372.63 819.237 370.427C805.176 333.794 791.202 297.12 777.211 260.455C776.804 259.389 776.467 258.292 775.895 256.646Z" fill="white"/>
<path d="M758.729 288.631C758.729 315.57 758.667 342.516 758.808 369.455C758.823 372.629 757.867 373.264 754.92 373.201C746.44 373.013 737.959 373.06 729.479 373.186C727.111 373.217 726.155 372.841 726.163 370.105C726.257 315.703 726.249 261.301 726.179 206.899C726.179 204.383 726.759 203.568 729.392 203.615C737.873 203.787 746.361 203.858 754.834 203.591C758.306 203.482 758.808 204.767 758.8 207.816C758.69 234.747 758.729 261.693 758.729 288.631Z" fill="white"/>
</svg>
