<svg width="1278" height="500" viewBox="0 0 1278 500" fill="none" xmlns="http://www.w3.org/2000/svg">
<path d="M538.746 282.441C538.746 249.347 538.746 216.254 538.746 182.673C538.746 177.32 540.206 175.86 545.559 176.347C552.373 176.833 559.673 176.833 566.486 176.347C570.866 176.347 572.326 177.807 571.839 181.7C571.353 186.08 571.839 189.974 571.839 194.354C571.839 195.814 571.353 197.76 573.3 198.247C575.246 198.734 576.22 197.76 577.193 195.814C582.06 188.514 588.386 182.673 596.173 178.293C602.5 174.4 609.8 172.94 617.1 171.967C627.807 170.507 638.514 171.48 648.734 175.373C658.954 179.267 667.714 185.594 675.014 193.867C686.207 206.034 692.048 220.634 694.481 236.694C696.914 254.701 695.454 272.708 687.181 289.741C679.394 306.288 667.714 318.942 650.68 325.755C633.647 332.568 616.613 332.568 599.58 325.268C590.333 321.375 584.006 314.561 578.166 306.775C577.193 305.315 576.22 303.368 574.273 303.855C571.839 304.341 572.813 306.775 572.813 308.721C572.813 325.755 572.813 343.275 572.813 360.309C572.813 366.149 572.813 372.475 569.406 377.829C565.513 384.155 559.673 386.589 552.859 387.075C539.232 388.049 539.233 387.562 539.233 373.935C538.746 343.762 538.746 313.101 538.746 282.441ZM572.326 251.294C572.326 252.754 572.326 254.214 572.326 255.674C572.326 270.274 577.193 282.441 588.386 292.174C598.607 300.935 610.773 302.395 622.94 300.935C637.054 299.475 647.76 292.175 654.574 279.521C660.414 268.328 661.387 256.161 660.414 243.507C658.467 225.014 650.194 210.9 632.187 204.574C615.153 198.734 598.607 200.68 584.98 214.307C574.76 224.527 571.84 237.181 572.326 251.294Z" fill="white"/>
<path d="M968.963 330.62C942.196 331.593 921.269 320.4 905.695 298.986C897.908 288.766 894.015 277.086 892.555 264.433C890.608 250.806 891.582 237.666 895.962 224.526C902.775 203.599 915.915 188.025 935.869 178.779C946.576 173.912 957.769 170.992 968.963 171.478C987.943 171.965 1005.95 176.832 1021.04 189.972C1036.12 203.599 1044.88 220.632 1046.83 240.586C1050.24 270.76 1040.5 300.933 1011.3 319.427C997.676 327.7 985.51 331.107 968.963 330.62ZM1012.76 252.753C1012.76 249.833 1012.76 248.373 1012.76 246.913C1013.25 228.419 1001.08 207.492 978.209 203.599C973.343 202.625 968.476 202.625 963.609 203.112C949.496 204.085 938.302 211.386 931.489 223.552C924.189 236.693 923.215 251.293 926.135 265.406C928.569 277.573 934.895 287.306 945.602 294.12C954.849 299.96 965.069 300.446 975.776 299.96C990.376 298.5 1000.6 290.713 1007.41 278.06C1011.79 269.786 1013.25 261.026 1012.76 252.753Z" fill="white"/>
<path d="M791.329 330.619C771.375 331.593 753.855 324.293 738.768 310.666C726.114 298.499 718.328 283.412 715.894 265.892C713.948 250.805 714.434 235.718 719.788 221.118C729.521 196.298 747.041 180.238 773.322 174.398C787.922 170.991 802.035 171.478 816.149 175.858C834.642 181.211 848.756 192.891 858.489 209.438C866.763 223.065 870.17 238.152 869.683 253.725C869.196 280.006 858.976 302.392 837.076 317.966C827.829 325.266 812.742 331.593 791.329 330.619ZM837.076 248.372C838.049 238.152 831.722 223.552 825.882 216.738C806.902 194.351 764.075 197.271 751.908 229.878C749.475 235.718 748.988 242.045 748.988 248.372C748.501 258.592 749.475 268.812 754.341 277.572C766.022 297.526 781.108 300.932 800.575 298.986C808.362 298.012 815.662 294.606 821.989 289.252C833.182 279.519 837.076 266.379 837.076 248.372Z" fill="white"/>
<path d="M1277.03 309.206C1277.03 315.046 1277.03 320.886 1277.03 326.726C1234.69 326.726 1191.86 326.726 1149.52 326.726C1145.14 326.726 1144.17 325.266 1144.65 321.372C1144.65 320.399 1144.65 319.426 1144.65 318.939C1142.71 305.799 1146.6 296.066 1156.82 286.819C1173.37 271.245 1188.45 253.725 1204.03 237.178C1212.79 227.932 1221.55 218.685 1229.82 208.952C1230.79 207.978 1232.25 207.005 1232.25 205.545C1231.77 203.598 1229.82 204.571 1228.36 204.571C1203.05 204.571 1177.26 204.571 1151.95 204.571C1145.14 204.571 1145.14 204.571 1145.14 197.758C1145.14 191.918 1145.14 186.565 1145.14 180.725C1145.14 176.831 1146.11 175.371 1150.49 175.371C1192.83 175.371 1235.66 175.371 1278 175.371C1278 185.105 1278 194.351 1278 204.085C1276.05 204.085 1274.59 206.031 1273.62 207.005C1264.37 216.738 1255.13 226.958 1245.88 236.692C1228.36 255.185 1210.84 273.679 1193.32 292.172C1192.35 293.145 1190.4 294.119 1190.89 295.579C1191.86 297.526 1193.81 296.552 1195.27 296.552C1215.71 296.552 1236.63 297.039 1257.07 296.552C1264.86 296.552 1270.21 299.472 1274.59 305.312C1275.08 307.746 1275.57 309.206 1277.03 309.206Z" fill="white"/>
<path d="M1110.1 220.631C1110.1 254.211 1110.1 287.305 1110.1 320.885C1110.1 325.752 1108.64 327.212 1103.77 327.212C1096.47 326.725 1089.66 326.725 1082.36 327.212C1078.47 327.212 1077 325.752 1077 321.858C1077 290.711 1077 260.051 1077 228.904C1077 197.27 1077 165.15 1077 133.516C1077 122.323 1084.79 114.536 1095.5 114.536C1109.61 114.536 1109.61 114.536 1109.61 128.163C1110.1 158.823 1110.1 189.484 1110.1 220.631Z" fill="white"/>
<path d="M377.171 152.01C384.958 159.797 390.311 168.557 397.611 176.83C401.018 180.723 403.938 185.104 407.345 188.997C409.778 191.917 410.752 195.324 409.778 199.217C403.938 223.551 398.585 247.398 393.231 271.731C385.931 303.365 378.631 334.999 371.818 367.119C370.845 371.499 368.898 374.906 364.031 374.906C364.031 367.606 365.491 360.792 369.384 354.952C370.358 353.492 370.358 352.032 369.384 350.572C367.924 348.625 366.464 350.085 365.491 350.572C364.031 351.059 362.084 353.492 361.111 351.059C359.164 345.219 356.244 337.919 358.678 332.565C361.111 326.238 360.138 322.345 356.731 317.478C356.731 316.992 356.731 316.018 356.731 315.532C358.678 315.045 359.164 314.072 357.704 312.612C357.704 309.205 358.678 305.798 359.651 301.905C365.978 274.164 371.818 246.911 378.631 219.17C379.605 214.304 378.145 213.817 374.251 214.304C373.278 212.844 373.765 211.384 373.765 209.437C374.251 202.624 376.198 195.324 369.871 189.484C372.304 188.51 373.764 187.537 370.844 185.103C369.384 184.13 368.898 182.183 367.924 180.723C368.898 178.29 372.791 176.343 369.871 173.423C366.951 170.503 368.411 169.043 370.358 166.123C372.791 162.717 379.118 160.283 375.224 154.443C374.738 153.47 376.198 152.496 377.171 152.01Z" fill="white"/>
<path d="M259.396 50.2954C263.289 49.322 267.67 49.8087 271.563 50.2954C274.483 51.7554 278.863 53.2154 275.456 58.0821C272.536 61.9755 273.51 65.8689 273.996 69.7622C274.483 73.6556 274.97 77.0623 273.996 80.9556C272.536 87.769 272.536 94.5825 273.51 101.396C273.996 107.236 275.456 113.076 273.996 118.429C272.05 126.703 273.023 134.49 272.536 142.763C272.536 146.17 273.51 149.09 277.89 149.09C281.296 149.09 282.756 150.55 279.836 153.956C277.89 156.39 277.403 159.31 280.81 161.256C280.81 161.743 280.81 162.716 280.323 163.203C278.376 163.69 277.89 164.663 279.35 166.123C276.43 178.777 273.996 191.43 271.076 204.084C270.103 208.95 271.076 209.924 275.456 209.437C277.403 213.817 277.403 218.197 277.403 223.064C277.403 226.957 276.43 231.337 276.43 235.231C273.996 236.204 274.483 237.664 275.943 239.611C280.81 245.937 285.676 252.264 291.03 258.591C285.676 261.998 283.73 263.458 289.083 268.811C291.516 271.244 292.49 276.111 290.543 279.031C287.623 283.411 288.11 288.278 286.65 293.145C284.703 291.685 282.756 289.738 281.296 287.304C274.97 279.518 268.643 271.244 262.316 263.458C261.343 261.998 260.369 260.538 258.423 260.538C258.423 259.078 258.909 257.618 258.423 256.644C254.529 249.831 255.503 242.044 255.503 234.744C255.989 225.011 253.556 214.79 259.883 206.03C261.83 203.597 259.883 201.164 256.963 200.19C254.043 199.704 254.043 197.757 255.016 195.81C255.503 194.35 256.476 193.377 256.963 191.917C258.909 186.564 255.989 177.803 251.609 176.343C255.989 156.876 260.37 137.41 264.75 117.943C259.883 121.836 256.963 126.703 252.583 130.596C248.689 129.136 247.229 126.703 249.176 122.809C251.609 116.969 252.096 110.643 253.069 104.316C254.043 98.4759 253.556 97.5026 247.716 97.0159C249.176 94.0959 251.609 91.6624 253.556 88.7424C256.476 84.3624 261.343 81.4423 262.316 76.0889C261.343 69.2755 261.343 61.9755 258.423 55.1621C257.449 52.7287 258.909 51.7554 259.396 50.2954Z" fill="white"/>
<path d="M216.569 445.96C213.649 447.42 210.729 448.88 207.809 450.34C205.862 451.313 203.915 451.8 202.455 449.853C205.375 447.907 204.889 445.473 202.942 443.04C200.995 440.12 200.022 437.2 199.535 433.793C198.562 428.44 200.022 422.599 195.642 418.706C198.562 407.513 200.996 395.833 203.916 384.639C204.889 384.152 205.376 383.666 206.349 383.666C212.676 382.692 213.649 380.259 209.756 374.906C208.782 373.446 207.809 371.986 207.809 370.039C207.809 363.225 210.729 356.899 211.216 350.085C213.162 348.625 214.622 346.679 213.162 344.245C213.162 343.759 213.649 342.785 213.649 342.299C214.622 341.812 215.109 341.325 214.136 340.352C214.136 339.865 214.136 338.892 214.622 338.405C219.976 336.945 217.056 333.052 217.056 329.645C216.569 325.265 218.516 320.885 219.489 316.505C220.949 315.532 221.922 314.558 220.462 312.612C220.462 312.125 220.462 311.152 220.949 310.665C222.409 310.178 222.896 309.205 221.922 307.745C222.409 303.852 222.896 299.958 224.842 296.552C228.736 297.038 230.682 295.578 231.656 292.171C232.142 288.278 234.089 283.898 228.736 280.978C229.222 273.678 231.169 266.865 233.116 259.564C237.009 259.564 237.496 261.024 236.036 264.431C235.062 266.378 234.089 268.811 235.063 270.758C237.009 276.598 237.009 282.438 236.036 288.278C235.062 297.038 235.063 306.285 237.496 315.045C237.983 316.505 237.983 317.965 237.496 319.425C236.523 325.752 236.523 325.752 241.876 328.672C241.876 330.132 241.389 331.105 241.389 332.565C239.443 333.052 237.009 331.592 236.036 333.539C235.062 335.485 237.009 337.432 237.983 339.379C238.469 339.865 238.956 340.352 239.443 340.839C239.443 341.812 238.956 342.785 238.956 343.759C237.496 344.245 237.009 344.732 238.469 345.705C234.089 367.119 229.709 389.019 223.869 409.946C223.382 412.379 222.896 413.839 226.302 413.839C226.789 418.219 222.409 421.139 223.382 426.006C224.842 432.82 220.462 439.633 216.569 445.96Z" fill="white"/>
<path d="M0 197.271C0 195.811 0 193.864 0 192.404C6.81342 185.591 12.1669 177.317 18.9804 169.53C19.467 169.044 19.9536 168.557 20.4403 168.07C23.847 168.07 28.2271 168.557 28.2271 164.177C28.2271 161.257 29.6871 159.31 29.6871 156.39C30.1737 155.904 30.1738 155.904 30.6605 155.417C34.0672 155.904 32.6072 158.824 33.0938 160.77C33.0938 164.177 33.0938 167.584 35.5272 170.99C40.3939 176.344 40.3939 176.831 34.5538 181.211C33.5804 182.184 31.1471 184.131 31.6337 184.131C35.0404 185.591 33.5805 189.484 36.0139 191.431C36.9872 191.431 37.4739 191.917 37.4739 192.891C37.4739 193.864 37.4738 194.837 36.9872 195.811C35.0405 201.164 33.5805 206.031 35.5272 211.384C36.0139 212.844 35.5272 215.278 33.5805 216.738C31.1472 218.198 31.6338 220.144 33.0938 221.604C33.0938 222.578 33.5805 223.551 33.5805 225.011C32.6072 226.471 32.6071 227.444 34.5538 227.931C34.5538 228.418 34.5538 229.391 35.0405 229.878C33.5805 231.338 35.0406 231.825 36.0139 232.798C36.0139 233.771 36.5005 234.745 36.5005 235.718C33.0937 241.558 33.5805 247.885 33.5805 254.211C33.5805 257.618 35.5271 261.025 41.3672 259.078C36.5005 264.432 36.5005 270.758 36.9872 276.112C37.9605 286.818 37.4739 297.039 37.4739 307.745C37.4739 312.612 36.5005 316.992 35.5272 321.859C35.0405 324.292 33.5805 326.726 30.6605 323.319C30.6605 322.832 30.6604 321.859 30.1738 321.372C30.1738 317.965 30.1738 314.559 27.7404 312.125C27.7404 311.639 27.2537 310.665 27.2537 310.179C29.2004 306.772 26.7671 303.852 25.307 301.419C25.307 300.932 25.307 299.959 24.8203 299.472C26.2804 294.118 28.2271 288.278 21.4137 284.872C15.087 256.645 8.27355 228.904 1.94681 200.677C0.973464 199.217 0.973345 198.244 0 197.271Z" fill="white"/>
<path d="M281.296 161.257C278.376 159.31 278.376 155.903 280.323 153.956C283.243 150.55 282.269 149.576 278.376 149.09C273.996 149.09 272.536 146.17 273.023 142.763C273.509 134.49 272.536 126.703 274.483 118.429C275.943 113.076 274.483 107.236 273.996 101.396C273.509 94.5825 273.023 87.769 274.483 80.9556C275.456 77.0622 274.969 73.6556 274.483 69.7622C273.996 65.8688 273.023 61.9755 275.943 58.0821C279.349 53.2154 274.969 52.242 272.049 50.2953C279.836 49.322 287.136 50.2953 294.923 49.8086C296.869 49.8086 297.843 50.7819 299.303 52.242C308.549 63.9221 317.796 76.0888 327.043 87.769C328.503 89.7157 329.476 91.6624 330.45 93.1224C329.476 93.1224 328.016 93.1224 327.043 92.6357C321.203 89.7157 320.716 89.7157 321.203 96.5292C321.203 97.9892 321.69 99.9359 321.69 101.396C322.176 104.803 322.663 107.723 324.61 110.643C327.043 115.023 321.69 116.483 319.743 118.916C318.283 118.429 317.31 116.969 316.336 115.996C310.983 109.183 305.63 102.856 300.763 96.0425C299.79 95.0691 299.303 93.6091 297.843 93.6091C295.896 93.6091 296.87 95.5558 296.383 97.0159C294.923 102.369 293.949 107.723 292.489 113.563C288.596 129.623 285.676 145.683 281.296 161.257Z" fill="white"/>
<path d="M127.021 50.7832C136.755 50.7832 146.488 50.7832 156.708 50.7832C161.088 53.2166 165.468 51.2698 170.335 51.7565C173.255 52.2431 177.148 51.2698 172.768 56.1365C171.795 57.1098 173.255 58.5699 172.768 59.5432C171.795 63.9233 173.742 70.25 166.442 71.2233C164.008 71.71 163.522 73.6567 163.522 76.09C159.628 76.09 155.735 76.0901 151.842 76.5767C150.868 76.5767 149.408 76.0901 148.435 77.5502C147.948 78.5235 148.922 79.4968 149.408 79.9835C160.602 94.5837 172.282 109.184 183.475 123.784C182.502 125.731 177.635 126.704 178.608 128.164C181.042 132.544 177.148 133.517 176.175 135.951C174.715 138.871 172.282 141.791 173.742 146.171C174.228 147.631 174.228 149.578 172.768 150.551C165.955 143.738 160.602 135.464 154.762 128.164C144.055 115.024 133.835 101.397 123.128 88.2568C125.561 78.0367 124.101 67.8167 122.641 58.0833C122.155 52.7299 122.641 51.7565 127.021 50.7832Z" fill="white"/>
<path d="M55.4807 378.798C54.9941 378.798 54.5073 378.312 54.5073 378.312C57.4274 372.472 57.4274 366.145 54.994 359.818C54.5074 358.845 54.5074 357.872 54.994 356.898C55.9674 352.032 55.9674 347.651 54.994 342.785C54.5074 338.891 53.5339 334.998 58.8873 333.051C62.2941 331.591 63.754 328.185 65.7007 325.751C74.4608 315.044 82.7344 304.338 91.4945 293.631C93.9278 298.498 91.4944 301.904 87.601 304.824C85.6543 306.284 84.681 307.744 86.141 309.204C89.5478 312.124 90.0344 316.991 92.9544 320.398C95.3878 322.831 95.3879 324.778 91.4945 326.724C87.1144 328.671 86.1411 333.051 89.0611 336.945C85.1677 343.271 79.8142 349.112 75.4342 354.952C73.4875 357.385 73.0009 358.358 76.4076 359.818C81.761 362.252 87.1143 365.172 92.4677 368.092C93.4411 376.852 91.0078 385.125 93.4411 393.885C93.4411 394.372 92.4677 395.345 92.4677 395.832C88.0877 394.859 84.1944 392.425 79.8144 390.479C72.0276 386.585 64.2407 382.692 56.454 378.798C55.9673 379.285 55.4807 378.798 55.4807 378.798Z" fill="white"/>
<path d="M356.73 317.48C360.137 322.347 361.11 326.24 358.677 332.567C356.243 338.407 359.65 345.22 361.11 351.06C362.084 353.494 364.03 351.06 365.49 350.574C366.95 350.087 368.41 348.627 369.384 350.574C370.357 352.034 369.87 353.494 369.384 354.954C365.49 361.28 364.03 367.607 364.03 374.907C357.217 378.8 350.403 382.694 342.617 385.127C339.21 383.667 337.263 384.641 336.29 388.047C335.803 388.047 335.803 388.534 335.317 388.534C336.777 382.207 335.317 375.88 329.963 372.474C326.07 370.04 325.096 368.58 327.043 364.687C329.476 363.227 331.423 361.767 333.857 360.794C338.237 359.334 337.263 357.387 335.317 354.467C331.423 348.14 325.583 343.76 321.69 336.947C325.096 328.187 327.53 319.427 327.043 310.18C327.043 308.233 328.503 307.746 329.963 307.26C337.75 315.533 344.077 325.267 351.863 333.54C354.297 327.7 354.297 322.347 356.73 317.48Z" fill="white"/>
<path d="M319.743 119.404C321.69 116.971 327.043 115.511 324.61 111.131C322.663 108.211 322.177 104.804 321.69 101.884C321.203 100.424 321.203 98.4775 321.203 97.0174C321.203 90.204 321.203 90.2039 327.043 93.124C328.017 93.6107 329.477 93.124 330.45 93.6107C336.29 98.4774 340.184 105.291 345.05 111.131C355.271 123.784 365.004 136.438 375.224 148.605C376.197 149.578 377.171 150.551 377.171 152.011C376.197 152.498 374.737 153.471 375.224 153.958C379.117 160.285 373.277 162.231 370.357 165.638C368.411 168.072 366.951 170.018 369.871 172.938C372.791 175.858 368.897 177.805 367.924 180.238C366.951 179.265 365.977 178.292 365.004 177.318C355.757 166.125 346.51 154.445 337.75 142.765C331.91 135.465 325.097 128.164 319.743 119.404Z" fill="white"/>
<path d="M58.4007 333.051C53.534 334.998 54.0207 338.891 54.5074 342.785C55.4807 347.651 55.4807 352.031 54.5074 356.898C54.5074 357.872 54.5074 358.845 54.5074 359.818C56.9407 366.145 56.9407 371.985 54.0207 378.312C50.1273 376.852 46.7207 374.905 42.8273 373.445C40.8806 372.472 39.9072 371.012 39.4205 369.065C36.0139 353.978 32.6071 339.378 29.2004 324.291C29.2004 323.804 29.2005 323.805 29.6871 323.318C32.6072 326.725 34.0672 324.291 34.5538 321.858C35.5272 317.478 36.5005 312.611 36.5005 307.744C36.5005 297.037 36.9873 286.817 36.0139 276.111C35.5273 270.757 35.5272 264.43 40.3939 259.077C34.5539 261.024 32.6072 257.617 32.6072 254.21C32.6072 247.884 32.1206 241.557 35.5272 235.717C36.5006 236.69 36.5005 238.637 36.9872 240.097C44.2873 271.731 51.1006 302.391 58.4007 333.051Z" fill="white"/>
<path d="M127.021 50.7824C123.128 51.7558 122.641 52.7291 123.128 58.0825C124.588 67.8159 126.048 78.0359 123.615 88.256C121.181 85.336 118.748 85.336 116.314 88.7427C114.854 90.6894 113.394 92.6362 111.934 94.5829C103.174 104.803 95.8743 115.996 86.6276 125.73C86.1409 123.296 85.6542 120.863 86.1409 118.916C87.6009 110.156 86.6276 101.883 86.6276 93.1228C86.6276 91.1761 86.1409 89.2294 83.7075 89.2294C90.5209 79.0093 98.3076 70.2492 105.608 61.0024C105.608 60.5157 106.094 60.5158 106.094 60.0292C110.961 50.7824 118.261 49.3224 127.021 50.7824Z" fill="white"/>
<path d="M35.5268 191.917C33.5801 189.97 34.5534 186.077 31.1467 184.617C30.6601 184.617 32.6066 182.67 34.0667 181.697C39.9067 177.317 39.9068 177.317 35.0401 171.477C32.12 168.557 32.6067 165.15 32.6067 161.257C32.6067 159.31 33.58 156.39 30.1733 155.903C37.9601 143.736 48.1802 133.03 56.9403 121.349C59.3737 117.943 62.2938 115.023 65.2138 112.103C65.7005 112.589 66.6738 112.589 67.1604 113.076C68.1338 114.049 70.0804 115.509 69.1071 117.456C68.1338 119.403 67.1604 117.456 65.7003 117.456C64.2403 116.969 64.2404 118.429 64.2404 119.403C65.7004 128.163 64.727 137.896 71.0538 145.196C64.727 153.47 57.9136 161.743 51.5869 170.503C46.2335 177.317 39.9068 183.644 35.5268 191.917Z" fill="white"/>
<path d="M327.043 364.686C324.61 368.579 325.583 370.039 329.963 372.472C335.803 375.879 337.264 381.719 335.317 388.532C328.99 393.399 321.69 395.832 314.877 399.239C305.143 404.106 294.923 408.973 284.703 413.839C282.756 414.813 281.296 415.786 278.863 415.786C279.35 412.379 281.296 410.433 283.73 408.486C284.703 407.513 286.65 406.539 285.19 405.566C279.35 402.159 281.783 397.293 284.216 393.886C286.163 390.479 285.19 388.532 283.243 386.099C291.03 380.746 299.79 378.312 308.063 373.932C313.903 370.526 320.23 366.632 327.043 364.686Z" fill="white"/>
<path d="M91.4944 396.318C91.9811 395.832 92.9543 394.858 92.4676 394.372C90.521 386.098 92.4677 377.338 91.4944 368.578C96.8478 371.011 102.688 373.445 108.041 376.365C116.315 380.745 124.588 383.665 132.375 388.532C132.375 389.018 132.375 389.992 132.862 390.478C136.268 396.805 135.782 404.592 131.401 410.432C129.941 411.892 130.428 413.352 129.942 415.298C117.288 409.458 104.148 403.618 91.4944 396.318Z" fill="white"/>
<path d="M130.428 415.298C130.915 413.838 130.428 411.891 131.888 410.431C136.268 405.078 136.755 396.805 133.348 390.478C132.862 389.991 133.348 389.018 132.862 388.531C145.028 393.398 156.708 399.725 168.388 405.565C168.875 407.511 167.415 409.945 169.849 410.918C171.795 411.405 173.742 410.431 175.202 408.971C175.689 409.458 176.662 409.458 177.149 409.945C177.149 411.405 175.689 412.865 175.202 413.838C172.769 418.705 171.309 424.058 174.229 429.412C175.689 431.845 176.175 434.278 176.175 437.198C160.602 430.385 145.028 423.572 130.428 415.298Z" fill="white"/>
<path d="M216.569 445.96C220.463 439.633 224.843 432.82 223.383 425.033C222.896 420.166 226.789 417.246 226.303 412.866C234.09 407.513 243.336 404.106 251.61 400.213C252.096 402.16 253.557 403.133 255.017 404.593C256.477 405.566 257.936 406.54 257.936 408.486C257.45 413.84 259.397 419.193 259.883 424.546C246.256 432.333 231.656 439.633 216.569 445.96Z" fill="white"/>
<path d="M259.396 50.2949C258.91 51.7549 257.45 52.7283 258.423 54.6749C261.83 61.0017 261.83 68.3017 262.317 75.6018C256.963 75.6018 251.61 75.6018 246.743 76.0885C232.629 76.5752 218.516 76.5752 204.402 76.0885C204.402 75.6018 204.402 75.1152 204.402 74.6285C210.242 72.6818 216.569 71.2218 222.896 71.2218C224.356 71.2218 224.843 69.7617 224.843 68.3017C224.843 63.9217 224.356 60.0284 225.816 55.6483C226.303 53.215 224.843 52.2416 222.409 52.2416C219.976 52.2416 217.543 53.2149 215.596 51.2682C230.196 50.2948 244.796 50.2949 259.396 50.2949Z" fill="white"/>
<path d="M204.402 74.1419C204.402 74.6285 204.402 75.1151 204.402 75.6018C190.775 76.0885 177.149 76.0885 163.522 75.6018C163.522 73.1684 163.522 71.2218 166.442 70.7351C173.742 69.7617 171.795 63.435 172.768 59.055C172.768 58.0816 171.795 56.6217 172.768 55.6484C177.149 50.7816 172.768 51.7549 170.335 51.2682C165.955 50.7815 161.088 52.7283 156.708 50.2949C169.362 50.2949 182.015 50.2949 194.669 50.2949C196.615 52.2416 199.536 51.2682 201.969 51.2682C205.376 51.7549 206.836 54.1882 204.889 56.6216C202.456 59.5416 201.969 62.4616 200.509 65.8684C199.049 68.7884 198.562 71.2218 202.942 71.2218C203.916 71.7085 204.402 73.1685 204.402 74.1419Z" fill="white"/>
<path d="M71.5409 144.712C65.2142 137.412 66.1876 127.678 64.7275 118.918C64.7275 117.945 64.7275 116.485 66.1875 116.971C67.1608 117.458 68.6209 118.918 69.5943 116.971C70.5676 115.025 68.6209 114.051 67.6476 112.591C67.1609 112.105 66.6741 112.105 65.7008 111.618C71.0542 103.345 77.381 95.5579 84.1944 88.2578C86.6278 88.2578 87.1145 90.2046 87.1145 92.1513C86.6278 100.911 88.0878 109.185 86.6278 117.945C86.1411 120.378 87.1145 122.812 87.1145 124.758C86.6278 125.245 86.6278 125.732 86.1411 125.732C84.6811 125.732 84.1944 126.705 84.1944 128.165C80.3011 134.492 75.921 139.845 71.5409 144.712Z" fill="white"/>
<path d="M175.688 437.199C175.688 434.279 175.202 432.332 173.742 429.412C171.308 424.059 172.768 418.705 174.715 413.839C175.202 412.379 176.662 411.405 176.662 409.945C178.608 410.432 180.068 410.919 182.015 411.892C186.882 413.839 190.775 417.245 196.129 418.219C200.509 422.599 199.049 428.439 200.022 433.306C200.509 436.712 201.482 440.119 203.429 442.552C205.375 444.986 205.862 447.419 202.942 449.366C199.535 448.879 196.615 447.906 194.182 445.472C194.182 444.986 194.182 444.986 194.182 444.499C192.722 442.552 193.209 439.146 190.775 438.172C188.828 437.199 189.802 442.066 186.882 441.579C182.988 440.606 179.095 440.119 175.688 437.199Z" fill="white"/>
<path d="M260.369 424.549C259.883 419.196 257.936 414.329 258.423 408.489C258.423 406.543 256.963 405.569 255.503 404.596C254.043 403.622 252.583 402.162 252.096 400.216C261.83 394.376 272.536 389.509 282.756 385.129C284.703 387.562 286.163 389.509 283.73 392.916C281.783 396.322 278.863 401.189 284.703 404.596C286.163 405.569 284.703 407.029 283.243 407.516C280.81 409.463 278.376 411.409 278.376 414.816C273.51 419.683 267.183 422.116 260.369 424.549Z" fill="white"/>
<path d="M204.402 74.1417C204.402 72.6817 203.915 71.2217 202.455 71.2217C197.588 71.2217 198.562 68.7883 200.022 65.8683C201.482 62.9483 201.968 59.5416 204.402 56.6216C206.348 54.1882 204.888 51.7548 201.482 51.2682C199.048 50.7815 196.615 52.2416 194.182 50.2949C201.482 50.2949 208.295 50.2949 215.595 50.2949C217.542 52.2416 219.975 51.2682 222.409 51.2682C224.842 51.2682 226.302 52.2416 225.815 54.6749C224.842 59.055 225.329 62.9484 224.842 67.3284C224.842 68.7884 224.355 70.2484 222.895 70.2484C216.569 70.7351 210.242 72.6817 204.402 74.1417Z" fill="white"/>
<path d="M29.6869 156.877C29.2002 159.31 28.2269 161.744 28.2269 164.664C28.2269 168.557 23.8469 168.557 20.4402 168.557C22.8735 164.177 25.7935 159.797 29.6869 156.877Z" fill="white"/>
<path d="M20.927 284.869C27.7404 288.276 25.7936 293.629 24.3336 299.469C21.9003 294.602 21.9003 289.736 20.927 284.869Z" fill="white"/>
<path d="M186.881 442.065C189.801 442.552 188.341 437.685 190.775 438.658C193.208 439.632 192.721 443.039 194.181 444.985C194.181 445.472 194.181 445.472 194.181 445.959C191.748 444.985 188.341 444.985 186.881 442.065Z" fill="white"/>
<path d="M24.8198 301.42C26.7665 304.34 28.7132 306.773 26.7665 310.18C25.7931 307.26 24.8198 304.34 24.8198 301.42Z" fill="white"/>
<path d="M27.2532 312.125C29.6865 315.045 29.6865 317.965 29.6865 321.372C27.7398 318.938 27.2532 315.532 27.2532 312.125Z" fill="white"/>
<path d="M336.29 388.044C337.263 384.637 339.21 383.664 342.617 385.124C340.67 387.071 338.723 387.557 336.29 388.044Z" fill="white"/>
<path d="M55.4805 378.797C55.9671 378.797 55.967 379.284 56.4537 379.284C55.967 379.284 55.4805 378.797 55.4805 378.797Z" fill="white"/>
<path d="M328.017 198.729C329.964 196.296 332.884 197.269 335.317 196.782C346.997 194.349 358.191 190.942 370.357 189.969C376.197 195.809 374.738 203.109 374.251 209.922C374.251 211.869 373.764 213.329 374.737 214.789C360.624 218.196 346.024 221.603 331.91 224.036C329.477 222.576 328.017 221.116 329.964 218.196C331.424 215.763 331.91 212.842 331.424 209.436C329.477 205.542 327.044 202.136 328.017 198.729Z" fill="white"/>
<path d="M356.731 315.531C356.731 314.558 356.731 313.098 357.704 312.611C359.164 314.071 359.164 315.045 356.731 315.531Z" fill="white"/>
<path d="M258.422 260.051C253.556 280.978 249.176 302.391 244.309 323.318C243.822 324.778 243.822 326.238 242.362 327.212C237.009 323.805 237.009 323.805 237.982 317.965C237.982 316.505 238.469 315.045 237.982 313.585C235.062 304.825 235.549 295.578 236.522 286.818C237.009 280.491 237.496 275.138 235.549 269.298C234.576 267.351 236.035 264.918 236.522 262.971C237.982 259.564 237.009 258.104 233.602 258.104C234.575 254.211 235.062 250.804 236.035 246.911C237.982 246.424 237.982 244.964 237.009 243.991C236.036 242.531 234.575 242.531 233.602 244.477C232.629 244.477 232.142 244.477 231.169 244.964C229.709 243.991 228.735 243.991 228.249 245.937C227.275 245.937 226.302 246.424 225.329 246.424C224.842 245.937 223.869 245.937 223.382 245.451C223.382 244.477 223.382 243.504 223.869 242.531C228.249 235.717 233.116 228.904 225.329 221.117C227.762 220.144 226.789 219.17 226.302 217.224C224.842 213.817 221.435 212.357 219.975 208.95C227.762 206.03 229.222 198.73 230.195 191.917C230.682 188.997 231.169 187.05 234.575 187.05C237.982 190.944 241.389 195.324 244.309 199.217C244.309 200.19 244.796 201.164 246.256 201.164C247.229 201.164 247.716 200.19 246.742 199.217C246.742 198.73 246.742 197.757 247.229 197.27C249.176 195.81 250.149 193.864 248.689 191.43C249.176 189.97 249.176 188.51 249.662 187.05C250.149 186.564 250.149 186.077 250.636 185.59C250.149 182.67 251.609 179.75 252.096 176.83C256.476 178.29 259.396 187.05 257.449 192.403C256.962 193.864 256.476 194.837 255.502 196.297C254.529 198.244 254.529 200.19 257.449 200.677C260.369 201.164 262.316 204.084 260.369 206.517C253.556 215.277 255.989 225.497 255.989 235.231C255.989 242.531 255.016 250.318 258.909 257.131C258.909 257.131 258.422 259.078 258.422 260.051Z" fill="white"/>
<path d="M321.69 336.949C314.39 327.702 306.603 318.942 299.303 309.208C294.923 303.855 289.57 298.501 286.65 292.175C288.11 287.308 287.623 282.928 290.543 278.061C292.49 275.141 291.516 270.761 289.083 267.841C283.73 262.001 285.19 260.541 291.03 257.621C298.33 266.868 306.117 275.628 313.417 284.875C318.77 292.175 325.097 298.502 329.963 306.288C328.503 306.288 327.043 307.262 327.043 309.208C328.017 319.428 325.097 328.189 321.69 336.949Z" fill="white"/>
<path d="M328.017 198.729C327.044 202.622 329.964 205.542 330.45 208.949C330.937 212.355 330.937 215.275 328.99 217.709C327.043 220.629 328.503 222.089 330.937 223.549C312.93 227.442 294.923 231.822 276.916 234.742C276.916 230.849 277.89 226.955 277.89 222.575C277.89 218.195 277.89 213.329 275.943 208.949C290.056 205.055 304.656 202.622 318.77 199.702C321.69 199.215 325.097 199.215 328.017 198.729Z" fill="white"/>
<path d="M252.583 130.596C249.663 134.976 246.743 139.356 242.363 142.763C237.982 143.25 236.036 140.816 235.062 136.923C233.602 131.083 235.062 124.269 228.736 120.376C234.576 112.103 240.903 103.829 247.716 96.5293C253.556 97.016 254.043 97.9893 253.069 103.829C251.609 110.156 251.609 116.483 249.176 122.323C247.716 126.216 249.176 129.136 252.583 130.596Z" fill="white"/>
<path d="M280.809 163.203C280.809 164.177 280.809 165.637 279.836 166.123C278.376 164.663 278.862 163.69 280.809 163.203Z" fill="white"/>
<path d="M224.842 295.091C225.329 289.738 225.815 284.384 228.735 279.518C234.089 281.951 232.142 286.818 231.656 290.711C231.169 294.118 228.735 295.578 224.842 295.091Z" fill="white"/>
<path d="M204.402 383.663C205.376 378.796 205.376 373.443 208.296 369.062C208.296 371.009 209.269 372.469 210.242 373.929C214.136 379.283 213.162 381.716 206.836 382.689C206.349 383.176 205.376 383.663 204.402 383.663Z" fill="white"/>
<path d="M242.363 331.591C241.876 334.511 241.876 337.431 240.416 339.865C239.929 339.378 238.956 339.378 238.956 338.405C237.982 336.458 236.036 334.511 237.009 332.565C237.496 330.618 240.416 332.078 242.363 331.591Z" fill="white"/>
<path d="M215.109 336.946C215.596 334.026 215.109 330.619 217.542 328.186C217.542 331.592 220.462 335.486 215.109 336.946Z" fill="white"/>
<path d="M212.188 349.112C212.675 347.165 212.675 344.732 214.135 343.271C215.109 345.705 214.135 347.652 212.188 349.112Z" fill="white"/>
<path d="M219.975 315.534C219.975 314.074 219.488 312.614 220.949 311.641C222.409 313.101 221.435 314.56 219.975 315.534Z" fill="white"/>
<path d="M221.436 309.205C220.949 308.232 220.949 306.772 222.409 306.285C222.896 307.745 222.896 308.718 221.436 309.205Z" fill="white"/>
<path d="M214.135 340.841C213.649 339.868 214.135 339.381 214.622 338.895C216.082 339.868 215.595 340.354 214.135 340.841Z" fill="white"/>
<path d="M239.929 342.787C239.929 343.76 239.929 344.247 239.442 344.734C237.982 343.76 238.469 343.274 239.929 342.787Z" fill="white"/>
<path d="M55.967 227.928C49.6403 226.468 44.287 223.062 37.9602 221.115C35.5269 220.142 33.5801 219.655 32.6068 222.575C31.1468 220.628 30.6601 218.682 33.0935 217.708C35.5269 216.248 35.5268 213.815 35.0402 212.355C33.0935 206.515 34.5534 201.648 36.5001 196.781C36.9868 195.808 36.5001 194.835 36.9868 193.861C45.2602 196.295 53.5337 199.215 61.3204 203.595C60.3471 208.948 60.3471 214.301 60.8337 219.168C60.8337 223.062 59.3737 225.982 55.967 227.928Z" fill="white"/>
<path d="M33.5809 225.498C34.5542 226.471 34.5541 227.445 34.5541 228.418C32.6075 227.931 32.1209 226.958 33.5809 225.498Z" fill="white"/>
<path d="M34.553 230.85C35.5263 231.823 35.5264 232.796 35.5264 233.77C34.553 232.796 33.0929 232.31 34.553 230.85Z" fill="white"/>
<path d="M175.201 187.535C177.635 182.669 181.528 178.776 184.935 174.882C187.855 171.475 188.342 169.529 184.935 165.635C180.555 160.769 176.175 155.902 172.768 150.062C174.715 149.089 174.715 147.142 173.741 145.682C171.795 141.788 174.228 138.382 176.175 135.462C177.635 133.028 181.528 132.055 178.608 127.675C177.635 126.215 182.015 125.242 183.475 123.295C188.828 129.135 193.695 134.975 198.075 141.788C199.535 147.628 197.102 153.469 196.128 158.822V159.309C200.022 163.202 198.562 168.069 198.075 172.935C197.588 176.342 198.075 179.262 192.235 179.262C194.668 181.696 195.642 183.155 195.642 185.589C195.642 189.969 197.102 193.376 201.968 194.349C199.535 197.269 197.588 200.676 195.155 203.596C188.828 211.382 182.988 220.143 175.688 227.443C171.795 220.629 173.255 212.842 173.741 205.542C173.741 203.596 174.228 201.649 172.768 200.189C170.821 198.242 171.308 196.782 172.768 195.322C174.228 193.862 175.202 191.916 176.175 190.456C178.122 187.536 176.661 188.022 175.201 187.535Z" fill="white"/>
<path d="M91.0078 293.634C99.2813 281.467 109.015 270.76 117.775 259.08C120.208 255.673 120.208 254.7 116.315 253.24C110.961 251.293 105.608 249.347 101.228 246.427C103.661 244.48 106.095 243.02 101.715 240.1C98.7946 238.153 98.3079 234.746 98.3079 231.34C98.3079 226.96 97.8213 222.093 99.2813 217.713C110.961 221.606 122.155 226.473 132.862 231.826C132.862 234.26 132.862 236.693 133.348 239.613C134.322 249.347 134.322 258.593 133.348 268.327C132.862 273.194 128.482 277.574 130.915 282.927C123.128 294.12 114.368 304.341 106.095 315.047C100.255 322.347 94.9012 329.648 88.5744 335.974C86.1411 332.081 87.1144 327.701 91.0078 325.754C94.4145 324.294 94.9011 321.861 92.4678 319.427C89.5477 316.021 89.0611 311.641 85.6544 308.234C84.1943 306.774 85.1678 304.827 87.1145 303.854C91.0079 302.394 92.9545 298.987 91.0078 293.634Z" fill="white"/>
<path d="M168.388 405.564C170.822 406.051 173.255 407.024 174.715 408.971C173.255 410.918 171.308 411.891 169.362 410.918C167.415 409.945 168.875 407.511 168.388 405.564Z" fill="white"/>
<path d="M86.1407 126.219C86.1407 127.192 85.1674 128.165 84.1941 128.652C83.7074 127.192 84.1941 126.219 86.1407 126.219Z" fill="white"/>
<path d="M202.455 193.865C198.075 192.405 196.129 188.998 196.129 185.105C196.129 182.671 194.669 181.211 192.722 178.778C198.562 179.265 198.075 175.858 198.562 172.451C199.049 167.585 200.509 163.204 196.615 158.824V158.338C198.075 152.498 200.022 147.144 198.562 141.304C199.049 141.304 199.049 141.791 199.535 141.791C206.835 149.578 206.349 149.091 212.675 140.331C217.542 133.031 223.382 126.217 229.222 119.891C235.549 123.784 234.089 130.597 235.549 136.437C236.522 140.818 238.469 142.764 242.849 142.278C237.982 150.064 232.142 157.364 225.816 164.178C222.409 168.071 221.922 170.991 225.329 174.885C226.302 175.858 226.789 176.831 227.762 177.805C227.276 179.751 223.382 181.211 225.329 183.645C227.762 187.051 228.736 181.211 230.682 181.698C231.656 183.158 232.629 184.618 234.089 185.591C230.682 185.591 230.196 187.051 229.709 190.458C228.736 197.272 227.276 204.572 219.489 207.492C215.595 203.112 211.702 198.732 208.295 193.865C206.349 191.918 204.889 191.432 202.455 193.865Z" fill="white"/>
<path d="M214.622 221.606C216.569 221.606 218.516 221.12 220.462 221.12C221.436 221.12 222.409 221.12 222.896 220.146C223.382 220.146 224.356 220.146 224.842 220.146C232.629 227.933 227.762 234.747 223.382 241.56C222.896 242.533 222.896 243.507 222.896 244.48C222.409 244.967 222.409 245.453 221.922 245.94C218.516 246.913 214.622 247.887 210.729 247.887C209.269 245.454 209.269 242.533 209.755 239.613C210.729 235.72 211.702 232.313 211.216 227.933C216.082 227.933 214.135 224.526 214.622 221.606Z" fill="white"/>
<path d="M235.549 246.91C235.549 245.45 234.575 244.477 233.115 243.99C234.089 242.044 235.549 242.044 236.522 243.504C237.495 244.964 237.009 246.424 235.549 246.91Z" fill="white"/>
<path d="M246.742 196.784C246.742 194.837 247.229 192.403 248.202 190.943C250.149 193.377 248.689 195.324 246.742 196.784Z" fill="white"/>
<path d="M221.922 246.423C222.409 245.936 222.409 245.45 222.895 244.963C223.382 245.45 224.355 245.449 224.842 245.936C223.869 246.91 222.895 246.91 221.922 246.423Z" fill="white"/>
<path d="M230.682 244.475C230.196 245.935 228.736 245.935 227.762 245.449C228.249 243.502 229.709 243.502 230.682 244.475Z" fill="white"/>
<path d="M244.309 198.729C245.283 198.729 245.769 198.729 246.743 198.729C247.229 199.702 247.229 200.188 246.256 200.675C244.796 201.162 244.309 200.188 244.309 198.729Z" fill="white"/>
<path d="M249.663 186.564C250.149 186.077 250.149 185.59 250.636 185.104C250.149 185.59 249.663 186.077 249.663 186.564Z" fill="white"/>
<path d="M231.169 182.671C228.736 182.184 228.249 187.537 225.816 184.617C223.869 182.184 227.763 180.724 228.249 178.777C229.709 179.264 230.196 181.211 231.169 182.671Z" fill="white"/>
<path d="M176.175 226.956C175.688 227.443 175.688 227.929 175.202 228.416C173.742 235.229 173.255 242.043 173.742 249.343C173.742 251.776 173.742 254.21 172.768 256.643C165.955 258.103 159.142 259.563 151.842 261.023C149.408 261.51 147.948 262.97 146.488 264.43C141.135 270.756 136.755 278.057 130.915 283.41C127.995 278.057 132.861 273.676 133.348 268.81C134.321 259.076 134.321 249.83 133.348 240.096C133.348 237.663 132.861 235.229 132.861 232.309C136.268 233.769 138.701 232.796 141.135 229.389C152.328 215.276 163.522 201.162 175.202 187.049C176.662 187.049 178.122 187.049 177.148 189.482C176.175 191.429 175.202 192.889 173.742 194.349C171.795 196.296 171.795 197.756 173.742 199.216C175.202 200.676 174.715 202.622 174.715 204.569C173.742 212.356 172.282 220.142 176.175 226.956Z" fill="white"/>
<path d="M172.769 256.646C173.742 254.213 173.742 251.779 173.742 249.346C173.256 242.533 173.742 235.233 175.202 228.419C176.662 229.879 178.609 228.906 180.556 228.906C189.316 227.446 197.589 225.012 206.349 224.039C206.349 227.932 208.296 228.906 211.702 228.419C212.189 232.313 210.729 236.206 210.242 240.099C209.756 243.019 209.756 245.939 211.216 248.373C207.809 250.806 203.916 250.319 200.022 251.293C190.776 253.239 181.529 255.186 172.769 256.646Z" fill="white"/>
<path d="M99.2813 218.683C97.8213 223.063 98.3079 227.443 98.3079 232.309C98.3079 235.716 98.7946 239.123 101.715 241.069C106.095 243.503 103.661 245.449 101.228 247.396C86.1412 241.069 70.5676 235.716 55.9675 228.416C59.8609 226.469 61.3209 224.036 60.8342 219.169C60.3476 213.816 60.3476 208.462 61.3209 203.596C74.461 207.489 86.6279 213.329 99.2813 218.683Z" fill="white"/>
<path d="M211.702 228.419C208.295 228.906 206.349 227.446 206.349 224.039C208.782 222.092 211.702 222.579 214.622 221.605C214.135 224.525 216.082 227.932 211.702 228.419Z" fill="white"/>
<path d="M222.896 220.146C222.409 221.12 221.436 221.12 220.463 221.12C220.949 220.633 221.923 220.146 222.896 220.146Z" fill="white"/>
</svg>
