<svg width="1278" height="500" viewBox="0 0 1278 500" fill="none" xmlns="http://www.w3.org/2000/svg">
<path d="M261.694 250.729C261.694 271.831 261.694 292.252 261.694 313.355C261.694 322.204 258.291 327.65 250.803 331.734C214.044 352.836 177.966 373.257 141.208 395.04C134.401 399.124 127.594 399.124 120.787 395.04C84.028 373.938 47.2695 352.155 10.511 331.734C3.70386 327.65 0.300293 322.204 0.300293 314.716C0.300293 271.831 0.300293 229.627 0.300293 186.742C0.300293 178.573 3.7038 173.127 11.1916 169.043C47.2695 148.622 84.028 127.52 119.425 106.417C127.594 101.653 133.72 101.653 141.889 106.417C177.286 126.839 212.683 147.26 248.761 167.682C257.61 173.127 262.375 179.254 261.694 190.145C261.013 210.567 261.694 230.307 261.694 250.729ZM47.9502 244.602C47.9502 258.217 47.9502 271.831 47.9502 285.445C47.9502 293.614 58.8416 304.505 66.3295 303.144C75.8595 301.782 71.0944 292.933 71.0944 288.168C71.7752 267.066 71.0944 246.644 71.0944 225.542C71.0944 212.609 71.7752 211.928 84.0281 218.735C96.2809 225.542 107.853 233.03 120.106 239.837C126.913 243.922 133.039 243.922 139.847 239.837C160.268 227.585 180.689 215.332 201.791 203.079C208.599 198.995 209.96 196.272 202.472 191.507C181.37 179.254 160.268 167.001 139.166 154.748C133.039 151.345 127.594 150.664 121.467 154.748C100.365 167.001 78.5823 179.935 57.4802 192.187C51.3538 195.591 47.9502 200.356 47.9502 207.844C47.9502 220.097 47.9502 232.35 47.9502 244.602Z" fill="white"/>
<path d="M843.024 250.726C843.024 295.653 806.265 333.092 761.338 333.092C715.73 333.092 679.652 297.014 678.972 251.406C678.291 205.799 715.73 168.359 761.338 168.359C806.265 169.04 843.024 205.799 843.024 250.726ZM761.338 209.202C738.194 209.202 721.176 227.582 721.857 251.406C721.857 275.231 738.875 292.249 761.338 292.249C784.482 292.249 801.5 274.551 801.5 250.726C801.5 226.901 783.802 209.202 761.338 209.202Z" fill="white"/>
<path d="M515.602 250.726C515.602 228.263 516.282 205.799 515.602 183.336C515.602 174.486 517.644 170.402 527.174 171.083C548.276 171.763 568.697 171.083 589.799 171.083C612.263 171.083 630.642 184.697 638.811 205.799C646.299 226.221 641.534 248.684 624.516 262.979C617.709 268.425 617.709 272.509 621.793 279.316C629.961 292.931 636.769 307.225 644.256 320.84C648.341 327.647 647.66 331.731 638.13 331.05C637.449 331.05 637.449 331.05 636.768 331.05C602.052 331.731 602.052 331.731 585.715 300.418C582.992 294.973 578.908 289.527 576.866 284.081C574.143 275.913 567.336 277.274 561.209 277.955C553.041 278.635 557.125 284.762 557.125 288.846C556.444 299.057 556.444 309.948 557.125 320.159C557.806 328.328 555.083 331.05 546.914 331.05C515.602 331.731 515.602 331.731 515.602 300.418C515.602 283.4 515.602 267.063 515.602 250.726ZM557.125 223.498C557.125 242.558 557.125 242.558 570.739 242.558C589.799 242.558 599.329 236.431 599.329 223.498C599.329 210.564 590.48 204.438 572.101 204.438C557.125 205.119 557.125 205.118 557.125 223.498Z" fill="white"/>
<path d="M348.827 250.73C348.827 227.586 348.827 205.123 348.827 181.978C348.827 173.81 351.55 170.406 360.399 170.406C380.82 171.087 401.242 170.406 421.663 170.406C450.934 171.087 472.036 194.231 472.036 224.183C471.355 252.773 450.253 273.875 420.982 274.555C410.772 274.555 397.838 269.79 392.392 276.597C387.627 282.043 391.031 294.977 391.031 304.507C391.031 329.693 391.031 329.693 365.844 329.693C349.507 329.693 349.507 329.693 349.507 312.675C348.827 292.254 348.827 271.832 348.827 250.73ZM389.669 221.46C389.669 241.2 389.669 241.2 409.41 240.52C410.091 240.52 410.772 240.52 411.452 240.52C421.663 239.839 428.47 233.032 428.47 224.183C428.47 213.972 421.663 206.484 411.452 205.803C406.687 205.123 401.242 205.803 396.477 205.803C391.031 205.123 388.989 207.165 389.669 213.291C390.35 215.333 389.669 218.737 389.669 221.46Z" fill="white"/>
<path d="M986.653 245.965C1007.75 261.621 1014.56 279.32 1009.12 298.38C1003.67 316.759 988.014 330.374 968.273 330.374C946.491 331.054 924.708 330.374 903.606 330.374C896.798 330.374 894.076 328.331 894.076 320.843C894.076 273.874 894.076 226.224 894.076 179.255C894.076 171.767 896.798 169.725 903.606 170.406C921.985 171.087 939.683 170.406 958.063 170.406C976.442 170.406 991.418 177.213 998.906 194.911C1006.39 212.61 1002.99 228.267 989.376 241.2C988.695 243.242 988.014 244.604 986.653 245.965ZM939.683 317.44C949.894 317.44 958.063 317.44 966.231 317.44C984.611 317.44 997.544 305.187 997.544 287.489C998.225 269.109 983.93 254.814 966.231 254.134C956.021 254.134 945.129 254.134 934.918 254.134C906.329 254.134 906.328 254.133 907.009 282.043C907.009 292.934 902.244 307.91 909.051 314.717C915.178 322.205 930.153 316.078 939.683 317.44ZM938.322 184.02C930.153 184.02 921.985 184.02 913.816 184.02C908.371 184.02 906.328 185.382 906.328 190.827C906.328 205.122 906.328 219.417 906.328 233.712C906.328 239.158 909.051 241.2 913.816 241.2C929.473 241.2 945.81 241.881 961.466 241.2C977.803 240.519 990.056 228.266 989.376 211.929C989.376 196.273 977.803 184.701 960.786 184.02C953.978 184.02 945.81 184.02 938.322 184.02Z" fill="white"/>
<path d="M1212.65 256.176C1212.65 235.074 1212.65 214.653 1212.65 193.55C1212.65 186.743 1210.61 184.021 1203.8 184.021C1191.55 184.701 1179.3 184.021 1166.36 184.021C1161.6 184.021 1158.19 183.34 1158.19 177.213C1158.19 171.087 1161.6 170.406 1166.36 170.406C1200.4 170.406 1234.43 170.406 1268.47 170.406C1273.23 170.406 1278 170.406 1278 177.213C1278 184.701 1273.23 184.021 1268.47 184.021C1258.26 184.021 1247.37 184.701 1237.16 184.021C1225.59 182.659 1224.22 187.424 1224.22 197.635C1224.9 236.435 1224.22 275.236 1224.22 314.037C1224.22 316.079 1224.22 318.802 1224.22 320.844C1224.22 324.928 1225.59 330.374 1218.1 331.054C1210.61 331.054 1211.97 325.609 1211.97 321.525C1212.65 299.061 1212.65 277.959 1212.65 256.176Z" fill="white"/>
<path d="M1094.21 250.73C1094.21 274.555 1094.21 297.7 1094.21 321.525C1094.21 325.609 1094.89 330.374 1088.08 330.374C1081.27 330.374 1080.59 326.29 1080.59 321.525C1080.59 274.555 1080.59 226.905 1080.59 179.936C1080.59 175.171 1081.27 170.406 1088.08 171.087C1094.21 171.087 1094.21 175.852 1094.21 179.936C1094.21 203.761 1094.21 226.905 1094.21 250.73Z" fill="white"/>
<path d="M130.316 220.098C116.702 215.333 105.13 207.845 94.2385 199.676C90.8349 196.954 94.9192 194.231 96.9613 192.869C105.811 187.424 113.979 182.659 122.828 177.894C127.593 175.171 132.358 175.851 137.123 177.894C145.292 182.659 154.141 187.424 162.31 192.189C165.033 194.231 169.798 196.954 165.033 200.357C154.141 207.845 142.569 214.652 130.316 220.098Z" fill="white"/>
</svg>
