<svg width="1278" height="500" viewBox="0 0 1278 500" fill="none" xmlns="http://www.w3.org/2000/svg">
<path d="M322.259 284.326C348.788 286.026 354.576 290.157 358.676 308.136C360.846 317.125 359.399 324.657 350.476 328.301C341.553 331.946 332.147 332.432 325.635 322.956C323.224 319.312 321.294 315.181 318.642 311.537C311.648 301.576 302.001 302.062 295.73 312.509C295.007 313.967 294.525 315.667 293.801 316.882C291.148 321.012 290.184 328.301 283.672 327.086C276.919 325.872 276.919 318.583 276.437 313.238C274.99 297.931 280.296 290.4 295.007 287.241C304.654 285.298 314.059 284.083 322.259 284.326Z" fill="#CFCFCF"/>
<path d="M149.533 89.519C146.385 89.7611 140.332 90.0032 134.279 90.2453C132.1 90.2453 130.163 89.2768 129.678 87.0977C128.952 84.1921 130.889 82.4973 133.552 82.013C138.637 81.0445 143.964 80.0759 149.048 79.1074C151.954 78.6231 154.859 77.4125 154.375 73.7805C153.891 70.1486 150.743 70.1486 147.838 70.1486C146.627 70.1486 145.416 70.3908 144.206 70.3908C141.542 70.3908 137.911 71.3592 136.7 68.2116C135.489 64.8217 138.395 62.4004 140.574 59.9791C151.227 49.5675 164.302 43.2721 178.588 39.8823C209.58 32.6184 240.33 33.1027 269.385 47.3884C299.166 61.9162 307.156 92.9088 308.125 119.059C308.367 124.628 304.009 126.807 300.377 128.986C274.954 143.272 271.08 167.485 270.353 193.393C270.111 200.657 274.954 205.257 279.312 209.858C288.271 219.543 290.45 229.954 286.818 243.272C279.312 269.422 269.869 294.361 252.678 315.911C249.046 320.511 244.688 324.869 240.088 328.986C225.802 341.576 220.96 339.639 216.359 321.722C210.79 299.93 207.885 277.17 197.716 256.831C189.241 239.882 175.198 229.712 156.07 228.259C151.712 228.017 145.659 227.049 144.448 232.134C142.753 237.945 149.29 238.429 153.164 240.124C155.101 240.85 157.038 241.335 158.733 242.303C161.639 243.998 164.302 246.177 163.576 249.809C162.85 253.925 159.702 255.862 155.828 256.104C143.722 256.589 131.615 256.831 119.509 257.073C111.277 257.073 108.613 251.262 107.887 244.24C106.676 234.555 110.308 226.08 113.698 217.364C121.446 197.751 127.257 177.896 124.109 156.105C123.141 150.294 124.594 143.998 125.32 138.187C126.289 128.502 131.373 124.386 141.542 124.386C158.733 124.386 176.166 124.628 193.357 120.27C195.779 119.785 198.2 119.301 200.379 118.575C203.527 117.606 207.158 116.395 206.916 112.521C206.432 108.163 202.074 108.889 199.168 109.132C181.493 110.1 163.818 111.795 146.143 112.279C140.816 112.521 131.131 115.669 130.889 108.163C130.405 98.4778 140.574 102.836 146.143 102.11C155.344 100.899 164.787 101.383 173.503 97.5092C175.682 96.5407 178.588 95.8143 178.103 92.6666C177.619 89.7611 174.956 89.519 172.535 89.519C165.271 89.519 158.733 89.519 149.533 89.519ZM178.346 144.967C176.409 144.967 174.229 144.725 172.292 144.967C163.334 145.935 152.922 146.42 152.438 157.8C151.954 170.148 162.365 171.601 172.05 172.085C189.241 172.812 206.432 173.054 223.139 179.107C226.286 180.318 229.434 181.044 231.855 177.896C233.792 175.475 233.066 172.327 231.613 169.906C229.434 165.548 226.286 161.916 222.17 159.252C209.096 149.809 194.326 145.451 178.346 144.967ZM192.873 197.267C193.357 197.267 197.231 197.267 201.347 197.267C204.011 197.267 207.643 197.751 208.369 194.361C209.338 190.971 205.948 189.761 203.769 188.066C194.326 181.286 173.987 180.802 164.787 187.097C163.576 188.066 162.123 189.277 161.881 190.487C161.155 193.151 164.06 193.393 165.755 194.119C173.261 197.025 181.251 197.509 192.873 197.267Z" fill="#CFCFCF"/>
<path d="M353.244 311.065C348.18 334.301 348.421 356.085 352.762 377.868C353.967 384.161 354.45 390.696 357.825 396.263C363.13 404.493 367.953 404.735 373.499 396.989C375.91 393.843 377.357 389.97 379.045 386.34C380.733 383.193 380.974 378.352 385.073 378.352C388.449 378.352 389.655 382.467 391.102 385.371C400.264 402.072 400.023 416.111 390.619 424.34C381.697 432.085 366.265 430.149 352.038 418.773C329.372 400.62 316.592 375.448 303.812 350.276C299.231 341.32 295.614 331.88 291.515 322.683C288.38 315.422 284.522 314.212 279.458 320.989C268.125 335.511 256.31 349.792 245.217 364.556C235.572 377.384 235.813 391.907 241.601 405.945C247.147 418.773 253.416 431.359 262.82 442.009C264.508 443.703 266.678 445.398 265.714 448.06C264.508 451.449 261.373 450.964 258.48 451.206C249.558 452.175 240.877 450.722 232.438 447.334C230.026 446.366 227.133 443.945 224.721 446.366C221.587 449.27 224.963 452.417 226.168 455.079C230.267 464.519 237.019 471.78 245.7 477.589C247.388 478.799 249.558 479.525 249.317 481.946C249.076 485.092 246.423 485.576 244.012 485.818C203.02 492.111 163.474 492.353 134.539 455.079C133.333 453.627 131.404 451.691 129.957 451.691C127.064 451.933 126.822 455.079 126.581 457.499C126.34 461.614 126.34 465.487 126.099 469.601C125.858 473.474 127.546 477.589 124.652 482.43C113.078 473.474 107.05 460.888 101.021 449.27C77.3906 404.735 62.4405 358.263 71.3624 306.708C73.7737 293.396 70.3979 280.326 64.6107 267.982C54.2421 245.23 54.001 222.962 66.7809 200.937C71.8446 192.223 72.3269 183.268 64.6107 175.522C59.7881 170.682 58.5824 164.873 60.0292 158.822C74.0148 104.363 99.8158 57.1646 149.73 28.6038C218.693 -11.0908 300.678 18.9222 329.613 92.7446C335.641 107.993 342.634 121.789 354.691 133.165C365.301 143.089 367.953 156.643 367.953 170.682C367.953 196.338 369.641 221.51 389.172 241.357C390.86 243.052 392.789 245.23 390.619 247.65C388.449 250.313 385.314 249.829 382.903 248.619C368.917 241.599 367.471 250.797 366.747 260.963C365.301 281.778 371.57 300.657 380.01 319.294C381.456 322.441 385.314 325.83 382.421 328.976C379.045 332.607 374.946 329.218 371.329 327.766C364.577 325.103 360.719 317.358 353.244 311.065ZM149.73 89.5981C159.134 89.5981 165.403 89.5981 171.914 89.5981C174.325 89.5981 177.219 89.8401 177.46 92.7446C177.942 95.649 175.049 96.6172 172.878 97.5854C164.198 101.458 154.794 100.974 145.631 102.184C140.085 102.91 129.957 98.5536 130.439 108.235C130.68 115.738 140.326 112.592 145.631 112.35C163.233 111.866 180.836 110.172 198.438 109.203C201.332 108.961 205.672 108.235 206.154 112.592C206.637 116.465 202.779 117.675 199.644 118.643C197.474 119.369 195.062 119.853 192.651 120.337C175.772 124.694 158.41 124.452 141.049 124.452C131.163 124.452 126.099 128.567 124.893 138.248C124.17 144.299 122.964 150.35 123.688 156.159C126.822 177.701 121.035 197.548 113.319 217.395C109.943 226.109 106.326 234.58 107.532 244.262C108.255 251.281 110.908 257.09 119.106 257.09C131.163 257.09 143.219 256.606 155.276 256.122C159.134 255.88 162.269 253.944 162.992 249.829C163.474 246.198 161.063 243.778 158.169 242.326C156.481 241.357 154.311 240.873 152.623 240.147C148.765 238.453 142.496 238.211 143.943 232.16C145.389 227.319 151.177 228.045 155.517 228.287C174.807 229.981 188.793 239.905 196.991 256.848C207.119 277.179 209.771 299.931 215.558 321.715C220.14 339.626 224.963 341.562 239.189 328.976C243.771 325.103 247.87 320.747 251.728 315.906C268.848 294.364 278.252 269.434 285.727 243.294C289.586 230.224 287.174 219.816 278.252 209.892C273.912 205.293 269.089 200.695 269.331 193.433C270.054 167.535 273.912 143.331 299.231 129.051C302.848 126.872 307.188 124.694 306.947 119.127C305.982 92.9866 297.784 62.0055 268.366 47.4831C239.189 33.2027 208.807 32.7186 177.942 39.9798C163.715 43.3683 150.694 49.6614 140.085 60.0691C137.673 62.2475 135.021 64.6679 136.226 68.2985C137.432 71.4451 141.049 70.477 143.702 70.477C144.907 70.477 146.113 70.2348 147.318 70.2348C150.212 70.2348 153.347 70.2348 153.829 73.8654C154.311 77.496 151.418 78.4642 148.524 79.1903C143.46 80.1585 138.156 80.8847 133.092 82.0949C130.439 82.5789 128.51 84.2732 129.234 87.1777C129.716 89.356 131.886 90.3241 133.815 90.3241C140.567 90.0821 146.595 89.8401 149.73 89.5981ZM150.212 284.441C142.255 284.199 132.61 285.409 123.205 287.345C108.496 290.492 102.95 297.995 104.638 313.243C105.121 318.568 105.121 325.83 111.872 327.04C118.383 328.25 119.347 320.989 122 316.874C122.723 315.422 123.205 313.97 123.929 312.517C130.198 302.11 139.843 301.625 146.836 311.549C149.248 315.18 151.177 319.294 153.829 322.925C160.34 332.365 169.503 331.639 178.665 328.25C187.587 324.619 189.034 317.116 186.864 308.16C182.524 290.25 176.736 286.135 150.212 284.441Z" fill="white"/>
<path d="M177.814 145.25C193.747 145.489 208.474 150.043 221.51 159.152C225.614 162.028 228.752 165.624 230.925 169.699C232.132 172.096 232.856 175.212 231.166 177.609C228.752 180.725 225.614 180.006 222.475 178.807C206.059 172.815 188.919 172.575 171.537 171.856C161.881 171.377 151.5 169.938 151.983 157.714C152.466 146.208 163.088 145.969 171.779 145.01C173.71 145.249 175.641 145.25 177.814 145.25Z" fill="white"/>
<path d="M192.676 197.653C181.388 197.914 173.628 197.393 166.338 194.267C164.691 193.485 162.105 193.485 162.575 190.359C162.81 189.057 164.221 187.493 165.397 186.712C174.098 179.939 194.087 180.46 203.259 187.754C205.375 189.317 208.667 190.88 207.727 194.527C206.786 198.174 203.494 197.653 200.907 197.653C196.909 197.914 192.911 197.653 192.676 197.653Z" fill="white"/>
<path d="M603.692 335.332L591.679 320.435C582.709 325.08 572.698 327.403 561.645 327.403C541.143 327.403 524.404 320.275 511.429 306.019C498.455 291.603 491.968 273.342 491.968 251.238C491.968 228.973 498.455 210.713 511.429 196.457C524.404 182.201 541.143 175.073 561.645 175.073C582.148 175.073 598.887 182.281 611.861 196.697C624.996 210.953 631.563 229.133 631.563 251.238C631.563 272.862 624.916 290.962 611.621 305.538L623.394 319.954L603.692 335.332ZM600.569 251.238C600.569 236.662 596.965 224.888 589.757 215.918C582.709 206.948 573.338 202.463 561.645 202.463C550.113 202.463 540.822 206.948 533.774 215.918C526.727 224.888 523.203 236.662 523.203 251.238C523.203 265.814 526.727 277.747 533.774 287.038C540.822 296.168 550.113 300.733 561.645 300.733C566.611 300.733 570.856 300.172 574.38 299.051L562.366 283.914L582.068 268.777L593.601 283.193C598.246 275.184 600.569 264.533 600.569 251.238ZM681.22 217.6V325H651.427V217.6H681.22ZM683.863 186.606C683.863 191.571 682.101 195.656 678.577 198.859C675.213 202.063 671.129 203.665 666.323 203.665C661.358 203.665 657.113 202.063 653.589 198.859C650.225 195.656 648.544 191.571 648.544 186.606C648.544 181.8 650.306 177.796 653.829 174.592C657.353 171.229 661.518 169.547 666.323 169.547C671.129 169.547 675.213 171.229 678.577 174.592C682.101 177.796 683.863 181.8 683.863 186.606ZM789.902 297.85H810.325C824.26 297.85 834.992 293.685 842.52 285.356C850.049 277.027 853.813 265.654 853.813 251.238C853.813 236.662 850.049 225.209 842.52 216.879C834.992 208.55 824.26 204.386 810.325 204.386H789.902V297.85ZM759.388 325V177.476H811.526C833.791 177.476 851.49 184.123 864.625 197.418C877.76 210.713 884.327 228.653 884.327 251.238C884.327 273.823 877.76 291.763 864.625 305.058C851.49 318.353 833.791 325 811.526 325H759.388ZM991.605 325H963.013V319.234C961.091 321.156 957.647 322.918 952.681 324.519C947.716 326.121 942.43 326.922 936.824 326.922C925.451 326.922 915.92 323.799 908.232 317.552C900.703 311.305 896.939 302.815 896.939 292.083C896.939 281.992 900.864 273.743 908.712 267.336C916.721 260.929 926.652 257.725 938.506 257.725C942.991 257.725 947.636 258.366 952.441 259.647C957.246 260.929 960.77 262.37 963.013 263.972V256.043C963.013 251.238 961.491 247.313 958.448 244.27C955.565 241.066 951.24 239.465 945.473 239.465C937.464 239.465 932.178 242.828 929.616 249.556H901.264C902.866 239.625 907.751 231.456 915.92 225.049C924.25 218.481 934.421 215.198 946.434 215.198C960.69 215.198 971.743 218.882 979.591 226.25C987.6 233.458 991.605 243.549 991.605 256.524V325ZM963.013 295.687V287.999C961.731 285.116 959.249 282.873 955.565 281.271C952.041 279.509 948.036 278.628 943.551 278.628C938.425 278.628 933.94 279.75 930.096 281.992C926.412 284.235 924.57 287.518 924.57 291.843C924.57 296.168 926.412 299.452 930.096 301.694C933.78 303.937 938.265 305.058 943.551 305.058C948.036 305.058 952.041 304.257 955.565 302.655C959.249 300.893 961.731 298.571 963.013 295.687ZM1114.33 271.42C1114.33 287.919 1109.44 301.374 1099.67 311.785C1089.9 322.197 1077.25 327.403 1061.71 327.403C1046.17 327.403 1033.52 322.197 1023.75 311.785C1013.98 301.374 1009.09 287.919 1009.09 271.42C1009.09 254.762 1013.98 241.227 1023.75 230.815C1033.52 220.403 1046.17 215.198 1061.71 215.198C1077.25 215.198 1089.9 220.403 1099.67 230.815C1109.44 241.227 1114.33 254.762 1114.33 271.42ZM1084.77 271.42C1084.77 262.13 1082.69 254.682 1078.53 249.075C1074.52 243.309 1068.92 240.426 1061.71 240.426C1054.5 240.426 1048.81 243.309 1044.65 249.075C1040.64 254.682 1038.64 262.13 1038.64 271.42C1038.64 280.55 1040.64 287.999 1044.65 293.765C1048.81 299.371 1054.5 302.175 1061.71 302.175C1068.92 302.175 1074.52 299.371 1078.53 293.765C1082.69 287.999 1084.77 280.55 1084.77 271.42Z" fill="white"/>
</svg>
