<svg width="1278" height="500" viewBox="0 0 1278 500" fill="none" xmlns="http://www.w3.org/2000/svg">
<path d="M685.616 253.657C685.616 227.721 685.616 201.784 685.616 175.847C685.616 171.525 686.481 170.012 691.022 170.012C711.349 170.228 731.676 170.228 752.003 170.012C770.817 170.012 787.467 175.631 801.523 187.951C813.2 198.326 819.904 211.943 823.364 226.856C827.905 247.822 827.905 269.003 820.336 289.32C810.389 316.337 790.927 332.548 761.95 335.574C737.731 338.167 713.512 336.006 689.076 336.654C684.751 336.871 685.616 334.061 685.616 331.683C685.616 305.747 685.616 279.594 685.616 253.657ZM738.164 202.865C733.19 202.865 729.081 203.081 724.973 202.865C722.162 202.649 721.729 203.729 721.729 206.323C721.729 237.663 721.729 268.787 721.729 300.127C721.729 302.721 722.594 303.585 725.189 303.369C732.974 303.153 740.758 303.585 748.327 303.153C768.438 302.072 781.412 290.617 784.872 271.381C787.035 259.061 787.035 246.741 784.872 234.421C781.629 216.698 771.465 206.755 753.733 203.513C748.327 202.649 742.921 203.081 738.164 202.865Z" fill="white"/>
<path d="M458.456 278.785C453.699 278.785 448.726 278.785 443.969 278.569C440.725 278.353 440.076 279.866 440.293 282.676C440.509 299.32 440.292 315.748 440.509 332.392C440.509 336.283 439.428 337.148 435.752 337.148C426.454 336.932 416.94 336.932 407.642 337.148C404.831 337.148 403.533 336.932 403.533 333.473C403.75 280.298 403.533 227.123 403.533 174.165C403.533 171.354 404.398 170.49 407.209 170.49C429.265 170.706 451.104 169.841 473.16 170.922C499.324 172.219 521.163 185.405 526.352 215.018C530.245 235.986 524.19 259.331 499.54 271.868C495.864 273.814 495.864 275.11 497.594 278.137C508.405 296.942 519.001 315.748 529.596 334.554C530.028 335.202 530.245 335.851 530.677 337.364C517.919 337.364 505.81 337.58 493.485 337.148C490.026 336.932 489.377 332.825 487.863 330.231C479.43 315.316 470.997 300.401 462.564 285.486C461.483 283.757 460.618 281.811 459.537 279.866C459.537 278.785 459.105 278.569 458.456 278.785ZM440.076 225.61C440.076 232.095 440.076 238.58 440.076 245.064C440.076 246.578 439.644 248.523 442.239 248.307C452.834 247.874 463.429 249.604 473.808 246.578C480.511 244.632 486.566 241.606 489.377 234.473C494.783 221.071 488.945 208.966 475.322 204.643C464.511 201.184 453.266 203.13 442.022 202.697C439.428 202.697 439.86 204.643 439.86 206.156C440.076 212.641 440.076 219.125 440.076 225.61Z" fill="white"/>
<path d="M550.985 253.498C550.985 227.537 550.985 201.575 550.985 175.614C550.985 171.72 551.634 169.989 556.178 170.205C590.366 170.422 624.554 170.422 658.959 170.205C662.854 170.205 664.368 170.854 664.152 175.181C663.719 182.537 663.719 189.893 664.152 197.248C664.368 201.359 663.286 202.657 658.959 202.657C637.321 202.441 615.683 202.657 594.044 202.441C589.5 202.441 588.419 203.739 588.419 208.066C588.851 216.287 588.635 224.724 588.419 232.945C588.202 236.839 589.284 238.137 593.395 238.137C611.139 237.921 628.666 238.137 646.409 237.921C650.737 237.921 652.467 238.57 652.251 243.33C651.818 249.604 651.818 255.878 652.251 262.152C652.467 265.829 651.169 266.695 647.707 266.478C629.747 266.262 611.571 266.478 593.612 266.262C589.501 266.262 588.419 267.127 588.419 271.238C588.635 280.541 588.635 290.06 588.419 299.363C588.202 303.257 589.501 304.122 593.179 304.122C615.25 303.906 637.105 304.122 659.175 303.906C662.854 303.906 664.152 304.555 664.152 308.449C663.719 316.454 663.936 324.242 664.152 332.247C664.152 335.059 663.719 336.357 660.474 336.357C625.42 336.141 590.15 336.141 555.096 336.357C550.985 336.357 551.417 334.41 551.417 331.814C551.201 306.069 550.985 279.892 550.985 253.498Z" fill="white"/>
<path d="M1177.42 253.538C1177.42 227.385 1177.42 201.233 1177.42 175.296C1177.42 171.622 1178.29 170.541 1182.18 170.541C1212.67 170.757 1243.16 170.757 1273.43 170.541C1277.32 170.541 1278.19 171.838 1277.97 175.296C1277.75 185.671 1277.97 185.671 1267.37 185.671C1244.67 185.671 1221.97 185.887 1199.26 185.455C1194.72 185.455 1193.64 186.751 1193.64 191.074C1193.86 207.5 1193.86 223.927 1193.64 240.137C1193.64 244.028 1194.72 244.892 1198.4 244.892C1219.8 244.676 1241.21 244.892 1262.62 244.676C1266.51 244.676 1268.24 245.108 1268.02 249.647C1267.59 258.293 1268.02 258.293 1259.16 258.293C1239.26 258.293 1219.16 258.509 1199.26 258.293C1194.94 258.293 1193.42 258.941 1193.42 263.696C1193.64 281.419 1193.64 299.359 1193.42 317.082C1193.42 320.54 1194.29 321.621 1197.97 321.621C1222.83 321.405 1247.7 321.621 1272.56 321.405C1276.67 321.405 1277.75 322.269 1277.54 326.376C1277.32 336.534 1277.54 336.534 1267.59 336.534C1239.05 336.534 1210.29 336.534 1181.75 336.534C1177.86 336.534 1176.99 335.454 1176.99 331.779C1177.64 306.059 1177.42 279.69 1177.42 253.538Z" fill="white"/>
<path d="M986.71 170.541C975.239 182.646 964.634 194.102 954.028 205.343C943.207 216.799 932.385 228.472 921.564 239.928C920.049 241.658 919.4 242.739 921.131 244.9C936.281 264.139 951.215 283.377 966.149 302.831C974.806 314.072 983.679 325.312 992.986 337.201C986.277 337.201 980.65 336.985 975.022 337.201C971.992 337.201 971.127 334.823 970.044 333.094C957.491 317.098 945.155 301.102 932.602 285.106C925.676 276.027 918.75 267.165 911.824 258.086C910.093 255.924 908.578 255.492 906.847 257.87C906.847 258.086 906.63 258.086 906.414 258.302C898.189 264.571 895.376 272.353 896.025 282.944C897.107 299.589 896.241 316.449 896.458 333.094C896.458 336.336 895.808 337.417 892.346 337.417C880.009 337.417 880.009 337.633 880.009 325.312C880.009 275.595 880.009 225.878 879.793 176.161C879.793 171.622 880.875 170.541 885.42 170.757C896.241 171.189 896.241 170.757 896.241 181.781C896.241 203.181 896.241 224.581 896.241 247.278C901.652 242.306 905.981 237.118 910.309 232.363C915.937 226.094 921.78 219.609 927.408 213.341C939.095 200.155 950.782 187.185 962.469 174C964.201 172.054 966.149 170.973 968.962 170.973C974.157 170.541 979.784 170.541 986.71 170.541Z" fill="white"/>
<path d="M1096.26 260.822C1096.26 237.28 1096.26 213.738 1096.26 190.195C1096.26 186.524 1095.61 185.228 1091.72 185.444C1077.86 185.66 1064.01 185.444 1050.16 185.66C1046.69 185.66 1045.61 184.796 1045.61 181.124C1045.61 170.541 1045.61 170.541 1056.22 170.541C1090.2 170.541 1124.4 170.541 1158.39 170.541C1162.5 170.541 1163.58 171.405 1163.37 175.509C1163.15 185.66 1163.37 185.66 1153.19 185.66C1141.29 185.66 1129.38 185.876 1117.48 185.444C1113.15 185.228 1112.5 186.74 1112.5 190.627C1112.71 237.496 1112.5 284.58 1112.71 331.449C1112.71 335.984 1111.63 337.064 1107.09 337.064C1096.05 336.632 1096.05 337.064 1096.05 325.833C1096.26 304.019 1096.26 282.42 1096.26 260.822Z" fill="white"/>
<path d="M1012.59 253.213C1012.59 227.051 1012.59 201.106 1012.59 174.944C1012.59 171.052 1013.67 170.188 1017.37 170.188C1029.32 170.404 1029.32 170.188 1029.32 182.079C1029.32 232.024 1029.32 281.753 1029.54 331.698C1029.54 336.022 1028.45 336.887 1024.11 336.887C1012.59 336.671 1012.59 336.887 1012.59 325.428C1012.59 301.428 1012.59 277.429 1012.59 253.213Z" fill="white"/>
<path d="M17.2536 410.906C21.138 408.558 24.7513 406.301 28.455 404.133C38.5723 398.173 48.7799 392.303 58.8973 386.343C69.1952 380.293 79.4932 374.333 89.7009 368.192C96.6565 363.948 96.0243 353.292 88.9783 349.318C83.9196 346.519 78.6803 344.08 73.6216 341.371C62.33 335.501 51.1286 329.541 39.8369 323.672C38.5723 323.039 38.3916 321.956 38.2109 321.053C37.7592 318.163 37.5786 315.273 37.2173 312.383C36.8559 309.132 36.4043 305.972 36.043 302.811C35.6817 299.921 35.3203 297.031 34.9589 294.142C34.5976 290.891 34.3266 287.73 33.875 284.479C33.5136 281.589 32.7006 278.699 32.7006 275.81C32.7006 273.733 31.2553 271.746 32.52 269.488C34.8686 271.114 37.398 272.83 39.8369 274.636C58.7166 288.182 77.6866 301.637 96.5663 315.183C106.864 322.588 117.162 329.903 127.37 337.398C129.177 338.753 130.351 338.572 131.616 337.127C131.977 336.766 132.338 336.405 132.7 336.043C132.158 335.592 131.525 335.231 131.074 334.689C126.376 329.541 121.047 325.026 116.078 320.15C110.749 315.002 105.329 310.035 99.9989 304.888C95.6629 300.644 91.2366 296.49 86.8103 292.336C82.1129 287.911 77.4156 283.395 72.7183 278.97C68.3823 274.907 63.9559 270.843 59.8006 266.599C53.3869 260.187 46.4312 254.227 40.0176 247.815C37.5786 245.377 35.1396 242.939 32.52 240.771C29.9906 238.694 29.4486 235.804 28.997 232.824C28.2743 228.49 27.5516 224.065 26.9192 219.73C26.2869 215.847 25.6546 211.874 25.0223 207.99C24.2996 203.656 23.6673 199.411 22.9447 195.077C22.3123 191.013 21.6799 186.949 20.9573 182.886C20.4153 179.635 19.6927 176.384 19.4217 172.862C29.1776 182.886 38.753 192.729 48.3283 202.662C75.338 230.657 102.348 258.652 129.357 286.556C138.571 296.128 147.785 305.701 157.09 315.273C157.632 315.905 158.174 317.17 159.167 316.718C160.432 316.086 161.516 315.092 162.51 314.099C162.961 313.557 162.058 312.925 161.606 312.474C154.018 303.172 146.43 293.961 138.842 284.75C106.413 245.196 73.9829 205.643 41.5533 166.089C37.2173 160.761 32.7006 155.523 28.2742 150.285C24.7512 146.041 21.2283 141.797 17.7956 137.462C16.1696 135.385 16.3503 132.766 15.8986 130.328C14.905 125.09 14.0919 119.762 13.2789 114.434C12.6466 110.28 12.0143 106.126 11.382 101.972C10.7496 97.818 10.1173 93.664 9.39468 89.5099C8.67202 85.2656 8.03964 81.1115 7.31697 76.8672C6.59431 72.5325 5.78129 68.1979 5.14895 63.7729C4.51662 59.6189 3.97464 55.4648 3.25198 51.3108C2.43898 46.1634 1.44529 41.016 0.632289 35.8686C0.270956 33.7013 0 31.5339 0 29.0957C1.53567 31.4436 3.16162 33.7916 4.69729 36.1395C14.1823 50.769 23.577 65.4887 33.062 80.1182C49.4123 105.494 65.8529 130.779 82.2936 156.065C93.5853 173.494 104.787 190.923 116.078 208.261C132.067 233.005 148.056 257.749 164.045 282.492C167.388 287.64 170.73 292.877 174.072 298.025C181.931 310.035 199.185 312.745 210.386 303.804C212.103 302.45 213.909 301.095 214.993 299.108C216.077 297.302 217.703 298.025 219.058 298.296C233.331 300.915 246.7 306.062 259.437 312.835C259.889 313.106 260.34 313.377 260.882 313.557C261.153 313.648 261.515 313.557 261.695 313.377C261.966 313.196 261.786 312.835 261.515 312.654C259.076 310.216 257.45 307.146 254.469 304.978C252.03 303.172 250.042 300.644 247.242 298.928C248.507 298.296 249.32 299.289 250.133 299.65C259.257 303.804 268.109 308.229 274.975 315.815C278.407 319.698 280.665 324.033 279.22 329.451C279.039 329.993 278.859 330.806 278.497 330.986C277.775 331.257 277.775 330.354 277.413 329.903C272.264 324.304 265.038 321.594 257.45 325.929C249.681 330.354 241.28 333.786 233.24 337.759C225.02 341.823 216.619 345.887 208.58 350.402C202.618 353.743 196.384 356.543 190.332 359.613C183.467 363.045 176.511 366.386 169.827 370.088C162.781 373.881 155.554 377.223 148.508 380.925C135.048 387.969 121.408 394.651 107.858 401.786C100.36 405.669 92.5916 409.01 85.4553 413.435C84.6423 413.886 83.9196 413.796 83.1066 413.796C77.0543 414.157 71.002 413.525 64.9496 413.254C59.4393 412.983 53.9289 412.893 48.4186 412.622C42.7276 412.351 36.9463 411.99 31.165 411.9C27.2806 411.9 23.306 411.629 19.3313 411.539C19.0603 411.539 18.2473 411.177 17.2536 410.906Z" fill="white"/>
</svg>
