<svg width="1278" height="500" viewBox="0 0 1278 500" fill="none" xmlns="http://www.w3.org/2000/svg">
<path d="M162.228 95.8104C46.0005 166.881 8.9515 235.873 0.00864255 398.745C-0.236601 403.212 4.78871 406.064 8.55825 403.62C71.9203 362.546 108.402 353.782 163.75 365.585C167.208 366.323 170.521 363.735 170.521 360.219V100.408C170.521 96.1814 165.851 93.5956 162.228 95.8104Z" fill="white"/>
<path d="M194.881 140.599V371.954C194.881 374.298 196.426 376.389 198.675 377.108C271.649 400.443 311.227 397.52 371.243 364.474C374.515 362.672 374.948 358.178 372.149 355.714C291.866 285.036 248.676 236.263 205.805 138.466C203.404 132.988 194.881 134.625 194.881 140.599Z" fill="white"/>
<path d="M494.769 250.383H483.178V290H461.207V183.778H504.976C516.394 183.778 525.448 186.719 532.137 192.601C538.826 198.483 542.171 206.787 542.171 217.513C542.171 225.817 540.037 232.679 535.77 238.1C531.503 243.405 525.563 246.981 517.951 248.826L545.977 290H521.065L494.769 250.383ZM483.178 202.635V232.218H503.592C509.013 232.218 513.165 230.892 516.048 228.239C518.931 225.586 520.373 222.011 520.373 217.513C520.373 212.9 518.931 209.267 516.048 206.614C513.165 203.961 509.013 202.635 503.592 202.635H483.178ZM579.275 212.669V290H557.823V212.669H579.275ZM581.178 190.352C581.178 193.927 579.91 196.868 577.372 199.175C574.95 201.482 572.009 202.635 568.549 202.635C564.974 202.635 561.918 201.482 559.38 199.175C556.958 196.868 555.747 193.927 555.747 190.352C555.747 186.892 557.016 184.009 559.553 181.702C562.091 179.28 565.089 178.069 568.549 178.069C572.009 178.069 574.95 179.28 577.372 181.702C579.91 184.009 581.178 186.892 581.178 190.352ZM593.015 266.991H614.294C616.024 272.642 620.349 275.468 627.269 275.468C634.535 275.468 638.168 272.931 638.168 267.856C638.168 266.126 637.534 264.8 636.265 263.877C635.112 262.839 633.151 261.974 630.383 261.282L614.813 257.822C601.435 254.708 594.745 247.442 594.745 236.024C594.745 228.643 597.686 222.645 603.568 218.032C609.45 213.303 616.774 210.939 625.539 210.939C635.112 210.939 642.609 213.073 648.029 217.34C653.565 221.492 657.025 227.316 658.409 234.813H637.995C636.381 229.738 632.344 227.201 625.885 227.201C623.117 227.201 620.695 227.835 618.619 229.104C616.659 230.373 615.678 232.16 615.678 234.467C615.678 237.35 617.985 239.369 622.598 240.522L638.514 244.155C652.239 247.5 659.101 254.996 659.101 266.645C659.101 274.372 656.103 280.485 650.105 284.983C644.223 289.481 636.669 291.73 627.442 291.73C617.87 291.73 610.027 289.596 603.914 285.329C597.802 280.946 594.169 274.834 593.015 266.991ZM723.894 290L701.231 258.86L695.003 265.607V290H673.551V177.55H695.003V241.387L721.472 212.669H748.114L716.801 245.539L749.325 290H723.894ZM867.646 183.778H889.79V290H867.646V245.366H819.552V290H797.408V183.778H819.552V225.99H867.646V183.778ZM972.89 290H952.303V285.848C950.919 287.232 948.439 288.501 944.864 289.654C941.288 290.807 937.482 291.384 933.446 291.384C925.257 291.384 918.395 289.135 912.859 284.637C907.438 280.139 904.728 274.026 904.728 266.299C904.728 259.033 907.553 253.093 913.205 248.48C918.971 243.867 926.122 241.56 934.657 241.56C937.886 241.56 941.231 242.021 944.691 242.944C948.151 243.867 950.688 244.905 952.303 246.058V240.349C952.303 236.889 951.207 234.063 949.016 231.872C946.94 229.565 943.826 228.412 939.674 228.412C933.907 228.412 930.101 230.834 928.256 235.678H907.842C908.995 228.527 912.513 222.645 918.395 218.032C924.392 213.303 931.716 210.939 940.366 210.939C950.63 210.939 958.588 213.592 964.24 218.897C970.006 224.087 972.89 231.353 972.89 240.695V290ZM952.303 268.894V263.358C951.38 261.282 949.592 259.667 946.94 258.514C944.402 257.245 941.519 256.611 938.29 256.611C934.599 256.611 931.37 257.418 928.602 259.033C925.949 260.648 924.623 263.012 924.623 266.126C924.623 269.24 925.949 271.604 928.602 273.219C931.254 274.834 934.484 275.641 938.29 275.641C941.519 275.641 944.402 275.064 946.94 273.911C949.592 272.642 951.38 270.97 952.303 268.894ZM1037.21 212.323V233.775C1034.32 232.045 1030.75 231.18 1026.48 231.18C1022.79 231.18 1019.62 232.16 1016.97 234.121C1014.31 235.966 1012.58 238.619 1011.78 242.079V290H990.323V212.669H1011.78V220.281C1015.47 214.053 1021.23 210.939 1029.08 210.939C1032.88 210.939 1035.59 211.4 1037.21 212.323ZM1072.43 283.599V290H1050.8V177.55H1072.43V219.07C1074.27 216.879 1076.98 214.976 1080.56 213.361C1084.13 211.746 1087.88 210.939 1091.8 210.939C1102.64 210.939 1111.18 214.803 1117.41 222.53C1123.75 230.257 1126.92 239.888 1126.92 251.421C1126.92 262.954 1123.75 272.585 1117.41 280.312C1111.18 287.924 1102.64 291.73 1091.8 291.73C1087.88 291.73 1084.13 290.923 1080.56 289.308C1076.98 287.693 1074.27 285.79 1072.43 283.599ZM1072.43 238.619V264.05C1073.7 266.703 1075.6 268.894 1078.14 270.624C1080.79 272.239 1083.73 273.046 1086.96 273.046C1092.61 273.046 1097.11 271.028 1100.45 266.991C1103.8 262.954 1105.47 257.764 1105.47 251.421C1105.47 245.078 1103.8 239.888 1100.45 235.851C1097.11 231.699 1092.61 229.623 1086.96 229.623C1083.84 229.623 1080.96 230.488 1078.31 232.218C1075.66 233.833 1073.7 235.966 1072.43 238.619ZM1212.29 251.421C1212.29 263.3 1208.77 272.988 1201.74 280.485C1194.7 287.982 1185.59 291.73 1174.4 291.73C1163.22 291.73 1154.1 287.982 1147.07 280.485C1140.03 272.988 1136.52 263.3 1136.52 251.421C1136.52 239.426 1140.03 229.681 1147.07 222.184C1154.1 214.687 1163.22 210.939 1174.4 210.939C1185.59 210.939 1194.7 214.687 1201.74 222.184C1208.77 229.681 1212.29 239.426 1212.29 251.421ZM1191.01 251.421C1191.01 244.732 1189.51 239.369 1186.51 235.332C1183.63 231.18 1179.59 229.104 1174.4 229.104C1169.21 229.104 1165.12 231.18 1162.12 235.332C1159.24 239.369 1157.8 244.732 1157.8 251.421C1157.8 257.995 1159.24 263.358 1162.12 267.51C1165.12 271.547 1169.21 273.565 1174.4 273.565C1179.59 273.565 1183.63 271.547 1186.51 267.51C1189.51 263.358 1191.01 257.995 1191.01 251.421ZM1272.89 212.323V233.775C1270 232.045 1266.43 231.18 1262.16 231.18C1258.47 231.18 1255.3 232.16 1252.64 234.121C1249.99 235.966 1248.26 238.619 1247.45 242.079V290H1226V212.669H1247.45V220.281C1251.14 214.053 1256.91 210.939 1264.75 210.939C1268.56 210.939 1271.27 211.4 1272.89 212.323Z" fill="white"/>
</svg>
