<svg width="1278" height="500" viewBox="0 0 1278 500" fill="none" xmlns="http://www.w3.org/2000/svg">
<g clip-path="url(#clip0)">
<path d="M762.405 190.686C769.806 189.368 776.954 186.986 784.456 185.617C808.941 181.105 830.283 187.087 849.85 201.382C853.297 203.917 856.136 208.327 860.901 206.249C866.426 203.765 865.767 198.138 865.767 193.12C865.767 164.123 865.716 135.077 865.767 106.08C865.818 90.1629 865.868 90.2136 882.242 90.2643C891.316 90.315 900.39 90.0615 909.414 90.1628C916.561 90.2135 920.667 92.6975 920.667 101.112C920.465 199.405 920.414 297.698 920.667 395.941C920.667 403.697 917.626 405.623 910.833 405.522C898.312 405.319 885.791 405.369 873.32 405.319C869.67 405.319 867.187 404.913 865.869 400.351C862.523 388.641 859.532 388.337 849.596 395.991C847.721 397.411 846.403 400.706 843.108 400.3C839.863 400.199 836.366 399.591 835.555 404.204C835.2 404.457 834.794 404.609 834.338 404.558C827.089 405.623 819.738 406.434 814.517 412.467C812.844 412.669 811.171 412.821 809.498 413.024C801.236 411.098 792.973 411.098 784.71 412.973C783.696 412.821 782.631 412.72 781.567 412.568C780.452 406.992 776.599 407.854 772.696 408.766C771.783 408.614 770.871 408.462 769.958 408.31C762.912 401.922 754.142 399.236 745.321 396.752H745.372C740.404 388.692 732.446 384.383 724.588 379.82C712.828 368.009 705.325 353.714 700.357 337.999C696.048 324.261 692.601 310.169 693.514 295.772C695.389 265.61 704.565 238.033 725.602 215.374C726.109 214.816 727.376 214.867 728.238 214.664C731.584 214.715 732.446 212.535 732.699 209.797L732.801 209.493C739.441 207.263 745.423 204.171 749.276 197.986C752.52 198.189 755.815 198.544 756.778 194.235C759.87 195.046 761.645 193.677 762.405 190.686ZM868.454 298.104C869.519 262.416 841.384 234.181 807.319 235.296C776.396 236.31 747.4 264.85 749.58 301.5C751.557 334.653 774.368 361.419 810.005 361.419C843.564 361.368 869.164 334.856 868.454 298.104Z" fill="white"/>
<path d="M1169.52 329.528C1169.52 354.57 1169.31 375.456 1169.62 396.392C1169.72 402.779 1167.54 405.466 1161.1 405.364C1147.67 405.162 1134.18 405.263 1120.75 405.314C1116.04 405.364 1113.35 404.249 1113.45 398.521C1113.55 391.272 1109.4 389.041 1102.91 392.843C1095.91 396.899 1089.32 401.562 1082.17 405.466C1046.69 424.932 991.637 408.609 973.895 370.995C960.36 342.354 966.443 303.624 996.858 283.398C1023.17 265.909 1051.96 265.706 1081.36 268.241C1090.34 269.001 1099 272.753 1107.88 274.932C1112.23 275.997 1113.55 274.121 1113.81 269.508C1114.77 250.904 1099.51 235.95 1080.86 231.134C1057.99 225.253 1037.56 230.83 1020.18 246.747C1014.7 251.715 1010.65 252.729 1004.36 247.406C996.909 241.12 988.19 236.254 979.775 231.134C974.047 227.636 973.794 223.581 978.254 219.475C992.347 206.548 1007.3 195.649 1026.31 189.971C1050.54 182.722 1074.72 182.418 1098.95 187.082C1131.5 193.368 1160.6 213.696 1166.98 255.314C1171.04 281.522 1167.64 307.578 1169.52 329.528ZM1106.46 315.537C1105.9 314.523 1105.54 312.901 1104.68 312.546C1086.23 304.892 1067.07 305.196 1047.75 308.187C1045.93 308.491 1044.05 309.099 1043.6 311.33C1040.61 311.177 1039.85 314.219 1037.77 315.436C1026.87 321.874 1021.95 332.266 1023.88 344.432C1025.91 357.206 1034.98 365.419 1046.03 367.7C1078.07 374.239 1100.73 362.377 1112.89 330.897C1115.07 325.219 1115.38 317.818 1106.46 315.537Z" fill="white"/>
<path d="M433.055 307.173C433.055 285.426 432.954 268.241 433.106 251.107C433.157 242.945 430.368 238.333 421.244 238.992C415.009 239.448 408.723 239.042 402.488 239.042C396.506 238.991 393.16 236.457 393.262 230.019C393.414 219.728 393.312 209.438 393.312 199.096C393.312 193.419 396.1 190.58 401.778 190.529C408.672 190.479 415.566 190.073 422.41 190.58C430.369 191.138 432.903 187.032 432.903 180.087C432.954 164.778 433.157 149.468 432.802 134.21C432.65 127.417 434.779 124.832 441.825 125.085C454.042 125.541 466.259 125.491 478.425 125.085C486.84 124.832 489.223 128.836 489.121 136.44C488.868 150.786 489.273 165.183 489.02 179.529C488.918 187.184 490.439 191.594 499.868 190.732C510.716 189.769 521.767 190.529 532.717 190.529C539.054 190.529 542.146 193.52 542.095 199.907C541.994 209.59 541.943 219.272 542.095 228.954C542.196 236.355 538.547 239.346 531.399 239.245C520.145 239.093 508.841 239.498 497.587 239.093C491.605 238.89 489.02 240.816 489.07 246.849C489.273 276.808 489.223 306.717 489.425 336.676C489.577 355.584 506.864 364.101 526.532 358.575C534.035 356.497 536.418 360.096 538.04 365.013C541.335 375.203 542.805 386.051 546.962 395.784C550.257 403.59 545.644 405.872 540.878 407.443C515.532 415.807 490.135 417.429 466.005 403.895C452.166 396.139 442.332 384.682 437.06 369.069C429.709 347.119 435.083 324.713 433.055 307.173Z" fill="white"/>
<path d="M1222.39 248.519C1222.39 199.855 1222.39 151.139 1222.39 102.474C1222.39 91.3722 1223.76 90.105 1234.76 90.2064C1244.44 90.3078 1254.07 90.3077 1263.76 90.1557C1275.21 90.0036 1277.64 92.1834 1277.64 103.488C1277.7 200.868 1277.7 298.198 1278 395.579C1278 402.473 1275.52 405.464 1268.98 405.464C1256.15 405.464 1243.33 404.906 1230.5 405.413C1222.44 405.717 1222.39 401.307 1222.39 395.477C1222.39 346.508 1222.34 297.539 1222.39 248.519Z" fill="white"/>
<path d="M194.242 221.71C177.818 219.328 160.785 226.729 143.347 232.305C119.166 240.061 94.682 240.467 69.6398 236.462C54.6855 234.079 41.2521 227.743 27.0075 223.687C21.9889 222.268 16.5141 222.471 11.1914 221.964C3.84097 221.305 -0.772221 218.77 -0.0625246 209.899C0.697865 200.622 0.444501 191.193 0.0389597 181.866C-0.214503 176.036 2.01592 174.414 7.59211 174.262C24.1179 173.806 40.0355 177.608 54.8884 183.691C70.3496 189.977 85.9122 190.636 101.982 190.991C119.572 191.396 135.642 186.276 151.711 179.94C158.859 177.101 166.818 175.58 174.523 175.073C202.454 173.147 230.031 173.502 256.543 185.567C264.401 189.166 273.779 191.802 283.36 190.636C291.522 189.673 295.019 193.931 294.563 202.244C294.056 210.659 294.107 219.125 294.563 227.489C295.019 236.107 291.217 239.199 282.954 238.743C268.608 237.932 254.465 235.144 241.386 229.72C226.888 223.738 212.188 221.356 194.242 221.71Z" fill="white"/>
<path d="M223.492 263.125C239.308 267.637 255.175 271.845 270.839 276.813C275.452 278.283 279.963 278.891 284.576 278.739C292.079 278.536 294.461 282.338 294.411 289.131C294.36 298.458 294.867 307.836 294.664 317.164C294.512 323.551 291.623 327.657 284.171 326.593C266.327 324.058 248.787 320.357 231.754 314.325C208.436 306.011 185.016 306.113 161.545 314.376C137.314 322.943 112.424 329.026 86.5711 326.289C67.9162 324.312 49.5147 320.712 32.0258 312.956C25.0809 309.915 16.8179 309.611 9.11262 308.749C2.77605 308.039 -0.366733 306.011 0.0895005 298.914C0.697812 289.283 0.596216 279.601 0.190675 269.918C-0.164173 261.706 4.85463 260.642 10.887 261.25C32.8369 263.43 53.2659 271.693 74.4047 277.117C89.9674 281.121 106.594 280.868 122.512 276.863C138.582 272.808 154.448 267.789 170.417 263.176C188.058 263.075 205.749 263.125 223.492 263.125Z" fill="white"/>
<path d="M146.845 360.299C192.569 360.299 238.244 360.502 283.968 360.096C291.876 360.046 294.512 362.834 294.411 370.083C294.259 379.461 294.461 388.788 294.512 398.167C294.563 403.439 291.876 406.277 286.604 406.429C281.586 406.582 276.618 406.531 271.599 406.531C186.791 406.531 101.931 406.531 17.1224 406.531C14.9426 406.531 12.7629 406.429 10.5324 406.429C3.02989 406.379 -0.772137 403.591 -0.0117482 395.176C0.748641 386.507 0.74869 377.687 0.0389939 368.968C-0.569317 361.719 1.96526 360.096 8.85946 360.147C54.8377 360.451 100.866 360.299 146.845 360.299Z" fill="white"/>
<path d="M595.018 297.799C595.018 265.355 595.221 232.912 594.866 200.469C594.765 192.865 596.843 189.874 604.853 190.33C616.056 190.938 627.36 190.431 638.614 190.482C649.462 190.533 650.881 191.952 650.881 202.75C650.881 250.147 650.831 297.596 650.831 344.993C650.831 361.823 650.526 378.704 651.033 395.534C651.236 402.479 648.702 405.368 642.111 405.368C628.678 405.368 615.244 405.216 601.862 405.267C595.119 405.318 594.866 401.161 594.866 396.041C595.069 363.293 595.018 330.546 595.018 297.799Z" fill="white"/>
<path d="M587.161 123.871C586.248 99.843 603.433 88.9441 620.415 87.1699C640.642 85.0408 658.739 103.239 659.144 123.922C659.499 139.383 644.291 159.812 622.139 159.559C604.396 159.305 585.133 144.351 587.161 123.871Z" fill="white"/>
</g>
<defs>
<clipPath id="clip0">
<rect width="1278" height="500" fill="white"/>
</clipPath>
</defs>
</svg>
