<svg width="292" height="292" viewBox="0 0 292 292" fill="none" xmlns="http://www.w3.org/2000/svg">
<circle opacity="0.84" cx="146.277" cy="146.059" r="145.5" fill="white"/>
<circle cx="146.277" cy="146.059" r="145.5" fill="url(#paint0_linear_1842_10885)"/>
<path fill-rule="evenodd" clip-rule="evenodd" d="M185.907 120.635L185.906 120.64L194.249 120.685C195.199 120.614 196.156 120.618 197.113 120.699L217.49 120.809C220.59 120.988 223.046 123.578 223.046 126.749C223.046 128.247 222.498 129.616 221.592 130.661L211.676 147.98C211.598 148.126 211.517 148.272 211.435 148.416L186.899 191.385C183.575 197.206 177.598 200.512 171.404 200.644L171.405 200.648L171.117 200.648C170.957 200.648 170.797 200.647 170.638 200.644L98.0326 200.269H89.9414L89.9418 200.124C96.0886 199.263 101.26 195.317 103.879 189.882L103.937 189.884L139.508 127.335C141.505 123.359 145.587 120.635 150.299 120.635L149.971 120.642L149.982 120.635H185.907Z" fill="#2BBDF7"/>
<path fill-rule="evenodd" clip-rule="evenodd" d="M129.072 89.947L193.158 89.948C196.257 90.1272 198.713 92.7175 198.713 95.888C198.713 97.1588 198.318 98.3364 197.646 99.3024L180.351 129.661L161.965 161.927L161.975 161.924H162.125L156.245 172.229C151.288 180.909 154.072 191.96 162.43 197.212L162.949 197.526C165.303 198.901 167.834 199.686 170.375 199.929L170.376 200.362L140.077 200.361L140.065 200.388H87.5211C84.5376 200.334 81.5082 199.57 78.7054 197.999C69.6913 192.947 66.4345 181.463 71.4311 172.349L111.306 99.6157C114.96 92.9497 122.017 89.3977 129.072 89.947Z" fill="#2B6DEF"/>
<path fill-rule="evenodd" clip-rule="evenodd" d="M150.091 120.634L185.382 120.67L180.277 129.634L161.891 161.899L161.901 161.896H162.051L156.171 172.201C151.215 180.881 153.998 191.932 162.357 197.184L162.875 197.498C165.23 198.873 167.761 199.658 170.302 199.901L170.302 200.334L140.003 200.333L139.991 200.361L89.8086 200.362C95.372 199.779 100.595 196.682 103.742 191.561L104.096 190.961L141.212 125.364C143.317 122.613 146.556 120.794 150.221 120.625L150.091 120.634Z" fill="#022974"/>
<path fill-rule="evenodd" clip-rule="evenodd" d="M150.091 120.634L185.382 120.67L180.277 129.634L161.891 161.899L161.901 161.896H162.051L156.171 172.201C151.215 180.881 153.998 191.932 162.357 197.184L162.875 197.498C165.23 198.873 167.761 199.658 170.302 199.901L170.302 200.334L140.003 200.333L139.991 200.361L89.8086 200.362C95.372 199.779 100.595 196.682 103.742 191.561L104.096 190.961L141.212 125.364C143.317 122.613 146.556 120.794 150.221 120.625L150.091 120.634Z" fill="#0CC19B" fill-opacity="0.5"/>
<path fill-rule="evenodd" clip-rule="evenodd" d="M150.091 120.634L185.382 120.67L180.277 129.634L161.891 161.899L161.901 161.896H162.051L156.171 172.201C151.215 180.881 153.998 191.932 162.357 197.184L162.875 197.498C165.23 198.873 167.761 199.658 170.302 199.901L170.302 200.334L140.003 200.333L139.991 200.361L89.8086 200.362C95.372 199.779 100.595 196.682 103.742 191.561L104.096 190.961L141.212 125.364C143.317 122.613 146.556 120.794 150.221 120.625L150.091 120.634Z" fill="#003CB2"/>
<defs>
<linearGradient id="paint0_linear_1842_10885" x1="145.777" y1="-121.941" x2="153.277" y2="375.559" gradientUnits="userSpaceOnUse">
<stop stop-color="#779DFF" stop-opacity="0.4"/>
<stop offset="0.289006" stop-color="#8BABFF" stop-opacity="0.1"/>
<stop offset="0.551639" stop-color="#6F97FF" stop-opacity="0.12"/>
<stop offset="0.936038" stop-color="#5F8BFF" stop-opacity="0"/>
<stop offset="1" stop-color="#6590FF" stop-opacity="0.53"/>
</linearGradient>
</defs>
</svg>
