<svg width="1278" height="500" viewBox="0 0 1278 500" fill="none" xmlns="http://www.w3.org/2000/svg">
<g clip-path="url(#clip0)">
<path fill-rule="evenodd" clip-rule="evenodd" d="M729.649 208.833C745.08 208.833 754.896 217.015 754.896 228.711C754.896 236.894 750.099 245.31 738.532 247.527C750.928 249.757 757.009 258.873 757.009 268.094C757.009 280.957 745.547 290.669 730.221 290.669H693.172V208.833H729.649ZM705.557 242.975H726.952C737.236 242.975 742.267 237.127 742.267 230.579C742.267 223.926 736.897 219.478 728.248 219.478H705.557V242.975ZM705.557 280.024H728.82C737.831 280.024 744.379 274.071 744.379 266.589C744.379 260.612 740.166 252.897 727.186 252.897H705.557V280.024ZM646.202 208.833V290.669H633.817V220.412L603.994 290.669H595.462L565.65 220.167V290.669H553.265V208.833H573.015L599.78 271.97L626.44 208.833H646.202ZM507.019 208.833V259.107C507.019 279.09 494.156 291.836 474.173 291.836C454.072 291.836 441.209 279.09 441.209 259.107V208.833H453.839V258.978C453.839 272.075 461.555 280.386 474.173 280.386C486.802 280.386 494.389 272.075 494.389 258.978V208.833H507.019Z" fill="white"/>
<path fill-rule="evenodd" clip-rule="evenodd" d="M866.789 290.669H850.658L828.55 257.706H812.547V290.669H799.917V208.833H836.032C852.525 208.833 864.093 219.35 864.093 233.03C864.093 245.415 855.093 255.126 841.647 257.239L866.789 290.669ZM835.565 247.177C845.148 247.177 851.697 240.979 851.697 233.147C851.697 225.548 845.148 219.7 835.565 219.7H812.547V247.177H835.565Z" fill="white"/>
<path d="M964.161 219.829H907.234V208.833H964.161V219.829Z" fill="white"/>
<path d="M919.631 279.686V253.26H962.655V242.614H907.234V290.67H964.161V279.686H919.631Z" fill="white"/>
<path d="M1021.23 279.452V208.833H1008.61V290.669H1063.32V279.452H1021.23Z" fill="white"/>
<path d="M1116.21 279.452V208.833H1103.59V290.669H1158.3V279.452H1116.21Z" fill="white"/>
<path d="M1245.62 208.833H1228.32L1195.93 290.669H1209.61L1236.97 219.362L1264.33 290.669H1278L1245.62 208.833Z" fill="white"/>
<path fill-rule="evenodd" clip-rule="evenodd" d="M199.156 94.6992C208.156 94.6992 215.65 101.131 217.342 109.64C253.865 113.177 287.914 127.289 316.325 150.552C319.605 147.599 323.947 145.766 328.698 145.766C338.946 145.766 347.269 154.077 347.269 164.326C347.269 169.076 345.448 173.419 342.483 176.699C365.77 205.121 379.847 239.17 383.395 275.682C391.893 277.374 398.324 284.868 398.324 293.879C398.324 304.092 390.002 312.403 379.777 312.403C369.552 312.403 359.163 303.415 361.626 290.062L310.687 265.328C307.302 269.402 302.201 271.981 296.493 271.981C291.136 271.981 286.315 269.694 282.942 266.052L217.541 291.544C218.685 302.201 211.704 309.824 203.674 311.855V368.606C211.949 370.649 218.113 378.108 218.113 387.014C218.113 397.461 209.615 405.97 199.156 405.97C186.27 405.97 180.2 394.835 180.2 387.014C180.2 378.108 186.363 370.649 194.651 368.606V311.855C186.608 309.824 179.407 301.933 180.784 291.544L116.924 266.659C113.574 271.398 108.052 274.479 101.819 274.479C95.9597 274.479 90.7304 271.736 87.3221 267.487L36.7684 290.517C38.8228 303.649 28.7611 312.403 18.536 312.403C8.31083 312.403 0 304.092 0 293.879C0 284.868 6.43156 277.374 14.9175 275.682C18.4776 239.17 32.5546 205.121 55.8296 176.699C52.8648 173.419 51.0556 169.076 51.0556 164.326C51.0556 154.077 59.3781 145.766 69.6149 145.766C74.3772 145.766 78.7078 147.599 81.9994 150.552C110.41 127.289 144.447 113.177 180.971 109.64C182.663 101.131 190.169 94.6992 199.156 94.6992ZM189.608 113.259C189.608 118.068 193.46 122.783 199.156 122.783C204.421 122.783 208.705 118.499 208.705 113.259C208.705 107.983 204.421 103.699 199.156 103.699C193.904 103.699 189.608 107.983 189.608 113.259ZM257.262 189.071L310.5 167.839C309.66 163.112 310.582 160.019 311.271 158.034C284.249 135.681 251.753 122.106 216.899 118.628C216.665 119.387 215.661 122.445 213.105 125.421L257.262 189.071ZM142.183 188.768L185.278 125.585C183.76 123.857 182.383 121.593 181.414 118.628C146.572 122.106 114.075 135.681 87.0419 158.034C87.7423 160.019 88.3609 163.544 87.964 166.859L142.183 188.768ZM203.674 198.293C208.401 199.297 212.475 202.051 215.171 205.868L248.671 192.503L205.705 130.592C205.063 130.826 204.386 131.047 203.674 131.234V198.293ZM184.344 205.798C186.819 202.343 190.449 199.763 194.651 198.596V131.234C194.196 131.117 193.53 130.931 192.748 130.651L150.739 192.223L184.344 205.798ZM328.698 173.874C333.986 173.874 338.258 169.578 338.258 164.326C338.258 159.061 333.986 154.766 328.698 154.766C323.457 154.766 319.173 159.061 319.173 164.326C319.173 169.578 323.457 173.874 328.698 173.874ZM69.6149 173.874C74.8675 173.874 79.1513 169.578 79.1513 164.326C79.1513 159.061 74.8675 154.766 69.6149 154.766C64.3389 154.766 60.0667 159.061 60.0667 164.326C60.0667 169.578 64.3389 173.874 69.6149 173.874ZM69.6616 182.85C67.6539 182.85 65.5295 182.523 63.3351 181.753C40.9588 208.81 27.3954 241.271 23.9287 276.125C25.3877 276.569 29.5781 278.039 33.0332 282.323L83.6102 259.282C83.3884 258.196 83.2717 257.087 83.2717 255.943C83.2717 245.707 91.6059 237.407 101.819 237.407C102.952 237.407 105.414 237.512 108.239 238.54L136.989 196.39L84.579 175.228C81.9761 178.986 76.4783 182.85 69.6616 182.85ZM289.922 236.147C292.723 235.085 295.233 234.874 296.493 234.874C306.719 234.874 317.142 243.886 314.644 257.239L365.583 281.985C368.746 278.109 372.937 276.569 374.396 276.125C370.929 241.271 357.366 208.81 334.989 181.753C333.028 182.453 322.628 185.721 314.341 175.998L262.538 196.67L289.922 236.147ZM115.675 243.64C116.071 244.096 116.457 244.574 116.83 245.1L180.994 219.502C180.609 217.214 180.854 215.031 180.994 214.144L145.556 199.845L115.675 243.64ZM280.234 244.528C280.934 243.29 281.704 242.228 282.521 241.283L253.947 200.102L218.509 214.249C218.626 215.09 218.871 217.482 218.486 219.583L280.234 244.528ZM199.752 226.809C205.308 226.809 209.708 222.21 209.708 216.84C209.708 210.654 204.491 206.895 199.752 206.895C194.371 206.895 189.783 211.296 189.783 216.84C189.783 222.443 194.452 226.809 199.752 226.809ZM184.052 283.152C187.869 277.783 192.877 276.359 194.651 275.915V235.073C190.449 233.906 186.819 231.314 184.344 227.859L120.192 253.457C120.542 255.768 120.309 257.507 120.215 258.266L184.052 283.152ZM203.674 275.915C205.448 276.359 210.257 277.643 214.272 283.152L278.576 258.103C277.888 255.897 277.934 253.305 277.934 253.305L215.089 227.918C212.393 231.664 208.331 234.384 203.674 235.365V275.915ZM296.493 262.993C301.758 262.993 306.03 258.698 306.03 253.445C306.03 248.169 301.758 243.886 296.493 243.886C291.218 243.886 286.945 248.169 286.945 253.445C286.945 258.698 291.218 262.993 296.493 262.993ZM101.819 265.491C107.107 265.491 111.379 261.196 111.379 255.943C111.379 250.667 107.107 246.384 101.819 246.384C96.5667 246.384 92.2829 250.667 92.2829 255.943C92.2829 261.196 96.5667 265.491 101.819 265.491ZM379.777 303.415C385.041 303.415 389.325 299.143 389.325 293.879C389.325 288.615 385.041 284.331 379.777 284.331C374.513 284.331 370.229 288.615 370.229 293.879C370.229 299.143 374.513 303.415 379.777 303.415ZM199.156 303.415C204.421 303.415 208.705 299.143 208.705 293.879C208.705 288.615 204.421 284.331 199.156 284.331C193.904 284.331 189.608 288.615 189.608 293.879C189.608 299.143 193.904 303.415 199.156 303.415ZM18.536 303.415C23.8003 303.415 28.0957 299.143 28.0957 293.879C28.0957 288.615 23.8003 284.331 18.536 284.331C13.2833 284.331 8.98783 288.615 8.98783 293.879C8.98783 299.143 13.2833 303.415 18.536 303.415ZM199.156 396.971C204.654 396.971 209.125 392.5 209.125 387.014C209.125 381.516 204.654 377.069 199.156 377.069C193.67 377.069 189.2 381.516 189.2 387.014C189.2 392.5 193.67 396.971 199.156 396.971Z" fill="white"/>
</g>
<defs>
<clipPath id="clip0">
<rect width="1278" height="500" fill="white"/>
</clipPath>
</defs>
</svg>
