<svg width="1278" height="500" viewBox="0 0 1278 500" fill="none" xmlns="http://www.w3.org/2000/svg">
<g clip-path="url(#clip0)">
<path d="M617.807 176.186H571.133C569.466 176.186 568.632 177.019 568.632 178.686V268.702C568.632 273.703 567.799 278.704 563.631 282.038C561.131 285.372 556.13 287.039 551.129 287.039C546.128 287.039 541.961 285.372 538.627 282.038C536.126 278.704 533.626 274.537 533.626 268.702V178.686C533.626 177.019 532.793 176.186 531.126 176.186H483.617C481.95 176.186 481.117 177.019 481.117 178.686V267.869C481.117 287.872 487.784 303.709 501.12 316.211C513.622 328.713 531.126 334.547 550.296 334.547C571.966 334.547 589.469 328.713 601.972 316.211C615.307 303.709 621.975 287.872 621.975 267.869V177.853C621.141 177.019 619.474 176.186 617.807 176.186Z" fill="white"/>
<path d="M806.175 176.187H763.667C762 176.187 761.167 177.02 761.167 178.687V237.031C761.167 239.532 757.833 241.198 756.166 238.698L709.491 177.02C708.658 176.187 708.658 176.187 706.991 176.187H667.817C666.15 176.187 665.317 177.02 665.317 178.687V327.047C665.317 328.714 666.15 329.547 667.817 329.547H710.325C711.992 329.547 712.825 328.714 712.825 327.047V266.203C712.825 263.703 716.159 262.035 717.826 264.536L765.335 328.714C766.168 329.548 766.168 329.547 767.835 329.547H804.508C806.175 329.547 807.009 328.714 807.009 327.047V178.687C808.676 177.02 807.842 175.353 806.175 176.187Z" fill="white"/>
<path d="M899.525 175.35H852.85C851.183 175.35 850.35 177.017 850.35 178.684V327.043C850.35 328.71 851.183 329.544 852.85 329.544H899.525C901.192 329.544 902.026 328.71 902.026 327.043V178.684C902.859 177.017 901.192 175.35 899.525 175.35Z" fill="white"/>
<path d="M1079.56 193.686C1063.72 178.683 1043.72 171.182 1017.88 171.182C992.042 171.182 972.038 178.683 956.202 193.686C940.366 208.688 932.865 228.692 932.865 252.863C932.865 277.034 940.366 297.038 956.202 312.04C971.205 327.043 992.042 334.544 1017.88 334.544C1043.72 334.544 1063.72 327.043 1079.56 312.04C1095.39 297.038 1102.89 277.034 1102.89 252.863C1102.89 228.692 1095.39 208.688 1079.56 193.686ZM1041.22 277.867C1035.38 283.702 1027.88 287.036 1017.88 287.036C1008.71 287.036 1000.38 284.535 994.542 277.867C988.708 271.199 986.207 263.698 986.207 252.863C986.207 242.028 988.708 234.526 994.542 227.858C1000.38 221.19 1007.88 218.69 1017.88 218.69C1027.05 218.69 1035.38 221.19 1041.22 227.858C1047.05 234.526 1049.55 242.028 1049.55 252.863C1049.55 263.698 1047.05 272.033 1041.22 277.867Z" fill="white"/>
<path d="M1276.26 176.187H1233.75C1232.08 176.187 1231.25 177.02 1231.25 178.687V237.031C1231.25 239.532 1227.92 241.198 1226.25 238.698L1179.57 177.02C1178.74 176.187 1178.74 176.187 1177.07 176.187H1137.9C1136.23 176.187 1135.4 177.02 1135.4 178.687V327.047C1135.4 328.714 1136.23 329.547 1137.9 329.547H1180.41C1182.07 329.547 1182.91 328.714 1182.91 327.047V266.203C1182.91 263.703 1186.24 262.035 1187.91 264.536L1235.42 328.714C1236.25 329.548 1236.25 329.547 1237.92 329.547H1274.59C1276.26 329.547 1277.09 328.714 1277.09 327.047V178.687C1278.76 177.02 1277.93 175.353 1276.26 176.187Z" fill="white"/>
<path d="M263.577 157.852C264.411 157.852 264.411 158.685 263.577 157.852L237.739 184.523C236.906 185.356 236.072 185.356 236.072 184.523L231.072 179.522C229.405 177.855 227.737 177.855 226.07 177.855C226.07 177.855 213.568 177.855 209.401 177.855C208.567 177.855 208.567 177.022 209.401 177.022C223.57 164.519 244.407 157.852 263.577 157.852Z" fill="white"/>
<path d="M153.558 310.378H136.889C134.388 310.378 132.721 309.544 131.054 307.878L119.385 296.209C117.718 294.542 116.885 292.041 116.885 290.374V273.704C116.885 271.204 117.718 269.537 119.385 267.87L131.054 256.202C132.721 254.535 135.222 253.701 136.889 253.701H153.558C156.059 253.701 157.725 254.535 159.392 256.202L171.061 267.87C172.728 269.537 173.561 272.037 173.561 273.704V290.374C173.561 292.875 172.728 294.542 171.061 296.209L159.392 307.878C158.559 309.544 156.059 310.378 153.558 310.378Z" fill="white"/>
<path d="M73.5438 156.186C74.3773 156.186 74.3776 156.185 74.3776 157.019C74.3776 159.519 74.3776 162.02 74.3776 164.52C74.3776 166.187 74.3776 167.854 74.3776 168.688C74.3776 169.521 74.3773 170.355 73.5438 170.355L1.03079 242.034C0.197306 242.868 0.19751 242.034 0.19751 241.201C1.86447 199.527 35.2037 164.52 73.5438 156.186Z" fill="white"/>
<path d="M76.0446 184.521H76.8784C78.5454 194.523 82.7127 203.692 87.7136 212.86V213.693L24.3692 277.038C20.2017 281.206 16.0341 285.373 12.7002 288.707C11.8667 289.54 10.1996 289.54 9.36607 287.873C5.19866 279.539 2.69821 269.537 1.03125 260.369C1.03125 259.535 1.03156 258.702 1.86504 258.702L76.0446 184.521Z" fill="white"/>
<path d="M105.216 278.705C106.05 277.871 106.05 278.704 106.05 279.538V295.374C106.05 297.041 106.884 298.708 107.717 300.375L111.885 305.376V306.209L77.7117 339.549C76.8782 340.382 76.0448 340.382 75.2113 340.382C66.8765 338.715 58.5415 336.215 51.0402 332.881C50.2067 332.881 50.2067 332.047 51.0402 332.047L105.216 278.705Z" fill="white"/>
<path d="M94.381 341.213C93.5475 341.213 93.5475 340.379 94.381 341.213L120.219 314.541C121.053 313.708 121.886 313.708 121.886 314.541L126.887 319.542C128.554 321.209 130.221 321.209 131.888 321.209C131.888 321.209 144.39 321.209 148.557 321.209C149.391 321.209 149.391 322.042 148.557 322.042C134.388 334.544 113.551 340.379 94.381 341.213Z" fill="white"/>
<path d="M16.8674 298.707C24.3687 291.206 57.7081 257.867 64.376 251.199C65.2094 250.365 66.043 251.199 66.043 252.032C66.8765 257.867 70.2104 263.701 74.3778 267.868C78.5453 272.036 84.3796 275.37 91.0475 276.203C91.881 276.203 91.8808 277.037 91.8808 277.87C85.2129 284.538 53.5407 316.211 43.5389 327.046H42.7051C32.7033 320.378 24.3685 312.043 17.7007 302.875C16.0337 301.208 16.0339 299.541 16.8674 298.707Z" fill="white"/>
<path d="M116.052 225.361V208.691C116.052 206.191 116.886 204.524 118.553 202.857L130.221 191.188C131.888 189.521 134.389 188.688 136.056 188.688H152.725C155.226 188.688 156.893 189.521 158.56 191.188L170.229 202.857C171.896 204.524 172.729 207.024 172.729 208.691V225.361C172.729 227.861 171.896 229.528 170.229 231.195L158.56 242.864C156.893 244.531 154.392 245.365 152.725 245.365H136.056C133.555 245.365 131.888 244.531 130.221 242.864L118.553 231.195C116.886 229.528 116.052 227.861 116.052 225.361Z" fill="white"/>
<path d="M269.412 145.347C269.412 146.18 269.413 146.18 268.579 146.18C266.079 146.18 263.578 146.18 261.078 146.18C259.411 146.18 257.744 146.18 256.91 146.18C256.077 146.18 255.243 146.18 255.243 145.347L183.564 72.8338C182.73 72.0003 183.564 72 184.397 72C226.071 72.8335 261.911 106.173 269.412 145.347Z" fill="white"/>
<path d="M241.075 147.013V147.847C231.073 149.514 221.904 153.681 212.736 158.682H211.903L148.558 95.3379C144.39 91.1705 140.223 87.0029 136.889 83.669C136.056 82.8355 136.056 81.1683 137.723 80.3348C146.057 76.1674 156.059 73.667 165.227 72C166.061 72 166.895 72.0003 166.895 72.8338L241.075 147.013Z" fill="white"/>
<path d="M146.89 177.016C147.723 177.85 146.89 177.85 146.057 177.85H130.22C128.553 177.85 126.887 178.683 125.22 179.517L120.219 183.684H119.385L86.0459 149.511C85.2124 148.678 85.2126 147.844 85.2126 147.011C86.8796 138.676 89.3798 130.341 92.7137 122.84C92.7137 122.006 93.5475 122.006 93.5475 122.84L146.89 177.016Z" fill="white"/>
<path d="M85.2126 165.35C85.2126 164.516 85.2126 164.516 85.2126 165.35L111.884 191.188C112.718 192.021 112.718 192.855 111.884 192.855L106.883 197.856C105.216 199.523 105.216 201.189 105.216 202.856C105.216 202.856 105.216 215.359 105.216 219.526C105.216 220.36 104.383 220.36 104.383 219.526C91.8804 205.357 85.2126 185.353 85.2126 165.35Z" fill="white"/>
<path d="M188.565 175.353C185.231 178.687 181.897 179.521 177.729 179.521C173.562 179.521 169.395 177.854 166.894 175.353C163.56 172.019 162.727 168.686 162.727 164.518C162.727 160.351 164.394 156.183 166.894 153.683C170.228 150.349 173.562 149.516 177.729 149.516C181.897 149.516 186.064 151.183 188.565 153.683C191.898 157.017 192.732 160.351 192.732 164.518C192.732 168.686 191.065 172.853 188.565 175.353Z" fill="white"/>
<path d="M126.887 88.6673C134.389 96.1687 167.728 129.508 174.396 136.176C175.229 137.009 174.396 137.843 173.562 137.843C167.728 138.676 161.894 142.01 157.726 146.178C153.559 150.345 150.225 156.18 149.392 162.847C149.392 163.681 148.558 163.681 147.724 163.681C141.057 157.013 109.384 125.341 98.5488 115.339V114.506C105.217 104.504 113.552 96.169 122.72 89.5011C125.22 87.0007 126.054 87.8338 126.887 88.6673Z" fill="white"/>
<path d="M104.383 237.86C107.717 241.194 108.55 244.528 108.55 248.695C108.55 252.863 106.883 257.03 104.383 259.531C101.049 262.865 97.7152 263.698 93.5477 263.698C89.3803 263.698 85.213 262.031 82.7126 259.531C79.3786 257.03 78.5452 252.863 78.5452 248.695C78.5452 244.528 80.2121 240.361 82.7126 237.86C85.213 234.526 89.3803 233.693 93.5477 233.693C97.7152 232.859 101.049 234.526 104.383 237.86Z" fill="white"/>
<path d="M203.568 188.688H220.237C222.738 188.688 224.404 189.521 226.071 191.188L237.74 202.857C239.407 204.524 240.241 207.024 240.241 208.691V225.361C240.241 227.861 239.407 229.528 237.74 231.195L226.071 242.864C224.404 244.531 221.904 245.365 220.237 245.365H203.568C201.067 245.365 199.4 244.531 197.733 242.864L186.064 231.195C184.397 229.528 183.564 227.028 183.564 225.361V208.691C183.564 206.191 184.397 204.524 186.064 202.857L197.733 191.188C199.4 189.521 201.067 188.688 203.568 188.688Z" fill="white"/>
<path d="M283.581 342.885C282.748 342.885 282.748 342.885 282.748 342.051C282.748 339.551 282.748 337.05 282.748 334.55C282.748 332.883 282.748 331.216 282.748 329.549C282.748 328.716 282.748 327.882 283.581 327.882L356.094 256.203C356.928 255.369 356.927 256.203 356.927 257.036C356.094 299.544 321.921 334.55 283.581 342.885Z" fill="white"/>
<path d="M281.914 314.543H281.081C279.414 304.542 275.246 295.373 270.246 286.205V285.371L333.59 222.027C337.757 217.859 341.925 213.692 345.259 210.358C346.092 209.525 347.759 209.524 348.593 211.191C352.76 219.526 355.26 229.528 356.927 238.696C356.927 239.53 356.928 240.363 356.094 240.363L281.914 314.543Z" fill="white"/>
<path d="M251.909 220.358C251.076 221.191 251.076 220.357 251.076 219.524V203.688C251.076 202.021 250.243 200.354 249.409 198.687L245.242 193.686V192.852L279.414 159.513C280.248 158.679 281.081 158.68 281.915 158.68C290.249 160.347 298.584 162.847 306.086 166.181C306.919 166.181 306.919 167.015 306.086 167.015L251.909 220.358Z" fill="white"/>
<path d="M263.577 157.852C263.577 157.852 263.577 158.685 263.577 157.852L237.739 184.523C236.906 185.356 236.072 185.356 236.072 184.523L231.072 179.522C229.405 177.855 227.737 177.855 226.07 177.855C226.07 177.855 213.568 177.855 209.401 177.855C208.567 177.855 208.567 177.022 209.401 177.022C223.57 164.519 243.574 158.685 263.577 157.852Z" fill="white"/>
<path d="M340.258 200.358C332.756 207.859 299.417 241.199 292.749 247.867C291.916 248.7 291.083 247.866 291.083 247.033C290.249 241.199 286.915 235.364 282.748 231.197C278.58 227.03 272.746 223.696 266.078 222.862C265.245 222.862 265.244 222.029 265.244 221.195C271.912 214.527 303.584 182.855 313.586 172.02H314.42C324.422 178.687 332.757 187.022 339.424 196.191C341.091 197.858 341.091 199.525 340.258 200.358Z" fill="white"/>
<path d="M241.907 273.704V290.374C241.907 292.875 241.074 294.542 239.407 296.209L227.738 307.878C226.071 309.544 223.57 310.378 221.903 310.378H205.233C202.733 310.378 201.066 309.544 199.4 307.878L187.731 296.209C186.064 294.542 185.23 292.041 185.23 290.374V273.704C185.23 271.204 186.064 269.537 187.731 267.87L199.4 256.202C201.066 254.535 203.567 253.701 205.233 253.701H221.903C224.404 253.701 226.071 254.535 227.738 256.202L239.407 267.87C241.074 269.537 241.907 271.204 241.907 273.704Z" fill="white"/>
<path d="M87.7129 353.719C87.7129 352.885 87.7127 352.885 88.5462 352.885C91.0466 352.885 93.5473 352.885 96.0477 352.885C97.7147 352.885 99.3814 352.885 101.048 352.885C101.882 352.885 102.715 352.885 102.715 353.719L174.395 426.231C175.229 427.065 174.395 427.065 173.561 427.065C131.054 426.231 96.0477 392.892 87.7129 353.719Z" fill="white"/>
<path d="M116.052 352.05V351.216C126.054 349.549 135.222 345.382 144.39 340.381H145.224L208.569 403.726C212.736 407.893 216.904 412.06 220.238 415.394C221.071 416.228 221.071 417.895 219.404 418.728C211.069 422.896 201.067 425.396 191.899 427.063C191.065 427.063 190.232 427.063 190.232 426.229L116.052 352.05Z" fill="white"/>
<path d="M210.235 322.045C209.401 321.211 210.235 321.211 211.068 321.211H226.905C228.572 321.211 230.238 320.378 231.905 319.544L236.906 315.377H237.74L271.079 349.55C271.913 350.384 271.912 351.217 271.912 352.05C270.245 360.385 267.745 368.72 264.411 376.221C264.411 377.055 263.577 377.055 263.577 376.221L210.235 322.045Z" fill="white"/>
<path d="M272.746 333.714C272.746 334.547 271.912 334.547 272.746 333.714L246.074 307.876C245.241 307.042 245.241 306.209 246.074 306.209L251.075 301.208C252.742 299.541 252.742 297.874 252.742 296.207C252.742 296.207 252.742 283.705 252.742 279.537C252.742 278.704 253.576 278.704 253.576 279.537C266.078 293.706 272.746 313.71 272.746 333.714Z" fill="white"/>
<path d="M169.394 323.712C172.728 320.378 176.062 319.545 180.23 319.545C184.397 319.545 188.565 321.212 191.065 323.712C194.399 327.046 195.233 330.38 195.233 334.547C195.233 338.715 193.566 342.883 191.065 345.383C188.565 348.717 184.397 349.551 180.23 349.551C176.062 349.551 171.895 347.884 169.394 345.383C166.061 342.883 165.227 338.715 165.227 334.547C164.394 330.38 166.061 326.213 169.394 323.712Z" fill="white"/>
<path d="M230.238 410.39C222.737 402.889 189.398 369.55 182.73 362.882C181.897 362.048 182.73 361.215 183.564 361.215C189.398 360.381 195.233 357.047 199.4 352.88C203.567 348.712 206.901 342.878 207.735 336.21C207.735 335.377 208.568 335.377 209.401 335.377C216.069 342.045 247.742 373.717 258.577 383.719V384.552C251.909 394.554 243.574 402.889 234.406 409.557C232.739 412.057 231.072 411.224 230.238 410.39Z" fill="white"/>
<path d="M253.577 261.205C250.243 258.704 249.409 254.537 249.409 250.37C249.409 246.202 251.076 242.035 253.577 239.535C256.911 236.201 260.244 235.367 264.412 235.367C268.579 235.367 272.746 237.034 275.247 239.535C278.581 242.035 279.414 246.202 279.414 250.37C279.414 254.537 277.747 258.704 275.247 261.205C272.746 264.539 268.579 265.372 264.412 265.372C260.244 266.206 256.077 264.539 253.577 261.205Z" fill="white"/>
</g>
<defs>
<clipPath id="clip0">
<rect width="1278" height="500" fill="white"/>
</clipPath>
</defs>
</svg>
