<svg width="333" height="74" viewBox="0 0 333 74" fill="none" xmlns="http://www.w3.org/2000/svg">
<path fill-rule="evenodd" clip-rule="evenodd" d="M1.31578 1.84522C9.60887 12.0584 18.7143 24.8889 20.1872 26.9643C20.2657 27.0751 20.3221 27.155 20.3563 27.2026C21.1414 28.3036 21.7895 29.1221 22.2816 29.7436C23.3744 31.1235 23.6985 31.5327 23.0466 31.909C22.5209 32.2123 21.9779 32.3123 21.4367 32.3123C20.8246 32.3123 20.1347 32.0136 19.6325 31.53C19.2773 31.1881 16.8482 27.6081 13.54 22.4C11.0088 18.4149 8.89057 15.109 8.83316 15.0537C8.69932 14.9255 8.70175 14.93 13.282 23.2456C16.1579 28.4672 18.1254 32.3262 18.1254 32.5729C18.1254 33.0752 17.9905 33.3393 17.3797 34.0299C16.362 35.1823 15.9072 36.4767 15.5786 39.1556C15.2107 42.1586 14.1753 44.2802 11.3062 47.9107C9.62685 50.0361 9.35191 50.4256 8.92827 51.2823C8.3943 52.361 8.24767 52.9651 8.18818 54.3273C8.12524 55.7677 8.24767 56.6981 8.68134 58.0748C9.06107 59.2803 9.45704 60.0766 10.4703 61.6688C11.3446 63.0424 11.8478 64.0635 11.8478 64.463C11.8478 64.7809 11.9076 64.7812 13.2623 64.471C16.5044 63.7279 19.1369 62.4216 20.6174 60.8204C21.5339 59.8293 21.749 59.2821 21.7559 57.9241C21.7608 57.0357 21.7296 56.8499 21.4931 56.3388C21.1078 55.5068 20.4068 54.8154 18.8613 53.7433C16.8357 52.3384 15.9708 51.2076 15.7318 49.6522C15.5358 48.3762 15.763 47.4757 16.8835 45.0932C18.0434 42.6269 18.3308 41.576 18.5251 39.0899C18.6507 37.4839 18.8243 36.8505 19.2791 36.3423C19.7535 35.8121 20.1807 35.6325 21.3541 35.4696C23.2679 35.2045 24.4863 34.7018 25.4882 33.7655C26.3569 32.9533 26.7204 32.1702 26.7764 30.9918L26.8186 30.099L26.333 29.5244C24.5748 27.4441 0.138215 0.209961 0.0299693 0.209961C0.00679843 0.209961 0.585378 0.945774 1.31578 1.84522ZM12.8351 55.957C13.2329 55.2424 13.0212 54.3242 12.3562 53.8754C11.7278 53.4515 10.7518 53.6513 10.7518 54.2036C10.7518 54.3721 10.8438 54.4948 11.0506 54.6032C11.3996 54.7852 11.4248 54.9898 11.1506 55.4081C10.8725 55.832 10.895 56.2044 11.2135 56.4573C11.7271 56.8655 12.454 56.6411 12.8348 55.957H12.8351ZM24.8013 16.9985C24.017 16.8748 23.9838 16.8603 24.3531 16.8029C25.0604 16.6925 26.7307 16.8429 27.882 17.1205C30.5695 17.7687 33.0149 19.4293 35.6252 22.3782L36.3186 23.1616L37.3108 23C41.4902 22.3184 45.7419 22.86 49.2981 24.5269C50.2765 24.9855 51.8189 25.8985 52.0115 26.133C52.0727 26.2077 52.1858 26.6888 52.2619 27.2026C52.5261 28.9789 52.394 30.3408 51.8583 31.358C51.5671 31.9114 51.5509 32.0869 51.7466 32.5607C51.9029 32.9387 52.339 33.2184 52.771 33.2177C53.6546 33.2166 54.6056 31.7669 55.0465 29.7502L55.2215 28.9491L55.5684 29.3475C57.4705 31.5345 58.9648 34.517 59.2215 36.6397L59.2882 37.1931L58.9686 36.69C58.4181 35.8243 57.8654 35.2347 57.1572 34.7595C55.881 33.9024 54.5312 33.611 50.9574 33.4199C47.7294 33.2472 45.9027 32.9675 44.0912 32.3679C41.0088 31.3483 39.4553 29.9902 35.794 25.1164C34.1679 22.9517 33.1629 21.7535 32.1627 20.7891C29.8913 18.5977 27.659 17.4481 24.8013 16.9985ZM52.7395 21.832C52.8208 20.3813 53.0148 19.4245 53.4045 18.5507C53.5588 18.2047 53.7033 17.9219 53.7255 17.9219C53.7479 17.9219 53.6808 18.1769 53.5764 18.4889C53.2932 19.3369 53.2465 20.4969 53.4419 21.8463C53.6895 23.559 53.8306 23.8057 55.6141 25.6556C56.4506 26.5231 57.4238 27.6171 57.7766 28.0871L58.4181 28.9411L57.7766 28.3307C56.9922 27.5841 55.1883 26.1281 54.7899 25.9203C54.5226 25.7807 54.4828 25.7831 54.3182 25.9495C54.1664 26.1027 54.1342 26.3334 54.1131 27.4225C54.0803 29.1207 53.8524 30.2109 53.3018 31.3003C53.0041 31.8899 52.957 31.7641 53.2264 31.0988C53.4277 30.602 53.4481 30.3835 53.4467 28.7399C53.4436 25.4371 53.057 24.6433 50.7907 23.2832C50.217 22.9385 49.2708 22.4414 48.6887 22.1784C48.107 21.9158 47.6447 21.6868 47.6613 21.6698C47.7256 21.6048 49.9358 22.2593 50.8253 22.6068C52.1485 23.123 52.3667 23.1901 52.5275 23.1279C52.635 23.0862 52.6873 22.7676 52.7395 21.832ZM23.9606 19.2963C23.7472 21.8463 24.7325 25.2571 26.3251 27.482C27.5597 29.2065 29.4735 30.5468 30.8866 30.676C31.8114 30.7608 32.0894 30.4669 31.671 29.8468C31.09 28.9859 30.3751 27.6602 30.186 27.0925C30.0684 26.7399 29.8135 25.6984 29.6188 24.7781C28.9544 21.6357 28.3012 20.4118 26.7933 19.4825C26.2435 19.1438 25.0697 18.7005 24.3891 18.5744L24.0267 18.5073L23.9606 19.2963ZM50.808 44.0395C43.3653 40.999 40.7439 38.3597 40.7439 33.9066C40.7439 33.251 40.7664 32.715 40.7934 32.715C40.8207 32.715 41.1084 32.9314 41.4332 33.1958C42.9424 34.4239 44.6325 34.9485 49.3112 35.6409C52.0641 36.0487 53.6134 36.3777 55.0427 36.8589C59.5853 38.3875 62.3959 41.4895 63.0661 45.715C63.2608 46.9428 63.1467 49.2451 62.8309 50.4586C62.5816 51.4171 61.8207 53.1444 61.6191 53.2108C61.5631 53.2292 61.5081 53.0117 61.4939 52.7157C61.4175 51.1291 60.6273 49.5845 59.3003 48.4273C57.7914 47.1116 55.7642 46.0645 50.808 44.0395ZM45.2235 43.7049C45.3279 44.0207 45.4898 44.7395 45.5828 45.3027C46.179 48.9025 44.3167 51.811 40.6941 52.938C40.3106 53.0572 38.8 53.3574 37.3371 53.6044C34.3757 54.1046 33.0543 54.459 31.7266 55.108C30.7849 55.5683 29.6447 56.2575 29.7125 56.326C29.7343 56.3482 29.9494 56.2961 30.1901 56.2103C31.8646 55.6138 33.728 55.3049 36.559 55.1556C37.6826 55.0965 38.9604 55.002 39.399 54.9461C41.9211 54.6237 43.6693 53.8462 45.0288 52.4423C45.7851 51.661 46.2361 50.9331 46.5996 49.9069C46.8299 49.2558 46.861 49.014 46.8627 47.8606C46.8648 46.6854 46.8368 46.4703 46.5871 45.7474C46.2603 44.7996 45.8747 44.0885 45.3864 43.5323L45.0336 43.1307L45.2235 43.7049ZM48.9948 51.4508C48.0057 49.2937 47.7789 47.2113 48.3204 45.2693C48.3785 45.0616 48.4716 44.8917 48.5279 44.8917C48.584 44.8917 48.817 45.0199 49.0463 45.1762C49.5018 45.4875 50.4158 46.0117 52.8505 47.3586C55.889 49.0394 57.6213 50.3408 58.7992 51.8281C59.8308 53.1302 60.4692 54.6132 60.7763 56.4219C60.9506 57.4464 60.8486 59.9116 60.5896 60.943C59.7727 64.1958 57.8741 66.7507 55.1662 68.2418C54.7695 68.4599 54.4133 68.6392 54.3746 68.6403C54.3362 68.6409 54.4808 68.2682 54.6959 67.8113C55.6068 65.879 55.7105 63.9996 55.022 61.9078C54.6001 60.6269 53.7403 59.0639 52.0042 56.4222C49.986 53.3511 49.4911 52.5337 48.9948 51.4508ZM30.3682 58.5254C27.2384 59.0413 23.8015 60.7221 21.0397 63.0883L20.2177 63.7928L20.9404 63.9075C24.7111 64.5047 25.7268 65.0345 28.3423 67.7686C29.8474 69.3417 30.3558 69.6919 31.6046 70.0153C33.4382 70.4902 35.2458 69.6175 35.8659 67.9576C36.1429 67.2159 36.1059 65.9878 35.7881 65.3711C35.0321 63.9026 32.8295 63.4281 31.7647 64.5036C30.8773 65.3996 31.136 66.7493 32.2392 66.9814C32.4916 67.0349 32.4847 67.0234 32.1748 66.8813C31.6921 66.6597 31.4821 66.3526 31.4797 65.8638C31.4735 64.7177 32.7662 64.0742 33.9683 64.6245C34.8488 65.0279 35.1985 65.5546 35.1985 66.478C35.1985 67.8999 34.0057 68.9713 32.6179 68.7962C31.8757 68.7024 30.9682 68.2209 30.482 67.663C29.2577 66.2584 29.7346 64.0419 31.4438 63.1915C32.7451 62.5443 34.475 62.7037 35.8161 63.5948C37.3572 64.619 38.0125 65.5549 39.3398 68.6267C39.7721 69.6269 40.3282 70.7528 40.5755 71.1287C41.8329 73.0385 43.3394 73.9751 45.154 73.9751C46.1548 73.9751 46.9077 73.7896 47.8549 73.3098C48.5587 72.953 49.5564 72.2752 49.4845 72.2026C49.4641 72.1821 49.1722 72.2742 48.8357 72.4072C46.8544 73.1913 44.8403 73.1375 43.6707 72.2686C42.9341 71.7218 42.3399 70.6323 42.0346 69.2698C41.9816 69.0339 41.8074 67.9923 41.6469 66.955C41.2402 64.3258 40.8497 63.1439 39.9392 61.7876C39.0075 60.4 37.2164 59.2355 35.214 58.7155C33.9649 58.391 31.7177 58.3027 30.3682 58.5254ZM25.9844 38.1975C26.2545 37.1844 27.1278 36.2183 28.0262 35.9382C28.5975 35.7604 29.7782 35.874 30.3336 36.1602C31.4092 36.7154 32.1908 37.9796 32.0213 38.8923C31.8141 40.005 30.0359 40.8954 27.9899 40.91C26.9448 40.9173 26.5592 40.7749 26.1601 40.2343C25.9128 39.8994 25.8195 38.8155 25.9844 38.1975ZM30.0587 36.557C30.5954 36.8895 30.7331 37.381 30.418 37.8358C30.2005 38.1492 29.5278 38.4469 29.0361 38.4469C28.2974 38.4469 27.4916 37.9147 27.4916 37.4272C27.4916 36.4479 29.0371 35.9237 30.0587 36.557ZM190.422 39.3613C188.753 33.7847 191.505 29.1586 197.378 27.6723C199.062 27.2457 206.689 27.4382 207.996 27.9402C208.476 28.1243 208.684 28.8306 208.689 30.2821C208.692 31.425 208.816 32.8136 208.964 33.3671C209.189 34.2068 209.058 34.3718 208.176 34.3582C207.379 34.3457 206.897 33.8764 206.223 32.4562C205.148 30.1876 203.846 29.4664 200.812 29.458C196.939 29.4466 194.104 32.0664 194.566 35.2316C194.866 37.2914 196.915 39.3182 201.513 42.1044C205.887 44.7548 208.44 46.9345 209.457 48.8872C212.178 54.1081 209.855 59.6952 203.794 62.5102C200.683 63.9551 195.469 64.1045 191.803 62.8538L189.455 62.0527V58.2847C189.455 54.8721 189.536 54.516 190.311 54.516C190.958 54.516 191.238 54.9461 191.465 56.2933C192.031 59.6434 194.565 61.6771 198.175 61.6771C201.711 61.6771 204.182 59.7365 205.129 56.2176C205.533 54.7185 205.463 54.1658 204.663 52.5121C203.704 50.5294 202.054 49.2138 196.447 45.9648C193.337 44.1618 191.137 41.7511 190.422 39.3613ZM80.5227 29.8985C79.7577 29.8985 79.4593 29.6474 79.4593 29.0033C79.4593 28.1507 79.7577 28.1083 85.7521 28.1083C91.3158 28.1083 92.0279 28.1924 91.9003 28.8337C91.8204 29.2332 91.0516 29.7867 90.1908 30.0646L88.6256 30.5697L88.4921 41.9835C88.4025 49.5994 88.5284 53.9928 88.8698 55.1872C89.8848 58.7394 92.981 60.7822 97.3496 60.7822C100.391 60.7822 102.167 60.0679 104.399 57.9466C106.8 55.6662 107.183 53.4995 107.175 42.2378C107.168 31.1294 106.976 30.2126 104.601 29.9823C103.52 29.877 103.158 29.6244 103.158 28.9751C103.158 28.1657 103.514 28.1083 108.523 28.1083C113.591 28.1083 113.889 28.158 113.889 29.0033C113.889 29.5549 113.589 29.9013 113.106 29.9051C111.036 29.9235 110.998 30.1216 110.719 42.3021C110.43 54.9513 110.16 56.449 107.608 59.5475C106.872 60.4414 105.117 61.7393 103.708 62.432C101.412 63.5608 100.681 63.6904 96.6742 63.6831C92.9803 63.6754 91.8142 63.4962 89.9671 62.6516C87.271 61.4186 85.5176 59.823 84.2249 57.4252C83.3226 55.7514 83.2455 54.8457 83.0366 43.5052C82.7973 30.5242 82.6814 29.8985 80.5227 29.8985ZM122.364 29.8985C121.341 29.8985 121.043 29.6963 121.043 29.0033C121.043 28.1643 121.329 28.1104 125.626 28.1452L130.21 28.1816L132.403 30.7184C133.608 32.1136 137.538 36.4781 141.135 40.4167C144.732 44.3556 148.862 48.9376 150.312 50.5993C151.763 52.2613 153.128 53.6207 153.346 53.6207C153.57 53.6207 153.682 48.9265 153.602 42.8392L153.461 32.0577L152.206 30.9783C151.516 30.3842 150.46 29.8985 149.859 29.8985C149.059 29.8985 148.766 29.6553 148.766 28.9908C148.766 28.1167 148.994 28.0875 154.914 28.2077C159.948 28.3095 161.062 28.4509 161.062 28.9852C161.062 29.366 160.44 29.7655 159.567 29.944C158.746 30.1125 157.84 30.4832 157.555 30.7678C157.188 31.1353 157.001 35.8865 156.91 47.1526L156.782 63.0199H155.486C154.37 63.0199 153.042 61.7588 145.942 53.9563C141.406 48.971 136.111 43.0462 134.176 40.7902C132.24 38.5337 130.506 36.6706 130.321 36.6501C129.802 36.5917 129.928 56.7505 130.459 58.664C130.873 60.1551 131.157 60.4119 132.916 60.8829C134.332 61.262 134.905 61.6465 134.905 62.2177C134.905 62.9511 134.365 63.0199 128.645 63.0199C122.822 63.0199 122.385 62.9615 122.385 62.1809C122.385 61.6094 122.806 61.2575 123.706 61.0771C126.436 60.5307 126.617 59.6632 126.771 46.4026C126.856 38.9756 126.731 33.7791 126.438 32.691C125.923 30.7778 124.641 29.8985 122.364 29.8985ZM169.249 29.8985C168.291 29.8985 167.993 29.6859 167.993 29.0033C167.993 28.1479 168.291 28.1083 174.7 28.1083C181.109 28.1083 181.407 28.1479 181.407 29.0033C181.407 29.6599 181.109 29.8985 180.289 29.8985C179.675 29.8985 178.761 30.3095 178.259 30.8115C177.373 31.6985 177.351 32.1393 177.477 45.8425C177.6 59.2195 177.652 59.9936 178.474 60.5949C178.952 60.9441 179.807 61.2297 180.375 61.2297C181.109 61.2297 181.407 61.4878 181.407 62.1249C181.407 62.9803 181.109 63.0199 174.7 63.0199C168.444 63.0199 167.993 62.9636 167.993 62.1823C167.993 61.5521 168.432 61.2738 169.764 61.0605C172.41 60.637 172.546 59.7698 172.381 44.2966C172.249 31.9052 172.192 31.1325 171.373 30.5332C170.895 30.1841 169.94 29.8985 169.249 29.8985ZM216.034 29.8985C215.423 29.8985 214.958 29.5581 214.813 29.0033C214.587 28.1379 214.799 28.1083 221.244 28.1083C227.611 28.1083 227.909 28.1479 227.909 29.0033C227.909 29.6911 227.611 29.8985 226.622 29.8985C223.808 29.8985 223.871 30.4106 228.131 42.1159C230.299 48.0743 232.405 53.7343 232.81 54.6935L233.545 56.4378L236.96 47.3083C240.981 36.5619 241.503 34.5743 240.82 32.6146C240.344 31.2486 238.494 29.8985 237.098 29.8985C236.704 29.8985 236.405 29.5136 236.405 29.0033C236.405 28.1465 236.704 28.1083 243.336 28.1083C249.968 28.1083 250.266 28.1465 250.266 29.0033C250.266 29.6404 249.968 29.8985 249.234 29.8985C247.354 29.8985 246.525 30.9022 246.795 32.8515C247.073 34.8588 254.764 56.4292 255.086 56.1064C255.611 55.5815 264.128 32.361 264.128 31.4556C264.128 30.3714 263.37 29.8985 261.632 29.8985C260.849 29.8985 260.551 29.6519 260.551 29.0033C260.551 28.158 260.849 28.1083 265.916 28.1083C270.468 28.1083 271.282 28.2139 271.282 28.8032C271.282 29.1853 270.725 29.6925 270.043 29.9298C268.51 30.4648 268.125 31.0752 266.202 36.0206C265.358 38.1922 262.716 44.989 260.33 51.1235C258.806 55.0393 257.285 58.9558 255.764 62.8729C255.639 63.2002 254.9 63.4677 254.121 63.4677H252.706L249.494 55.0753C247.943 51.0267 246.397 46.9763 244.856 42.924C243.512 39.3807 243.4 39.2268 242.894 40.2381C242.599 40.8291 240.477 46.307 238.177 52.4117L233.998 63.5114L232.438 63.3777L230.878 63.2439L224.928 47.6133C221.603 38.8805 218.547 31.5223 218 30.9404C217.462 30.3672 216.578 29.8985 216.034 29.8985ZM305.441 30.0882C305.366 29.9183 305.366 29.3072 305.366 29.3072C305.366 29.3072 305.349 29.087 305.441 28.9692C305.533 28.8521 305.566 28.849 305.894 28.8177L305.898 28.8174C307.105 28.7021 309.527 28.5079 311.548 28.4193C311.734 28.4113 311.939 28.4019 312.163 28.3915H312.172C314.397 28.2897 318.378 28.1542 321.114 28.2914C326.364 28.5551 330.098 31.104 331.37 35.3167C332.643 39.5291 331.97 43.4833 330.235 46.0003C328.501 48.5172 325.584 50.6844 320.736 50.5433C316.734 50.427 315.663 49.6741 314.808 49.0728C314.627 48.9456 314.456 48.8251 314.268 48.7191V54.0911C314.311 57.7549 314.341 59.5145 314.624 60.1659C315.004 61.0428 315.864 61.583 317.54 61.9971C317.54 61.9971 318.298 62.1757 318.494 62.366C318.689 62.5564 318.689 62.9792 318.689 62.9792C318.689 62.9792 318.729 63.3746 318.572 63.5761C318.415 63.7776 318.112 63.7373 318.112 63.7373L310.69 63.6772L306.215 63.6653C306.215 63.6653 305.746 63.7557 305.57 63.566C305.394 63.376 305.41 62.9803 305.41 62.9803C305.41 62.9803 305.449 62.554 305.654 62.3633C305.86 62.1722 306.623 61.9589 306.623 61.9589C308.349 61.4721 309.098 60.9573 309.489 59.9873C309.804 59.2053 309.806 57.7552 309.803 45.9214C309.8 34.699 309.783 32.6055 309.527 32.0035C309.148 31.1124 308.199 30.8761 306.847 30.5399H306.847C306.579 30.4731 306.295 30.4026 305.997 30.3224C305.997 30.3224 305.516 30.2584 305.441 30.0882ZM327.05 39.2456C327.05 41.0858 327.018 43.9669 325.068 45.8085C323.118 47.6501 319.278 48.1542 316.672 47.6414C315.85 47.4799 315.38 47.2308 315.018 47.0387L314.982 47.0196L314.315 46.6666L314.276 40.201C314.252 36.1498 314.294 33.5105 314.389 33.1333C314.476 30.9967 317.612 30.7313 319.145 30.8105C325.702 30.8105 326.859 36.36 327.05 39.2456ZM284.852 28.3588C284.852 28.3588 284.531 28.4825 284.046 28.6673L282.295 29.5758L281.034 32.7372C280.341 34.4763 279.073 37.6683 278.216 39.831C276.998 42.9099 275.773 45.9859 274.541 49.0589C274.222 49.8534 273.259 52.2728 272.4 54.4354C271.542 56.5976 270.684 58.6557 270.494 59.0087C270.462 59.0674 270.429 59.1306 270.394 59.1973C269.914 60.1034 269.08 61.6771 267.608 61.9151C267.608 61.9151 266.799 61.995 266.499 62.2924C266.199 62.5901 266.228 62.8333 266.228 62.8333V63.2082C266.228 63.2082 266.255 63.3898 266.425 63.4802C266.595 63.5709 266.825 63.5761 266.825 63.5761L272.21 63.5146H277.776C277.776 63.5146 278.169 63.5608 278.321 63.4343C278.473 63.3079 278.515 63.1203 278.515 63.1203V62.7256C278.515 62.7256 278.437 62.2976 278.217 62.1305C277.997 61.9637 277.171 61.8494 277.171 61.8494C274.942 61.5552 274.559 59.8623 274.834 58.3399C274.969 57.5919 275.864 54.8252 276.873 52.0396L277.222 51.077L283.054 51.0321C286.261 51.0075 289.031 51.0242 289.208 51.0693C289.461 51.1336 289.815 51.8566 290.856 54.4315C292.433 58.333 292.558 58.8082 292.209 59.5381C292.188 59.5826 292.166 59.6316 292.141 59.6844C291.814 60.3903 291.178 61.7619 289.575 61.9016C289.575 61.9016 288.725 61.9311 288.513 62.1864C288.302 62.4421 288.348 62.736 288.348 62.736V63.1265C288.348 63.1265 288.404 63.3555 288.513 63.4461C288.622 63.5368 288.807 63.5139 288.807 63.5139L294.101 63.4757L301.542 63.4753C301.542 63.4753 301.834 63.5066 301.914 63.394C301.993 63.2811 302.009 63.1484 302.009 63.1484V62.6297C302.009 62.6297 301.977 62.3539 301.834 62.2017C301.691 62.0499 300.726 61.8894 300.726 61.8894C299.493 61.6896 298.879 60.6675 298.422 59.9064C298.306 59.7122 298.199 59.535 298.095 59.3929C297.883 59.1028 297.127 57.5131 296.534 55.9841C295.941 54.4552 294.604 51.0012 293.563 48.3092C292.521 45.6171 291.068 41.8616 290.333 39.964C289.154 36.9176 287.976 33.8708 286.799 30.8237L286.799 30.8223C286.147 29.1328 285.884 28.4512 285.812 28.3592C285.577 28.0593 284.852 28.3592 284.852 28.3592V28.3588ZM284.505 38.639C284.195 37.8784 283.889 37.1162 283.586 36.3524C283.095 35.109 282.909 34.8227 282.757 35.0795C282.713 35.1545 282.403 36.0043 282.07 36.968C279.912 43.2074 278.935 46.0169 278.739 46.5464C278.615 46.8792 278.515 47.2221 278.515 47.3086C278.515 47.408 280.27 47.466 283.278 47.466C285.897 47.466 288.04 47.4333 288.04 47.3934C288.04 47.3534 287.807 46.758 287.521 46.0694C287.235 45.3808 286.536 43.6622 285.967 42.25C285.398 40.8378 284.74 39.2129 284.505 38.639Z" fill="white"/>
</svg>
