<svg width="50" height="42" viewBox="0 0 50 42" fill="none" xmlns="http://www.w3.org/2000/svg">
<path d="M17.8477 27.4155C19.6782 27.4155 21.1622 25.9212 21.1622 24.0778C21.1622 22.2345 19.6782 20.7402 17.8477 20.7402C16.0172 20.7402 14.5332 22.2345 14.5332 24.0778C14.5332 25.9212 16.0172 27.4155 17.8477 27.4155Z" fill="#202F44" fill-opacity="0.8"/>
<path d="M49.7687 21.38C49.7687 17.2558 46.5446 13.9009 42.5815 13.9009C41.1909 13.9009 39.9 14.3248 38.8009 15.0344C35.3913 13.0406 31.0915 11.802 26.3957 11.6324L29.1021 3.80804L34.7084 5.15973C34.6897 5.34654 34.6539 5.52551 34.6539 5.71704C34.6539 8.82859 37.1686 11.3608 40.2601 11.3608C43.347 11.3608 45.8664 8.83016 45.8664 5.71704C45.8664 2.60392 43.3486 0.0732422 40.2601 0.0732422C38.2443 0.0732422 36.492 1.15647 35.5051 2.76562L27.4885 0.834645L23.7469 11.6481C19.0729 11.8899 14.8183 13.2023 11.4726 15.2495C11.5397 15.2024 11.5974 15.149 11.6644 15.1019C10.5388 14.3452 9.20268 13.8994 7.76526 13.8994C3.80064 13.8994 0.578125 17.2527 0.578125 21.3784C0.578125 24.1367 2.03582 26.5292 4.1826 27.8213C5.0619 35.5326 14.19 41.6191 25.3059 41.6191C36.4935 41.6191 45.6684 35.451 46.4448 27.669C48.4372 26.3456 49.7687 24.0237 49.7687 21.38ZM40.257 2.58823C41.9704 2.58823 43.3657 3.99329 43.3657 5.72018C43.3657 7.4455 41.9688 8.85057 40.257 8.85057C38.5374 8.85057 37.1452 7.4455 37.1452 5.72018C37.1452 3.99172 38.5421 2.58823 40.257 2.58823ZM7.7637 16.4128C8.32962 16.4128 8.86281 16.5368 9.36482 16.7315C6.65211 18.9215 4.8296 21.6688 4.28082 24.7019C3.53093 23.8196 3.0679 22.6579 3.0679 21.38C3.0679 18.642 5.17571 16.4128 7.7637 16.4128ZM25.3028 39.1104C14.9804 39.1104 6.58507 33.5027 6.58507 26.6093C6.58507 19.7143 14.9804 14.1082 25.3028 14.1082C35.6236 14.1082 44.0174 19.7159 44.0174 26.6093C44.0174 33.5012 35.6236 39.1104 25.3028 39.1104ZM46.264 24.4287C45.6513 21.4773 43.8334 18.8069 41.1628 16.6718C41.6134 16.518 42.0842 16.4128 42.5815 16.4128C45.168 16.4128 47.2742 18.6405 47.2742 21.38C47.2711 22.5323 46.8876 23.5857 46.264 24.4287Z" fill="#202F44" fill-opacity="0.8"/>
<path d="M32.0997 27.4155C33.9302 27.4155 35.4142 25.9212 35.4142 24.0778C35.4142 22.2345 33.9302 20.7402 32.0997 20.7402C30.2691 20.7402 28.7852 22.2345 28.7852 24.0778C28.7852 25.9212 30.2691 27.4155 32.0997 27.4155Z" fill="#202F44" fill-opacity="0.8"/>
<path d="M31.5741 31.5032C24.5522 36.1706 18.8867 31.7733 18.6341 31.5739C18.0962 31.139 17.3136 31.2254 16.8833 31.7638C16.453 32.307 16.5341 33.0951 17.0704 33.53C17.1172 33.5692 20.3537 36.1313 25.0542 36.1313C27.3912 36.1313 30.093 35.4955 32.946 33.6006C33.5213 33.2176 33.6803 32.4389 33.303 31.8628C32.9211 31.2819 32.1478 31.1202 31.5741 31.5032Z" fill="#202F44" fill-opacity="0.8"/>
</svg>
