<svg width="40" height="40" viewBox="0 0 40 40" fill="none" xmlns="http://www.w3.org/2000/svg">
<path fill-rule="evenodd" clip-rule="evenodd" d="M0.767578 8.03699C0.767578 5.94961 1.57375 3.94772 3.00876 2.47172C4.44376 0.995713 6.39004 0.166504 8.41944 0.166504H31.375C33.4044 0.166504 35.3507 0.995713 36.7857 2.47172C38.2207 3.94772 39.0269 5.94961 39.0269 8.03699V31.6484C39.0269 33.7358 38.2207 35.7377 36.7857 37.2137C35.3507 38.6897 33.4044 39.5189 31.375 39.5189H8.41944C6.39004 39.5189 4.44376 38.6897 3.00876 37.2137C1.57375 35.7377 0.767578 33.7358 0.767578 31.6484V8.03699ZM8.41944 4.10175C7.40474 4.10175 6.4316 4.51635 5.7141 5.25435C4.9966 5.99235 4.59351 6.9933 4.59351 8.03699V31.6484C4.59351 32.6921 4.9966 33.6931 5.7141 34.4311C6.4316 35.1691 7.40474 35.5837 8.41944 35.5837H31.375C32.3897 35.5837 33.3629 35.1691 34.0804 34.4311C34.7979 33.6931 35.201 32.6921 35.201 31.6484V8.03699C35.201 6.9933 34.7979 5.99235 34.0804 5.25435C33.3629 4.51635 32.3897 4.10175 31.375 4.10175H8.41944ZM19.8972 13.9399C18.3752 13.9399 16.9155 14.5618 15.8392 15.6688C14.763 16.7758 14.1583 18.2772 14.1583 19.8427C14.1583 21.4083 14.763 22.9097 15.8392 24.0167C16.9155 25.1237 18.3752 25.7456 19.8972 25.7456C21.4193 25.7456 22.879 25.1237 23.9552 24.0167C25.0315 22.9097 25.6361 21.4083 25.6361 19.8427C25.6361 18.2772 25.0315 16.7758 23.9552 15.6688C22.879 14.5618 21.4193 13.9399 19.8972 13.9399ZM10.3324 19.8427C10.3324 17.2335 11.3401 14.7311 13.1339 12.8861C14.9276 11.0411 17.3605 10.0046 19.8972 10.0046C22.434 10.0046 24.8668 11.0411 26.6606 12.8861C28.4543 14.7311 29.4621 17.2335 29.4621 19.8427C29.4621 22.4519 28.4543 24.9543 26.6606 26.7993C24.8668 28.6443 22.434 29.6808 19.8972 29.6808C17.3605 29.6808 14.9276 28.6443 13.1339 26.7993C11.3401 24.9543 10.3324 22.4519 10.3324 19.8427ZM30.4185 11.9722C31.1796 11.9722 31.9094 11.6613 32.4475 11.1078C32.9857 10.5543 33.288 9.80357 33.288 9.0208C33.288 8.23803 32.9857 7.48732 32.4475 6.93382C31.9094 6.38032 31.1796 6.06937 30.4185 6.06937C29.6575 6.06937 28.9277 6.38032 28.3895 6.93382C27.8514 7.48732 27.5491 8.23803 27.5491 9.0208C27.5491 9.80357 27.8514 10.5543 28.3895 11.1078C28.9277 11.6613 29.6575 11.9722 30.4185 11.9722Z" fill="#202F44" fill-opacity="0.8"/>
</svg>
