<svg width="46" height="38" viewBox="0 0 46 38" fill="none" xmlns="http://www.w3.org/2000/svg">
<path d="M45.0211 4.66786C43.373 5.41286 41.6025 5.91623 39.7411 6.14376C41.6617 4.97148 43.0985 3.12647 43.7836 0.952964C41.9792 2.04627 40.0043 2.81584 37.9449 3.22821C36.56 1.71983 34.7257 0.720055 32.7267 0.384099C30.7278 0.0481426 28.676 0.394806 26.8899 1.37027C25.1039 2.34573 23.6835 3.89541 22.8493 5.77872C22.0151 7.66203 21.8138 9.77359 22.2766 11.7856C18.6204 11.5983 15.0437 10.6289 11.7786 8.94031C8.51343 7.25171 5.63285 4.88162 3.32377 1.98387C2.53423 3.37319 2.08025 4.98398 2.08025 6.69948C2.07937 8.24382 2.45218 9.76451 3.16562 11.1266C3.87906 12.4887 4.91105 13.6501 6.17005 14.5078C4.70995 14.4604 3.28207 14.058 2.00524 13.334V13.4548C2.00509 15.6208 2.73957 17.7201 4.08406 19.3966C5.42854 21.0731 7.30021 22.2234 9.38148 22.6524C8.027 23.0264 6.60693 23.0814 5.22852 22.8135C5.81574 24.6772 6.95957 26.307 8.4999 27.4746C10.0402 28.6422 11.8999 29.2893 13.8187 29.3251C10.5615 31.9334 6.53893 33.3483 2.39804 33.3421C1.66452 33.3423 0.931623 33.2986 0.203125 33.2112C4.40637 35.968 9.29925 37.4311 14.2963 37.4254C31.2122 37.4254 40.4596 23.1336 40.4596 10.7386C40.4596 10.3359 40.4497 9.92913 40.432 9.52643C42.2307 8.19948 43.7834 6.55631 45.0172 4.67391L45.0211 4.66786Z" fill="#202F44" fill-opacity="0.8"/>
</svg>
