<svg width="1278" height="500" viewBox="0 0 1278 500" fill="none" xmlns="http://www.w3.org/2000/svg">
<path d="M634.242 200.507C630.384 213.136 626.525 225.063 622.666 236.99C611.441 272.771 600.215 308.202 588.99 343.983C587.937 347.491 586.183 348.544 582.675 348.544C572.853 348.193 563.03 348.193 553.559 348.544C548.297 348.894 545.841 347.491 544.438 341.878C536.721 312.411 528.652 282.944 520.233 252.074C517.777 261.195 515.673 268.562 513.919 276.279C507.955 298.73 501.992 321.532 496.379 343.983C495.677 347.141 494.274 348.193 490.766 348.193C479.541 347.842 468.666 347.842 457.44 348.193C454.634 348.193 452.88 347.491 452.178 344.334C437.796 297.678 423.413 251.022 409.03 204.366C407.978 200.858 408.328 200.156 412.187 200.156C425.167 200.507 437.796 200.507 450.775 200.156C453.932 200.156 454.985 201.208 455.686 204.366C462.351 231.377 469.017 258.739 475.682 285.751C476.033 287.154 476.033 288.908 477.436 290.311C483.049 269.614 488.661 249.619 494.274 229.272C496.73 220.853 499.185 212.083 501.29 203.664C501.992 201.209 503.044 200.507 505.5 200.507C516.024 200.507 526.197 200.858 536.721 200.507C540.579 200.507 540.579 202.612 541.281 205.067C548.648 231.728 555.664 258.389 563.03 285.049C563.381 286.452 564.083 288.206 564.784 289.96C566.538 287.856 566.538 285.4 567.24 283.295C573.905 256.985 580.22 230.675 586.885 204.366C587.235 202.261 587.235 200.156 590.393 200.156C604.425 200.507 619.158 200.507 634.242 200.507Z" fill="white"/>
<path d="M27.0117 336.265C31.9229 327.846 36.4833 320.128 41.0437 312.762C81.3855 245.759 121.727 178.406 162.069 111.403C164.876 106.492 164.876 106.492 168.033 111.053C190.484 143.677 212.935 176.301 235.737 208.574C238.192 212.082 237.491 213.837 234.334 215.941C181.714 254.88 129.094 294.169 76.4743 333.459C74.0187 335.213 71.2124 336.265 68.0552 336.265C55.0756 335.914 41.7453 336.265 27.0117 336.265Z" fill="white"/>
<path d="M757.023 214.539C757.023 210.33 757.023 206.822 757.023 203.314C756.672 200.507 757.725 199.455 760.882 199.455C773.16 199.455 785.087 199.806 797.365 199.455C800.873 199.455 801.575 200.858 801.575 204.015C801.575 216.995 801.575 229.974 801.575 242.954C801.575 276.28 801.575 309.605 801.575 342.931C801.575 346.79 800.522 348.193 796.664 348.193C785.087 347.842 773.511 347.842 761.935 348.193C758.427 348.193 757.023 347.141 757.374 343.633C757.725 340.826 757.374 338.02 757.374 334.863C757.023 334.863 756.322 334.863 756.322 334.863C747.903 347.492 735.625 352.754 721.242 354.157C676.691 357.665 640.208 325.041 637.051 280.489C634.244 239.446 660.554 205.068 698.791 196.999C709.315 194.894 720.189 194.544 730.713 196.649C740.536 198.753 745.447 202.261 757.023 214.539ZM757.023 274.175C757.023 253.478 740.185 236.639 719.137 236.639C698.44 236.639 681.251 253.828 681.251 274.526C681.251 294.872 698.089 311.359 718.786 311.71C739.834 311.359 757.023 294.872 757.023 274.175Z" fill="white"/>
<path d="M334.662 167.881C332.908 187.175 331.504 205.066 329.75 222.956C327.646 247.863 325.19 272.769 323.085 298.027C322.033 309.954 320.98 322.232 319.928 334.159C319.577 336.966 318.525 337.667 316.069 337.667C315.368 337.667 314.666 337.667 313.964 337.667C247.313 337.667 180.31 337.667 113.659 337.667C112.255 337.667 110.501 338.369 108.747 336.615C183.818 280.487 258.538 224.71 334.662 167.881Z" fill="white"/>
<path d="M1116.24 199.805C1125.71 199.805 1134.13 199.805 1142.55 199.805C1150.27 199.805 1157.98 199.805 1165.7 199.805C1168.86 199.805 1170.61 200.506 1172.37 203.313C1179.38 214.889 1186.75 226.466 1194.12 238.743C1197.98 232.78 1201.48 227.167 1204.64 221.554C1208.5 215.24 1212.36 208.926 1216.22 202.962C1217.27 201.559 1217.97 199.805 1220.43 199.805C1237.27 199.805 1254.1 199.805 1270.94 199.805C1270.94 202.26 1269.54 203.313 1268.49 204.716C1253.4 225.062 1238.67 245.058 1223.58 265.053C1221.13 268.211 1221.13 269.964 1223.58 273.472C1240.77 296.274 1257.96 319.427 1275.15 342.229C1276.2 343.632 1278.31 345.035 1277.61 347.14C1276.55 349.245 1274.45 348.193 1272.7 348.193C1257.96 348.193 1243.23 348.193 1228.5 348.193C1225.34 348.193 1223.23 347.14 1221.48 344.334C1212.71 330.653 1203.59 316.971 1194.47 303.29C1192.36 304.343 1192.01 306.097 1190.96 307.5C1182.89 319.778 1174.47 332.407 1166.4 344.685C1165 347.14 1163.25 348.193 1160.09 347.842C1145.01 347.842 1129.57 347.842 1114.49 347.842C1113.08 347.842 1111.33 348.894 1110.28 346.789C1109.57 345.035 1110.98 343.983 1112.03 342.58C1128.17 320.48 1144.65 298.379 1161.14 276.279C1166.4 268.912 1166.75 268.912 1161.14 261.545C1147.46 242.602 1133.43 223.659 1119.75 205.067C1119.05 203.663 1117.99 202.26 1116.24 199.805Z" fill="white"/>
<path d="M875.593 314.516C893.835 314.516 910.673 314.516 927.862 314.516C932.071 314.516 933.475 315.217 933.475 319.778C933.124 327.846 933.124 336.265 933.475 344.334C933.475 347.14 933.124 348.192 929.967 348.192C895.238 348.192 860.509 348.192 825.78 348.192C822.973 348.192 822.272 347.14 822.272 344.684C822.272 336.616 822.272 328.197 822.272 320.128C822.272 317.673 823.324 316.27 824.727 314.516C844.021 288.907 863.315 263.299 882.609 237.691C883.311 236.638 884.363 235.586 885.064 234.534C884.012 232.78 882.258 233.481 880.855 233.481C862.964 233.481 845.424 233.481 827.534 233.481C823.675 233.481 822.272 232.78 822.272 228.57C822.623 220.502 822.623 212.433 822.272 204.365C822.272 200.857 822.973 199.805 826.832 199.805C860.859 199.805 895.238 199.805 929.265 199.805C932.422 199.805 933.475 200.506 933.475 203.664C933.124 213.135 933.475 222.607 933.475 231.727C933.475 234.183 932.422 236.288 931.019 238.042C913.83 261.896 896.29 285.399 879.101 309.254C878.049 311.008 876.996 312.411 875.593 314.516Z" fill="white"/>
<path d="M166.278 392.042C117.166 392.042 68.0545 392.042 19.2935 392.042C15.084 392.042 13.3301 391.341 13.6809 386.43C14.0317 377.66 14.0317 368.89 13.6809 360.12C13.6809 356.612 14.7332 355.91 17.8904 355.91C34.0271 355.91 50.1639 355.91 65.9498 355.91C148.387 355.91 231.176 355.91 313.613 355.91C317.823 355.91 319.577 356.612 319.226 361.523C318.875 369.942 318.875 378.361 319.226 386.78C319.226 390.99 318.174 392.042 313.964 392.042C264.502 392.042 215.39 392.042 166.278 392.042Z" fill="white"/>
<path d="M1072.74 214.889C1081.51 202.611 1092.39 196.998 1105.72 195.595C1109.22 195.244 1110.98 195.595 1110.98 200.156C1110.63 212.083 1110.63 223.659 1110.98 235.586C1110.98 239.094 1109.93 240.146 1106.42 240.146C1102.91 240.146 1099.4 240.848 1095.89 241.9C1082.21 245.408 1076.25 253.126 1076.25 267.509C1076.25 293.117 1076.25 318.375 1076.25 343.983C1076.25 347.491 1075.55 348.894 1071.69 348.894C1059.41 348.543 1047.48 348.543 1035.21 348.894C1032.05 348.894 1031 348.193 1031 345.035C1031 298.379 1031 251.372 1031 204.716C1031 201.559 1032.05 200.506 1035.21 200.857C1046.43 200.857 1057.66 201.208 1068.88 200.857C1072.39 200.857 1073.09 202.26 1073.09 205.418C1072.39 207.172 1072.74 210.329 1072.74 214.889Z" fill="white"/>
<path d="M953.47 274.525C953.47 251.372 953.47 228.22 953.47 204.716C953.47 200.507 954.873 199.454 958.732 199.805C970.659 200.156 982.236 200.156 994.163 199.805C997.671 199.805 999.074 200.506 999.074 204.365C999.074 251.021 999.074 297.678 999.074 344.334C999.074 347.842 998.021 348.543 994.513 348.543C982.235 348.543 970.309 348.193 958.031 348.543C954.172 348.543 953.47 347.491 953.47 343.983C953.821 320.48 953.47 297.327 953.47 274.525Z" fill="white"/>
<path d="M0 164.725C2.80638 165.426 4.20962 166.829 5.96361 168.233C27.7131 182.966 49.4626 198.05 70.8612 212.784C73.6676 214.889 75.0708 215.941 72.6152 219.8C53.6721 251.021 35.0798 282.242 16.4875 313.112C15.786 314.165 15.0844 315.217 13.3304 317.673C9.12081 266.105 4.56037 215.59 0 164.725Z" fill="white"/>
<path d="M976.272 186.123C965.397 186.123 956.978 178.054 956.978 167.18C956.978 156.656 965.397 147.886 975.921 147.886C986.445 147.886 995.215 156.305 995.566 166.829C995.566 177.353 986.796 186.123 976.272 186.123Z" fill="white"/>
</svg>
