<svg width="1278" height="500" viewBox="0 0 1278 500" fill="none" xmlns="http://www.w3.org/2000/svg">
<g clip-path="url(#clip0)">
<path d="M939.155 249.071C939.155 173.738 939.155 98.3002 939.155 22.9671C939.155 4.47344 939.364 4.26448 958.276 4.36896C1012.61 4.36896 1066.94 4.36907 1121.17 4.47355C1148.85 4.57803 1175.81 8.75725 1200.68 21.2953C1240.17 41.1473 1265.15 71.8658 1274.03 116.063C1283.33 162.245 1276.95 204.456 1248.01 242.07C1225.13 271.953 1193.47 287.834 1156.8 293.268C1111.03 300.164 1064.85 295.88 1018.88 296.82C1002.05 297.133 1002.05 296.82 1002.05 313.329C1002.05 368.81 1001.74 424.186 1002.37 479.667C1002.47 490.743 998.92 494.086 988.263 493.25C976.561 492.415 964.754 492.415 953.052 493.25C941.976 494.086 938.842 489.593 938.947 479.145C939.365 437.978 939.155 396.811 939.155 355.645C939.155 320.12 939.155 284.595 939.155 249.071ZM1001.95 149.393C1001.95 174.469 1002.16 199.65 1001.85 224.726C1001.74 234.13 1005.71 237.786 1015.01 237.682C1051.89 237.368 1088.88 237.891 1125.76 237.16C1136.84 236.951 1148.54 235.488 1158.78 231.517C1188.45 219.815 1208.31 199.65 1212.9 166.319C1221.26 106.346 1186.99 68.7311 1132.87 64.6562C1093.17 61.7307 1052.94 64.0293 1013.03 63.7159C1004.56 63.6114 1001.64 66.8506 1001.74 75.3138C1002.26 100.077 1001.95 124.735 1001.95 149.393Z" fill="white"/>
<path d="M146.956 390.844C146.956 362.633 146.747 334.527 147.06 306.316C147.165 298.166 145.076 290.852 141.523 283.852C95.6546 195.249 49.5771 106.856 3.70852 18.2532C-2.35157 6.55093 -0.889246 4.3567 12.3802 4.14773C25.0228 4.04325 37.5609 4.56588 50.2035 4.04346C60.2339 3.62553 66.0853 7.70044 70.6826 16.4771C104.431 80.8393 138.493 144.993 172.45 209.146C174.122 212.385 173.913 217.4 179.242 217.4C184.466 217.4 184.466 212.176 186.137 209.146C219.677 145.62 253.216 82.0931 286.233 18.3577C291.458 8.32726 297.414 2.99862 309.429 4.04346C321.027 5.08831 332.834 4.14783 344.64 4.25232C353.104 4.3568 359.059 5.08832 352.999 16.7905C322.803 74.3613 293.339 132.454 263.561 190.339C246.948 222.624 230.335 255.014 213.304 287.091C210.065 293.151 209.124 299.107 209.124 305.585C209.229 363.26 208.915 420.831 209.438 478.506C209.542 489.686 206.617 494.179 194.914 493.238C183.212 492.298 171.406 492.403 159.703 493.238C149.568 493.97 146.851 489.477 146.956 480.491C146.956 450.609 146.851 420.726 146.956 390.844C146.851 390.844 146.851 390.844 146.956 390.844Z" fill="white"/>
<path d="M864.762 218.032C855.045 154.506 821.819 105.503 769.577 69.4558C690.587 14.915 582.446 12.1986 505.755 75.8295C446.408 125.042 424.883 188.881 439.407 263.692C445.885 297.023 464.274 325.233 487.888 349.787C489.35 351.25 490.395 353.444 492.067 354.28C495.306 355.951 497.082 358.355 495.202 361.385C492.485 365.564 489.351 361.489 487.679 360.131C432.616 317.188 405.763 261.498 411.928 191.389C416.943 134.445 442.855 87.5316 486.007 50.5442C513.173 27.2442 545.041 11.4672 580.147 4.25776C652.032 -10.6835 718.797 1.85465 778.353 45.4245C816.908 73.6353 844.283 110.623 859.12 156.491C864.449 172.895 869.464 189.195 869.255 206.644C868.21 210.718 867.792 214.898 864.762 218.032Z" fill="white"/>
<path d="M516.934 477.358C539.398 481.746 562.071 484.045 585.057 484.149C633.224 484.149 676.69 469.939 715.349 442.042C771.248 401.607 804.369 347.484 808.444 277.898C813.146 196.295 772.293 127.858 697.169 91.289C666.242 76.2432 632.075 73.2129 597.805 74.6757C591.744 72.4815 583.699 77.706 579.206 69.7653C599.998 63.9141 620.791 58.6899 642.628 59.3168C717.961 61.6155 788.593 107.379 821.401 178.742C834.984 208.207 842.715 239.447 841.252 271.628C837.909 342.678 809.698 401.711 753.799 447.789C723.917 472.447 690.587 489.373 653.495 496.583C612.955 504.524 571.788 504.524 531.875 489.478C525.188 486.97 518.501 483.836 511.5 482.269C512.127 479.239 514.322 478.089 516.934 477.358Z" fill="white"/>
<path d="M777.518 280.089C771.771 348.526 736.037 397.32 677.526 430.442C644.823 448.935 608.88 458.339 571.162 456.354C503.56 452.801 448.079 424.172 404.822 372.139C382.567 345.287 366.581 314.673 358.641 281.238C351.013 249.057 349.864 216.144 356.238 182.5C364.701 137.99 384.448 100.376 414.644 67.3591C416.211 65.6873 417.465 64.2246 419.66 63.8066C421.018 66.2098 422.376 68.6128 423.734 70.9115C412.032 90.2411 399.808 109.257 392.285 130.885C378.493 170.276 374.104 209.875 382.254 251.356C393.329 308.404 421.54 353.75 468.036 388.125C553.504 451.443 674.81 434.621 738.336 349.571C758.084 323.136 771.353 293.358 772.502 259.401C781.488 264.416 774.801 273.402 777.518 280.089Z" fill="white"/>
<path d="M579.206 69.666C583.699 77.7113 591.745 72.3826 597.805 74.5768C582.446 79.592 566.982 84.0847 550.892 84.9206C550.578 83.7713 550.16 82.5175 549.846 81.3682C559.668 77.5023 569.385 73.5319 579.206 69.666Z" fill="white"/>
<path d="M777.519 280.092C774.802 273.405 781.594 264.42 772.399 259.405C771.459 251.777 771.25 244.254 774.384 233.701C781.698 251.046 787.236 265.046 777.519 280.092Z" fill="white"/>
<path d="M864.762 218.026C867.792 214.892 868.315 210.713 869.255 206.742C874.061 209.668 874.061 214.578 873.748 219.071C873.33 223.564 875.524 231.505 868.21 230.669C862.046 230.042 863.404 223.042 864.762 218.026Z" fill="white"/>
<path d="M423.63 70.9244C422.272 68.5213 420.914 66.1182 419.555 63.8196C421.854 56.4012 428.645 53.0577 434.287 49.0873C438.362 46.1617 442.437 47.2066 438.362 53.6846C437.422 54.416 436.482 55.1473 435.541 55.8787C433.556 62.4612 429.273 67.163 423.63 70.9244Z" fill="white"/>
<path d="M516.935 477.359C514.323 478.09 512.128 479.344 511.397 482.165C505.546 482.165 503.665 475.582 497.918 474.956C505.232 471.821 511.815 469.94 516.935 477.359Z" fill="white"/>
<path d="M447.662 38.8352C450.274 32.9841 455.707 31.8347 462.394 29.0137C458.946 35.5962 457.274 41.2385 450.065 41.2385C449.229 40.5071 448.498 39.6711 447.662 38.8352Z" fill="white"/>
<path d="M450.063 41.2529C448.914 43.1336 447.347 45.0142 445.466 42.5066C444.317 40.9394 446.302 39.6855 447.66 38.8496C448.496 39.6855 449.227 40.5215 450.063 41.2529Z" fill="white"/>
<path d="M443.064 46.6806C442.75 47.203 442.437 47.8299 442.123 48.3523C441.81 48.0389 441.288 47.7256 441.288 47.5166C441.392 46.8897 441.81 46.3671 442.123 45.7402C442.332 46.0537 442.646 46.3671 443.064 46.6806Z" fill="white"/>
<path d="M435.437 55.8777C436.377 55.1463 437.317 54.415 438.257 53.6836C437.317 54.3105 436.377 55.0418 435.437 55.8777Z" fill="white"/>
</g>
<defs>
<clipPath id="clip0">
<rect width="1278" height="500" fill="white"/>
</clipPath>
</defs>
</svg>
