<svg width="1278" height="500" viewBox="0 0 1278 500" fill="none" xmlns="http://www.w3.org/2000/svg">
<g clip-path="url(#clip0)">
<g filter="url(#filter0_d)">
<path d="M226.342 44.7798C231.545 47.5438 237.561 47.2186 243.252 48.1942C325.685 62.6646 393.81 131.115 407.792 213.873C425.84 320.531 363.568 419.386 259.836 448.814C249.755 451.741 239.35 453.367 229.106 454.83C227.806 454.993 226.017 454.342 225.204 456.131C212.197 456.131 199.19 456.131 186.183 456.131C182.931 453.855 179.029 454.342 175.452 453.855C90.2552 442.311 18.2281 372.885 3.43244 288.013C2.4569 282.323 2.78209 276.47 0.0180664 271.104C0.0180664 257.284 0.0180664 243.464 0.0180664 229.644C2.45691 227.205 1.80655 223.791 2.13173 220.864C14.1633 134.204 82.1257 63.6402 168.623 48.0316C173.989 47.056 179.842 47.3812 184.882 44.6172C198.702 44.7798 212.522 44.7798 226.342 44.7798ZM203.417 130.627C199.027 130.627 194.475 129.977 190.248 130.79C142.284 138.106 108.79 164.283 93.1818 210.296C77.8984 255.333 87.8163 296.306 120.334 331.262C124.887 336.14 124.074 337.928 119.521 341.505C106.026 352.074 92.694 363.13 79.5243 374.023C72.0452 380.202 73.0207 389.957 80.9876 393.534C86.353 395.973 90.7429 394.022 94.8077 390.607C109.603 378.413 124.724 366.219 139.52 353.862C142.609 351.261 144.885 350.773 148.787 352.887C176.265 367.52 205.206 371.097 235.285 362.479C321.782 337.766 349.748 230.294 286.663 165.096C282.761 161.031 283.249 159.405 287.314 156.154C300.971 145.423 314.303 134.204 327.636 123.148C334.627 117.295 334.952 109.165 328.286 104.45C323.083 100.711 318.043 101.849 313.328 105.751C298.044 118.27 282.761 130.627 267.64 143.309C264.551 145.748 262.437 146.073 258.86 144.122C241.626 134.692 223.253 129.489 203.417 130.627Z" fill="white"/>
<path d="M985.147 238.1C980.432 253.871 975.392 269.48 971.002 285.251C969.539 290.291 967.425 291.592 962.385 291.592C945.963 291.267 945.963 291.43 941.085 275.984C933.606 252.246 926.127 228.507 918.323 204.769C917.022 200.705 916.372 198.266 922.225 198.754C928.566 199.404 936.696 196.965 941.085 199.892C945.638 202.981 945.313 211.598 947.101 217.777C950.353 229.158 953.442 240.702 956.694 252.083C959.621 251.758 959.295 249.644 959.621 248.343C964.173 233.385 968.726 218.264 972.953 203.144C973.766 200.054 975.067 198.916 978.481 198.754C996.854 198.266 996.854 198.266 1002.06 215.988C1005.31 226.882 1008.4 237.775 1011.65 248.506C1012.14 250.132 1012.14 252.245 1014.25 253.871C1018.97 236.962 1023.68 220.541 1027.91 203.956C1028.88 200.054 1030.51 198.428 1034.57 198.754C1039.78 199.079 1044.98 199.079 1050.35 198.754C1053.92 198.591 1054.57 199.729 1053.6 202.981C1044.49 231.271 1035.39 259.562 1026.61 287.853C1025.79 290.291 1024.66 291.43 1022.22 291.104C1021.73 291.104 1021.4 291.104 1020.92 291.104C1014.9 290.942 1007.42 292.893 1003.19 289.966C999.455 287.365 999.13 279.398 997.504 273.87C994.09 262.651 990.675 251.433 987.261 240.214C987.098 239.726 986.936 238.588 985.147 238.1Z" fill="white"/>
<path d="M1202.85 281.998C1202.85 296.306 1202.69 309.638 1203.02 322.97C1203.18 327.848 1201.55 329.149 1197 328.824C1192.61 328.498 1188.22 328.498 1183.83 328.824C1179.77 329.149 1178.95 327.36 1178.95 323.783C1179.12 283.786 1179.12 243.789 1178.95 203.792C1178.95 200.215 1179.93 198.752 1183.51 199.24C1186.27 199.565 1188.87 199.24 1191.64 199.24C1201.55 199.24 1201.55 199.24 1203.83 207.857C1229.36 191.923 1250.82 193.549 1266.26 212.572C1282.36 232.408 1281.87 261.674 1264.96 279.884C1248.54 297.606 1226.1 298.582 1202.85 281.998ZM1228.54 271.267C1243.34 271.267 1253.91 260.536 1254.07 245.415C1254.07 230.132 1243.34 219.238 1228.22 219.401C1213.59 219.564 1202.85 230.62 1203.02 245.578C1203.18 260.699 1213.75 271.267 1228.54 271.267Z" fill="white"/>
<path d="M1133.27 281.998C1114.41 300.37 1086.77 296.305 1071.81 279.559C1054.74 260.536 1054.9 229.481 1072.13 210.621C1087.42 193.874 1115.38 190.785 1132.78 208.019C1133.1 207.857 1133.75 207.694 1133.75 207.532C1134.73 199.077 1134.73 199.077 1143.35 199.077C1157.98 199.077 1157.98 199.077 1157.98 213.547C1157.98 237.611 1157.82 261.674 1158.14 285.737C1158.14 290.452 1156.84 292.241 1152.29 291.59C1149.85 291.265 1147.25 291.59 1144.81 291.59C1134.73 291.59 1134.73 291.59 1133.27 281.998ZM1109.04 219.401C1093.92 219.075 1083.19 229.319 1082.86 244.439C1082.38 259.723 1092.62 270.941 1107.25 271.267C1122.7 271.592 1133.59 261.186 1133.92 245.903C1134.24 230.782 1123.84 219.726 1109.04 219.401Z" fill="white"/>
<path d="M620.134 255.008C610.541 255.008 600.786 255.008 591.193 255.008C589.405 255.008 586.966 254.033 585.99 255.821C584.852 257.772 586.641 259.723 587.779 261.512C594.933 273.544 616.72 276.633 627.938 266.715C631.515 263.626 633.629 263.788 636.881 266.064C638.832 267.365 640.783 268.341 642.897 269.479C651.839 274.682 651.839 274.682 644.522 281.673C630.377 295.168 605.176 298.095 585.665 288.339C568.268 279.722 558.35 260.699 560.301 240.375C562.252 221.027 571.52 206.882 589.567 199.891C607.452 193.062 625.174 194.688 639.97 208.183C652.489 219.726 656.391 234.359 655.253 250.944C654.928 254.521 653.14 254.846 650.213 254.683C640.295 255.008 630.215 255.008 620.134 255.008ZM608.102 236.798C614.769 236.798 621.435 236.636 628.101 236.798C631.19 236.798 631.515 235.823 630.702 233.059C627.938 223.954 619.159 217.938 608.428 218.101C597.209 218.101 588.429 224.116 585.502 233.059C584.69 235.823 585.015 236.798 588.104 236.798C594.77 236.636 601.436 236.798 608.102 236.798Z" fill="white"/>
<path d="M778.984 294.03C751.506 294.03 729.719 272.243 730.044 245.09C730.37 217.613 751.506 196.639 778.821 196.639C806.136 196.639 827.598 217.613 827.761 244.928C828.086 272.405 806.624 294.03 778.984 294.03ZM803.86 245.09C803.86 230.457 792.804 219.564 778.496 219.726C764.513 219.889 753.945 230.782 753.782 245.253C753.62 259.886 764.513 270.942 778.821 270.942C793.292 270.779 804.023 259.723 803.86 245.09Z" fill="white"/>
<path d="M874.099 294.028C859.465 294.028 846.946 289.638 838.491 276.794C836.378 273.705 835.727 271.428 840.117 269.64C842.556 268.664 844.995 267.039 847.271 265.738C852.312 262.649 856.539 259.072 861.417 267.201C864.831 273.054 876.375 274.03 882.878 271.103C885.642 269.803 887.268 268.014 887.268 264.925C887.431 261.998 885.642 260.047 883.366 259.072C879.789 257.446 875.887 256.145 872.148 255.007C867.27 253.381 862.067 252.08 857.352 249.967C847.922 245.739 840.768 239.398 840.117 228.017C839.467 216.148 844.182 207.368 854.425 201.515C871.335 191.76 895.885 196.475 907.429 211.758C909.868 215.01 910.031 216.961 905.803 218.587C903.365 219.562 900.926 221.026 898.65 222.489C893.772 225.741 889.707 227.854 884.829 221.351C881.415 216.798 875.074 217.286 869.546 218.912C866.782 219.725 864.831 221.676 864.506 224.765C864.181 228.017 866.132 229.968 868.733 231.106C872.798 232.895 877.025 234.195 881.09 235.496C884.504 236.634 887.919 237.447 891.333 238.585C905.641 243.626 912.632 252.893 911.982 265.9C911.332 279.395 902.877 288.988 888.569 292.728C883.854 293.703 878.976 294.191 874.099 294.028Z" fill="white"/>
<path d="M518.19 221.513C508.273 221.513 498.192 221.188 488.274 221.675C483.396 221.838 482.096 220.212 482.583 215.66C483.234 210.294 480.307 203.14 483.884 200.051C486.973 197.45 493.802 199.238 499.005 199.238C514.939 199.238 530.872 199.401 546.806 199.076C550.871 199.076 552.009 200.051 552.172 204.278C552.334 211.27 551.034 217.123 546.481 222.814C536.4 235.821 526.97 249.478 517.378 262.973C516.239 264.599 515.101 266.388 513.15 269.152C524.531 269.152 534.937 269.152 545.343 269.152C553.798 269.152 553.798 269.152 553.798 277.281C553.798 291.589 553.798 291.589 539.652 291.589C521.605 291.589 503.557 291.426 485.51 291.589C481.77 291.589 480.632 290.776 480.47 286.874C480.145 279.395 481.77 273.379 486.486 267.2C496.729 254.193 505.996 240.536 515.589 227.041C516.727 225.578 518.516 224.44 518.19 221.513Z" fill="white"/>
<path d="M697.039 211.597C702.242 203.63 709.558 199.078 718.988 197.614C722.728 196.964 724.354 197.777 724.191 201.842C723.866 207.695 724.029 213.548 724.191 219.401C724.354 222.491 723.541 223.629 720.127 223.791C703.217 224.929 696.226 232.409 696.063 249.48C695.901 261.837 695.901 274.194 696.063 286.551C696.063 290.29 695.413 291.916 691.348 291.591C686.308 291.266 681.268 291.266 676.227 291.591C672.813 291.754 672 290.453 672 287.201C672.163 259.398 672.163 231.433 672 203.63C672 200.053 672.976 198.59 676.552 199.078C678.016 199.24 679.479 199.078 680.942 199.078C685.332 199.078 690.21 197.94 693.95 199.403C698.665 201.354 694.112 207.37 697.039 211.597Z" fill="white"/>
<path d="M144.072 175.014C145.21 176.802 144.56 178.916 144.56 180.867C144.56 202.166 144.723 223.628 144.56 244.927C144.56 250.618 145.048 255.983 150.901 258.91C156.917 261.837 161.632 258.91 166.184 255.008C197.239 229.481 228.456 203.955 259.511 178.428C262.112 176.315 263.901 174.201 267.803 177.615C309.263 213.71 307.637 287.363 264.388 321.344C264.063 321.507 263.575 321.507 262.6 321.669C262.6 315.979 262.6 310.451 262.6 304.923C262.6 286.713 262.6 268.503 262.6 250.293C262.6 244.927 261.462 240.212 256.421 237.611C250.893 234.847 246.341 236.96 242.114 240.537C210.734 266.389 179.191 292.078 147.812 317.93C144.235 320.856 142.121 321.344 138.544 317.93C98.3845 281.022 99.6853 211.271 141.308 176.315C142.121 175.664 142.771 174.689 144.072 175.014Z" fill="white"/>
<path d="M240.163 271.268C240.163 284.112 240.163 295.331 240.163 306.549C240.163 315.167 240.163 323.784 240.163 332.401C240.163 334.515 240.488 336.628 237.886 337.604C212.848 347.197 188.134 346.221 162.77 334.677C188.622 313.541 213.823 292.892 240.163 271.268Z" fill="white"/>
<path d="M244.227 162.169C236.26 168.673 228.944 174.851 221.465 180.867C205.206 194.199 189.109 207.369 172.85 220.539C171.387 221.677 170.086 223.953 168.298 223.303C166.184 222.49 167.16 220.051 167.16 218.263C167.16 200.54 167.16 182.656 167.16 164.933C167.16 162.169 166.997 159.73 170.574 158.592C194.8 149.975 218.538 150.625 242.113 160.869C242.601 161.031 243.089 161.519 244.227 162.169Z" fill="white"/>
</g>
</g>
<defs>
<filter id="filter0_d" x="-3.98193" y="44.6172" width="1285.98" height="419.514" filterUnits="userSpaceOnUse" color-interpolation-filters="sRGB">
<feFlood flood-opacity="0" result="BackgroundImageFix"/>
<feColorMatrix in="SourceAlpha" type="matrix" values="0 0 0 0 0 0 0 0 0 0 0 0 0 0 0 0 0 0 127 0"/>
<feOffset dy="4"/>
<feGaussianBlur stdDeviation="2"/>
<feColorMatrix type="matrix" values="0 0 0 0 0 0 0 0 0 0 0 0 0 0 0 0 0 0 0.25 0"/>
<feBlend mode="normal" in2="BackgroundImageFix" result="effect1_dropShadow"/>
<feBlend mode="normal" in="SourceGraphic" in2="effect1_dropShadow" result="shape"/>
</filter>
<clipPath id="clip0">
<rect width="1278" height="500" fill="white"/>
</clipPath>
</defs>
</svg>
